%TF.GenerationSoftware,Altium Limited,Altium Designer,22.10.1 (41)*%
G04 Layer_Physical_Order=4*
G04 Layer_Color=16711680*
%FSLAX45Y45*%
%MOMM*%
%TF.SameCoordinates,E44625A2-F068-4864-A6FA-01B12190F87A*%
%TF.FilePolarity,Positive*%
%TF.FileFunction,Copper,L4,Bot,Signal*%
%TF.Part,Single*%
G01*
G75*
%TA.AperFunction,Conductor*%
%ADD10C,0.25000*%
%TA.AperFunction,SMDPad,CuDef*%
G04:AMPARAMS|DCode=11|XSize=0.7mm|YSize=0.9mm|CornerRadius=0.0875mm|HoleSize=0mm|Usage=FLASHONLY|Rotation=0.000|XOffset=0mm|YOffset=0mm|HoleType=Round|Shape=RoundedRectangle|*
%AMROUNDEDRECTD11*
21,1,0.70000,0.72500,0,0,0.0*
21,1,0.52500,0.90000,0,0,0.0*
1,1,0.17500,0.26250,-0.36250*
1,1,0.17500,-0.26250,-0.36250*
1,1,0.17500,-0.26250,0.36250*
1,1,0.17500,0.26250,0.36250*
%
%ADD11ROUNDEDRECTD11*%
%TA.AperFunction,Conductor*%
%ADD29C,0.30000*%
%TA.AperFunction,ComponentPad*%
%ADD33C,3.50000*%
%ADD34C,1.60000*%
%ADD35O,1.80000X1.00000*%
%ADD36O,2.10000X1.00000*%
%ADD37C,0.65000*%
%TA.AperFunction,ViaPad*%
%ADD38C,0.55000*%
%ADD39C,0.50000*%
%TA.AperFunction,SMDPad,CuDef*%
G04:AMPARAMS|DCode=40|XSize=2mm|YSize=4mm|CornerRadius=0.25mm|HoleSize=0mm|Usage=FLASHONLY|Rotation=0.000|XOffset=0mm|YOffset=0mm|HoleType=Round|Shape=RoundedRectangle|*
%AMROUNDEDRECTD40*
21,1,2.00000,3.50000,0,0,0.0*
21,1,1.50000,4.00000,0,0,0.0*
1,1,0.50000,0.75000,-1.75000*
1,1,0.50000,-0.75000,-1.75000*
1,1,0.50000,-0.75000,1.75000*
1,1,0.50000,0.75000,1.75000*
%
%ADD40ROUNDEDRECTD40*%
G36*
X5717993Y9974511D02*
X5753668Y9969815D01*
X5788429Y9960501D01*
X5821674Y9946730D01*
X5852838Y9928738D01*
X5881387Y9906832D01*
X5906833Y9881385D01*
X5928738Y9852838D01*
X5946730Y9821675D01*
X5960501Y9788428D01*
X5969815Y9753671D01*
X5974512Y9717993D01*
Y9700000D01*
X5974513Y7187500D01*
Y7170312D01*
X5967806Y7136597D01*
X5954651Y7104837D01*
X5935553Y7076254D01*
X5911246Y7051948D01*
X5882663Y7032850D01*
X5850904Y7019695D01*
X5817189Y7012988D01*
X5550000D01*
X5549377Y7012864D01*
X5548749Y7012958D01*
X5529146Y7011994D01*
X5527314Y7011535D01*
X5525424D01*
X5486970Y7003886D01*
X5484651Y7002926D01*
X5482189Y7002436D01*
X5445967Y6987432D01*
X5443880Y6986038D01*
X5441560Y6985077D01*
X5408960Y6963295D01*
X5407186Y6961520D01*
X5405098Y6960125D01*
X5377375Y6932401D01*
X5375980Y6930314D01*
X5374205Y6928539D01*
X5352423Y6895940D01*
X5351462Y6893621D01*
X5350067Y6891533D01*
X5335063Y6855311D01*
X5334574Y6852849D01*
X5333613Y6850529D01*
X5325964Y6812076D01*
Y6810186D01*
X5325505Y6808353D01*
X5324542Y6788750D01*
X5324635Y6788123D01*
X5324511Y6787500D01*
Y5212500D01*
X5324635Y5211877D01*
X5324542Y5211249D01*
X5325505Y5191646D01*
X5325964Y5189814D01*
Y5187924D01*
X5333613Y5149471D01*
X5334574Y5147151D01*
X5335063Y5144689D01*
X5350067Y5108467D01*
X5351462Y5106379D01*
X5352423Y5104060D01*
X5374205Y5071461D01*
X5375980Y5069686D01*
X5377375Y5067598D01*
X5405098Y5039875D01*
X5407186Y5038480D01*
X5408960Y5036705D01*
X5441559Y5014923D01*
X5443879Y5013963D01*
X5445966Y5012568D01*
X5482188Y4997564D01*
X5484650Y4997074D01*
X5486970Y4996113D01*
X5525424Y4988464D01*
X5527314D01*
X5529146Y4988006D01*
X5548749Y4987043D01*
X5549377Y4987136D01*
X5550000Y4987012D01*
X5800000Y4987012D01*
D01*
X5817188Y4987011D01*
X5850903Y4980305D01*
X5882663Y4967149D01*
X5911245Y4948052D01*
X5935551Y4923745D01*
X5954650Y4895161D01*
X5967805Y4863403D01*
X5974511Y4829687D01*
X5974511Y4812500D01*
D01*
Y4812500D01*
X5974512Y300000D01*
Y282007D01*
X5969815Y246331D01*
X5960501Y211572D01*
X5946730Y178325D01*
X5928738Y147163D01*
X5906831Y118613D01*
X5881386Y93168D01*
X5852838Y71262D01*
X5821674Y53270D01*
X5788429Y39499D01*
X5753669Y30185D01*
X5717992Y25488D01*
X282008D01*
X246329Y30185D01*
X211572Y39499D01*
X178325Y53270D01*
X147163Y71261D01*
X118613Y93168D01*
X93168Y118613D01*
X71262Y147162D01*
X53270Y178326D01*
X39499Y211571D01*
X30185Y246331D01*
X25488Y282008D01*
Y300000D01*
Y9700000D01*
Y9717991D01*
X30185Y9753671D01*
X39499Y9788427D01*
X53270Y9821675D01*
X71261Y9852837D01*
X93168Y9881386D01*
X118613Y9906832D01*
X147162Y9928738D01*
X178326Y9946730D01*
X211571Y9960501D01*
X246329Y9969814D01*
X282007Y9974512D01*
X5700000D01*
X5717993Y9974511D01*
D02*
G37*
%LPC*%
G36*
X2950000Y9623284D02*
X2650001Y9623283D01*
X2640055Y9623283D01*
X2640055D01*
X2640054D01*
X2635916Y9622460D01*
X2624448Y9620179D01*
X2624447Y9620178D01*
X2606070Y9612567D01*
X2606070D01*
X2606070D01*
X2606070Y9612566D01*
X2599409Y9608116D01*
X2592839Y9603726D01*
X2578774Y9589661D01*
X2578773Y9589661D01*
X2578773Y9589661D01*
X2576574Y9586370D01*
X2569933Y9576430D01*
X2569932Y9576428D01*
X2562321Y9558053D01*
X2562321Y9558053D01*
X2559216Y9542445D01*
Y9532500D01*
Y8402500D01*
X2559217Y8402498D01*
X2559217Y7900002D01*
X2559217Y7890056D01*
Y7890056D01*
Y7890055D01*
X2560451Y7883848D01*
X2562320Y7874449D01*
X2562321Y7874448D01*
Y7874448D01*
X2569932Y7856071D01*
D01*
X2569933Y7856070D01*
X2575474Y7847776D01*
X2578773Y7842839D01*
X2578773Y7842839D01*
X2578773Y7842839D01*
X2592839Y7828773D01*
X2600770Y7823474D01*
X2606070Y7819933D01*
X2624447Y7812320D01*
X2624447D01*
X2624448Y7812320D01*
X2633846Y7810451D01*
X2640054Y7809216D01*
X2640055D01*
X2640055D01*
X2650001Y7809216D01*
D01*
X2949999Y7809217D01*
X2959944Y7809217D01*
X2959945D01*
X2959945D01*
X2963049Y7809834D01*
X2975552Y7812320D01*
X2975553Y7812321D01*
X2993928Y7819932D01*
X2993929Y7819933D01*
X3001861Y7825232D01*
X3007161Y7828773D01*
X3007161Y7828774D01*
X3021226Y7842839D01*
X3030067Y7856070D01*
Y7856070D01*
X3037679Y7874447D01*
X3040784Y7890054D01*
Y7900000D01*
Y9420000D01*
X3040782Y9420006D01*
X3040782Y9532497D01*
X3040782Y9542443D01*
Y9542443D01*
Y9542443D01*
X3039548Y9548650D01*
X3037679Y9558050D01*
X3037678Y9558050D01*
Y9558050D01*
X3030067Y9576428D01*
X3030067Y9576428D01*
Y9576429D01*
X3024744Y9584395D01*
X3021227Y9589660D01*
X3021227Y9589660D01*
X3021226Y9589660D01*
X3007161Y9603726D01*
X3007161D01*
Y9603726D01*
X3004529Y9605484D01*
X2993930Y9612566D01*
X2993929Y9612567D01*
X2975553Y9620179D01*
X2975553D01*
X2975552Y9620179D01*
X2965119Y9622254D01*
X2959946Y9623283D01*
X2959945D01*
X2959945D01*
X2950002Y9623283D01*
X2950000Y9623284D01*
D02*
G37*
G36*
X5719206Y9895000D02*
X5680795D01*
X5643121Y9887506D01*
X5607633Y9872806D01*
X5575695Y9851466D01*
X5548534Y9824305D01*
X5527194Y9792367D01*
X5512494Y9756879D01*
X5505000Y9719205D01*
Y9680794D01*
X5512494Y9643120D01*
X5527194Y9607633D01*
X5548534Y9575694D01*
X5575695Y9548533D01*
X5607633Y9527193D01*
X5643121Y9512494D01*
X5680795Y9505000D01*
X5719206D01*
X5756880Y9512494D01*
X5792367Y9527193D01*
X5824306Y9548533D01*
X5851467Y9575694D01*
X5872807Y9607633D01*
X5887506Y9643120D01*
X5895000Y9680794D01*
Y9719205D01*
X5887506Y9756879D01*
X5872807Y9792367D01*
X5851467Y9824305D01*
X5824306Y9851466D01*
X5792367Y9872806D01*
X5756880Y9887506D01*
X5719206Y9895000D01*
D02*
G37*
G36*
X319206D02*
X280794D01*
X243121Y9887506D01*
X207633Y9872806D01*
X175695Y9851466D01*
X148534Y9824305D01*
X127194Y9792367D01*
X112494Y9756879D01*
X105000Y9719205D01*
Y9680794D01*
X112494Y9643120D01*
X127194Y9607633D01*
X148534Y9575694D01*
X175695Y9548533D01*
X207633Y9527193D01*
X243121Y9512494D01*
X280794Y9505000D01*
X319206D01*
X356880Y9512494D01*
X392367Y9527193D01*
X424305Y9548533D01*
X451466Y9575694D01*
X472807Y9607633D01*
X487506Y9643120D01*
X495000Y9680794D01*
Y9719205D01*
X487506Y9756879D01*
X472807Y9792367D01*
X451466Y9824305D01*
X424305Y9851466D01*
X392367Y9872806D01*
X356880Y9887506D01*
X319206Y9895000D01*
D02*
G37*
G36*
X4934206Y9770000D02*
X4895794D01*
X4858121Y9762506D01*
X4822633Y9747807D01*
X4790695Y9726466D01*
X4763534Y9699305D01*
X4742193Y9667367D01*
X4727494Y9631880D01*
X4720000Y9594206D01*
Y9555794D01*
X4727494Y9518121D01*
X4742193Y9482633D01*
X4763534Y9450695D01*
X4790695Y9423534D01*
X4822633Y9402194D01*
X4858121Y9387494D01*
X4895794Y9380000D01*
X4934206D01*
X4971880Y9387494D01*
X5007367Y9402194D01*
X5039305Y9423534D01*
X5066466Y9450695D01*
X5087807Y9482633D01*
X5102506Y9518121D01*
X5110000Y9555794D01*
Y9594206D01*
X5102506Y9631880D01*
X5087807Y9667367D01*
X5066466Y9699305D01*
X5039305Y9726466D01*
X5007367Y9747807D01*
X4971880Y9762506D01*
X4934206Y9770000D01*
D02*
G37*
G36*
X1104206D02*
X1065794D01*
X1028121Y9762506D01*
X992633Y9747807D01*
X960695Y9726466D01*
X933534Y9699305D01*
X912194Y9667367D01*
X897494Y9631880D01*
X890000Y9594206D01*
Y9555794D01*
X897494Y9518121D01*
X912194Y9482633D01*
X933534Y9450695D01*
X960695Y9423534D01*
X992633Y9402194D01*
X1028121Y9387494D01*
X1065794Y9380000D01*
X1104206D01*
X1141880Y9387494D01*
X1177367Y9402194D01*
X1209305Y9423534D01*
X1236466Y9450695D01*
X1257807Y9482633D01*
X1272506Y9518121D01*
X1280000Y9555794D01*
Y9594206D01*
X1272506Y9631880D01*
X1257807Y9667367D01*
X1236466Y9699305D01*
X1209305Y9726466D01*
X1177367Y9747807D01*
X1141880Y9762506D01*
X1104206Y9770000D01*
D02*
G37*
G36*
X3275000Y9520881D02*
X3220000D01*
Y9320000D01*
X3320882D01*
Y9475000D01*
X3317389Y9492558D01*
X3307443Y9507443D01*
X3292558Y9517389D01*
X3275000Y9520881D01*
D02*
G37*
G36*
X3180000D02*
X3125000D01*
X3107442Y9517389D01*
X3092557Y9507443D01*
X3082611Y9492558D01*
X3079119Y9475000D01*
Y9320000D01*
X3180000D01*
Y9520881D01*
D02*
G37*
G36*
X3320882Y9280000D02*
X3220000D01*
Y9079118D01*
X3275000D01*
X3292558Y9082611D01*
X3307443Y9092557D01*
X3317389Y9107442D01*
X3320882Y9125000D01*
Y9280000D01*
D02*
G37*
G36*
X3180000D02*
X3079119D01*
Y9125000D01*
X3082611Y9107442D01*
X3092557Y9092557D01*
X3107442Y9082611D01*
X3125000Y9079118D01*
X3180000D01*
Y9280000D01*
D02*
G37*
G36*
X4949448Y8547500D02*
X4930552D01*
X4913094Y8540268D01*
X4899732Y8526906D01*
X4892500Y8509448D01*
Y8490552D01*
X4899732Y8473094D01*
X4913094Y8459732D01*
X4930552Y8452500D01*
X4949448D01*
X4966906Y8459732D01*
X4980268Y8473094D01*
X4987500Y8490552D01*
Y8509448D01*
X4980268Y8526906D01*
X4966906Y8540268D01*
X4949448Y8547500D01*
D02*
G37*
G36*
X4829448D02*
X4810552D01*
X4793094Y8540268D01*
X4779732Y8526906D01*
X4772500Y8509448D01*
Y8490552D01*
X4779732Y8473094D01*
X4793094Y8459732D01*
X4810552Y8452500D01*
X4829448D01*
X4846906Y8459732D01*
X4860268Y8473094D01*
X4867500Y8490552D01*
Y8509448D01*
X4860268Y8526906D01*
X4846906Y8540268D01*
X4829448Y8547500D01*
D02*
G37*
G36*
X3369448Y8345000D02*
X3350552D01*
X3333093Y8337768D01*
X3319731Y8324407D01*
X3312500Y8306948D01*
Y8288052D01*
X3319731Y8270594D01*
X3333093Y8257232D01*
X3350552Y8250000D01*
X3369448D01*
X3386906Y8257232D01*
X3400268Y8270594D01*
X3407500Y8288052D01*
Y8306948D01*
X3400268Y8324407D01*
X3386906Y8337768D01*
X3369448Y8345000D01*
D02*
G37*
G36*
X3406948Y8122500D02*
X3388052D01*
X3370593Y8115269D01*
X3357232Y8101907D01*
X3350000Y8084448D01*
Y8065552D01*
X3357232Y8048094D01*
X3370593Y8034732D01*
X3388052Y8027500D01*
X3406948D01*
X3424406Y8034732D01*
X3437768Y8048094D01*
X3445000Y8065552D01*
Y8084448D01*
X3437768Y8101907D01*
X3424406Y8115269D01*
X3406948Y8122500D01*
D02*
G37*
G36*
X3319448Y8047500D02*
X3300552D01*
X3283094Y8040268D01*
X3269732Y8026906D01*
X3262500Y8009448D01*
Y7990552D01*
X3269732Y7973094D01*
X3283094Y7959732D01*
X3300552Y7952500D01*
X3319448D01*
X3336906Y7959732D01*
X3350268Y7973094D01*
X3357500Y7990552D01*
Y8009448D01*
X3350268Y8026906D01*
X3336906Y8040268D01*
X3319448Y8047500D01*
D02*
G37*
G36*
X3214448Y8447500D02*
X3195552D01*
X3178094Y8440269D01*
X3164732Y8426907D01*
X3157500Y8409449D01*
Y8390552D01*
X3164732Y8373094D01*
X3169314Y8368511D01*
Y7881489D01*
X3164732Y7876907D01*
X3157500Y7859448D01*
Y7840552D01*
X3164732Y7823094D01*
X3178094Y7809732D01*
X3195552Y7802500D01*
X3214448D01*
X3231907Y7809732D01*
X3245269Y7823094D01*
X3252500Y7840552D01*
Y7859448D01*
X3245269Y7876907D01*
X3240686Y7881489D01*
Y8368511D01*
X3245269Y8373094D01*
X3252500Y8390552D01*
Y8409449D01*
X3245269Y8426907D01*
X3231907Y8440269D01*
X3214448Y8447500D01*
D02*
G37*
G36*
X4439448Y7835000D02*
X4420552D01*
X4403094Y7827769D01*
X4389732Y7814407D01*
X4382500Y7796949D01*
Y7778052D01*
X4389732Y7760594D01*
X4403094Y7747232D01*
X4420552Y7740001D01*
X4439448D01*
X4456907Y7747232D01*
X4470268Y7760594D01*
X4477500Y7778052D01*
Y7796949D01*
X4470268Y7814407D01*
X4456907Y7827769D01*
X4439448Y7835000D01*
D02*
G37*
G36*
X3009448Y7772500D02*
X2990552D01*
X2973094Y7765268D01*
X2959732Y7751907D01*
X2952500Y7734448D01*
Y7715552D01*
X2959732Y7698094D01*
X2973094Y7684732D01*
X2990552Y7677500D01*
X3009448D01*
X3026907Y7684732D01*
X3040268Y7698094D01*
X3047500Y7715552D01*
Y7734448D01*
X3040268Y7751907D01*
X3026907Y7765268D01*
X3009448Y7772500D01*
D02*
G37*
G36*
X4559448Y7715000D02*
X4540552D01*
X4523094Y7707769D01*
X4509732Y7694407D01*
X4502500Y7676949D01*
Y7658052D01*
X4509732Y7640594D01*
X4523094Y7627232D01*
X4540552Y7620001D01*
X4559448D01*
X4576907Y7627232D01*
X4590268Y7640594D01*
X4597500Y7658052D01*
Y7676949D01*
X4590268Y7694407D01*
X4576907Y7707769D01*
X4559448Y7715000D01*
D02*
G37*
G36*
X5801250Y7655563D02*
X5787499D01*
Y7602499D01*
X5830563D01*
Y7626250D01*
X5828332Y7637468D01*
X5821978Y7646978D01*
X5812468Y7653332D01*
X5801250Y7655563D01*
D02*
G37*
G36*
X5762500D02*
X5748750D01*
X5737533Y7653332D01*
X5728023Y7646978D01*
X5721668Y7637468D01*
X5719437Y7626250D01*
Y7602499D01*
X5762500D01*
Y7655563D01*
D02*
G37*
G36*
X3009448Y7652500D02*
X2990552D01*
X2973094Y7645268D01*
X2959732Y7631907D01*
X2952500Y7614448D01*
Y7595552D01*
X2959732Y7578094D01*
X2973094Y7564732D01*
X2990552Y7557500D01*
X3009448D01*
X3026907Y7564732D01*
X3040268Y7578094D01*
X3047500Y7595552D01*
Y7614448D01*
X3040268Y7631907D01*
X3026907Y7645268D01*
X3009448Y7652500D01*
D02*
G37*
G36*
X5830563Y7577499D02*
X5787499D01*
Y7524437D01*
X5801250D01*
X5812468Y7526668D01*
X5821978Y7533023D01*
X5828332Y7542533D01*
X5830563Y7553750D01*
Y7577499D01*
D02*
G37*
G36*
X5762500D02*
X5719437D01*
Y7553750D01*
X5721668Y7542533D01*
X5728023Y7533023D01*
X5737533Y7526668D01*
X5748750Y7524437D01*
X5762500D01*
Y7577499D01*
D02*
G37*
G36*
X5651250Y7655563D02*
X5598750D01*
X5587532Y7653332D01*
X5578022Y7646978D01*
X5571668Y7637468D01*
X5569437Y7626250D01*
Y7553750D01*
X5571668Y7542533D01*
X5578022Y7533023D01*
X5587532Y7526668D01*
X5598750Y7524437D01*
X5651250D01*
X5662467Y7526668D01*
X5671977Y7533023D01*
X5678332Y7542533D01*
X5680563Y7553750D01*
Y7626250D01*
X5678332Y7637468D01*
X5671977Y7646978D01*
X5662467Y7653332D01*
X5651250Y7655563D01*
D02*
G37*
G36*
X5147448Y7467500D02*
X5128552D01*
X5111093Y7460268D01*
X5097731Y7446906D01*
X5090500Y7429448D01*
Y7410552D01*
X5097731Y7393093D01*
X5111093Y7379731D01*
X5128552Y7372500D01*
X5147448D01*
X5164906Y7379731D01*
X5178268Y7393093D01*
X5185500Y7410552D01*
Y7429448D01*
X5178268Y7446906D01*
X5164906Y7460268D01*
X5147448Y7467500D01*
D02*
G37*
G36*
X4720448Y7347500D02*
X4701552D01*
X4684094Y7340268D01*
X4670732Y7326906D01*
X4663500Y7309448D01*
Y7290552D01*
X4670732Y7273093D01*
X4684094Y7259731D01*
X4701552Y7252500D01*
X4720448D01*
X4737906Y7259731D01*
X4751268Y7273093D01*
X4758500Y7290552D01*
Y7309448D01*
X4751268Y7326906D01*
X4737906Y7340268D01*
X4720448Y7347500D01*
D02*
G37*
G36*
X4515000Y7168137D02*
X3443235D01*
X3432658Y7166033D01*
X3430554Y7165614D01*
X3419804Y7158431D01*
X229069Y3967696D01*
X221886Y3956946D01*
X221467Y3954842D01*
X219363Y3944265D01*
Y2748999D01*
X221467Y2738421D01*
X221886Y2736318D01*
X229069Y2725568D01*
X591863Y2362773D01*
Y1524193D01*
X587532Y1523332D01*
X578022Y1516977D01*
X571668Y1507467D01*
X569437Y1496250D01*
Y1423750D01*
X571668Y1412532D01*
X578022Y1403022D01*
X587532Y1396668D01*
X598750Y1394437D01*
X651250D01*
X662468Y1396668D01*
X671978Y1403022D01*
X678332Y1412532D01*
X680563Y1423750D01*
Y1496250D01*
X678332Y1507467D01*
X671978Y1516977D01*
X662468Y1523332D01*
X658137Y1524193D01*
Y2376498D01*
X656033Y2387075D01*
X655614Y2389179D01*
X648431Y2399930D01*
X285636Y2762724D01*
Y3930539D01*
X3456960Y7101864D01*
X4501274D01*
X4567500Y7035637D01*
Y7025552D01*
X4574732Y7008093D01*
X4588093Y6994732D01*
X4605552Y6987500D01*
X4624448D01*
X4641906Y6994732D01*
X4655268Y7008093D01*
X4662500Y7025552D01*
Y7044448D01*
X4655268Y7061906D01*
X4641906Y7075268D01*
X4624448Y7082500D01*
X4614362D01*
X4538431Y7158431D01*
X4527681Y7165614D01*
X4525577Y7166033D01*
X4515000Y7168137D01*
D02*
G37*
G36*
X4370448Y7082500D02*
X4351552D01*
X4334093Y7075268D01*
X4326962Y7068136D01*
X3484656D01*
X3471976Y7065614D01*
X3461225Y7058431D01*
X329069Y3926274D01*
X321886Y3915524D01*
X321467Y3913420D01*
X319364Y3902843D01*
Y2790420D01*
X321467Y2779843D01*
X321886Y2777739D01*
X329069Y2766989D01*
X691863Y2404194D01*
Y2053430D01*
X693967Y2042853D01*
X694386Y2040749D01*
X701569Y2029999D01*
X1046864Y1684704D01*
Y1347500D01*
X1048967Y1336923D01*
X1049386Y1334819D01*
X1056569Y1324069D01*
X1191863Y1188775D01*
Y924193D01*
X1187532Y923332D01*
X1178022Y916978D01*
X1171668Y907468D01*
X1169437Y896250D01*
Y823750D01*
X1171668Y812533D01*
X1178022Y803023D01*
X1187532Y796668D01*
X1198750Y794437D01*
X1251250D01*
X1262467Y796668D01*
X1271977Y803023D01*
X1278332Y812533D01*
X1280563Y823750D01*
Y896250D01*
X1278332Y907468D01*
X1271977Y916978D01*
X1262467Y923332D01*
X1258136Y924193D01*
Y1202500D01*
X1256033Y1213077D01*
X1255614Y1215181D01*
X1248431Y1225931D01*
X1113137Y1361225D01*
Y1698430D01*
X1110614Y1711110D01*
X1103431Y1721861D01*
X758137Y2067155D01*
Y2417920D01*
X755614Y2430601D01*
X748431Y2441351D01*
X385637Y2804145D01*
Y3889118D01*
X3498382Y7001863D01*
X4326962D01*
X4334093Y6994732D01*
X4351552Y6987500D01*
X4370448D01*
X4387906Y6994732D01*
X4401268Y7008093D01*
X4408500Y7025552D01*
Y7044448D01*
X4401268Y7061906D01*
X4387906Y7075268D01*
X4370448Y7082500D01*
D02*
G37*
G36*
X1049448Y7037500D02*
X1030552D01*
X1013093Y7030268D01*
X999732Y7016906D01*
X992500Y6999448D01*
Y6980552D01*
X999732Y6963094D01*
X1013093Y6949732D01*
X1030552Y6942500D01*
X1049448D01*
X1066906Y6949732D01*
X1080268Y6963094D01*
X1087500Y6980552D01*
Y6999448D01*
X1080268Y7016906D01*
X1066906Y7030268D01*
X1049448Y7037500D01*
D02*
G37*
G36*
X4497448Y6922500D02*
X4478552D01*
X4461093Y6915268D01*
X4453962Y6908137D01*
X3466078D01*
X3455501Y6906033D01*
X3453397Y6905614D01*
X3442647Y6898431D01*
X429069Y3884853D01*
X421886Y3874103D01*
X421467Y3871999D01*
X419363Y3861422D01*
Y2831841D01*
X421467Y2821264D01*
X421886Y2819160D01*
X429069Y2808410D01*
X791863Y2445616D01*
Y2094851D01*
X793967Y2084274D01*
X794386Y2082170D01*
X801569Y2071420D01*
X1191863Y1681125D01*
Y1524193D01*
X1187532Y1523332D01*
X1178022Y1516977D01*
X1171668Y1507467D01*
X1169437Y1496250D01*
Y1423750D01*
X1171668Y1412532D01*
X1178022Y1403022D01*
X1187532Y1396668D01*
X1198750Y1394437D01*
X1251250D01*
X1262467Y1396668D01*
X1271977Y1403022D01*
X1278332Y1412532D01*
X1280563Y1423750D01*
Y1496250D01*
X1278332Y1507467D01*
X1271977Y1516977D01*
X1262467Y1523332D01*
X1258136Y1524193D01*
Y1694851D01*
X1255614Y1707532D01*
X1248431Y1718282D01*
X858136Y2108576D01*
Y2459341D01*
X855614Y2472022D01*
X848431Y2482772D01*
X485637Y2845567D01*
Y3847696D01*
X3479804Y6841863D01*
X4453962D01*
X4461093Y6834732D01*
X4478552Y6827500D01*
X4497448D01*
X4514906Y6834732D01*
X4528268Y6848093D01*
X4535500Y6865552D01*
Y6884448D01*
X4528268Y6901906D01*
X4514906Y6915268D01*
X4497448Y6922500D01*
D02*
G37*
G36*
X1049448Y6917500D02*
X1030552D01*
X1013093Y6910268D01*
X999732Y6896906D01*
X992500Y6879448D01*
Y6860552D01*
X999732Y6843094D01*
X1013093Y6829732D01*
X1030552Y6822500D01*
X1049448D01*
X1066906Y6829732D01*
X1080268Y6843094D01*
X1087500Y6860552D01*
Y6879448D01*
X1080268Y6896906D01*
X1066906Y6910268D01*
X1049448Y6917500D01*
D02*
G37*
G36*
X4243448Y6762500D02*
X4224552D01*
X4207093Y6755268D01*
X4199962Y6748137D01*
X3447499D01*
X3434819Y6745614D01*
X3431251Y6743230D01*
X3424068Y6738431D01*
X529069Y3843431D01*
X521886Y3832681D01*
X521467Y3830577D01*
X519363Y3820000D01*
Y2873263D01*
X521467Y2862686D01*
X521886Y2860582D01*
X529069Y2849832D01*
X891863Y2487037D01*
Y2136273D01*
X893967Y2125696D01*
X894386Y2123592D01*
X901569Y2112842D01*
X1577842Y1436569D01*
X1588592Y1429386D01*
X1601273Y1426863D01*
X1769437D01*
Y1423750D01*
X1771668Y1412532D01*
X1778022Y1403022D01*
X1787532Y1396668D01*
X1798750Y1394437D01*
X1851250D01*
X1862467Y1396668D01*
X1871977Y1403022D01*
X1878332Y1412532D01*
X1880563Y1423750D01*
Y1496250D01*
X1878332Y1507467D01*
X1871977Y1516977D01*
X1862467Y1523332D01*
X1851250Y1525563D01*
X1798750D01*
X1787532Y1523332D01*
X1778022Y1516977D01*
X1771668Y1507467D01*
X1769437Y1496250D01*
Y1493136D01*
X1614998D01*
X958137Y2149998D01*
Y2500763D01*
X955614Y2513444D01*
X948431Y2524194D01*
X585637Y2886988D01*
Y3806275D01*
X3461225Y6681863D01*
X4199962D01*
X4207093Y6674732D01*
X4224552Y6667500D01*
X4243448D01*
X4260906Y6674732D01*
X4274268Y6688094D01*
X4281500Y6705552D01*
Y6724448D01*
X4274268Y6741907D01*
X4260906Y6755268D01*
X4243448Y6762500D01*
D02*
G37*
G36*
X560165Y6850000D02*
X533835D01*
X508402Y6843185D01*
X485599Y6830020D01*
X466980Y6811401D01*
X453815Y6788598D01*
X447000Y6763165D01*
Y6736835D01*
X453815Y6711402D01*
X466980Y6688599D01*
X485599Y6669980D01*
X508402Y6656815D01*
X533835Y6650000D01*
X560165D01*
X585598Y6656815D01*
X608401Y6669980D01*
X627020Y6688599D01*
X640185Y6711402D01*
X647000Y6736835D01*
Y6763165D01*
X640185Y6788598D01*
X627020Y6811401D01*
X608401Y6830020D01*
X585598Y6843185D01*
X560165Y6850000D01*
D02*
G37*
G36*
X1199448Y6647500D02*
X1180552D01*
X1163094Y6640268D01*
X1149732Y6626906D01*
X1142500Y6609448D01*
Y6590552D01*
X1149732Y6573094D01*
X1163094Y6559732D01*
X1180552Y6552500D01*
X1199448D01*
X1216907Y6559732D01*
X1230269Y6573094D01*
X1237500Y6590552D01*
Y6609448D01*
X1230269Y6626906D01*
X1216907Y6640268D01*
X1199448Y6647500D01*
D02*
G37*
G36*
X1049448D02*
X1030552D01*
X1013093Y6640268D01*
X999732Y6626906D01*
X992500Y6609448D01*
Y6590552D01*
X999732Y6573094D01*
X1013093Y6559732D01*
X1030552Y6552500D01*
X1049448D01*
X1066906Y6559732D01*
X1080268Y6573094D01*
X1087500Y6590552D01*
Y6609448D01*
X1080268Y6626906D01*
X1066906Y6640268D01*
X1049448Y6647500D01*
D02*
G37*
G36*
X1699448Y6467500D02*
X1680552D01*
X1663093Y6460269D01*
X1649732Y6446907D01*
X1642500Y6429448D01*
Y6410552D01*
X1649732Y6393094D01*
X1663093Y6379732D01*
X1680552Y6372500D01*
X1699448D01*
X1716906Y6379732D01*
X1730268Y6393094D01*
X1737500Y6410552D01*
Y6429448D01*
X1730268Y6446907D01*
X1716906Y6460269D01*
X1699448Y6467500D01*
D02*
G37*
G36*
X735250Y6502603D02*
X625250D01*
X606976Y6500198D01*
X589948Y6493144D01*
X575325Y6481924D01*
X564105Y6467302D01*
X557052Y6450273D01*
X554646Y6432000D01*
X557052Y6413726D01*
X564105Y6396698D01*
X575325Y6382075D01*
X589948Y6370855D01*
X606976Y6363802D01*
X625250Y6361396D01*
X735250D01*
X753524Y6363802D01*
X770552Y6370855D01*
X785175Y6382075D01*
X796395Y6396698D01*
X803448Y6413726D01*
X805854Y6432000D01*
X803448Y6450273D01*
X796395Y6467302D01*
X785175Y6481924D01*
X770552Y6493144D01*
X753524Y6500198D01*
X735250Y6502603D01*
D02*
G37*
G36*
X302250D02*
X222250D01*
X203977Y6500198D01*
X186948Y6493144D01*
X172326Y6481924D01*
X161106Y6467302D01*
X154052Y6450273D01*
X151646Y6432000D01*
X154052Y6413726D01*
X161106Y6396698D01*
X172326Y6382075D01*
X186948Y6370855D01*
X203977Y6363802D01*
X222250Y6361396D01*
X302250D01*
X320524Y6363802D01*
X337552Y6370855D01*
X352175Y6382075D01*
X363395Y6396698D01*
X370448Y6413726D01*
X372854Y6432000D01*
X370448Y6450273D01*
X363395Y6467302D01*
X352175Y6481924D01*
X337552Y6493144D01*
X320524Y6500198D01*
X302250Y6502603D01*
D02*
G37*
G36*
X640693Y6341500D02*
X619807D01*
X600511Y6333507D01*
X585743Y6318738D01*
X577750Y6299443D01*
Y6278557D01*
X585743Y6259261D01*
X600511Y6244492D01*
X619807Y6236500D01*
X640693D01*
X659989Y6244492D01*
X674758Y6259261D01*
X682750Y6278557D01*
Y6299443D01*
X674758Y6318738D01*
X659989Y6333507D01*
X640693Y6341500D01*
D02*
G37*
G36*
X926948Y6422500D02*
X908052D01*
X890594Y6415268D01*
X877232Y6401906D01*
X870000Y6384448D01*
Y6374362D01*
X703775Y6208137D01*
X634038D01*
X626907Y6215268D01*
X609448Y6222500D01*
X590552D01*
X573094Y6215268D01*
X559732Y6201907D01*
X552500Y6184448D01*
Y6165552D01*
X559732Y6148094D01*
X573094Y6134732D01*
X590552Y6127500D01*
X609448D01*
X626907Y6134732D01*
X634038Y6141864D01*
X717500D01*
X728077Y6143967D01*
X730181Y6144386D01*
X740931Y6151569D01*
X916863Y6327500D01*
X926948D01*
X944407Y6334732D01*
X957768Y6348093D01*
X965000Y6365552D01*
Y6384448D01*
X957768Y6401906D01*
X944407Y6415268D01*
X926948Y6422500D01*
D02*
G37*
G36*
X1049448Y6287499D02*
X1030552D01*
X1013093Y6280268D01*
X999732Y6266906D01*
X992500Y6249448D01*
Y6230551D01*
X999732Y6213093D01*
X1013093Y6199731D01*
X1030552Y6192500D01*
X1049448D01*
X1066906Y6199731D01*
X1080268Y6213093D01*
X1087500Y6230551D01*
Y6249448D01*
X1080268Y6266906D01*
X1066906Y6280268D01*
X1049448Y6287499D01*
D02*
G37*
G36*
X306165Y6850000D02*
X279835D01*
X254402Y6843185D01*
X231599Y6830020D01*
X212980Y6811401D01*
X199815Y6788598D01*
X193000Y6763165D01*
Y6736835D01*
X199815Y6711402D01*
X212980Y6688599D01*
X231599Y6669980D01*
X254402Y6656815D01*
X279835Y6650000D01*
X306165D01*
X331598Y6656815D01*
X336495Y6659642D01*
X437069Y6559069D01*
X447819Y6551886D01*
X460500Y6549363D01*
X871509D01*
X1316803Y6104069D01*
X1323986Y6099270D01*
X1327553Y6096886D01*
X1340234Y6094363D01*
X1488462D01*
X1495593Y6087232D01*
X1513052Y6080000D01*
X1531948D01*
X1549406Y6087232D01*
X1562768Y6100594D01*
X1570000Y6118052D01*
Y6136948D01*
X1562768Y6154407D01*
X1549406Y6167768D01*
X1531948Y6175000D01*
X1513052D01*
X1495593Y6167768D01*
X1488462Y6160637D01*
X1353960D01*
X908665Y6605931D01*
X897915Y6613114D01*
X895811Y6613533D01*
X885234Y6615637D01*
X474226D01*
X383358Y6706504D01*
X386185Y6711402D01*
X393000Y6736835D01*
Y6763165D01*
X386185Y6788598D01*
X373020Y6811401D01*
X354401Y6830020D01*
X331598Y6843185D01*
X306165Y6850000D01*
D02*
G37*
G36*
X907248Y6122500D02*
X888352D01*
X870894Y6115268D01*
X857532Y6101907D01*
X850300Y6084448D01*
Y6065552D01*
X857532Y6048094D01*
X870894Y6034732D01*
X888352Y6027500D01*
X907248D01*
X924707Y6034732D01*
X938068Y6048094D01*
X945300Y6065552D01*
Y6084448D01*
X938068Y6101907D01*
X924707Y6115268D01*
X907248Y6122500D01*
D02*
G37*
G36*
X547148Y6122500D02*
X528252D01*
X510793Y6115268D01*
X497432Y6101906D01*
X490200Y6084448D01*
Y6065551D01*
X497432Y6048093D01*
X510793Y6034731D01*
X528252Y6027500D01*
X547148D01*
X553054Y6029946D01*
X855018Y5904163D01*
X857532Y5898094D01*
X870894Y5884732D01*
X888352Y5877500D01*
X907248D01*
X924707Y5884732D01*
X938068Y5898094D01*
X945300Y5915552D01*
Y5934448D01*
X938068Y5951907D01*
X924707Y5965268D01*
X907248Y5972500D01*
X888352D01*
X882446Y5970054D01*
X580482Y6095837D01*
X577968Y6101906D01*
X564606Y6115268D01*
X547148Y6122500D01*
D02*
G37*
G36*
Y5972499D02*
X528252D01*
X510793Y5965268D01*
X497432Y5951906D01*
X490200Y5934448D01*
Y5915551D01*
X497432Y5898093D01*
X510793Y5884731D01*
X528252Y5877500D01*
X547148D01*
X564606Y5884731D01*
X577968Y5898093D01*
X585200Y5915551D01*
Y5934448D01*
X577968Y5951906D01*
X564606Y5965268D01*
X547148Y5972499D01*
D02*
G37*
G36*
X1049448Y5807499D02*
X1030552D01*
X1013093Y5800268D01*
X999732Y5786906D01*
X992500Y5769448D01*
Y5750551D01*
X999732Y5733093D01*
X1013093Y5719731D01*
X1030552Y5712500D01*
X1049448D01*
X1066906Y5719731D01*
X1080268Y5733093D01*
X1087500Y5750551D01*
Y5769448D01*
X1080268Y5786906D01*
X1066906Y5800268D01*
X1049448Y5807499D01*
D02*
G37*
G36*
X1869448Y5775200D02*
X1850552D01*
X1833094Y5767968D01*
X1819732Y5754606D01*
X1812500Y5737148D01*
Y5718252D01*
X1819732Y5700794D01*
X1833094Y5687432D01*
X1850552Y5680200D01*
X1869448D01*
X1886907Y5687432D01*
X1900268Y5700794D01*
X1907500Y5718252D01*
Y5737148D01*
X1900268Y5754606D01*
X1886907Y5767968D01*
X1869448Y5775200D01*
D02*
G37*
G36*
X640693Y5763500D02*
X619807D01*
X600511Y5755507D01*
X585743Y5740739D01*
X577750Y5721443D01*
Y5700557D01*
X585743Y5681261D01*
X600511Y5666492D01*
X619807Y5658500D01*
X640693D01*
X659989Y5666492D01*
X674758Y5681261D01*
X682750Y5700557D01*
Y5721443D01*
X674758Y5740739D01*
X659989Y5755507D01*
X640693Y5763500D01*
D02*
G37*
G36*
X3669448Y5648200D02*
X3650552D01*
X3633094Y5640968D01*
X3625962Y5633837D01*
X3103558D01*
X3096426Y5640968D01*
X3078968Y5648200D01*
X3060072D01*
X3042613Y5640968D01*
X3029251Y5627606D01*
X3022020Y5610148D01*
Y5591252D01*
X3029251Y5573794D01*
X3042613Y5560432D01*
X3060072Y5553200D01*
X3078968D01*
X3096426Y5560432D01*
X3103558Y5567563D01*
X3625962D01*
X3633094Y5560432D01*
X3650552Y5553200D01*
X3669448D01*
X3686907Y5560432D01*
X3700268Y5573794D01*
X3707500Y5591252D01*
Y5610148D01*
X3700268Y5627606D01*
X3686907Y5640968D01*
X3669448Y5648200D01*
D02*
G37*
G36*
X609448Y5872500D02*
X590552D01*
X573094Y5865268D01*
X559732Y5851907D01*
X552500Y5834448D01*
Y5815552D01*
X559732Y5798094D01*
X573094Y5784732D01*
X590552Y5777500D01*
X609448D01*
X626907Y5784732D01*
X634038Y5791863D01*
X703775D01*
X870000Y5625637D01*
Y5615552D01*
X877232Y5598093D01*
X890594Y5584732D01*
X908052Y5577500D01*
X926948D01*
X944407Y5584732D01*
X957768Y5598093D01*
X965000Y5615552D01*
Y5634448D01*
X957768Y5651906D01*
X944407Y5665268D01*
X926948Y5672500D01*
X916863D01*
X740931Y5848431D01*
X730181Y5855614D01*
X728077Y5856033D01*
X717500Y5858137D01*
X634038D01*
X626907Y5865268D01*
X609448Y5872500D01*
D02*
G37*
G36*
X735250Y5638604D02*
X625250D01*
X606976Y5636198D01*
X589948Y5629144D01*
X575325Y5617924D01*
X564105Y5603302D01*
X557052Y5586273D01*
X554646Y5568000D01*
X557052Y5549726D01*
X564105Y5532698D01*
X575325Y5518075D01*
X589948Y5506855D01*
X606976Y5499802D01*
X625250Y5497396D01*
X735250D01*
X753524Y5499802D01*
X770552Y5506855D01*
X785175Y5518075D01*
X796395Y5532698D01*
X803448Y5549726D01*
X805854Y5568000D01*
X803448Y5586273D01*
X796395Y5603302D01*
X785175Y5617924D01*
X770552Y5629144D01*
X753524Y5636198D01*
X735250Y5638604D01*
D02*
G37*
G36*
X302250D02*
X222250D01*
X203977Y5636198D01*
X186948Y5629144D01*
X172326Y5617924D01*
X161106Y5603302D01*
X154052Y5586273D01*
X151646Y5568000D01*
X154052Y5549726D01*
X161106Y5532698D01*
X172326Y5518075D01*
X186948Y5506855D01*
X203977Y5499802D01*
X222250Y5497396D01*
X302250D01*
X320524Y5499802D01*
X337552Y5506855D01*
X352175Y5518075D01*
X363395Y5532698D01*
X370448Y5549726D01*
X372854Y5568000D01*
X370448Y5586273D01*
X363395Y5603302D01*
X352175Y5617924D01*
X337552Y5629144D01*
X320524Y5636198D01*
X302250Y5638604D01*
D02*
G37*
G36*
X3669448Y5457700D02*
X3650552D01*
X3633094Y5450468D01*
X3625962Y5443337D01*
X2529518D01*
X2522386Y5450468D01*
X2504928Y5457700D01*
X2486032D01*
X2468573Y5450468D01*
X2455211Y5437106D01*
X2447980Y5419648D01*
Y5400752D01*
X2455211Y5383294D01*
X2468573Y5369932D01*
X2486032Y5362700D01*
X2504928D01*
X2522386Y5369932D01*
X2529518Y5377063D01*
X3625962D01*
X3633094Y5369932D01*
X3650552Y5362700D01*
X3669448D01*
X3686907Y5369932D01*
X3700268Y5383294D01*
X3707500Y5400752D01*
Y5419648D01*
X3700268Y5437106D01*
X3686907Y5450468D01*
X3669448Y5457700D01*
D02*
G37*
G36*
X3643448Y8497500D02*
X3624552D01*
X3607094Y8490269D01*
X3593732Y8476907D01*
X3586500Y8459448D01*
Y8449362D01*
X3521569Y8384431D01*
X3514386Y8373681D01*
X3513967Y8371577D01*
X3511863Y8361000D01*
Y7958726D01*
X998138Y5445000D01*
X988052D01*
X970593Y5437768D01*
X957232Y5424406D01*
X950000Y5406948D01*
Y5388052D01*
X957232Y5370594D01*
X970593Y5357232D01*
X988052Y5350000D01*
X1006948D01*
X1024406Y5357232D01*
X1037768Y5370594D01*
X1045000Y5388052D01*
Y5398138D01*
X3568431Y7921569D01*
X3575614Y7932319D01*
X3576033Y7934423D01*
X3578137Y7945000D01*
Y8347275D01*
X3633362Y8402500D01*
X3643448D01*
X3660907Y8409732D01*
X3674268Y8423094D01*
X3681500Y8440552D01*
Y8459448D01*
X3674268Y8476907D01*
X3660907Y8490269D01*
X3643448Y8497500D01*
D02*
G37*
G36*
X3793448D02*
X3774552D01*
X3757094Y8490269D01*
X3743732Y8476907D01*
X3736500Y8459448D01*
Y8449363D01*
X3648848Y8361710D01*
X3641665Y8350960D01*
X3641246Y8348856D01*
X3639143Y8338279D01*
Y7906005D01*
X1098138Y5365000D01*
X1088052D01*
X1070593Y5357768D01*
X1057232Y5344406D01*
X1050000Y5326948D01*
Y5308052D01*
X1057232Y5290593D01*
X1070593Y5277232D01*
X1088052Y5270000D01*
X1106948D01*
X1124406Y5277232D01*
X1137768Y5290593D01*
X1145000Y5308052D01*
Y5318138D01*
X3695710Y7868848D01*
X3702893Y7879598D01*
X3703312Y7881702D01*
X3705416Y7892279D01*
Y8324554D01*
X3783363Y8402500D01*
X3793448D01*
X3810907Y8409732D01*
X3824268Y8423094D01*
X3831500Y8440552D01*
Y8459448D01*
X3824268Y8476907D01*
X3810907Y8490269D01*
X3793448Y8497500D01*
D02*
G37*
G36*
X3943448D02*
X3924552D01*
X3907094Y8490269D01*
X3893732Y8476907D01*
X3886500Y8459448D01*
Y8440552D01*
X3893732Y8423094D01*
X3900863Y8415962D01*
Y7847726D01*
X3809582Y7756444D01*
X3683307D01*
X3670627Y7753921D01*
X3659876Y7746738D01*
X1198138Y5285000D01*
X1188052D01*
X1170594Y5277768D01*
X1157232Y5264407D01*
X1150000Y5246948D01*
Y5228052D01*
X1157232Y5210594D01*
X1170594Y5197232D01*
X1188052Y5190000D01*
X1206948D01*
X1224406Y5197232D01*
X1237768Y5210594D01*
X1245000Y5228052D01*
Y5238138D01*
X3697033Y7690171D01*
X3823307D01*
X3833884Y7692274D01*
X3835988Y7692693D01*
X3846738Y7699876D01*
X3957431Y7810569D01*
X3964614Y7821319D01*
X3967137Y7834000D01*
Y8415962D01*
X3974268Y8423094D01*
X3981500Y8440552D01*
Y8459448D01*
X3974268Y8476907D01*
X3960906Y8490269D01*
X3943448Y8497500D01*
D02*
G37*
G36*
X3044448Y5172500D02*
X3025551D01*
X3008093Y5165268D01*
X3000961Y5158136D01*
X2702500D01*
X2689819Y5155614D01*
X2679069Y5148431D01*
X2588138Y5057500D01*
X2578052D01*
X2560594Y5050268D01*
X2547232Y5036906D01*
X2540000Y5019448D01*
Y5000552D01*
X2547232Y4983093D01*
X2560594Y4969731D01*
X2578052Y4962500D01*
X2596948D01*
X2614407Y4969731D01*
X2627768Y4983093D01*
X2635000Y5000552D01*
Y5010638D01*
X2716226Y5091863D01*
X3000961D01*
X3008093Y5084732D01*
X3025551Y5077500D01*
X3044448D01*
X3061906Y5084732D01*
X3075268Y5098093D01*
X3082500Y5115552D01*
Y5134448D01*
X3075268Y5151906D01*
X3061906Y5165268D01*
X3044448Y5172500D01*
D02*
G37*
G36*
X3109448Y5057500D02*
X3090552D01*
X3073093Y5050268D01*
X3065962Y5043136D01*
X2771538D01*
X2764406Y5050268D01*
X2746948Y5057500D01*
X2728052D01*
X2710594Y5050268D01*
X2697232Y5036906D01*
X2690000Y5019448D01*
Y5000552D01*
X2697232Y4983093D01*
X2710594Y4969731D01*
X2728052Y4962500D01*
X2746948D01*
X2764406Y4969731D01*
X2771538Y4976863D01*
X3065962D01*
X3073093Y4969731D01*
X3090552Y4962500D01*
X3109448D01*
X3126906Y4969731D01*
X3140268Y4983093D01*
X3147500Y5000552D01*
Y5019448D01*
X3140268Y5036906D01*
X3126906Y5050268D01*
X3109448Y5057500D01*
D02*
G37*
G36*
X5005448Y6762500D02*
X4986552D01*
X4969093Y6755268D01*
X4955732Y6741907D01*
X4948500Y6724448D01*
Y6714362D01*
X4551069Y6316931D01*
X4543886Y6306181D01*
X4543467Y6304077D01*
X4541364Y6293500D01*
Y4734038D01*
X4534232Y4726906D01*
X4527000Y4709448D01*
Y4690552D01*
X4534232Y4673094D01*
X4547594Y4659732D01*
X4565052Y4652500D01*
X4583948D01*
X4601407Y4659732D01*
X4614769Y4673094D01*
X4622000Y4690552D01*
Y4709448D01*
X4614769Y4726906D01*
X4607637Y4734038D01*
Y6279775D01*
X4995362Y6667500D01*
X5005448D01*
X5022906Y6674732D01*
X5036268Y6688094D01*
X5043500Y6705552D01*
Y6724448D01*
X5036268Y6741907D01*
X5022906Y6755268D01*
X5005448Y6762500D01*
D02*
G37*
G36*
X134448Y4647500D02*
X115552D01*
X98094Y4640268D01*
X84732Y4626906D01*
X77500Y4609448D01*
Y4590552D01*
X84732Y4573093D01*
X98094Y4559732D01*
X115552Y4552500D01*
X134448D01*
X151906Y4559732D01*
X165268Y4573093D01*
X172500Y4590552D01*
Y4609448D01*
X165268Y4626906D01*
X151906Y4640268D01*
X134448Y4647500D01*
D02*
G37*
G36*
X3174448Y4637500D02*
X3155552D01*
X3138094Y4630268D01*
X3124732Y4616906D01*
X3117500Y4599448D01*
Y4580552D01*
X3124732Y4563093D01*
X3138094Y4549732D01*
X3155552Y4542500D01*
X3174448D01*
X3191906Y4549732D01*
X3205268Y4563093D01*
X3212500Y4580552D01*
Y4599448D01*
X3205268Y4616906D01*
X3191906Y4630268D01*
X3174448Y4637500D01*
D02*
G37*
G36*
X2596948D02*
X2578052D01*
X2560594Y4630268D01*
X2547232Y4616906D01*
X2540000Y4599448D01*
Y4580552D01*
X2547232Y4563093D01*
X2560594Y4549732D01*
X2578052Y4542500D01*
X2588138D01*
X2679069Y4451569D01*
X2689819Y4444386D01*
X2702500Y4441863D01*
X3065962D01*
X3073093Y4434732D01*
X3090552Y4427500D01*
X3109448D01*
X3126906Y4434732D01*
X3140268Y4448093D01*
X3147500Y4465552D01*
Y4484448D01*
X3140268Y4501906D01*
X3126906Y4515268D01*
X3109448Y4522500D01*
X3090552D01*
X3073093Y4515268D01*
X3065962Y4508137D01*
X2716226D01*
X2635000Y4589362D01*
Y4599448D01*
X2627768Y4616906D01*
X2614407Y4630268D01*
X2596948Y4637500D01*
D02*
G37*
G36*
X5651250Y4475563D02*
X5637500D01*
Y4422500D01*
X5680563D01*
Y4446250D01*
X5678332Y4457468D01*
X5671977Y4466978D01*
X5662467Y4473332D01*
X5651250Y4475563D01*
D02*
G37*
G36*
X5612500D02*
X5598750D01*
X5587532Y4473332D01*
X5578022Y4466978D01*
X5571668Y4457468D01*
X5569437Y4446250D01*
Y4422500D01*
X5612500D01*
Y4475563D01*
D02*
G37*
G36*
X5801250D02*
X5748750D01*
X5737533Y4473332D01*
X5728023Y4466978D01*
X5721668Y4457468D01*
X5719437Y4446250D01*
Y4373750D01*
X5721668Y4362533D01*
X5728023Y4353023D01*
X5737533Y4346668D01*
X5748750Y4344437D01*
X5801250D01*
X5812468Y4346668D01*
X5821978Y4353023D01*
X5828332Y4362533D01*
X5830563Y4373750D01*
Y4446250D01*
X5828332Y4457468D01*
X5821978Y4466978D01*
X5812468Y4473332D01*
X5801250Y4475563D01*
D02*
G37*
G36*
X5680563Y4397500D02*
X5637500D01*
Y4344437D01*
X5651250D01*
X5662467Y4346668D01*
X5671977Y4353023D01*
X5678332Y4362533D01*
X5680563Y4373750D01*
Y4397500D01*
D02*
G37*
G36*
X5612500D02*
X5569437D01*
Y4373750D01*
X5571668Y4362533D01*
X5578022Y4353023D01*
X5587532Y4346668D01*
X5598750Y4344437D01*
X5612500D01*
Y4397500D01*
D02*
G37*
G36*
X134448Y4347500D02*
X115552D01*
X98094Y4340268D01*
X84732Y4326907D01*
X77500Y4309448D01*
Y4290552D01*
X84732Y4273094D01*
X98094Y4259732D01*
X115552Y4252500D01*
X134448D01*
X151906Y4259732D01*
X165268Y4273094D01*
X172500Y4290552D01*
Y4309448D01*
X165268Y4326907D01*
X151906Y4340268D01*
X134448Y4347500D01*
D02*
G37*
G36*
Y4047500D02*
X115552D01*
X98094Y4040268D01*
X84732Y4026906D01*
X77500Y4009448D01*
Y3990552D01*
X84732Y3973093D01*
X98094Y3959731D01*
X115552Y3952500D01*
X134448D01*
X151906Y3959731D01*
X165268Y3973093D01*
X172500Y3990552D01*
Y4009448D01*
X165268Y4026906D01*
X151906Y4040268D01*
X134448Y4047500D01*
D02*
G37*
G36*
X3222448Y5172500D02*
X3203552D01*
X3186093Y5165268D01*
X3172732Y5151906D01*
X3165500Y5134448D01*
Y5115552D01*
X3172732Y5098093D01*
X3179864Y5090961D01*
Y4969226D01*
X3098774Y4888137D01*
X1990686D01*
X1980109Y4886033D01*
X1978005Y4885614D01*
X1967255Y4878431D01*
X836324Y3747500D01*
X826238D01*
X808780Y3740268D01*
X795418Y3726906D01*
X788187Y3709448D01*
Y3690552D01*
X795418Y3673093D01*
X808780Y3659732D01*
X826238Y3652500D01*
X845135D01*
X862593Y3659732D01*
X875955Y3673093D01*
X883186Y3690552D01*
Y3700638D01*
X2004412Y4821863D01*
X3112500D01*
X3123077Y4823967D01*
X3125181Y4824386D01*
X3135931Y4831569D01*
X3236431Y4932069D01*
X3243614Y4942819D01*
X3244033Y4944923D01*
X3246137Y4955500D01*
Y5090962D01*
X3253268Y5098093D01*
X3260500Y5115552D01*
Y5134448D01*
X3253268Y5151906D01*
X3239906Y5165268D01*
X3222448Y5172500D01*
D02*
G37*
G36*
X3349448D02*
X3330552D01*
X3313093Y5165268D01*
X3299732Y5151906D01*
X3292500Y5134448D01*
Y5115552D01*
X3299732Y5098093D01*
X3306863Y5090962D01*
Y4916621D01*
X3151380Y4761137D01*
X2163687D01*
X2153109Y4759033D01*
X2151006Y4758614D01*
X2140255Y4751431D01*
X836324Y3447500D01*
X826238D01*
X808780Y3440268D01*
X795418Y3426907D01*
X788187Y3409448D01*
Y3390552D01*
X795418Y3373094D01*
X808780Y3359732D01*
X826238Y3352500D01*
X845135D01*
X862593Y3359732D01*
X875955Y3373094D01*
X883186Y3390552D01*
Y3400638D01*
X2177412Y4694864D01*
X3165105D01*
X3175682Y4696967D01*
X3177786Y4697386D01*
X3188536Y4704569D01*
X3363431Y4879464D01*
X3370614Y4890214D01*
X3371033Y4892318D01*
X3373137Y4902895D01*
Y5090962D01*
X3380268Y5098093D01*
X3387500Y5115552D01*
Y5134448D01*
X3380268Y5151906D01*
X3366906Y5165268D01*
X3349448Y5172500D01*
D02*
G37*
G36*
X2378165Y3125000D02*
X2377500D01*
Y3037500D01*
X2465000D01*
Y3038165D01*
X2458185Y3063598D01*
X2445020Y3086401D01*
X2426401Y3105020D01*
X2403598Y3118185D01*
X2378165Y3125000D01*
D02*
G37*
G36*
X2352500D02*
X2351835D01*
X2326402Y3118185D01*
X2303599Y3105020D01*
X2284980Y3086401D01*
X2271815Y3063598D01*
X2265000Y3038165D01*
Y3037500D01*
X2352500D01*
Y3125000D01*
D02*
G37*
G36*
X4456948Y6492500D02*
X4438052D01*
X4420594Y6485268D01*
X4407232Y6471907D01*
X4400000Y6454448D01*
Y6435552D01*
X4407232Y6418094D01*
X4414364Y6410962D01*
Y4689515D01*
X3865569Y4140721D01*
X3858386Y4129971D01*
X3857967Y4127867D01*
X3855864Y4117290D01*
Y3119649D01*
X3850402Y3118185D01*
X3827599Y3105020D01*
X3808980Y3086401D01*
X3795815Y3063598D01*
X3789000Y3038165D01*
Y3011835D01*
X3795815Y2986402D01*
X3808980Y2963599D01*
X3827599Y2944980D01*
X3850402Y2931815D01*
X3875835Y2925000D01*
X3902165D01*
X3927598Y2931815D01*
X3950401Y2944980D01*
X3969020Y2963599D01*
X3982185Y2986402D01*
X3989000Y3011835D01*
Y3038165D01*
X3982185Y3063598D01*
X3969020Y3086401D01*
X3950401Y3105020D01*
X3927598Y3118185D01*
X3922137Y3119649D01*
Y4103564D01*
X4470931Y4652359D01*
X4478114Y4663109D01*
X4480637Y4675790D01*
Y6410962D01*
X4487769Y6418094D01*
X4495000Y6435552D01*
Y6454448D01*
X4487769Y6471907D01*
X4474407Y6485268D01*
X4456948Y6492500D01*
D02*
G37*
G36*
X4329948Y6365000D02*
X4311052D01*
X4293593Y6357768D01*
X4280231Y6344406D01*
X4273000Y6326948D01*
Y6308052D01*
X4280231Y6290593D01*
X4287363Y6283462D01*
Y4742121D01*
X3738569Y4193326D01*
X3731386Y4182576D01*
X3730967Y4180472D01*
X3728864Y4169895D01*
Y3342225D01*
X3611569Y3224931D01*
X3604386Y3214181D01*
X3603967Y3212077D01*
X3601864Y3201500D01*
Y3119649D01*
X3596402Y3118185D01*
X3573599Y3105020D01*
X3554980Y3086401D01*
X3541815Y3063598D01*
X3535000Y3038165D01*
Y3011835D01*
X3541815Y2986402D01*
X3554980Y2963599D01*
X3573599Y2944980D01*
X3596402Y2931815D01*
X3621835Y2925000D01*
X3648165D01*
X3673598Y2931815D01*
X3696401Y2944980D01*
X3715020Y2963599D01*
X3728185Y2986402D01*
X3735000Y3011835D01*
Y3038165D01*
X3728185Y3063598D01*
X3715020Y3086401D01*
X3696401Y3105020D01*
X3673598Y3118185D01*
X3668137Y3119649D01*
Y3187774D01*
X3785431Y3305069D01*
X3792614Y3315819D01*
X3795137Y3328500D01*
Y4156170D01*
X4343931Y4704964D01*
X4351114Y4715714D01*
X4351533Y4717818D01*
X4353636Y4728395D01*
Y6283462D01*
X4360768Y6290593D01*
X4368000Y6308052D01*
Y6326948D01*
X4360768Y6344406D01*
X4347406Y6357768D01*
X4329948Y6365000D01*
D02*
G37*
G36*
X4202948Y6238000D02*
X4184052D01*
X4166593Y6230768D01*
X4153231Y6217406D01*
X4146000Y6199948D01*
Y6181052D01*
X4153231Y6163593D01*
X4160363Y6156462D01*
Y4794725D01*
X3611569Y4245931D01*
X3604386Y4235181D01*
X3603967Y4233077D01*
X3601864Y4222500D01*
Y3469225D01*
X3357569Y3224931D01*
X3350386Y3214181D01*
X3349967Y3212077D01*
X3347864Y3201500D01*
Y3119649D01*
X3342402Y3118185D01*
X3319599Y3105020D01*
X3300980Y3086401D01*
X3287815Y3063598D01*
X3281000Y3038165D01*
Y3011835D01*
X3287815Y2986402D01*
X3300980Y2963599D01*
X3319599Y2944980D01*
X3342402Y2931815D01*
X3367835Y2925000D01*
X3394165D01*
X3419598Y2931815D01*
X3442401Y2944980D01*
X3461020Y2963599D01*
X3474185Y2986402D01*
X3481000Y3011835D01*
Y3038165D01*
X3474185Y3063598D01*
X3461020Y3086401D01*
X3442401Y3105020D01*
X3419598Y3118185D01*
X3414137Y3119649D01*
Y3187774D01*
X3658431Y3432069D01*
X3665614Y3442819D01*
X3668137Y3455500D01*
Y4208775D01*
X4216931Y4757569D01*
X4224114Y4768319D01*
X4224533Y4770423D01*
X4226636Y4781000D01*
Y6156462D01*
X4233768Y6163593D01*
X4241000Y6181052D01*
Y6199948D01*
X4233768Y6217406D01*
X4220406Y6230768D01*
X4202948Y6238000D01*
D02*
G37*
G36*
X4075948Y6111000D02*
X4057052D01*
X4039594Y6103768D01*
X4026232Y6090406D01*
X4019000Y6072948D01*
Y6054052D01*
X4026232Y6036593D01*
X4033364Y6029462D01*
Y4847331D01*
X3484569Y4298536D01*
X3477386Y4287786D01*
X3476967Y4285682D01*
X3474864Y4275105D01*
Y3596225D01*
X3103569Y3224931D01*
X3096386Y3214181D01*
X3095967Y3212077D01*
X3093864Y3201500D01*
Y3119649D01*
X3088402Y3118185D01*
X3065599Y3105020D01*
X3046980Y3086401D01*
X3033815Y3063598D01*
X3027000Y3038165D01*
Y3011835D01*
X3033815Y2986402D01*
X3046980Y2963599D01*
X3065599Y2944980D01*
X3088402Y2931815D01*
X3113835Y2925000D01*
X3140165D01*
X3165598Y2931815D01*
X3188401Y2944980D01*
X3207020Y2963599D01*
X3220185Y2986402D01*
X3227000Y3011835D01*
Y3038165D01*
X3220185Y3063598D01*
X3207020Y3086401D01*
X3188401Y3105020D01*
X3165598Y3118185D01*
X3160137Y3119649D01*
Y3187774D01*
X3531431Y3559069D01*
X3538614Y3569819D01*
X3539033Y3571923D01*
X3541137Y3582500D01*
Y4261380D01*
X4089931Y4810174D01*
X4097114Y4820924D01*
X4099637Y4833605D01*
Y6029462D01*
X4106769Y6036593D01*
X4114000Y6054052D01*
Y6072948D01*
X4106769Y6090406D01*
X4093407Y6103768D01*
X4075948Y6111000D01*
D02*
G37*
G36*
X3948948Y5984000D02*
X3930052D01*
X3912593Y5976768D01*
X3899231Y5963406D01*
X3892000Y5945948D01*
Y5927052D01*
X3899231Y5909593D01*
X3906363Y5902462D01*
Y4899936D01*
X3357569Y4351141D01*
X3350386Y4340391D01*
X3349967Y4338287D01*
X3347864Y4327710D01*
Y3723225D01*
X2849569Y3224931D01*
X2842386Y3214181D01*
X2841967Y3212077D01*
X2839864Y3201500D01*
Y3119649D01*
X2834402Y3118185D01*
X2811599Y3105020D01*
X2792980Y3086401D01*
X2779815Y3063598D01*
X2773000Y3038165D01*
Y3011835D01*
X2779815Y2986402D01*
X2792980Y2963599D01*
X2811599Y2944980D01*
X2834402Y2931815D01*
X2859835Y2925000D01*
X2886165D01*
X2911598Y2931815D01*
X2934401Y2944980D01*
X2953020Y2963599D01*
X2966185Y2986402D01*
X2973000Y3011835D01*
Y3038165D01*
X2966185Y3063598D01*
X2953020Y3086401D01*
X2934401Y3105020D01*
X2911598Y3118185D01*
X2906137Y3119649D01*
Y3187774D01*
X3404431Y3686069D01*
X3411614Y3696819D01*
X3412033Y3698923D01*
X3414137Y3709500D01*
Y4313985D01*
X3962931Y4862779D01*
X3970114Y4873529D01*
X3970533Y4875633D01*
X3972636Y4886210D01*
Y5902462D01*
X3979768Y5909593D01*
X3987000Y5927052D01*
Y5945948D01*
X3979768Y5963406D01*
X3966406Y5976768D01*
X3948948Y5984000D01*
D02*
G37*
G36*
X3821948Y5857000D02*
X3803052D01*
X3785594Y5849768D01*
X3772232Y5836406D01*
X3765000Y5818948D01*
Y5800052D01*
X3772232Y5782593D01*
X3779364Y5775462D01*
Y4952541D01*
X3230569Y4403746D01*
X3223386Y4392996D01*
X3222967Y4390892D01*
X3220864Y4380315D01*
Y3850225D01*
X2595569Y3224931D01*
X2588386Y3214181D01*
X2587967Y3212077D01*
X2585864Y3201500D01*
Y3119649D01*
X2580402Y3118185D01*
X2557599Y3105020D01*
X2538980Y3086401D01*
X2525815Y3063598D01*
X2519000Y3038165D01*
Y3011835D01*
X2525815Y2986402D01*
X2538980Y2963599D01*
X2557599Y2944980D01*
X2580402Y2931815D01*
X2605835Y2925000D01*
X2632165D01*
X2657598Y2931815D01*
X2680401Y2944980D01*
X2699020Y2963599D01*
X2712185Y2986402D01*
X2719000Y3011835D01*
Y3038165D01*
X2712185Y3063598D01*
X2699020Y3086401D01*
X2680401Y3105020D01*
X2657598Y3118185D01*
X2652137Y3119649D01*
Y3187774D01*
X3277431Y3813069D01*
X3284614Y3823819D01*
X3285033Y3825923D01*
X3287137Y3836500D01*
Y4366590D01*
X3835931Y4915384D01*
X3843114Y4926135D01*
X3845637Y4938815D01*
Y5775462D01*
X3852769Y5782593D01*
X3860000Y5800052D01*
Y5818948D01*
X3852769Y5836406D01*
X3839407Y5849768D01*
X3821948Y5857000D01*
D02*
G37*
G36*
X2465000Y3012500D02*
X2377500D01*
Y2925000D01*
X2378165D01*
X2403598Y2931815D01*
X2426401Y2944980D01*
X2445020Y2963599D01*
X2458185Y2986402D01*
X2465000Y3011835D01*
Y3012500D01*
D02*
G37*
G36*
X2352500D02*
X2265000D01*
Y3011835D01*
X2271815Y2986402D01*
X2284980Y2963599D01*
X2303599Y2944980D01*
X2326402Y2931815D01*
X2351835Y2925000D01*
X2352500D01*
Y3012500D01*
D02*
G37*
G36*
X2124165Y3125000D02*
X2097835D01*
X2072402Y3118185D01*
X2049599Y3105020D01*
X2030980Y3086401D01*
X2017815Y3063598D01*
X2011000Y3038165D01*
Y3011835D01*
X2017815Y2986402D01*
X2030980Y2963599D01*
X2049599Y2944980D01*
X2072402Y2931815D01*
X2097835Y2925000D01*
X2124165D01*
X2149598Y2931815D01*
X2172401Y2944980D01*
X2191020Y2963599D01*
X2204185Y2986402D01*
X2211000Y3011835D01*
Y3038165D01*
X2204185Y3063598D01*
X2191020Y3086401D01*
X2172401Y3105020D01*
X2149598Y3118185D01*
X2124165Y3125000D01*
D02*
G37*
G36*
X4934206Y3220000D02*
X4895794D01*
X4858121Y3212506D01*
X4822633Y3197807D01*
X4790695Y3176466D01*
X4763534Y3149305D01*
X4742193Y3117367D01*
X4727494Y3081880D01*
X4720000Y3044206D01*
Y3005794D01*
X4727494Y2968121D01*
X4742193Y2932633D01*
X4763534Y2900695D01*
X4790695Y2873534D01*
X4822633Y2852193D01*
X4858121Y2837494D01*
X4895794Y2830000D01*
X4934206D01*
X4971880Y2837494D01*
X5007367Y2852193D01*
X5039305Y2873534D01*
X5066466Y2900695D01*
X5087807Y2932633D01*
X5102506Y2968121D01*
X5110000Y3005794D01*
Y3044206D01*
X5102506Y3081880D01*
X5087807Y3117367D01*
X5066466Y3149305D01*
X5039305Y3176466D01*
X5007367Y3197807D01*
X4971880Y3212506D01*
X4934206Y3220000D01*
D02*
G37*
G36*
X1104206D02*
X1065794D01*
X1028121Y3212506D01*
X992633Y3197807D01*
X960695Y3176466D01*
X933534Y3149305D01*
X912194Y3117367D01*
X897494Y3081880D01*
X890000Y3044206D01*
Y3005794D01*
X897494Y2968121D01*
X912194Y2932633D01*
X933534Y2900695D01*
X960695Y2873534D01*
X992633Y2852193D01*
X1028121Y2837494D01*
X1065794Y2830000D01*
X1104206D01*
X1141880Y2837494D01*
X1177367Y2852193D01*
X1209305Y2873534D01*
X1236466Y2900695D01*
X1257807Y2932633D01*
X1272506Y2968121D01*
X1280000Y3005794D01*
Y3044206D01*
X1272506Y3081880D01*
X1257807Y3117367D01*
X1236466Y3149305D01*
X1209305Y3176466D01*
X1177367Y3197807D01*
X1141880Y3212506D01*
X1104206Y3220000D01*
D02*
G37*
G36*
X1401250Y2125563D02*
X1387500D01*
Y2072500D01*
X1430563D01*
Y2096250D01*
X1428332Y2107467D01*
X1421978Y2116977D01*
X1412468Y2123332D01*
X1401250Y2125563D01*
D02*
G37*
G36*
X1362500D02*
X1348750D01*
X1337533Y2123332D01*
X1328022Y2116977D01*
X1321668Y2107467D01*
X1319437Y2096250D01*
Y2072500D01*
X1362500D01*
Y2125563D01*
D02*
G37*
G36*
X1430563Y2047500D02*
X1387500D01*
Y1994437D01*
X1401250D01*
X1412468Y1996668D01*
X1421978Y2003022D01*
X1428332Y2012532D01*
X1430563Y2023750D01*
Y2047500D01*
D02*
G37*
G36*
X1362500D02*
X1319437D01*
Y2023750D01*
X1321668Y2012532D01*
X1328022Y2003022D01*
X1337533Y1996668D01*
X1348750Y1994437D01*
X1362500D01*
Y2047500D01*
D02*
G37*
G36*
X4751448Y6762500D02*
X4732552D01*
X4715093Y6755268D01*
X4701732Y6741907D01*
X4694500Y6724448D01*
Y6714362D01*
X4628275Y6648137D01*
X3488921D01*
X3476240Y6645614D01*
X3472673Y6643231D01*
X3465489Y6638431D01*
X629069Y3802010D01*
X621886Y3791260D01*
X621467Y3789156D01*
X619364Y3778579D01*
Y2914684D01*
X621467Y2904107D01*
X621886Y2902003D01*
X629069Y2891253D01*
X1191863Y2328458D01*
Y2124193D01*
X1187532Y2123332D01*
X1178022Y2116977D01*
X1171668Y2107467D01*
X1169437Y2096250D01*
Y2023750D01*
X1171668Y2012532D01*
X1178022Y2003022D01*
X1187532Y1996668D01*
X1198750Y1994437D01*
X1251250D01*
X1262467Y1996668D01*
X1271977Y2003022D01*
X1278332Y2012532D01*
X1280563Y2023750D01*
Y2096250D01*
X1278332Y2107467D01*
X1271977Y2116977D01*
X1262467Y2123332D01*
X1258136Y2124193D01*
Y2342184D01*
X1255614Y2354865D01*
X1248431Y2365615D01*
X685637Y2928409D01*
Y3764854D01*
X3502646Y6581864D01*
X4642000D01*
X4652577Y6583968D01*
X4654681Y6584386D01*
X4665431Y6591569D01*
X4741362Y6667500D01*
X4751448D01*
X4768906Y6674732D01*
X4782268Y6688094D01*
X4789500Y6705552D01*
Y6724448D01*
X4782268Y6741907D01*
X4768906Y6755268D01*
X4751448Y6762500D01*
D02*
G37*
G36*
X4797165Y2000000D02*
X4796500D01*
Y1912501D01*
X4884000D01*
Y1913165D01*
X4877185Y1938598D01*
X4864020Y1961401D01*
X4845401Y1980020D01*
X4822598Y1993185D01*
X4797165Y2000000D01*
D02*
G37*
G36*
X4771500D02*
X4770835D01*
X4745402Y1993185D01*
X4722599Y1980020D01*
X4703980Y1961401D01*
X4690815Y1938598D01*
X4684000Y1913165D01*
Y1912501D01*
X4771500D01*
Y2000000D01*
D02*
G37*
G36*
X5051165D02*
X5024835D01*
X4999402Y1993185D01*
X4976599Y1980020D01*
X4957980Y1961401D01*
X4944815Y1938598D01*
X4938000Y1913165D01*
Y1886835D01*
X4944815Y1861402D01*
X4957980Y1838599D01*
X4976599Y1819980D01*
X4999402Y1806815D01*
X5024835Y1800000D01*
X5051165D01*
X5076598Y1806815D01*
X5099401Y1819980D01*
X5118020Y1838599D01*
X5131185Y1861402D01*
X5138000Y1886835D01*
Y1913165D01*
X5131185Y1938598D01*
X5118020Y1961401D01*
X5099401Y1980020D01*
X5076598Y1993185D01*
X5051165Y2000000D01*
D02*
G37*
G36*
X4884000Y1887501D02*
X4796500D01*
Y1800000D01*
X4797165D01*
X4822598Y1806815D01*
X4845401Y1819980D01*
X4864020Y1838599D01*
X4877185Y1861402D01*
X4884000Y1886835D01*
Y1887501D01*
D02*
G37*
G36*
X4771500D02*
X4684000D01*
Y1886835D01*
X4690815Y1861402D01*
X4703980Y1838599D01*
X4722599Y1819980D01*
X4745402Y1806815D01*
X4770835Y1800000D01*
X4771500D01*
Y1887501D01*
D02*
G37*
G36*
X5132448Y5012500D02*
X5113552D01*
X5096093Y5005268D01*
X5082732Y4991906D01*
X5075500Y4974448D01*
Y4955552D01*
X5082732Y4938094D01*
X5089863Y4930962D01*
Y3914621D01*
X4506569Y3331326D01*
X4499386Y3320576D01*
X4498967Y3318472D01*
X4496863Y3307895D01*
Y1994649D01*
X4491402Y1993185D01*
X4468599Y1980020D01*
X4449980Y1961401D01*
X4436815Y1938598D01*
X4430000Y1913165D01*
Y1886835D01*
X4436815Y1861402D01*
X4449980Y1838599D01*
X4468599Y1819980D01*
X4491402Y1806815D01*
X4516835Y1800000D01*
X4543165D01*
X4568598Y1806815D01*
X4591401Y1819980D01*
X4610020Y1838599D01*
X4623185Y1861402D01*
X4630000Y1886835D01*
Y1913165D01*
X4623185Y1938598D01*
X4610020Y1961401D01*
X4591401Y1980020D01*
X4568598Y1993185D01*
X4563137Y1994649D01*
Y3294170D01*
X5146431Y3877464D01*
X5153614Y3888214D01*
X5156136Y3900895D01*
Y4930962D01*
X5163268Y4938094D01*
X5170500Y4955552D01*
Y4974448D01*
X5163268Y4991906D01*
X5149906Y5005268D01*
X5132448Y5012500D01*
D02*
G37*
G36*
X5005448D02*
X4986552D01*
X4969093Y5005268D01*
X4955732Y4991906D01*
X4948500Y4974448D01*
Y4955552D01*
X4955732Y4938094D01*
X4962863Y4930962D01*
Y3967225D01*
X4379569Y3383931D01*
X4372386Y3373181D01*
X4371968Y3371077D01*
X4369864Y3360500D01*
Y2209226D01*
X4252569Y2091931D01*
X4245386Y2081181D01*
X4244967Y2079077D01*
X4242863Y2068500D01*
Y1994649D01*
X4237402Y1993185D01*
X4214599Y1980020D01*
X4195980Y1961401D01*
X4182815Y1938598D01*
X4176000Y1913165D01*
Y1886835D01*
X4182815Y1861402D01*
X4195980Y1838599D01*
X4214599Y1819980D01*
X4237402Y1806815D01*
X4262835Y1800000D01*
X4289165D01*
X4314598Y1806815D01*
X4337401Y1819980D01*
X4356020Y1838599D01*
X4369185Y1861402D01*
X4376000Y1886835D01*
Y1913165D01*
X4369185Y1938598D01*
X4356020Y1961401D01*
X4337401Y1980020D01*
X4314598Y1993185D01*
X4309137Y1994649D01*
Y2054775D01*
X4426431Y2172069D01*
X4433614Y2182819D01*
X4434033Y2184923D01*
X4436137Y2195500D01*
Y3346775D01*
X5019431Y3930069D01*
X5026614Y3940819D01*
X5027033Y3942923D01*
X5029136Y3953500D01*
Y4930962D01*
X5036268Y4938094D01*
X5043500Y4955552D01*
Y4974448D01*
X5036268Y4991906D01*
X5022906Y5005268D01*
X5005448Y5012500D01*
D02*
G37*
G36*
X4035165Y2000000D02*
X4008835D01*
X3983402Y1993185D01*
X3960599Y1980020D01*
X3941980Y1961401D01*
X3928815Y1938598D01*
X3922000Y1913165D01*
Y1886835D01*
X3928815Y1861402D01*
X3941980Y1838599D01*
X3960599Y1819980D01*
X3983402Y1806815D01*
X4008835Y1800000D01*
X4035165D01*
X4060598Y1806815D01*
X4083401Y1819980D01*
X4102020Y1838599D01*
X4115185Y1861402D01*
X4122000Y1886835D01*
Y1913165D01*
X4115185Y1938598D01*
X4102020Y1961401D01*
X4083401Y1980020D01*
X4060598Y1993185D01*
X4035165Y2000000D01*
D02*
G37*
G36*
X3781165D02*
X3754835D01*
X3729402Y1993185D01*
X3706599Y1980020D01*
X3687980Y1961401D01*
X3674815Y1938598D01*
X3668000Y1913165D01*
Y1886835D01*
X3674815Y1861402D01*
X3687980Y1838599D01*
X3706599Y1819980D01*
X3729402Y1806815D01*
X3754835Y1800000D01*
X3781165D01*
X3806598Y1806815D01*
X3829401Y1819980D01*
X3848020Y1838599D01*
X3861185Y1861402D01*
X3868000Y1886835D01*
Y1913165D01*
X3861185Y1938598D01*
X3848020Y1961401D01*
X3829401Y1980020D01*
X3806598Y1993185D01*
X3781165Y2000000D01*
D02*
G37*
G36*
X3527165D02*
X3500835D01*
X3475402Y1993185D01*
X3452599Y1980020D01*
X3433980Y1961401D01*
X3420815Y1938598D01*
X3414000Y1913165D01*
Y1886835D01*
X3420815Y1861402D01*
X3433980Y1838599D01*
X3452599Y1819980D01*
X3475402Y1806815D01*
X3500835Y1800000D01*
X3527165D01*
X3552598Y1806815D01*
X3575401Y1819980D01*
X3594020Y1838599D01*
X3607185Y1861402D01*
X3614000Y1886835D01*
Y1913165D01*
X3607185Y1938598D01*
X3594020Y1961401D01*
X3575401Y1980020D01*
X3552598Y1993185D01*
X3527165Y2000000D01*
D02*
G37*
G36*
X3273165D02*
X3246835D01*
X3221402Y1993185D01*
X3198599Y1980020D01*
X3179980Y1961401D01*
X3166815Y1938598D01*
X3160000Y1913165D01*
Y1886835D01*
X3166815Y1861402D01*
X3179980Y1838599D01*
X3198599Y1819980D01*
X3221402Y1806815D01*
X3246835Y1800000D01*
X3273165D01*
X3298598Y1806815D01*
X3321401Y1819980D01*
X3340020Y1838599D01*
X3353185Y1861402D01*
X3360000Y1886835D01*
Y1913165D01*
X3353185Y1938598D01*
X3340020Y1961401D01*
X3321401Y1980020D01*
X3298598Y1993185D01*
X3273165Y2000000D01*
D02*
G37*
G36*
X3019165D02*
X2992835D01*
X2967402Y1993185D01*
X2944599Y1980020D01*
X2925980Y1961401D01*
X2912815Y1938598D01*
X2906000Y1913165D01*
Y1886835D01*
X2912815Y1861402D01*
X2925980Y1838599D01*
X2944599Y1819980D01*
X2967402Y1806815D01*
X2992835Y1800000D01*
X3019165D01*
X3044598Y1806815D01*
X3067401Y1819980D01*
X3086020Y1838599D01*
X3099185Y1861402D01*
X3106000Y1886835D01*
Y1913165D01*
X3099185Y1938598D01*
X3086020Y1961401D01*
X3067401Y1980020D01*
X3044598Y1993185D01*
X3019165Y2000000D01*
D02*
G37*
G36*
X2765165D02*
X2738835D01*
X2713402Y1993185D01*
X2690599Y1980020D01*
X2671980Y1961401D01*
X2658815Y1938598D01*
X2652000Y1913165D01*
Y1886835D01*
X2658815Y1861402D01*
X2671980Y1838599D01*
X2690599Y1819980D01*
X2713402Y1806815D01*
X2738835Y1800000D01*
X2765165D01*
X2790598Y1806815D01*
X2813401Y1819980D01*
X2832020Y1838599D01*
X2845185Y1861402D01*
X2852000Y1886835D01*
Y1913165D01*
X2845185Y1938598D01*
X2832020Y1961401D01*
X2813401Y1980020D01*
X2790598Y1993185D01*
X2765165Y2000000D01*
D02*
G37*
G36*
X2001250Y1525563D02*
X1987500D01*
Y1472500D01*
X2030563D01*
Y1496250D01*
X2028332Y1507467D01*
X2021978Y1516977D01*
X2012468Y1523332D01*
X2001250Y1525563D01*
D02*
G37*
G36*
X1401250D02*
X1387500D01*
Y1472500D01*
X1430563D01*
Y1496250D01*
X1428332Y1507467D01*
X1421978Y1516977D01*
X1412468Y1523332D01*
X1401250Y1525563D01*
D02*
G37*
G36*
X801250D02*
X787500D01*
Y1472500D01*
X830563D01*
Y1496250D01*
X828332Y1507467D01*
X821978Y1516977D01*
X812468Y1523332D01*
X801250Y1525563D01*
D02*
G37*
G36*
X1362500D02*
X1348750D01*
X1337533Y1523332D01*
X1328022Y1516977D01*
X1321668Y1507467D01*
X1319437Y1496250D01*
Y1472500D01*
X1362500D01*
Y1525563D01*
D02*
G37*
G36*
X762500D02*
X748750D01*
X737533Y1523332D01*
X728023Y1516977D01*
X721668Y1507467D01*
X719437Y1496250D01*
Y1472500D01*
X762500D01*
Y1525563D01*
D02*
G37*
G36*
X1962501D02*
X1948750D01*
X1937533Y1523332D01*
X1928023Y1516977D01*
X1921668Y1507467D01*
X1919437Y1496250D01*
Y1472500D01*
X1962501D01*
Y1525563D01*
D02*
G37*
G36*
X2030563Y1447500D02*
X1987500D01*
Y1394437D01*
X2001250D01*
X2012468Y1396668D01*
X2021978Y1403022D01*
X2028332Y1412532D01*
X2030563Y1423750D01*
Y1447500D01*
D02*
G37*
G36*
X1962501D02*
X1919437D01*
Y1423750D01*
X1921668Y1412532D01*
X1928023Y1403022D01*
X1937533Y1396668D01*
X1948750Y1394437D01*
X1962501D01*
Y1447500D01*
D02*
G37*
G36*
X1430563D02*
X1387500D01*
Y1394437D01*
X1401250D01*
X1412468Y1396668D01*
X1421978Y1403022D01*
X1428332Y1412532D01*
X1430563Y1423750D01*
Y1447500D01*
D02*
G37*
G36*
X1362500D02*
X1319437D01*
Y1423750D01*
X1321668Y1412532D01*
X1328022Y1403022D01*
X1337533Y1396668D01*
X1348750Y1394437D01*
X1362500D01*
Y1447500D01*
D02*
G37*
G36*
X830563D02*
X787500D01*
Y1394437D01*
X801250D01*
X812468Y1396668D01*
X821978Y1403022D01*
X828332Y1412532D01*
X830563Y1423750D01*
Y1447500D01*
D02*
G37*
G36*
X762500D02*
X719437D01*
Y1423750D01*
X721668Y1412532D01*
X728023Y1403022D01*
X737533Y1396668D01*
X748750Y1394437D01*
X762500D01*
Y1447500D01*
D02*
G37*
G36*
X1401250Y925563D02*
X1387500D01*
Y872500D01*
X1430563D01*
Y896250D01*
X1428332Y907468D01*
X1421978Y916978D01*
X1412468Y923332D01*
X1401250Y925563D01*
D02*
G37*
G36*
X1362500D02*
X1348750D01*
X1337533Y923332D01*
X1328022Y916978D01*
X1321668Y907468D01*
X1319437Y896250D01*
Y872500D01*
X1362500D01*
Y925563D01*
D02*
G37*
G36*
X1430563Y847500D02*
X1387500D01*
Y794437D01*
X1401250D01*
X1412468Y796668D01*
X1421978Y803023D01*
X1428332Y812533D01*
X1430563Y823750D01*
Y847500D01*
D02*
G37*
G36*
X1362500D02*
X1319437D01*
Y823750D01*
X1321668Y812533D01*
X1328022Y803023D01*
X1337533Y796668D01*
X1348750Y794437D01*
X1362500D01*
Y847500D01*
D02*
G37*
G36*
X5719206Y495000D02*
X5680794D01*
X5643121Y487506D01*
X5607633Y472806D01*
X5575695Y451466D01*
X5548534Y424305D01*
X5527193Y392367D01*
X5512494Y356879D01*
X5505000Y319205D01*
Y280794D01*
X5512494Y243120D01*
X5527193Y207633D01*
X5548534Y175694D01*
X5575695Y148533D01*
X5607633Y127193D01*
X5643121Y112494D01*
X5680794Y105000D01*
X5719206D01*
X5756880Y112494D01*
X5792367Y127193D01*
X5824305Y148533D01*
X5851466Y175694D01*
X5872807Y207633D01*
X5887506Y243120D01*
X5895000Y280794D01*
Y319205D01*
X5887506Y356879D01*
X5872807Y392367D01*
X5851466Y424305D01*
X5824305Y451466D01*
X5792367Y472806D01*
X5756880Y487506D01*
X5719206Y495000D01*
D02*
G37*
G36*
X319206D02*
X280794D01*
X243121Y487506D01*
X207633Y472806D01*
X175695Y451466D01*
X148534Y424305D01*
X127194Y392367D01*
X112494Y356879D01*
X105000Y319205D01*
Y280794D01*
X112494Y243120D01*
X127194Y207633D01*
X148534Y175694D01*
X175695Y148533D01*
X207633Y127193D01*
X243121Y112494D01*
X280794Y105000D01*
X319206D01*
X356880Y112494D01*
X392367Y127193D01*
X424305Y148533D01*
X451466Y175694D01*
X472807Y207633D01*
X487506Y243120D01*
X495000Y280794D01*
Y319205D01*
X487506Y356879D01*
X472807Y392367D01*
X451466Y424305D01*
X424305Y451466D01*
X392367Y472806D01*
X356880Y487506D01*
X319206Y495000D01*
D02*
G37*
%LPD*%
G36*
X2950000Y9582500D02*
X2959946Y9582500D01*
X2978322Y9574888D01*
X2992387Y9560822D01*
X2999999Y9542445D01*
X2999998Y9532499D01*
X2999999Y9420000D01*
X3000000D01*
Y7900000D01*
Y7890054D01*
X2992388Y7871677D01*
X2978322Y7857612D01*
X2959945Y7850000D01*
X2950000Y7850000D01*
X2650000Y7850000D01*
X2640054Y7850000D01*
X2621677Y7857612D01*
X2607612Y7871677D01*
X2600000Y7890054D01*
X2600001Y7900000D01*
X2600000Y8402500D01*
X2600000D01*
Y9532500D01*
Y9542445D01*
X2607612Y9560822D01*
X2621677Y9574887D01*
X2640054Y9582500D01*
X2650000Y9582499D01*
X2950000Y9582500D01*
Y9582500D01*
D02*
G37*
%LPC*%
G36*
X2900000Y8688430D02*
X2881466Y8684744D01*
X2865754Y8674246D01*
X2855256Y8658534D01*
X2851570Y8640000D01*
X2855256Y8621466D01*
X2865754Y8605754D01*
X2881466Y8595256D01*
X2900000Y8591570D01*
X2918534Y8595256D01*
X2934246Y8605754D01*
X2944744Y8621466D01*
X2948430Y8640000D01*
X2944744Y8658534D01*
X2934246Y8674246D01*
X2918534Y8684744D01*
X2900000Y8688430D01*
D02*
G37*
G36*
X2795000Y8448431D02*
X2776466Y8444744D01*
X2760754Y8434246D01*
X2750256Y8418534D01*
X2746570Y8400000D01*
X2750256Y8381467D01*
X2760754Y8365755D01*
X2776466Y8355257D01*
X2795000Y8351570D01*
X2813534Y8355257D01*
X2829246Y8365755D01*
X2839744Y8381467D01*
X2843430Y8400000D01*
X2839744Y8418534D01*
X2829246Y8434246D01*
X2813534Y8444744D01*
X2795000Y8448431D01*
D02*
G37*
G36*
X2900000Y8345882D02*
X2882442Y8342389D01*
X2867557Y8332443D01*
X2857611Y8317558D01*
X2854118Y8300000D01*
X2857611Y8282442D01*
X2867557Y8267557D01*
X2882442Y8257611D01*
X2900000Y8254119D01*
X2917558Y8257611D01*
X2932443Y8267557D01*
X2942389Y8282442D01*
X2945882Y8300000D01*
X2942389Y8317558D01*
X2932443Y8332443D01*
X2917558Y8342389D01*
X2900000Y8345882D01*
D02*
G37*
G36*
Y8145882D02*
X2882442Y8142389D01*
X2867557Y8132443D01*
X2857611Y8117558D01*
X2854118Y8100000D01*
X2857611Y8082442D01*
X2867557Y8067557D01*
X2882442Y8057611D01*
X2900000Y8054119D01*
X2917558Y8057611D01*
X2932443Y8067557D01*
X2942389Y8082442D01*
X2945882Y8100000D01*
X2942389Y8117558D01*
X2932443Y8132443D01*
X2917558Y8142389D01*
X2900000Y8145882D01*
D02*
G37*
%LPD*%
D10*
X3823307Y7723307D02*
X3934000Y7834000D01*
Y8450000D01*
X3672279Y8338279D02*
X3784000Y8450000D01*
X3672279Y7892279D02*
Y8338279D01*
X3545000Y8361000D02*
X3634000Y8450000D01*
X3545000Y7945000D02*
Y8361000D01*
X997500Y5397500D02*
X997500D01*
X1197500Y5237500D02*
X1197500D01*
X1097500Y5317500D02*
X3672279Y7892279D01*
X997500Y5397500D02*
X3545000Y7945000D01*
X1197500Y5237500D02*
X3683307Y7723307D01*
X3823307D01*
X3488921Y6615000D02*
X4642000D01*
X652500Y2914684D02*
Y3778579D01*
X3488921Y6615000D01*
X835686Y3700000D02*
X1990686Y4855000D01*
X3112500D01*
X4447500Y4675790D02*
Y6445000D01*
X3889000Y4117290D02*
X4447500Y4675790D01*
X4642000Y6615000D02*
X4742000Y6715000D01*
X452500Y2831841D02*
Y3861422D01*
X352500Y2790420D02*
Y3902843D01*
X452500Y3861422D02*
X3466078Y6875000D01*
X252500Y2748999D02*
Y3944265D01*
X452500Y2831841D02*
X825000Y2459341D01*
X352500Y2790420D02*
X725000Y2417920D01*
X352500Y3902843D02*
X3484656Y7035000D01*
X252500Y2748999D02*
X625000Y2376498D01*
X252500Y3944265D02*
X3443235Y7135000D01*
X835686Y3400000D02*
X2163687Y4728000D01*
X3165105D01*
X3340000Y4902895D01*
X1340234Y6127500D02*
X1522500D01*
X460500Y6582500D02*
X885234D01*
X1340234Y6127500D01*
X293000Y6750000D02*
X460500Y6582500D01*
X600000Y5825000D02*
X717500D01*
X917500Y5625000D01*
X717500Y6175000D02*
X917500Y6375000D01*
X600000Y6175000D02*
X717500D01*
X4515000Y7135000D02*
X4615000Y7035000D01*
X3447499Y6715000D02*
X4234000D01*
X3443235Y7135000D02*
X4515000D01*
X3484656Y7035000D02*
X4361000D01*
X3466078Y6875000D02*
X4488000D01*
X1225000Y860000D02*
Y1202500D01*
X1080000Y1347500D02*
Y1698430D01*
Y1347500D02*
X1225000Y1202500D01*
X725000Y2053430D02*
X1080000Y1698430D01*
X825000Y2094851D02*
X1225000Y1694851D01*
Y1460000D02*
Y1694851D01*
X925000Y2136273D02*
Y2500763D01*
Y2136273D02*
X1601273Y1460000D01*
X1825000D01*
X552500Y2873263D02*
X925000Y2500763D01*
X825000Y2094851D02*
Y2459341D01*
X625000Y1460000D02*
Y2376498D01*
X1225000Y2060000D02*
Y2342184D01*
X552500Y2873263D02*
Y3820000D01*
X725000Y2053430D02*
Y2417920D01*
X652500Y2914684D02*
X1225000Y2342184D01*
X552500Y3820000D02*
X3447499Y6715000D01*
X2702500Y4475000D02*
X3100000D01*
X2587500Y4590000D02*
X2702500Y4475000D01*
X2587500Y5010000D02*
X2702500Y5125000D01*
X3035000D01*
X3112500Y4855000D02*
X3213000Y4955500D01*
X3340000Y4902895D02*
Y5125000D01*
X3213000Y4955500D02*
Y5125000D01*
X2495480Y5410200D02*
X3660000D01*
X3069520Y5600700D02*
X3660000D01*
X4276000Y1900000D02*
Y2068500D01*
X4403000Y2195500D02*
Y3360500D01*
X4276000Y2068500D02*
X4403000Y2195500D01*
X4530000Y1900000D02*
Y3307895D01*
X5123000Y3900895D01*
X4403000Y3360500D02*
X4996000Y3953500D01*
X4574500Y4700000D02*
Y6293500D01*
X4996000Y6715000D01*
X5123000Y3900895D02*
Y4965000D01*
X4996000Y3953500D02*
Y4965000D01*
X3762000Y3328500D02*
Y4169895D01*
X3635000Y3201500D02*
X3762000Y3328500D01*
X3381000Y3201500D02*
X3635000Y3455500D01*
Y4222500D01*
X4193500Y4781000D01*
X3635000Y3025000D02*
Y3201500D01*
X3381000Y3025000D02*
Y3201500D01*
X3127000D02*
X3508000Y3582500D01*
X3762000Y4169895D02*
X4320500Y4728395D01*
X3508000Y4275105D02*
X4066500Y4833605D01*
X3508000Y3582500D02*
Y4275105D01*
X2619000Y3201500D02*
X3254000Y3836500D01*
Y4380315D01*
X2873000Y3201500D02*
X3381000Y3709500D01*
Y4327710D02*
X3939500Y4886210D01*
X3889000Y3025000D02*
Y4117290D01*
X3254000Y4380315D02*
X3812500Y4938815D01*
X3381000Y3709500D02*
Y4327710D01*
X4193500Y4781000D02*
Y6190500D01*
X4320500Y4728395D02*
Y6317500D01*
X3812500Y4938815D02*
Y5809500D01*
X4066500Y4833605D02*
Y6063500D01*
X3939500Y4886210D02*
Y5936500D01*
X2619000Y3025000D02*
Y3201500D01*
X2873000Y3025000D02*
Y3201500D01*
X3127000Y3025000D02*
Y3201500D01*
X2737500Y5010000D02*
X3100000D01*
D11*
X5625000Y4410000D02*
D03*
X5775000D02*
D03*
X5625000Y7590000D02*
D03*
X5775000D02*
D03*
X625000Y1460000D02*
D03*
X775000D02*
D03*
X1825000D02*
D03*
X1975000D02*
D03*
X1225000D02*
D03*
X1375000D02*
D03*
X1225000Y2060000D02*
D03*
X1375000D02*
D03*
X1225000Y860000D02*
D03*
X1375000D02*
D03*
D29*
X3205000Y7850000D02*
Y8400000D01*
X537700Y6075000D02*
X897800Y5925000D01*
D33*
X300000Y9700000D02*
D03*
X5700000D02*
D03*
X300000Y300000D02*
D03*
X5700000D02*
D03*
X1085000Y9575000D02*
D03*
X4915000D02*
D03*
Y3025000D02*
D03*
X1085000D02*
D03*
D34*
X2619000D02*
D03*
X2873000D02*
D03*
X2365000D02*
D03*
X3889000D02*
D03*
X3127000D02*
D03*
X2111000D02*
D03*
X3635000D02*
D03*
X3381000D02*
D03*
X2752000Y1900000D02*
D03*
X3006000D02*
D03*
X3260000D02*
D03*
X3514000D02*
D03*
X3768000D02*
D03*
X4022000D02*
D03*
X4276000D02*
D03*
X4530000D02*
D03*
X4784000D02*
D03*
X5038000D02*
D03*
X293000Y6750000D02*
D03*
X547000D02*
D03*
D35*
X262250Y6432000D02*
D03*
Y5568000D02*
D03*
D36*
X680250D02*
D03*
Y6432000D02*
D03*
D37*
X630250Y6289000D02*
D03*
Y5711000D02*
D03*
D38*
X4677500Y4800000D02*
D03*
X443000Y7120000D02*
D03*
X4575000Y8120000D02*
D03*
X4335000D02*
D03*
X4700000Y8500000D02*
D03*
X4820000D02*
D03*
X3450000Y4800000D02*
D03*
X2275000Y7578000D02*
D03*
X2737500Y4590000D02*
D03*
X4384000Y6212500D02*
D03*
X4257000Y6085500D02*
D03*
X4130000Y5958500D02*
D03*
X4003000Y5831500D02*
D03*
X3876000Y5704500D02*
D03*
X4488000Y7035000D02*
D03*
X4361000Y6715000D02*
D03*
X4869000D02*
D03*
X3735000Y5505450D02*
D03*
X3124000Y5200000D02*
D03*
X5059500Y4865000D02*
D03*
X3360000Y8297500D02*
D03*
X3784000Y8300000D02*
D03*
X1117500Y5427500D02*
D03*
X1217500Y5347500D02*
D03*
X835686Y3550000D02*
D03*
X4574500Y4580000D02*
D03*
X2674665Y7376561D02*
D03*
X3784000Y7850000D02*
D03*
Y8000000D02*
D03*
X3710000Y7590000D02*
D03*
X4820000Y7980000D02*
D03*
X4455000Y8120000D02*
D03*
X4940000Y8500000D02*
D03*
X4430000Y7787500D02*
D03*
X4820000D02*
D03*
X4700000Y7667500D02*
D03*
X5700000Y7150000D02*
D03*
Y4850000D02*
D03*
X2365000Y3195000D02*
D03*
Y2855000D02*
D03*
X4784000Y1730000D02*
D03*
Y2070000D02*
D03*
X1300000Y420000D02*
D03*
Y1620000D02*
D03*
X1900000Y1020000D02*
D03*
X1300000D02*
D03*
X700000D02*
D03*
X3370000Y9300000D02*
D03*
X3200000Y9030000D02*
D03*
Y9570000D02*
D03*
X5408000Y7150000D02*
D03*
X4447500Y6445000D02*
D03*
X5288000Y7420000D02*
D03*
X5250000Y5435001D02*
D03*
Y5595000D02*
D03*
Y5755000D02*
D03*
Y5915000D02*
D03*
Y6075000D02*
D03*
Y6235000D02*
D03*
Y6395000D02*
D03*
Y6555000D02*
D03*
Y6715000D02*
D03*
Y5285000D02*
D03*
Y4965000D02*
D03*
X2829520Y5727700D02*
D03*
X3069520D02*
D03*
X1740000Y5577700D02*
D03*
X125000Y3700000D02*
D03*
Y3400000D02*
D03*
Y4600000D02*
D03*
X835686Y3400000D02*
D03*
Y3700000D02*
D03*
X125000Y4000000D02*
D03*
Y4300000D02*
D03*
X3397500Y8075000D02*
D03*
X1860000Y5727700D02*
D03*
X3310000Y8000000D02*
D03*
X3205000Y7850000D02*
D03*
X2850000Y7725000D02*
D03*
X1040000Y6870000D02*
D03*
Y6990000D02*
D03*
X3000000Y7605000D02*
D03*
Y7725000D02*
D03*
X2900000Y8640000D02*
D03*
X2155000Y8300000D02*
D03*
Y8150000D02*
D03*
X2795000Y8400000D02*
D03*
X3205000D02*
D03*
X3784000Y8450000D02*
D03*
X3934000D02*
D03*
X3634000D02*
D03*
X997500Y5397500D02*
D03*
X1197500Y5237500D02*
D03*
X2275000Y7995000D02*
D03*
X2680000Y8115000D02*
D03*
X2795000Y8000000D02*
D03*
X1190000Y6600000D02*
D03*
X1040000D02*
D03*
X917500Y6375000D02*
D03*
X1097500Y5317500D02*
D03*
X917500Y5625000D02*
D03*
X1485000Y6375000D02*
D03*
X1522500Y6127500D02*
D03*
X4742000Y6715000D02*
D03*
X4234000D02*
D03*
X4615000Y7035000D02*
D03*
X4361000D02*
D03*
X4488000Y6875000D02*
D03*
X3100000Y4475000D02*
D03*
X3340000Y5125000D02*
D03*
X3213000D02*
D03*
X1040000Y5760000D02*
D03*
X600000Y5825000D02*
D03*
Y6175000D02*
D03*
X897800Y6075000D02*
D03*
X537700Y5925000D02*
D03*
Y6075000D02*
D03*
X1310000Y6750000D02*
D03*
X395000Y4900000D02*
D03*
Y5200000D02*
D03*
X5123000Y4965000D02*
D03*
X4996000D02*
D03*
Y6715000D02*
D03*
X4574500Y4700000D02*
D03*
X5625000Y7590000D02*
D03*
X5775000Y4410000D02*
D03*
X4711000Y7150000D02*
D03*
X5138000Y7420000D02*
D03*
X4711000Y7300000D02*
D03*
X4550000Y7667500D02*
D03*
X1225000Y860000D02*
D03*
X1825000Y1460000D02*
D03*
X1225000Y2060000D02*
D03*
Y1460000D02*
D03*
X625000D02*
D03*
X3812500Y5809500D02*
D03*
X3939500Y5936500D02*
D03*
X4066500Y6063500D02*
D03*
X4193500Y6190500D02*
D03*
X4320500Y6317500D02*
D03*
X3660000Y5410200D02*
D03*
Y5600700D02*
D03*
X3035000Y5125000D02*
D03*
X3100000Y5010000D02*
D03*
X3165000Y4590000D02*
D03*
X2587500D02*
D03*
X2737500Y5010000D02*
D03*
X2587500D02*
D03*
X2495480Y5410200D02*
D03*
X3069520Y5600700D02*
D03*
X2467500Y5150000D02*
D03*
X1840000Y6420000D02*
D03*
X1690000D02*
D03*
X1040000Y6240000D02*
D03*
X897800Y5925000D02*
D03*
D39*
X3100000Y8100000D02*
D03*
X2900000D02*
D03*
X3100000Y8300000D02*
D03*
X2900000D02*
D03*
D40*
X2800000Y9300000D02*
D03*
X3200000D02*
D03*
%TF.MD5,a2bf987dc5de67cea6443009063ed8b3*%
M02*
