%TF.GenerationSoftware,Altium Limited,Altium Designer,22.10.1 (41)*%
G04 Layer_Color=65535*
%FSLAX45Y45*%
%MOMM*%
%TF.SameCoordinates,E44625A2-F068-4864-A6FA-01B12190F87A*%
%TF.FilePolarity,Positive*%
%TF.FileFunction,Legend,Top*%
%TF.Part,Single*%
G01*
G75*
%TA.AperFunction,NonConductor*%
%ADD51C,0.25400*%
%ADD52C,0.10000*%
%ADD53C,0.20000*%
G36*
X5693101Y1444777D02*
X5692902Y1469272D01*
X5693300Y1470866D01*
X5694296Y1472260D01*
X5695292Y1473255D01*
X5698080Y1473654D01*
X5703058Y1474251D01*
X5704652Y1474649D01*
X5707838Y1476641D01*
X5708435Y1477238D01*
X5709232Y1477637D01*
X5711024Y1480624D01*
X5711622Y1483611D01*
X5712020Y1486797D01*
X5712219Y1578604D01*
X5711821Y1579799D01*
X5710825Y1583981D01*
X5710228Y1585376D01*
X5709431Y1586172D01*
X5709033Y1586969D01*
X5707440Y1588163D01*
X5707041Y1588960D01*
X5706444Y1589557D01*
X5705647Y1589956D01*
X5702063Y1591549D01*
X5699872Y1592146D01*
X5697881Y1592545D01*
X5644708Y1592744D01*
X5643513Y1592346D01*
X5641323Y1591748D01*
X5639331Y1590952D01*
X5636145Y1588960D01*
X5634552Y1587367D01*
X5631365Y1580596D01*
X5630967Y1577808D01*
X5630569Y1383838D01*
X5628776Y1382046D01*
X5624793Y1381647D01*
X5623200Y1382046D01*
X5622006Y1381647D01*
X5586557Y1382046D01*
X5584765Y1383440D01*
X5583968Y1387423D01*
X5584367Y1388618D01*
X5584566Y1587964D01*
X5584367Y1590155D01*
X5584765Y1591350D01*
X5585163Y1601705D01*
X5585561Y1602901D01*
X5586159Y1607082D01*
X5586557Y1608676D01*
X5587553Y1612061D01*
X5587951Y1613654D01*
X5589345Y1617438D01*
X5591138Y1620425D01*
X5592332Y1623213D01*
X5593527Y1625205D01*
X5595320Y1627396D01*
X5600099Y1632175D01*
X5600896Y1632573D01*
X5606074Y1636158D01*
X5612048Y1638548D01*
X5616828Y1639344D01*
X5620810Y1639743D01*
X5627183Y1640141D01*
X5728749Y1639743D01*
X5729943Y1639344D01*
X5731935Y1638548D01*
X5739502Y1634565D01*
X5741693Y1632772D01*
X5742291Y1632175D01*
X5743087Y1631777D01*
X5746672Y1628192D01*
X5747468Y1627794D01*
X5748464Y1626400D01*
X5751053Y1622616D01*
X5752845Y1619629D01*
X5755633Y1613654D01*
X5756430Y1610866D01*
X5757226Y1607680D01*
X5757824Y1605091D01*
X5758222Y1603498D01*
X5758621Y1601108D01*
X5759019Y1594337D01*
X5759218Y1461904D01*
X5758820Y1460709D01*
X5758222Y1457324D01*
X5757027Y1452544D01*
X5756430Y1450353D01*
X5752447Y1442786D01*
X5750655Y1440595D01*
X5749261Y1439201D01*
X5748862Y1438405D01*
X5744282Y1433824D01*
X5743485Y1433426D01*
X5742689Y1432629D01*
X5741892Y1432231D01*
X5740299Y1430638D01*
X5737511Y1429443D01*
X5732333Y1427850D01*
X5729545Y1427452D01*
X5727952Y1427053D01*
X5695292Y1427452D01*
X5693499Y1429244D01*
X5693101Y1430837D01*
X5692703Y1433625D01*
X5693101Y1436413D01*
Y1444379D01*
Y1444777D01*
D02*
G37*
G36*
X5722774Y1662047D02*
X5586557Y1662445D01*
X5584765Y1663839D01*
X5584367Y1666628D01*
X5584765Y1707652D01*
X5586159Y1709046D01*
X5590142Y1709444D01*
X5757027Y1709046D01*
X5758820Y1707652D01*
X5759218Y1706059D01*
X5758820Y1664238D01*
X5757027Y1662445D01*
X5753044Y1662047D01*
X5723172D01*
X5722774D01*
D02*
G37*
G36*
X5686131Y1778349D02*
X5753642Y1778548D01*
X5756828Y1778150D01*
X5758820Y1776955D01*
X5759218Y1775362D01*
X5758820Y1733939D01*
X5757824Y1732545D01*
X5755036Y1731749D01*
X5586159Y1732147D01*
X5584765Y1733541D01*
X5584367Y1736329D01*
X5584765Y1803641D01*
X5588150Y1807027D01*
X5592532Y1809416D01*
X5593328Y1810213D01*
X5594125Y1810611D01*
X5596515Y1812204D01*
X5599303Y1813797D01*
X5600099Y1814594D01*
X5600896Y1814993D01*
X5604680Y1817581D01*
X5605277Y1818179D01*
X5606074Y1818577D01*
X5611251Y1821365D01*
X5612446Y1822560D01*
X5613243Y1822958D01*
X5616031Y1824552D01*
X5616828Y1825348D01*
X5617624Y1825746D01*
X5620014Y1827339D01*
X5622802Y1828933D01*
X5624395Y1830526D01*
X5629573Y1833314D01*
X5630370Y1834111D01*
X5631166Y1834509D01*
X5634950Y1837098D01*
X5635548Y1837695D01*
X5639929Y1840085D01*
X5640725Y1840882D01*
X5641522Y1841280D01*
X5645505Y1843670D01*
X5649488Y1846458D01*
X5652276Y1848051D01*
X5653471Y1849246D01*
X5657852Y1851636D01*
X5658649Y1852432D01*
X5659445Y1852830D01*
X5661835Y1854424D01*
X5664623Y1856017D01*
X5665420Y1856813D01*
X5666216Y1857212D01*
X5670000Y1859801D01*
X5672987Y1861593D01*
X5675775Y1863186D01*
X5676572Y1863983D01*
X5677368Y1864381D01*
X5678165Y1865178D01*
X5680953Y1866771D01*
X5683741Y1868762D01*
X5687326Y1870754D01*
X5688919Y1872347D01*
X5691707Y1873542D01*
X5692504Y1873940D01*
X5697682Y1877525D01*
X5698478Y1877923D01*
X5702461Y1880711D01*
X5706046Y1882703D01*
X5706842Y1883499D01*
X5707639Y1883897D01*
X5710427Y1885491D01*
X5711423Y1886486D01*
X5711024Y1888080D01*
X5710427Y1888677D01*
X5708834Y1889075D01*
X5587951Y1888876D01*
X5586358Y1889274D01*
X5584964Y1890270D01*
X5584367Y1892461D01*
X5584765Y1933884D01*
X5585760Y1935278D01*
X5588549Y1936074D01*
X5757027Y1935676D01*
X5758820Y1934282D01*
X5759218Y1932689D01*
X5759616Y1930299D01*
X5759218Y1929104D01*
X5759417Y1863983D01*
X5758621Y1861991D01*
X5755434Y1858805D01*
X5754638Y1858406D01*
X5750854Y1855818D01*
X5746473Y1853030D01*
X5745079Y1852034D01*
X5742689Y1850441D01*
X5739901Y1848847D01*
X5737113Y1846856D01*
X5734325Y1845263D01*
X5733528Y1844466D01*
X5732731Y1844068D01*
X5729545Y1842077D01*
X5728749Y1841678D01*
X5727952Y1840882D01*
X5727155Y1840483D01*
X5726359Y1839687D01*
X5721977Y1837297D01*
X5714012Y1831721D01*
X5710427Y1829729D01*
X5709232Y1828535D01*
X5705647Y1826543D01*
X5704851Y1825746D01*
X5704054Y1825348D01*
X5701664Y1823755D01*
X5699673Y1822560D01*
X5697482Y1820768D01*
X5692105Y1817780D01*
X5691309Y1816984D01*
X5690512Y1816586D01*
X5686728Y1813997D01*
X5682347Y1811209D01*
X5679957Y1809615D01*
X5679360Y1809018D01*
X5675775Y1807027D01*
X5671792Y1804238D01*
X5670996Y1803840D01*
X5667013Y1801052D01*
X5664225Y1799459D01*
X5663428Y1798662D01*
X5662632Y1798264D01*
X5660640Y1797069D01*
X5657852Y1795476D01*
X5656657Y1794281D01*
X5655860Y1793883D01*
X5652077Y1791294D01*
X5649687Y1789701D01*
X5647297Y1788506D01*
X5644907Y1786913D01*
X5643912Y1785917D01*
X5639531Y1783527D01*
X5636543Y1780540D01*
X5636941Y1779345D01*
X5637539Y1778748D01*
X5640327Y1778349D01*
X5650284Y1778748D01*
X5651479Y1778349D01*
X5685733D01*
X5686131D01*
D02*
G37*
G36*
X5758820Y1989645D02*
X5758023Y1987653D01*
X5756828Y1982874D01*
X5756231Y1980683D01*
X5755434Y1978692D01*
X5754040Y1976501D01*
X5752049Y1972916D01*
X5750256Y1970726D01*
X5749261Y1969730D01*
X5748862Y1968934D01*
X5746273Y1966345D01*
X5745477Y1965946D01*
X5743087Y1964353D01*
X5742291Y1963955D01*
X5739502Y1961963D01*
X5736714Y1960768D01*
X5731537Y1958379D01*
X5728948Y1957781D01*
X5723571Y1957184D01*
X5721977Y1956786D01*
X5706444D01*
X5706046D01*
X5616031Y1957184D01*
X5614836Y1957582D01*
X5611052Y1958179D01*
X5604481Y1961167D01*
X5601692Y1962760D01*
X5599502Y1964552D01*
X5597112Y1966145D01*
X5592731Y1970527D01*
X5590341Y1974908D01*
X5589544Y1975704D01*
X5588350Y1978493D01*
X5586756Y1982476D01*
X5585163Y1988848D01*
X5584765Y1991636D01*
X5585163Y2168081D01*
X5585561Y2169276D01*
X5585960Y2170869D01*
X5586557Y2173060D01*
X5587354Y2175051D01*
X5588947Y2179432D01*
X5590540Y2181822D01*
X5593527Y2186801D01*
X5596913Y2190186D01*
X5597709Y2190585D01*
X5598506Y2191381D01*
X5599303Y2191779D01*
X5601294Y2193771D01*
X5609658Y2197754D01*
X5612446Y2198152D01*
X5614040Y2198551D01*
X5617823Y2199148D01*
X5619815Y2199546D01*
X5698876Y2199745D01*
X5700071Y2199347D01*
X5726359Y2198949D01*
X5727554Y2198551D01*
X5731736Y2197953D01*
X5733727Y2197555D01*
X5736117Y2196360D01*
X5739104Y2194568D01*
X5740299Y2194169D01*
X5744083Y2191580D01*
X5744680Y2190983D01*
X5745477Y2190585D01*
X5747667Y2188792D01*
X5748464Y2187996D01*
X5748862Y2187199D01*
X5750854Y2185208D01*
X5751252Y2184411D01*
X5752049Y2183614D01*
X5756430Y2174454D01*
X5757426Y2169873D01*
X5757824Y2168280D01*
X5758820Y2165691D01*
X5759218Y2161708D01*
X5758820Y1989645D01*
D02*
G37*
G36*
X5759218Y2647230D02*
X5759019Y2603616D01*
X5759218Y2272832D01*
X5758820Y2271638D01*
X5758422Y2256901D01*
X5758023Y2255706D01*
X5757426Y2251922D01*
X5756231Y2244753D01*
X5755833Y2243160D01*
X5755036Y2241168D01*
X5751252Y2234198D01*
X5748464Y2231410D01*
X5748066Y2230613D01*
X5747070Y2229618D01*
X5742689Y2227228D01*
X5741892Y2226431D01*
X5741096Y2226033D01*
X5735519Y2223643D01*
X5731935Y2222050D01*
X5729346Y2221453D01*
X5724566Y2220656D01*
X5722575Y2220258D01*
X5720982Y2219859D01*
X5718990Y2219461D01*
X5717397Y2219063D01*
X5715007Y2218664D01*
X5710626Y2218266D01*
X5702262Y2217868D01*
X5690910Y2217669D01*
X5689716Y2218067D01*
X5680953Y2218465D01*
X5679758Y2218863D01*
X5677169Y2219461D01*
X5674580Y2220457D01*
X5668008Y2221851D01*
X5666017Y2222647D01*
X5663627Y2224240D01*
X5661636Y2225037D01*
X5660242Y2225635D01*
X5657454Y2227626D01*
X5656657Y2228423D01*
X5655860Y2228821D01*
X5654068Y2230215D01*
X5653670Y2231012D01*
X5652276Y2232405D01*
X5650683Y2232804D01*
X5648691Y2231609D01*
X5644708Y2227626D01*
X5643912Y2227228D01*
X5642717Y2226033D01*
X5641920Y2225635D01*
X5638335Y2223643D01*
X5633158Y2221253D01*
X5629772Y2220656D01*
X5627382Y2220258D01*
X5625789Y2219859D01*
X5623798Y2219461D01*
X5622205Y2219063D01*
X5619018Y2218664D01*
X5596913Y2218465D01*
X5595718Y2218863D01*
X5588350Y2218664D01*
X5586358Y2219063D01*
X5584765Y2220656D01*
X5584367Y2223444D01*
X5584765Y2264070D01*
X5586159Y2265862D01*
X5587752Y2266261D01*
X5620014Y2266659D01*
X5621209Y2267057D01*
X5625192Y2267455D01*
X5627980Y2269447D01*
X5628776Y2270244D01*
X5629374Y2270443D01*
X5629772Y2271239D01*
X5630967Y2274027D01*
X5631365Y2276815D01*
X5631764Y2283188D01*
X5631565Y2379376D01*
X5631764Y2382364D01*
X5630171Y2385152D01*
X5628378Y2385749D01*
X5625590Y2386147D01*
X5623997Y2385749D01*
X5586557Y2386147D01*
X5584765Y2387541D01*
X5584367Y2390329D01*
X5584765Y2431752D01*
X5586557Y2433545D01*
X5589345Y2433943D01*
X5708635Y2433744D01*
X5710029Y2434341D01*
X5711423Y2435337D01*
X5712219Y2438125D01*
X5711821Y2493886D01*
X5710029Y2496077D01*
X5707241Y2496475D01*
X5702660Y2496276D01*
X5590540Y2496475D01*
X5589345Y2496077D01*
X5586358Y2496674D01*
X5584964Y2497670D01*
X5584367Y2499861D01*
X5584765Y2541681D01*
X5585760Y2542677D01*
X5588549Y2543474D01*
X5591934Y2543275D01*
X5594523Y2543474D01*
X5595718Y2543076D01*
X5597311Y2543474D01*
X5708236Y2543275D01*
X5709830Y2543673D01*
X5711423Y2545266D01*
X5712219Y2548453D01*
X5711821Y2603815D01*
X5710427Y2605608D01*
X5707241Y2606404D01*
X5704452Y2606006D01*
X5655263Y2606205D01*
X5652674Y2606006D01*
X5651479Y2606404D01*
X5586159Y2606803D01*
X5584765Y2608197D01*
X5584367Y2609790D01*
X5584765Y2677898D01*
X5586159Y2679691D01*
X5586956Y2680089D01*
X5592133Y2683674D01*
X5594922Y2685267D01*
X5598904Y2688055D01*
X5599701Y2688453D01*
X5603684Y2691241D01*
X5606472Y2692835D01*
X5609260Y2694826D01*
X5612048Y2696419D01*
X5614836Y2698411D01*
X5615633Y2698809D01*
X5620810Y2702394D01*
X5624395Y2704385D01*
X5625590Y2705580D01*
X5626387Y2705978D01*
X5629971Y2707970D01*
X5633954Y2710758D01*
X5634751Y2711156D01*
X5636941Y2712948D01*
X5638734Y2713944D01*
X5643115Y2716334D01*
X5644310Y2717529D01*
X5645107Y2717927D01*
X5654466Y2724101D01*
X5655064Y2724698D01*
X5659445Y2727088D01*
X5662233Y2729079D01*
X5665021Y2730672D01*
X5666216Y2731868D01*
X5667013Y2732266D01*
X5671394Y2734655D01*
X5672589Y2735850D01*
X5673385Y2736249D01*
X5676174Y2737842D01*
X5681351Y2741427D01*
X5683343Y2742621D01*
X5686131Y2744613D01*
X5688919Y2746206D01*
X5691707Y2748197D01*
X5695292Y2750189D01*
X5696088Y2750986D01*
X5696885Y2751384D01*
X5699673Y2753375D01*
X5700470Y2753774D01*
X5703258Y2755765D01*
X5707639Y2758155D01*
X5708834Y2759350D01*
X5709630Y2759748D01*
X5711821Y2761540D01*
X5711423Y2763134D01*
X5709630Y2763731D01*
X5707041Y2763930D01*
X5586956Y2763731D01*
X5584964Y2764926D01*
X5584367Y2766718D01*
X5584765Y2808539D01*
X5585362Y2809535D01*
X5587354Y2810331D01*
X5705050Y2810132D01*
X5706643Y2810531D01*
X5707440Y2811327D01*
X5707041Y2813717D01*
X5706245Y2814514D01*
X5705847Y2815310D01*
X5704452Y2816704D01*
X5703656Y2817103D01*
X5694296Y2826462D01*
X5693898Y2827259D01*
X5692902Y2828255D01*
X5692105Y2828653D01*
X5687127Y2833632D01*
X5686728Y2834428D01*
X5684936Y2836221D01*
X5684339Y2836420D01*
X5683940Y2837216D01*
X5680157Y2841000D01*
X5679360Y2841398D01*
X5676771Y2843987D01*
X5676373Y2844784D01*
X5668208Y2852949D01*
X5667411Y2853347D01*
X5665619Y2855140D01*
X5665221Y2855936D01*
X5652873Y2868283D01*
X5652475Y2869080D01*
X5650284Y2871271D01*
X5649488Y2871669D01*
X5644907Y2876249D01*
X5644509Y2877046D01*
X5643513Y2878042D01*
X5642717Y2878440D01*
X5641323Y2879834D01*
X5641124Y2880431D01*
X5640327Y2880830D01*
X5639531Y2881626D01*
X5636344Y2882423D01*
X5586159Y2882821D01*
X5584765Y2884215D01*
X5584367Y2888198D01*
X5584765Y2889791D01*
X5584367Y2892181D01*
X5584765Y2893376D01*
X5584367Y2897359D01*
X5584566Y2918668D01*
X5584367Y2920062D01*
X5584765Y2921257D01*
X5584367Y2925240D01*
X5584765Y2926435D01*
X5585163Y2927231D01*
X5586159Y2928227D01*
X5587752Y2928625D01*
X5603684D01*
X5604082D01*
X5637937Y2929023D01*
X5641522Y2931812D01*
X5653670Y2943960D01*
X5654068Y2944756D01*
X5656259Y2946947D01*
X5657055Y2947345D01*
X5658051Y2948341D01*
X5658449Y2949137D01*
X5661038Y2951726D01*
X5661835Y2952124D01*
X5662831Y2953519D01*
X5663428Y2954116D01*
X5664026Y2954315D01*
X5664424Y2955112D01*
X5670199Y2960887D01*
X5670797Y2961086D01*
X5671195Y2961883D01*
X5707440Y2998128D01*
X5707838Y2998924D01*
X5711423Y3002509D01*
X5712219Y3005695D01*
X5711821Y3155056D01*
X5709830Y3158640D01*
X5709232Y3159238D01*
X5708435Y3159636D01*
X5704851Y3161229D01*
X5700868Y3160831D01*
X5696288Y3157446D01*
X5695491Y3155454D01*
X5695092Y3153861D01*
X5694694Y3148683D01*
X5694296Y3031584D01*
X5693898Y3030389D01*
X5693499Y3028796D01*
X5691906Y3024813D01*
X5689915Y3021229D01*
X5688322Y3019636D01*
X5687923Y3018839D01*
X5686131Y3016648D01*
X5683940Y3014856D01*
X5682945Y3013860D01*
X5682148Y3013462D01*
X5679360Y3011869D01*
X5676572Y3009877D01*
X5674580Y3009081D01*
X5671991Y3008483D01*
X5668805Y3007288D01*
X5666216Y3006293D01*
X5663627Y3005695D01*
X5661238Y3005297D01*
X5655860Y3004699D01*
X5653073Y3004301D01*
X5645505Y3003903D01*
X5640327Y3003505D01*
X5630171Y3004102D01*
X5625789Y3004500D01*
X5622205Y3004898D01*
X5617027Y3005695D01*
X5615035Y3006094D01*
X5611849Y3007288D01*
X5609260Y3008284D01*
X5607667Y3008682D01*
X5603883Y3010077D01*
X5603285Y3010674D01*
X5602489Y3011072D01*
X5600099Y3012665D01*
X5599303Y3013064D01*
X5595718Y3015852D01*
X5593527Y3017644D01*
X5592332Y3018839D01*
X5591934Y3019636D01*
X5589943Y3021627D01*
X5589544Y3022423D01*
X5587951Y3024813D01*
X5586956Y3027402D01*
X5585960Y3029593D01*
X5585163Y3032381D01*
X5584765Y3033974D01*
X5584367Y3040347D01*
X5584765Y3288086D01*
X5586159Y3289879D01*
X5587752Y3290277D01*
X5628776Y3289879D01*
X5630171Y3288485D01*
X5630569Y3286891D01*
X5630967Y3284103D01*
X5630569Y3281315D01*
X5630967Y3058669D01*
X5632560Y3055880D01*
X5634353Y3053690D01*
X5635946Y3052097D01*
X5638734Y3051698D01*
X5643115Y3052097D01*
X5645306Y3053889D01*
X5647297Y3056677D01*
X5647895Y3058868D01*
X5648293Y3179949D01*
X5649090Y3183932D01*
X5649488Y3185525D01*
X5650683Y3188712D01*
X5651678Y3189707D01*
X5653670Y3193292D01*
X5655462Y3195483D01*
X5656259Y3195881D01*
X5659445Y3199067D01*
X5660242Y3199466D01*
X5664623Y3201855D01*
X5665420Y3202652D01*
X5668208Y3203847D01*
X5676970Y3206635D01*
X5678563Y3207033D01*
X5683343Y3207830D01*
X5687326Y3208228D01*
X5692504Y3208627D01*
X5696487Y3209025D01*
X5715605Y3208627D01*
X5716800Y3208228D01*
X5723172Y3207830D01*
X5724367Y3207431D01*
X5727753Y3206834D01*
X5729346Y3206436D01*
X5734922Y3204444D01*
X5736515Y3204046D01*
X5740299Y3202254D01*
X5742689Y3200661D01*
X5747070Y3198271D01*
X5750655Y3194686D01*
X5751252Y3194487D01*
X5751650Y3193690D01*
X5752447Y3192894D01*
X5752845Y3192097D01*
X5753642Y3191301D01*
X5754040Y3190504D01*
X5756032Y3187716D01*
X5758422Y3179750D01*
X5758820Y3178157D01*
X5759218Y3174174D01*
X5758820Y2984586D01*
X5755036Y2979607D01*
X5754239Y2978810D01*
X5753443Y2978412D01*
X5748862Y2973831D01*
X5748464Y2973035D01*
X5736914Y2961485D01*
X5736515Y2960688D01*
X5735519Y2959692D01*
X5734723Y2959294D01*
X5733329Y2957900D01*
X5732931Y2957103D01*
X5731935Y2956107D01*
X5731138Y2955709D01*
X5728948Y2953519D01*
X5728549Y2952722D01*
X5723571Y2947743D01*
X5722774Y2947345D01*
X5718592Y2943163D01*
X5718194Y2942366D01*
X5706245Y2930418D01*
X5705847Y2929621D01*
X5704452Y2928227D01*
X5703656Y2927829D01*
X5703058Y2927231D01*
X5702660Y2926435D01*
X5701266Y2925040D01*
X5700470Y2924642D01*
X5698279Y2922452D01*
X5697881Y2921655D01*
X5697283Y2921057D01*
X5696487Y2920659D01*
X5695491Y2919663D01*
X5695092Y2918867D01*
X5692902Y2916676D01*
X5692305Y2916477D01*
X5691906Y2915680D01*
X5689716Y2913490D01*
X5688919Y2913092D01*
X5687525Y2911698D01*
X5687127Y2910901D01*
X5683940Y2907715D01*
X5683144Y2904927D01*
X5683940Y2902935D01*
X5685733Y2901143D01*
X5686529Y2900745D01*
X5687525Y2899749D01*
X5687923Y2898952D01*
X5692902Y2893973D01*
X5693699Y2893575D01*
X5695491Y2891783D01*
X5695889Y2890986D01*
X5697283Y2889592D01*
X5698080Y2889194D01*
X5700071Y2886804D01*
X5704054Y2882821D01*
X5704851Y2882423D01*
X5706643Y2880631D01*
X5707041Y2879834D01*
X5715207Y2871669D01*
X5716003Y2871271D01*
X5718592Y2868682D01*
X5718990Y2867885D01*
X5723571Y2863305D01*
X5724367Y2862906D01*
X5726159Y2861114D01*
X5726558Y2860318D01*
X5727155Y2859720D01*
X5727952Y2859322D01*
X5729346Y2857928D01*
X5729744Y2857131D01*
X5735121Y2851754D01*
X5735918Y2851356D01*
X5737312Y2849962D01*
X5737710Y2849165D01*
X5739104Y2847771D01*
X5739901Y2847373D01*
X5740498Y2846776D01*
X5740897Y2845979D01*
X5746273Y2840602D01*
X5747070Y2840204D01*
X5749261Y2838013D01*
X5749659Y2837216D01*
X5757625Y2829251D01*
X5758023Y2828454D01*
X5758820Y2827657D01*
X5759218Y2826064D01*
X5759417Y2809137D01*
X5759019Y2737444D01*
X5758222Y2735452D01*
X5757027Y2734257D01*
X5756231Y2733859D01*
X5753443Y2732266D01*
X5752248Y2731071D01*
X5751451Y2730672D01*
X5749062Y2729079D01*
X5748265Y2728681D01*
X5747070Y2727486D01*
X5746273Y2727088D01*
X5741892Y2724698D01*
X5740299Y2723105D01*
X5739502Y2722707D01*
X5736714Y2721113D01*
X5735918Y2720317D01*
X5735121Y2719919D01*
X5732731Y2718325D01*
X5730740Y2717130D01*
X5729545Y2715936D01*
X5728749Y2715537D01*
X5724367Y2713147D01*
X5723571Y2712351D01*
X5722774Y2711953D01*
X5720384Y2710360D01*
X5718393Y2709165D01*
X5717198Y2707970D01*
X5712817Y2705580D01*
X5712020Y2704783D01*
X5711224Y2704385D01*
X5710427Y2703588D01*
X5706046Y2701199D01*
X5704851Y2700004D01*
X5704054Y2699605D01*
X5701266Y2698012D01*
X5697283Y2695224D01*
X5695292Y2694029D01*
X5692504Y2692038D01*
X5688919Y2690046D01*
X5688122Y2689250D01*
X5687326Y2688852D01*
X5686529Y2688055D01*
X5683741Y2686462D01*
X5682546Y2685267D01*
X5677368Y2682479D01*
X5675178Y2680687D01*
X5671195Y2678297D01*
X5668805Y2676704D01*
X5665619Y2674712D01*
X5664623Y2673716D01*
X5663826Y2673318D01*
X5659445Y2670928D01*
X5657255Y2669136D01*
X5653869Y2666945D01*
X5651081Y2664954D01*
X5648293Y2663361D01*
X5644310Y2660573D01*
X5641522Y2658979D01*
X5637141Y2656590D01*
X5636543Y2655992D01*
X5636344Y2654996D01*
X5637141Y2653802D01*
X5638734Y2653403D01*
X5643513Y2653005D01*
X5644708Y2653403D01*
X5757426Y2653005D01*
X5759218Y2651611D01*
X5759616Y2648823D01*
X5759218Y2647230D01*
D02*
G37*
G36*
X5722376Y3758672D02*
X5771764Y3758273D01*
X5772959Y3757875D01*
X5776146Y3757477D01*
X5777340Y3757079D01*
X5782518Y3755087D01*
X5784510Y3754290D01*
X5786103Y3753892D01*
X5791281Y3751104D01*
X5794069Y3749511D01*
X5796857Y3747520D01*
X5800442Y3745528D01*
X5802831Y3743138D01*
X5803628Y3742740D01*
X5804823Y3741545D01*
X5805619Y3741147D01*
X5811992Y3734774D01*
X5812789Y3734376D01*
X5813386Y3733778D01*
X5813784Y3732982D01*
X5816573Y3729397D01*
X5817767Y3728202D01*
X5818166Y3727406D01*
X5819759Y3725812D01*
X5820157Y3725016D01*
X5820954Y3724219D01*
X5821352Y3723423D01*
X5823941Y3719639D01*
X5824937Y3717847D01*
X5825335Y3717050D01*
X5826928Y3714262D01*
X5828521Y3711872D01*
X5829318Y3709881D01*
X5832106Y3703906D01*
X5834695Y3696538D01*
X5836487Y3692356D01*
X5836885Y3689568D01*
X5837284Y3687974D01*
X5838877Y3682797D01*
X5839674Y3679610D01*
X5840271Y3676225D01*
X5840669Y3673835D01*
X5841864Y3665869D01*
X5842263Y3663878D01*
X5842661Y3662284D01*
X5843059Y3659895D01*
X5843457Y3656708D01*
X5843856Y3652725D01*
X5844254Y3645158D01*
X5844652Y3628828D01*
X5845051Y3549567D01*
X5845250Y3415142D01*
X5844851Y3413947D01*
X5844453Y3386465D01*
X5844055Y3385270D01*
X5843657Y3379694D01*
X5843258Y3378499D01*
X5842661Y3376309D01*
X5842063Y3374516D01*
X5840868Y3369737D01*
X5840271Y3367546D01*
X5839873Y3365953D01*
X5838280Y3361970D01*
X5837284Y3359779D01*
X5836288Y3357190D01*
X5834695Y3354801D01*
X5832903Y3351813D01*
X5832504Y3350220D01*
X5828721Y3345242D01*
X5827725Y3343848D01*
X5826530Y3342653D01*
X5826132Y3341856D01*
X5823343Y3338271D01*
X5821352Y3336280D01*
X5820954Y3335483D01*
X5819958Y3334488D01*
X5819161Y3334089D01*
X5818365Y3333293D01*
X5817568Y3332895D01*
X5815577Y3330903D01*
X5814780Y3330505D01*
X5813984Y3329708D01*
X5813187Y3329310D01*
X5811594Y3327717D01*
X5810797Y3327318D01*
X5804823Y3324132D01*
X5802831Y3322937D01*
X5800840Y3322140D01*
X5797056Y3320746D01*
X5792077Y3318556D01*
X5789887Y3317958D01*
X5785306Y3316166D01*
X5782120Y3315370D01*
X5777540Y3314374D01*
X5773756Y3314175D01*
X5772362Y3315170D01*
X5771964Y3316763D01*
Y3447006D01*
Y3447404D01*
X5771565Y3639382D01*
X5771167Y3640577D01*
X5770569Y3643564D01*
X5769773Y3646751D01*
X5768777Y3649340D01*
X5766985Y3654319D01*
X5764794Y3658501D01*
X5762803Y3662085D01*
X5761209Y3663678D01*
X5759218Y3667263D01*
X5753044Y3673437D01*
X5752248Y3673835D01*
X5748663Y3676623D01*
X5747867Y3677420D01*
X5743485Y3679809D01*
X5740697Y3681403D01*
X5735719Y3683195D01*
X5733528Y3684190D01*
X5730740Y3684987D01*
X5729147Y3685386D01*
X5723571Y3686182D01*
X5714410Y3686580D01*
X5713215Y3686182D01*
X5706444Y3685784D01*
X5705249Y3685386D01*
X5701067Y3684390D01*
X5699075Y3683593D01*
X5696885Y3682597D01*
X5691906Y3680805D01*
X5689716Y3679411D01*
X5684737Y3676026D01*
X5683343Y3674631D01*
X5682546Y3674233D01*
X5681750Y3673437D01*
X5680953Y3673038D01*
X5676373Y3668458D01*
X5675974Y3667661D01*
X5674182Y3665471D01*
X5671195Y3661289D01*
X5670797Y3660492D01*
X5669203Y3658102D01*
X5668008Y3655314D01*
X5666017Y3651730D01*
X5665221Y3649738D01*
X5664822Y3648145D01*
X5664026Y3645357D01*
X5662034Y3638984D01*
X5661636Y3637391D01*
X5661238Y3634603D01*
X5660839Y3633010D01*
X5660441Y3627832D01*
X5660043Y3621459D01*
X5659644Y3616281D01*
X5659843Y3612099D01*
X5659445Y3591786D01*
X5659047Y3565897D01*
X5658649Y3547575D01*
X5658250Y3518898D01*
X5657852Y3488628D01*
X5657454Y3444815D01*
X5657055Y3439638D01*
X5656657Y3437248D01*
X5656259Y3435655D01*
X5655064Y3432468D01*
X5652873Y3427888D01*
X5652475Y3427091D01*
X5650683Y3424901D01*
X5649687Y3423506D01*
X5647496Y3421316D01*
X5646700Y3420918D01*
X5643912Y3418130D01*
X5635548Y3414147D01*
X5632759Y3413350D01*
X5628776Y3412155D01*
X5627183Y3411757D01*
X5623200Y3411359D01*
X5617624Y3411757D01*
X5613641Y3413350D01*
X5611451Y3413947D01*
X5608464Y3415341D01*
X5602091Y3420121D01*
X5599900Y3422312D01*
X5599502Y3423108D01*
X5597709Y3425299D01*
X5594722Y3430278D01*
X5594324Y3431074D01*
X5593129Y3433862D01*
X5592731Y3435455D01*
X5592133Y3438044D01*
X5591536Y3443421D01*
X5591138Y3445014D01*
X5590540Y3451985D01*
X5590142Y3457561D01*
X5589943Y3749710D01*
X5590341Y3750905D01*
X5589943Y3754888D01*
X5590341Y3756879D01*
X5591735Y3758273D01*
X5594523Y3758672D01*
X5721181Y3759070D01*
X5722376Y3758672D01*
D02*
G37*
G36*
X5569032Y3757875D02*
X5570426Y3756481D01*
X5570625Y3754290D01*
X5570426Y3438244D01*
X5570825Y3437048D01*
X5571422Y3432468D01*
X5572617Y3427689D01*
X5573015Y3425299D01*
X5573812Y3422113D01*
X5576002Y3417930D01*
X5576998Y3415341D01*
X5577795Y3413350D01*
X5578392Y3412753D01*
X5578790Y3411956D01*
X5579587Y3411160D01*
X5582375Y3405982D01*
X5584367Y3403990D01*
X5584765Y3403194D01*
X5586358Y3401600D01*
X5586756Y3400804D01*
X5588150Y3399410D01*
X5588947Y3399011D01*
X5589743Y3398215D01*
X5590540Y3397817D01*
X5593726Y3394630D01*
X5594523Y3394232D01*
X5597311Y3392240D01*
X5601692Y3390249D01*
X5606870Y3387859D01*
X5612446Y3387063D01*
X5614040Y3386664D01*
X5618819Y3385868D01*
X5625192Y3385469D01*
X5630967Y3386067D01*
X5634950Y3386863D01*
X5637340Y3387262D01*
X5639331Y3387660D01*
X5640924Y3388058D01*
X5642916Y3388855D01*
X5645903Y3390647D01*
X5648492Y3391643D01*
X5652475Y3394033D01*
X5653073Y3394630D01*
X5655064Y3395825D01*
X5657255Y3397617D01*
X5658649Y3399011D01*
X5659445Y3399410D01*
X5660242Y3400206D01*
X5660839Y3400405D01*
X5661238Y3401202D01*
X5662233Y3402198D01*
X5663030Y3402596D01*
X5664026Y3403592D01*
X5664424Y3404388D01*
X5666216Y3406579D01*
X5666814Y3407177D01*
X5667212Y3407973D01*
X5668008Y3408770D01*
X5668407Y3409566D01*
X5671195Y3413549D01*
X5671593Y3414346D01*
X5673186Y3417930D01*
X5673585Y3418727D01*
X5675576Y3421913D01*
X5676970Y3428485D01*
X5678763Y3434261D01*
X5679161Y3435854D01*
X5679957Y3441430D01*
X5680356Y3445413D01*
X5680754Y3493606D01*
X5681152Y3504759D01*
X5681550Y3535428D01*
X5681949Y3536622D01*
X5682347Y3570876D01*
X5682745Y3572071D01*
X5682546Y3575854D01*
X5682945Y3591786D01*
X5683343Y3623650D01*
X5683741Y3628828D01*
X5684538Y3633607D01*
X5686131Y3637988D01*
X5687923Y3642171D01*
X5689516Y3644959D01*
X5693300Y3649937D01*
X5694097Y3650734D01*
X5694893Y3651132D01*
X5697682Y3653920D01*
X5698478Y3654319D01*
X5701664Y3656310D01*
X5706046Y3658302D01*
X5712418Y3659895D01*
X5715207Y3660293D01*
X5722376Y3659895D01*
X5723571Y3659496D01*
X5726159Y3658899D01*
X5727753Y3658501D01*
X5729744Y3657704D01*
X5731138Y3656708D01*
X5734723Y3654717D01*
X5736914Y3652924D01*
X5738706Y3651132D01*
X5739502Y3650734D01*
X5741295Y3648941D01*
X5741693Y3648145D01*
X5743485Y3645954D01*
X5744083Y3645357D01*
X5744481Y3644560D01*
X5746074Y3641772D01*
X5747667Y3639382D01*
X5748464Y3637391D01*
X5749261Y3634603D01*
X5750655Y3630819D01*
X5751650Y3628230D01*
X5752049Y3626637D01*
X5752447Y3621459D01*
X5752845Y3618671D01*
X5752646Y3410960D01*
X5752845Y3409566D01*
X5752447Y3408371D01*
X5752049Y3314374D01*
X5750655Y3312980D01*
X5749062Y3312581D01*
X5708236Y3312781D01*
X5707639Y3312581D01*
X5706444Y3312980D01*
X5701266Y3312581D01*
X5700071Y3312980D01*
X5565846Y3313378D01*
X5564651Y3313776D01*
X5560469Y3314374D01*
X5558477Y3314772D01*
X5556884Y3315170D01*
X5554893Y3315569D01*
X5553300Y3315967D01*
X5546728Y3318954D01*
X5539558Y3322937D01*
X5537368Y3324729D01*
X5536372Y3325725D01*
X5533584Y3327318D01*
X5530398Y3330505D01*
X5529601Y3330903D01*
X5528207Y3332297D01*
X5527809Y3333094D01*
X5526614Y3334288D01*
X5526216Y3335085D01*
X5524622Y3336678D01*
X5524224Y3337475D01*
X5523427Y3338271D01*
X5523029Y3339068D01*
X5522233Y3339865D01*
X5521834Y3340661D01*
X5521038Y3341458D01*
X5520639Y3342254D01*
X5518250Y3346636D01*
X5516258Y3349424D01*
X5515860Y3351017D01*
X5514665Y3353805D01*
X5514267Y3354602D01*
X5512275Y3357788D01*
X5510483Y3362767D01*
X5508691Y3366949D01*
X5507097Y3373321D01*
X5505106Y3378499D01*
X5504708Y3380093D01*
X5504309Y3382880D01*
X5503911Y3384474D01*
X5503314Y3387461D01*
X5502517Y3390647D01*
X5502119Y3392639D01*
X5501720Y3395825D01*
X5501322Y3399410D01*
X5500924Y3403393D01*
X5500525Y3408969D01*
X5500127Y3413748D01*
X5499928Y3416337D01*
Y3416736D01*
X5499530Y3427888D01*
X5499131Y3448599D01*
X5499530Y3484844D01*
X5499131Y3515911D01*
X5498733Y3517106D01*
X5498335Y3675229D01*
X5498733Y3676424D01*
X5500525Y3687775D01*
X5501322Y3691758D01*
X5502119Y3694945D01*
X5502915Y3696936D01*
X5503911Y3699525D01*
X5504508Y3702114D01*
X5505305Y3704105D01*
X5507097Y3707491D01*
X5508890Y3712470D01*
X5509487Y3713864D01*
X5511877Y3717847D01*
X5513470Y3720635D01*
X5514267Y3721431D01*
X5514665Y3722228D01*
X5516656Y3725812D01*
X5518648Y3727804D01*
X5519046Y3728601D01*
X5521038Y3731389D01*
X5521436Y3732185D01*
X5523029Y3733778D01*
X5523427Y3734575D01*
X5524423Y3735571D01*
X5525220Y3735969D01*
X5526216Y3736965D01*
X5526614Y3737761D01*
X5531194Y3742342D01*
X5531991Y3742740D01*
X5533186Y3743935D01*
X5533982Y3744333D01*
X5535575Y3745926D01*
X5539160Y3747918D01*
X5539957Y3748714D01*
X5540753Y3749113D01*
X5545931Y3751901D01*
X5550312Y3753892D01*
X5555889Y3755486D01*
X5557880Y3756282D01*
X5561863Y3757477D01*
X5563456Y3757875D01*
X5566244Y3758273D01*
X5569032Y3757875D01*
D02*
G37*
%LPC*%
G36*
X5712219Y2134624D02*
X5711821Y2135819D01*
X5711224Y2139603D01*
X5710825Y2141594D01*
X5710029Y2143586D01*
X5709431Y2144183D01*
X5709033Y2144980D01*
X5707838Y2146175D01*
X5707440Y2146971D01*
X5706444Y2148365D01*
X5705647Y2148764D01*
X5704851Y2149560D01*
X5704054Y2149959D01*
X5703258Y2150755D01*
X5702461Y2151153D01*
X5699673Y2152348D01*
X5698080Y2152747D01*
X5695292Y2153145D01*
X5643912Y2152747D01*
X5641920Y2151950D01*
X5641124Y2151552D01*
X5636145Y2147768D01*
X5635348Y2146971D01*
X5634950Y2146175D01*
X5631764Y2139404D01*
X5630967Y2136217D01*
X5630569Y2129845D01*
Y2054169D01*
X5630967Y2018322D01*
X5631365Y2017127D01*
X5632361Y2014538D01*
X5635747Y2008365D01*
X5636344Y2007767D01*
X5637141Y2007369D01*
X5640725Y2005377D01*
X5644310Y2003784D01*
X5647098Y2003386D01*
X5698478Y2003784D01*
X5706842Y2008165D01*
X5707838Y2009560D01*
X5709630Y2011750D01*
X5710228Y2012348D01*
X5711024Y2015136D01*
X5711423Y2016729D01*
X5712020Y2019318D01*
X5712219Y2134624D01*
D02*
G37*
G36*
Y2280400D02*
X5711821Y2383957D01*
X5711224Y2384953D01*
X5710427Y2385351D01*
X5708435Y2386147D01*
X5681351Y2385749D01*
X5679161Y2383957D01*
X5678763Y2379974D01*
X5679161Y2378779D01*
X5678763Y2377186D01*
X5678962Y2280997D01*
X5678763Y2278010D01*
X5679161Y2276815D01*
X5679559Y2274426D01*
X5681152Y2271638D01*
X5682148Y2270642D01*
X5684140Y2269447D01*
X5686927Y2267854D01*
X5690114Y2267057D01*
X5697682Y2266659D01*
X5699275Y2267057D01*
X5702461Y2267455D01*
X5702859D01*
X5704851Y2267854D01*
X5707639Y2269845D01*
X5708435Y2270244D01*
X5710626Y2272036D01*
X5711423Y2274824D01*
X5711821Y2276417D01*
X5712219Y2280400D01*
D02*
G37*
%LPD*%
D51*
X5261180Y7025000D02*
G03*
X5261180Y7025000I-11180J0D01*
G01*
X3280000Y7912500D02*
G03*
X3280000Y7912500I-5000J0D01*
G01*
X2990000Y5317500D02*
G03*
X2990000Y5317500I-10000J0D01*
G01*
X2955000Y4640000D02*
G03*
X2955000Y4640000I-5000J0D01*
G01*
X4637600Y8345000D02*
G03*
X4637600Y8345000I-100J0D01*
G01*
X2400600Y7539000D02*
G03*
X2400600Y7539000I-100J0D01*
G01*
X1597500Y6207500D02*
G03*
X1597500Y6207500I-10000J0D01*
G01*
D52*
X895000Y290000D02*
X1705000D01*
Y900000D01*
X895000Y2310000D02*
X1705000D01*
X2295000Y900000D02*
Y1700000D01*
X305000Y1700000D02*
X895000D01*
X305000Y900000D02*
Y1700000D01*
Y900000D02*
X895000D01*
Y290000D02*
Y900000D01*
X1705000D02*
X2295000D01*
X1705000Y1700000D02*
X2295000D01*
X1705000D02*
Y2310000D01*
X895000Y1700000D02*
Y2310000D01*
X5320000Y5090000D02*
X5355000D01*
X3440000Y6910000D02*
X3520000D01*
X3440000Y6820000D02*
Y6910000D01*
X3438500Y5090000D02*
X3518500D01*
X3438500D02*
Y5180000D01*
X5320000Y6910000D02*
X5355000D01*
X3162500Y8410000D02*
X3212500D01*
Y8360000D02*
Y8410000D01*
X3162500Y7990000D02*
X3212500D01*
Y8040000D01*
X2787500Y7990000D02*
X2837500D01*
X2787500D02*
Y8040000D01*
Y8410000D02*
X2837500D01*
X2787500Y8360000D02*
Y8410000D01*
X2462500Y5253450D02*
X2512500D01*
X2462500D02*
Y5303450D01*
Y6138450D02*
X2512500D01*
X2462500Y6088450D02*
Y6138450D01*
X2812500Y5253450D02*
X2862500D01*
Y5303450D01*
X2812500Y6138450D02*
X2862500D01*
Y6088450D02*
Y6138450D01*
X3220000Y4730000D02*
Y4750000D01*
X3200000Y4730000D02*
X3220000D01*
X2980000D02*
Y4750000D01*
Y4730000D02*
X3000000D01*
X2980000Y4850000D02*
Y4870000D01*
X3000000D01*
X3220000Y4850000D02*
Y4870000D01*
X3200000D02*
X3220000D01*
X4288000Y8195500D02*
Y8216500D01*
X4309000D01*
X4288000Y8023500D02*
Y8044500D01*
Y8023500D02*
X4309000D01*
X4622000D02*
Y8044500D01*
X4601000Y8023500D02*
X4622000D01*
Y8195500D02*
Y8216500D01*
X4601000D02*
X4622000D01*
X2399000Y7696500D02*
Y7717500D01*
X2420000D01*
X2611000Y7696500D02*
Y7717500D01*
X2590000D02*
X2611000D01*
Y7565500D02*
Y7586500D01*
X2590000Y7565500D02*
X2611000D01*
X2399000D02*
Y7586500D01*
Y7565500D02*
X2420000D01*
X5255000Y8960000D02*
X5305000D01*
X5255000Y8910000D02*
Y8960000D01*
Y8040000D02*
X5305000D01*
X5255000D02*
Y8090000D01*
X5595000Y8960000D02*
X5645000D01*
Y8910000D02*
Y8960000D01*
X5595000Y8040000D02*
X5645000D01*
Y8090000D01*
X5865000Y7230000D02*
X5895000D01*
Y7260000D01*
X5865000Y7630000D02*
X5895000D01*
Y7600000D02*
Y7630000D01*
X5505000Y7230000D02*
X5535000D01*
X5505000D02*
Y7260000D01*
Y7630000D02*
X5535000D01*
X5505000Y7600000D02*
Y7630000D01*
X5865000Y4370000D02*
X5895000D01*
Y4400000D01*
X5865000Y4770000D02*
X5895000D01*
Y4740000D02*
Y4770000D01*
X5505000Y4370000D02*
X5535000D01*
X5505000D02*
Y4400000D01*
Y4770000D02*
X5535000D01*
X5505000Y4740000D02*
Y4770000D01*
X865000Y1100000D02*
X895000D01*
Y1130000D01*
X865000Y1500000D02*
X895000D01*
Y1470000D02*
Y1500000D01*
X505000Y1100000D02*
X535000D01*
X505000D02*
Y1130000D01*
Y1500000D02*
X535000D01*
X505000Y1470000D02*
Y1500000D01*
X2065000Y1100000D02*
X2095000D01*
Y1130000D01*
X2065000Y1500000D02*
X2095000D01*
Y1470000D02*
Y1500000D01*
X1705000Y1100000D02*
X1735000D01*
X1705000D02*
Y1130000D01*
Y1500000D02*
X1735000D01*
X1705000Y1470000D02*
Y1500000D01*
X1465000Y1100000D02*
X1495000D01*
Y1130000D01*
X1465000Y1500000D02*
X1495000D01*
Y1470000D02*
Y1500000D01*
X1105000Y1100000D02*
X1135000D01*
X1105000D02*
Y1130000D01*
Y1500000D02*
X1135000D01*
X1105000Y1470000D02*
Y1500000D01*
X1465000Y1700000D02*
X1495000D01*
Y1730000D01*
X1465000Y2100000D02*
X1495000D01*
Y2070000D02*
Y2100000D01*
X1105000Y1700000D02*
X1135000D01*
X1105000D02*
Y1730000D01*
Y2100000D02*
X1135000D01*
X1105000Y2070000D02*
Y2100000D01*
X1465000Y500000D02*
X1495000D01*
Y530000D01*
X1465000Y900000D02*
X1495000D01*
Y870000D02*
Y900000D01*
X1105000Y500000D02*
X1135000D01*
X1105000D02*
Y530000D01*
Y900000D02*
X1135000D01*
X1105000Y870000D02*
Y900000D01*
D53*
X5759981Y4300000D02*
X5640020D01*
Y4240019D01*
X5660013Y4220026D01*
X5680007D01*
X5700000Y4240019D01*
Y4300000D01*
Y4240019D01*
X5719994Y4220026D01*
X5739988D01*
X5759981Y4240019D01*
Y4300000D01*
X286645Y3583323D02*
X269984Y3599984D01*
X236661D01*
X220000Y3583323D01*
Y3566661D01*
X236661Y3550000D01*
X269984D01*
X286645Y3533339D01*
Y3516677D01*
X269984Y3500016D01*
X236661D01*
X220000Y3516677D01*
X319968Y3599984D02*
X386613D01*
X353290D01*
Y3500016D01*
X419936D02*
Y3566661D01*
X453258Y3599984D01*
X486581Y3566661D01*
Y3500016D01*
Y3550000D01*
X419936D01*
X519903Y3599984D02*
X586548D01*
X553226D01*
Y3500016D01*
X286645Y3883322D02*
X269984Y3899984D01*
X236661D01*
X220000Y3883322D01*
Y3866661D01*
X236661Y3850000D01*
X269984D01*
X286645Y3833339D01*
Y3816677D01*
X269984Y3800016D01*
X236661D01*
X220000Y3816677D01*
X386613Y3883322D02*
X369952Y3899984D01*
X336629D01*
X319968Y3883322D01*
Y3816677D01*
X336629Y3800016D01*
X369952D01*
X386613Y3816677D01*
X419936Y3800016D02*
Y3866661D01*
X453258Y3899984D01*
X486581Y3866661D01*
Y3800016D01*
Y3850000D01*
X419936D01*
X519903Y3800016D02*
Y3899984D01*
X586548Y3800016D01*
Y3899984D01*
X220000Y4199984D02*
Y4100016D01*
X286645D01*
X369952Y4199984D02*
X336629D01*
X319968Y4183323D01*
Y4116678D01*
X336629Y4100016D01*
X369952D01*
X386613Y4116678D01*
Y4183323D01*
X369952Y4199984D01*
X419936D02*
Y4100016D01*
X453258Y4133339D01*
X486581Y4100016D01*
Y4199984D01*
X286645Y4483323D02*
X269984Y4499984D01*
X236661D01*
X220000Y4483323D01*
Y4416677D01*
X236661Y4400016D01*
X269984D01*
X286645Y4416677D01*
X319968Y4499984D02*
Y4400016D01*
Y4450000D01*
X386613D01*
Y4499984D01*
Y4400016D01*
X419936D02*
Y4499984D01*
X469920D01*
X486581Y4483323D01*
Y4450000D01*
X469920Y4433339D01*
X419936D01*
X453258D02*
X486581Y4400016D01*
X586548Y4483323D02*
X569887Y4499984D01*
X536565D01*
X519903Y4483323D01*
Y4416677D01*
X536565Y4400016D01*
X569887D01*
X586548Y4416677D01*
Y4450000D01*
X553226D01*
X220000Y4700016D02*
Y4799984D01*
X269984D01*
X286645Y4783322D01*
Y4750000D01*
X269984Y4733339D01*
X220000D01*
X386613Y4783322D02*
X369952Y4799984D01*
X336629D01*
X319968Y4783322D01*
Y4716677D01*
X336629Y4700016D01*
X369952D01*
X386613Y4716677D01*
Y4750000D01*
X353290D01*
X540019Y7279948D02*
X659981D01*
X619994Y7239961D01*
X659981Y7199974D01*
X540019D01*
X659981Y7159987D02*
X560013D01*
X540019Y7139993D01*
Y7100006D01*
X560013Y7080013D01*
X659981D01*
Y7040026D02*
X540019Y6960052D01*
X659981D02*
X540019Y7040026D01*
X5640020Y7779974D02*
X5759981D01*
Y7719993D01*
X5739988Y7700000D01*
X5700000D01*
X5680007Y7719993D01*
Y7779974D01*
Y7739987D02*
X5640020Y7700000D01*
X5409981Y7920019D02*
Y7960006D01*
X5389987Y7980000D01*
X5310013D01*
X5290020Y7960006D01*
Y7920019D01*
X5310013Y7900026D01*
X5389987D01*
X5409981Y7920019D01*
X5290020Y7860039D02*
X5409981D01*
X5290020Y7780064D01*
X5409981D01*
X5409981Y9279916D02*
Y9319903D01*
X5389987Y9339896D01*
X5310013D01*
X5290019Y9319903D01*
Y9279916D01*
X5310013Y9259922D01*
X5389987D01*
X5409981Y9279916D01*
Y9139961D02*
Y9219935D01*
X5350000D01*
Y9179948D01*
Y9219935D01*
X5290019D01*
X5409981Y9020000D02*
Y9099974D01*
X5350000D01*
Y9059987D01*
Y9099974D01*
X5290019D01*
%TF.MD5,1449068d16b6cc9c637bbf824f2b47ca*%
M02*
