%TF.GenerationSoftware,Altium Limited,Altium Designer,22.10.1 (41)*%
G04 Layer_Physical_Order=3*
G04 Layer_Color=16440176*
%FSLAX45Y45*%
%MOMM*%
%TF.SameCoordinates,E44625A2-F068-4864-A6FA-01B12190F87A*%
%TF.FilePolarity,Positive*%
%TF.FileFunction,Copper,L3,Inr,Signal*%
%TF.Part,Single*%
G01*
G75*
%TA.AperFunction,Conductor*%
%ADD29C,0.30000*%
%TA.AperFunction,ComponentPad*%
%ADD33C,3.50000*%
%ADD34C,1.60000*%
%ADD35O,1.80000X1.00000*%
%ADD36O,2.10000X1.00000*%
%ADD37C,0.65000*%
%TA.AperFunction,ViaPad*%
%ADD38C,0.55000*%
%ADD39C,0.50000*%
G36*
X5035000Y8640000D02*
X5044945D01*
X5063322Y8632388D01*
X5077387Y8618323D01*
X5084999Y8599945D01*
Y8590000D01*
X5085000D01*
X5085000Y8508750D01*
Y8377500D01*
Y8367554D01*
X5077388Y8349177D01*
X5063322Y8335112D01*
X5044945Y8327500D01*
X5035000D01*
X4695000Y8327500D01*
X4305000D01*
X4287357Y8326633D01*
X4252748Y8319749D01*
X4220148Y8306246D01*
X4190809Y8286642D01*
X4165858Y8261691D01*
X4146254Y8232351D01*
X4132750Y8199751D01*
X4125867Y8165143D01*
X4125000Y8147500D01*
X4124999Y7925000D01*
X4125000Y7908010D01*
X4118371Y7874683D01*
X4105367Y7843290D01*
X4086489Y7815037D01*
X4062462Y7791010D01*
X4034209Y7772132D01*
X4002816Y7759129D01*
X3969490Y7752500D01*
X3952500Y7752500D01*
X3123284D01*
Y7888107D01*
X3518838Y8283661D01*
X3527679Y8296892D01*
X3528194Y8299482D01*
X3530784Y8312500D01*
X3530783Y8312501D01*
Y8640000D01*
X5035000Y8640000D01*
D02*
G37*
G36*
X5717993Y9974511D02*
X5753668Y9969815D01*
X5788429Y9960501D01*
X5821674Y9946730D01*
X5852838Y9928738D01*
X5881387Y9906832D01*
X5906833Y9881385D01*
X5928738Y9852838D01*
X5946730Y9821675D01*
X5960501Y9788428D01*
X5969815Y9753671D01*
X5974512Y9717993D01*
Y9700000D01*
X5974513Y7187500D01*
Y7170312D01*
X5967806Y7136597D01*
X5954651Y7104837D01*
X5935553Y7076254D01*
X5911246Y7051948D01*
X5882663Y7032850D01*
X5850904Y7019695D01*
X5817189Y7012988D01*
X5550000D01*
X5549377Y7012864D01*
X5548749Y7012958D01*
X5529146Y7011994D01*
X5527314Y7011535D01*
X5525424D01*
X5486970Y7003886D01*
X5484651Y7002926D01*
X5482189Y7002436D01*
X5445967Y6987432D01*
X5443880Y6986038D01*
X5441560Y6985077D01*
X5408960Y6963295D01*
X5407186Y6961520D01*
X5405098Y6960125D01*
X5377375Y6932401D01*
X5375980Y6930314D01*
X5374205Y6928539D01*
X5352423Y6895940D01*
X5351462Y6893621D01*
X5350067Y6891533D01*
X5335063Y6855311D01*
X5334574Y6852849D01*
X5333613Y6850529D01*
X5325964Y6812076D01*
Y6810186D01*
X5325505Y6808353D01*
X5324542Y6788750D01*
X5324635Y6788123D01*
X5324511Y6787500D01*
Y5212500D01*
X5324635Y5211877D01*
X5324542Y5211249D01*
X5325505Y5191646D01*
X5325964Y5189814D01*
Y5187924D01*
X5333613Y5149471D01*
X5334574Y5147151D01*
X5335063Y5144689D01*
X5350067Y5108467D01*
X5351462Y5106379D01*
X5352423Y5104060D01*
X5374205Y5071461D01*
X5375980Y5069686D01*
X5377375Y5067598D01*
X5405098Y5039875D01*
X5407186Y5038480D01*
X5408960Y5036705D01*
X5441559Y5014923D01*
X5443879Y5013963D01*
X5445966Y5012568D01*
X5482188Y4997564D01*
X5484650Y4997074D01*
X5486970Y4996113D01*
X5525424Y4988464D01*
X5527314D01*
X5529146Y4988006D01*
X5548749Y4987043D01*
X5549377Y4987136D01*
X5550000Y4987012D01*
X5800000Y4987012D01*
D01*
X5817188Y4987011D01*
X5850903Y4980305D01*
X5882663Y4967149D01*
X5911245Y4948052D01*
X5935551Y4923745D01*
X5954650Y4895161D01*
X5967805Y4863403D01*
X5974511Y4829687D01*
X5974511Y4812500D01*
D01*
Y4812500D01*
X5974512Y300000D01*
Y282007D01*
X5969815Y246331D01*
X5960501Y211572D01*
X5946730Y178325D01*
X5928738Y147163D01*
X5906831Y118613D01*
X5881386Y93168D01*
X5852838Y71262D01*
X5821674Y53270D01*
X5788429Y39499D01*
X5753669Y30185D01*
X5717992Y25488D01*
X282008D01*
X246329Y30185D01*
X211572Y39499D01*
X178325Y53270D01*
X147163Y71261D01*
X118613Y93168D01*
X93168Y118613D01*
X71262Y147162D01*
X53270Y178326D01*
X39499Y211571D01*
X30185Y246331D01*
X25488Y282008D01*
Y300000D01*
Y3836716D01*
X294999Y3836716D01*
X295000Y3836716D01*
X310607Y3839820D01*
X314997Y3842754D01*
X323838Y3848661D01*
X323839Y3848662D01*
X2043838Y5568661D01*
X2052679Y5581893D01*
X2053194Y5584482D01*
X2055783Y5597500D01*
X2055783Y5597501D01*
X2055784Y6440607D01*
X3111338Y7496161D01*
X3120179Y7509392D01*
X3120694Y7511982D01*
X3123284Y7525000D01*
X3123284Y7525001D01*
Y7711717D01*
X3952499D01*
X3969489Y7711716D01*
X3973429Y7712500D01*
X3977446D01*
X4010773Y7719129D01*
X4014484Y7720666D01*
X4018423Y7721450D01*
X4049816Y7734453D01*
X4053156Y7736685D01*
X4056867Y7738222D01*
X4085120Y7757100D01*
X4087961Y7759940D01*
X4091300Y7762172D01*
X4115328Y7786199D01*
X4117559Y7789538D01*
X4120400Y7792379D01*
X4139278Y7820632D01*
X4140815Y7824343D01*
X4143047Y7827683D01*
X4156050Y7859076D01*
X4156833Y7863016D01*
X4158371Y7866727D01*
X4165000Y7900054D01*
Y7904071D01*
X4165783Y7908010D01*
X4165783Y7925000D01*
X4165783Y8146497D01*
X4166453Y8160138D01*
X4171967Y8187855D01*
X4182395Y8213033D01*
X4197536Y8235693D01*
X4216807Y8254964D01*
X4239467Y8270104D01*
X4264645Y8280533D01*
X4292362Y8286046D01*
X4306004Y8286716D01*
X4695000D01*
X5035000Y8286716D01*
X5044945D01*
X5060552Y8289821D01*
X5060553Y8289821D01*
X5078929Y8297432D01*
X5078930Y8297432D01*
X5085556Y8301860D01*
X5092161Y8306273D01*
X5092161Y8306274D01*
X5106226Y8320339D01*
X5111526Y8328270D01*
X5115067Y8333570D01*
X5122679Y8351947D01*
X5125784Y8367554D01*
Y8377500D01*
Y8508750D01*
D01*
Y8508750D01*
X5125783Y8590000D01*
X5125783Y8590002D01*
Y8599945D01*
X5122679Y8615553D01*
X5122678Y8615554D01*
X5115066Y8633930D01*
X5109159Y8642771D01*
X5106226Y8647161D01*
X5092161Y8661226D01*
X5084229Y8666525D01*
X5078930Y8670067D01*
X5060552Y8677679D01*
X5044945Y8680783D01*
X5035000D01*
X3530783Y8680784D01*
Y9974512D01*
X5700000D01*
X5717993Y9974511D01*
D02*
G37*
G36*
X3490000Y8312500D02*
X3082500Y7905000D01*
Y7525000D01*
X2015000Y6457500D01*
X2015000Y5597500D01*
X295000Y3877500D01*
X25488Y3877500D01*
Y9700000D01*
Y9717991D01*
X30185Y9753671D01*
X39499Y9788427D01*
X53270Y9821675D01*
X71261Y9852837D01*
X93168Y9881386D01*
X118613Y9906832D01*
X147162Y9928738D01*
X178326Y9946730D01*
X211571Y9960501D01*
X246329Y9969814D01*
X282007Y9974512D01*
X3490000D01*
Y8312500D01*
D02*
G37*
%LPC*%
G36*
X4709448Y8547500D02*
X4690552D01*
X4673094Y8540268D01*
X4659732Y8526906D01*
X4652500Y8509448D01*
Y8490552D01*
X4659732Y8473094D01*
X4673094Y8459732D01*
X4690552Y8452500D01*
X4709448D01*
X4726906Y8459732D01*
X4740268Y8473094D01*
X4747500Y8490552D01*
Y8509448D01*
X4740268Y8526906D01*
X4726906Y8540268D01*
X4709448Y8547500D01*
D02*
G37*
G36*
X3943448Y8497500D02*
X3924552D01*
X3907094Y8490269D01*
X3893732Y8476907D01*
X3886500Y8459448D01*
Y8440552D01*
X3893732Y8423094D01*
X3907094Y8409732D01*
X3924552Y8402500D01*
X3943448D01*
X3960906Y8409732D01*
X3974268Y8423094D01*
X3981500Y8440552D01*
Y8459448D01*
X3974268Y8476907D01*
X3960906Y8490269D01*
X3943448Y8497500D01*
D02*
G37*
G36*
X3793448D02*
X3774552D01*
X3757094Y8490269D01*
X3743732Y8476907D01*
X3736500Y8459448D01*
Y8440552D01*
X3743732Y8423094D01*
X3757094Y8409732D01*
X3774552Y8402500D01*
X3793448D01*
X3810907Y8409732D01*
X3824268Y8423094D01*
X3831500Y8440552D01*
Y8459448D01*
X3824268Y8476907D01*
X3810907Y8490269D01*
X3793448Y8497500D01*
D02*
G37*
G36*
X3643448D02*
X3624552D01*
X3607094Y8490269D01*
X3593732Y8476907D01*
X3586500Y8459448D01*
Y8440552D01*
X3593732Y8423094D01*
X3607094Y8409732D01*
X3624552Y8402500D01*
X3643448D01*
X3660907Y8409732D01*
X3674268Y8423094D01*
X3681500Y8440552D01*
Y8459448D01*
X3674268Y8476907D01*
X3660907Y8490269D01*
X3643448Y8497500D01*
D02*
G37*
G36*
X3793448Y8347500D02*
X3774552D01*
X3757094Y8340268D01*
X3743732Y8326906D01*
X3736500Y8309448D01*
Y8290552D01*
X3743732Y8273093D01*
X3757094Y8259732D01*
X3774552Y8252500D01*
X3793448D01*
X3810907Y8259732D01*
X3824268Y8273093D01*
X3831500Y8290552D01*
Y8309448D01*
X3824268Y8326906D01*
X3810907Y8340268D01*
X3793448Y8347500D01*
D02*
G37*
G36*
Y8047500D02*
X3774552D01*
X3757094Y8040268D01*
X3743732Y8026906D01*
X3736500Y8009448D01*
Y7990552D01*
X3743732Y7973094D01*
X3757094Y7959732D01*
X3774552Y7952500D01*
X3793448D01*
X3810907Y7959732D01*
X3824268Y7973094D01*
X3831500Y7990552D01*
Y8009448D01*
X3824268Y8026906D01*
X3810907Y8040268D01*
X3793448Y8047500D01*
D02*
G37*
G36*
Y7897500D02*
X3774552D01*
X3757094Y7890268D01*
X3743732Y7876907D01*
X3736500Y7859448D01*
Y7840552D01*
X3743732Y7823094D01*
X3757094Y7809732D01*
X3774552Y7802500D01*
X3793448D01*
X3810907Y7809732D01*
X3824268Y7823094D01*
X3831500Y7840552D01*
Y7859448D01*
X3824268Y7876907D01*
X3810907Y7890268D01*
X3793448Y7897500D01*
D02*
G37*
G36*
X3214448D02*
X3195552D01*
X3178094Y7890268D01*
X3164732Y7876907D01*
X3157500Y7859448D01*
Y7840552D01*
X3164732Y7823094D01*
X3178094Y7809732D01*
X3195552Y7802500D01*
X3214448D01*
X3231907Y7809732D01*
X3245269Y7823094D01*
X3252500Y7840552D01*
Y7859448D01*
X3245269Y7876907D01*
X3231907Y7890268D01*
X3214448Y7897500D01*
D02*
G37*
G36*
X5719206Y9895000D02*
X5680795D01*
X5643121Y9887506D01*
X5607633Y9872806D01*
X5575695Y9851466D01*
X5548534Y9824305D01*
X5527194Y9792367D01*
X5512494Y9756879D01*
X5505000Y9719205D01*
Y9680794D01*
X5512494Y9643120D01*
X5527194Y9607633D01*
X5548534Y9575694D01*
X5575695Y9548533D01*
X5607633Y9527193D01*
X5643121Y9512494D01*
X5680795Y9505000D01*
X5719206D01*
X5756880Y9512494D01*
X5792367Y9527193D01*
X5824306Y9548533D01*
X5851467Y9575694D01*
X5872807Y9607633D01*
X5887506Y9643120D01*
X5895000Y9680794D01*
Y9719205D01*
X5887506Y9756879D01*
X5872807Y9792367D01*
X5851467Y9824305D01*
X5824306Y9851466D01*
X5792367Y9872806D01*
X5756880Y9887506D01*
X5719206Y9895000D01*
D02*
G37*
G36*
X4934206Y9770000D02*
X4895794D01*
X4858121Y9762506D01*
X4822633Y9747807D01*
X4790695Y9726466D01*
X4763534Y9699305D01*
X4742193Y9667367D01*
X4727494Y9631880D01*
X4720000Y9594206D01*
Y9555794D01*
X4727494Y9518121D01*
X4742193Y9482633D01*
X4763534Y9450695D01*
X4790695Y9423534D01*
X4822633Y9402194D01*
X4858121Y9387494D01*
X4895794Y9380000D01*
X4934206D01*
X4971880Y9387494D01*
X5007367Y9402194D01*
X5039305Y9423534D01*
X5066466Y9450695D01*
X5087807Y9482633D01*
X5102506Y9518121D01*
X5110000Y9555794D01*
Y9594206D01*
X5102506Y9631880D01*
X5087807Y9667367D01*
X5066466Y9699305D01*
X5039305Y9726466D01*
X5007367Y9747807D01*
X4971880Y9762506D01*
X4934206Y9770000D01*
D02*
G37*
G36*
X4584448Y8167500D02*
X4565552D01*
X4548094Y8160268D01*
X4534732Y8146906D01*
X4527500Y8129448D01*
Y8110552D01*
X4534732Y8093094D01*
X4548094Y8079732D01*
X4565552Y8072500D01*
X4584448D01*
X4601906Y8079732D01*
X4615268Y8093094D01*
X4622500Y8110552D01*
Y8129448D01*
X4615268Y8146906D01*
X4601906Y8160268D01*
X4584448Y8167500D01*
D02*
G37*
G36*
X4464448D02*
X4445552D01*
X4428094Y8160268D01*
X4414732Y8146906D01*
X4407500Y8129448D01*
Y8110552D01*
X4414732Y8093094D01*
X4428094Y8079732D01*
X4445552Y8072500D01*
X4464448D01*
X4481906Y8079732D01*
X4495268Y8093094D01*
X4502500Y8110552D01*
Y8129448D01*
X4495268Y8146906D01*
X4481906Y8160268D01*
X4464448Y8167500D01*
D02*
G37*
G36*
X4344448D02*
X4325552D01*
X4308093Y8160268D01*
X4294732Y8146906D01*
X4287500Y8129448D01*
Y8110552D01*
X4294732Y8093094D01*
X4308093Y8079732D01*
X4325552Y8072500D01*
X4344448D01*
X4361906Y8079732D01*
X4375268Y8093094D01*
X4382500Y8110552D01*
Y8129448D01*
X4375268Y8146906D01*
X4361906Y8160268D01*
X4344448Y8167500D01*
D02*
G37*
G36*
X4829448Y8027500D02*
X4810552D01*
X4793094Y8020268D01*
X4779732Y8006906D01*
X4772500Y7989448D01*
Y7970551D01*
X4779732Y7953093D01*
X4793094Y7939731D01*
X4810552Y7932500D01*
X4829448D01*
X4846906Y7939731D01*
X4860268Y7953093D01*
X4867500Y7970551D01*
Y7989448D01*
X4860268Y8006906D01*
X4846906Y8020268D01*
X4829448Y8027500D01*
D02*
G37*
G36*
Y7835000D02*
X4810552D01*
X4793094Y7827769D01*
X4779732Y7814407D01*
X4772500Y7796949D01*
Y7778052D01*
X4779732Y7760594D01*
X4793094Y7747232D01*
X4810552Y7740001D01*
X4829448D01*
X4846906Y7747232D01*
X4860268Y7760594D01*
X4867500Y7778052D01*
Y7796949D01*
X4860268Y7814407D01*
X4846906Y7827769D01*
X4829448Y7835000D01*
D02*
G37*
G36*
X4709448Y7715000D02*
X4690552D01*
X4673094Y7707769D01*
X4659732Y7694407D01*
X4652500Y7676949D01*
Y7658052D01*
X4659732Y7640594D01*
X4673094Y7627232D01*
X4690552Y7620001D01*
X4709448D01*
X4726906Y7627232D01*
X4740268Y7640594D01*
X4747500Y7658052D01*
Y7676949D01*
X4740268Y7694407D01*
X4726906Y7707769D01*
X4709448Y7715000D01*
D02*
G37*
G36*
X5634448Y7637500D02*
X5615552D01*
X5598093Y7630268D01*
X5584732Y7616907D01*
X5577500Y7599448D01*
Y7580552D01*
X5584732Y7563094D01*
X5598093Y7549732D01*
X5615552Y7542500D01*
X5634448D01*
X5651906Y7549732D01*
X5665268Y7563094D01*
X5672500Y7580552D01*
Y7599448D01*
X5665268Y7616907D01*
X5651906Y7630268D01*
X5634448Y7637500D01*
D02*
G37*
G36*
X3719448D02*
X3700552D01*
X3683093Y7630268D01*
X3669732Y7616907D01*
X3662500Y7599448D01*
Y7580552D01*
X3669732Y7563094D01*
X3683093Y7549732D01*
X3700552Y7542500D01*
X3719448D01*
X3736906Y7549732D01*
X3750268Y7563094D01*
X3757500Y7580552D01*
Y7599448D01*
X3750268Y7616907D01*
X3736906Y7630268D01*
X3719448Y7637500D01*
D02*
G37*
G36*
X5297448Y7467500D02*
X5278552D01*
X5261094Y7460268D01*
X5247732Y7446906D01*
X5240500Y7429448D01*
Y7410552D01*
X5247732Y7393093D01*
X5261094Y7379731D01*
X5278552Y7372500D01*
X5297448D01*
X5314907Y7379731D01*
X5328268Y7393093D01*
X5335500Y7410552D01*
Y7429448D01*
X5328268Y7446906D01*
X5314907Y7460268D01*
X5297448Y7467500D01*
D02*
G37*
G36*
X5709448Y7197500D02*
X5690552D01*
X5673094Y7190268D01*
X5659732Y7176906D01*
X5652500Y7159448D01*
Y7140552D01*
X5659732Y7123093D01*
X5673094Y7109732D01*
X5690552Y7102500D01*
X5709448D01*
X5726907Y7109732D01*
X5740268Y7123093D01*
X5747500Y7140552D01*
Y7159448D01*
X5740268Y7176906D01*
X5726907Y7190268D01*
X5709448Y7197500D01*
D02*
G37*
G36*
X5417448D02*
X5398552D01*
X5381094Y7190268D01*
X5367732Y7176906D01*
X5360500Y7159448D01*
Y7140552D01*
X5367732Y7123093D01*
X5381094Y7109732D01*
X5398552Y7102500D01*
X5417448D01*
X5434907Y7109732D01*
X5448269Y7123093D01*
X5455500Y7140552D01*
Y7159448D01*
X5448269Y7176906D01*
X5434907Y7190268D01*
X5417448Y7197500D01*
D02*
G37*
G36*
X4720448D02*
X4701552D01*
X4684094Y7190268D01*
X4670732Y7176906D01*
X4663500Y7159448D01*
Y7140552D01*
X4670732Y7123093D01*
X4684094Y7109732D01*
X4701552Y7102500D01*
X4720448D01*
X4737906Y7109732D01*
X4751268Y7123093D01*
X4758500Y7140552D01*
Y7159448D01*
X4751268Y7176906D01*
X4737906Y7190268D01*
X4720448Y7197500D01*
D02*
G37*
G36*
X4624448Y7082500D02*
X4605552D01*
X4588093Y7075268D01*
X4574732Y7061906D01*
X4567500Y7044448D01*
Y7025552D01*
X4574732Y7008093D01*
X4588093Y6994732D01*
X4605552Y6987500D01*
X4624448D01*
X4641906Y6994732D01*
X4655268Y7008093D01*
X4662500Y7025552D01*
Y7044448D01*
X4655268Y7061906D01*
X4641906Y7075268D01*
X4624448Y7082500D01*
D02*
G37*
G36*
X4497448D02*
X4478552D01*
X4461093Y7075268D01*
X4447732Y7061906D01*
X4440500Y7044448D01*
Y7025552D01*
X4447732Y7008093D01*
X4461093Y6994732D01*
X4478552Y6987500D01*
X4497448D01*
X4514906Y6994732D01*
X4528268Y7008093D01*
X4535500Y7025552D01*
Y7044448D01*
X4528268Y7061906D01*
X4514906Y7075268D01*
X4497448Y7082500D01*
D02*
G37*
G36*
X4370448D02*
X4351552D01*
X4334093Y7075268D01*
X4320732Y7061906D01*
X4313500Y7044448D01*
Y7025552D01*
X4320732Y7008093D01*
X4334093Y6994732D01*
X4351552Y6987500D01*
X4370448D01*
X4387906Y6994732D01*
X4401268Y7008093D01*
X4408500Y7025552D01*
Y7044448D01*
X4401268Y7061906D01*
X4387906Y7075268D01*
X4370448Y7082500D01*
D02*
G37*
G36*
X4497448Y6922500D02*
X4478552D01*
X4461093Y6915268D01*
X4447732Y6901906D01*
X4440500Y6884448D01*
Y6865552D01*
X4447732Y6848093D01*
X4461093Y6834732D01*
X4478552Y6827500D01*
X4497448D01*
X4514906Y6834732D01*
X4528268Y6848093D01*
X4535500Y6865552D01*
Y6884448D01*
X4528268Y6901906D01*
X4514906Y6915268D01*
X4497448Y6922500D01*
D02*
G37*
G36*
X5259448Y6762500D02*
X5240552D01*
X5223093Y6755268D01*
X5209732Y6741907D01*
X5202500Y6724448D01*
Y6705552D01*
X5209732Y6688094D01*
X5223093Y6674732D01*
X5240552Y6667500D01*
X5259448D01*
X5276906Y6674732D01*
X5290268Y6688094D01*
X5297500Y6705552D01*
Y6724448D01*
X5290268Y6741907D01*
X5276906Y6755268D01*
X5259448Y6762500D01*
D02*
G37*
G36*
X5005448D02*
X4986552D01*
X4969093Y6755268D01*
X4955732Y6741907D01*
X4948500Y6724448D01*
Y6705552D01*
X4955732Y6688094D01*
X4969093Y6674732D01*
X4986552Y6667500D01*
X5005448D01*
X5022906Y6674732D01*
X5036268Y6688094D01*
X5043500Y6705552D01*
Y6724448D01*
X5036268Y6741907D01*
X5022906Y6755268D01*
X5005448Y6762500D01*
D02*
G37*
G36*
X4878448D02*
X4859552D01*
X4842093Y6755268D01*
X4828732Y6741907D01*
X4821500Y6724448D01*
Y6705552D01*
X4828732Y6688094D01*
X4842093Y6674732D01*
X4859552Y6667500D01*
X4878448D01*
X4895906Y6674732D01*
X4909268Y6688094D01*
X4916500Y6705552D01*
Y6724448D01*
X4909268Y6741907D01*
X4895906Y6755268D01*
X4878448Y6762500D01*
D02*
G37*
G36*
X4751448D02*
X4732552D01*
X4715093Y6755268D01*
X4701732Y6741907D01*
X4694500Y6724448D01*
Y6705552D01*
X4701732Y6688094D01*
X4715093Y6674732D01*
X4732552Y6667500D01*
X4751448D01*
X4768906Y6674732D01*
X4782268Y6688094D01*
X4789500Y6705552D01*
Y6724448D01*
X4782268Y6741907D01*
X4768906Y6755268D01*
X4751448Y6762500D01*
D02*
G37*
G36*
X4370448D02*
X4351552D01*
X4334093Y6755268D01*
X4320732Y6741907D01*
X4313500Y6724448D01*
Y6705552D01*
X4320732Y6688094D01*
X4334093Y6674732D01*
X4351552Y6667500D01*
X4370448D01*
X4387906Y6674732D01*
X4401268Y6688094D01*
X4408500Y6705552D01*
Y6724448D01*
X4401268Y6741907D01*
X4387906Y6755268D01*
X4370448Y6762500D01*
D02*
G37*
G36*
X4243448D02*
X4224552D01*
X4207093Y6755268D01*
X4193732Y6741907D01*
X4186500Y6724448D01*
Y6705552D01*
X4193732Y6688094D01*
X4207093Y6674732D01*
X4224552Y6667500D01*
X4243448D01*
X4260906Y6674732D01*
X4274268Y6688094D01*
X4281500Y6705552D01*
Y6724448D01*
X4274268Y6741907D01*
X4260906Y6755268D01*
X4243448Y6762500D01*
D02*
G37*
G36*
X5259448Y6602500D02*
X5240552D01*
X5223093Y6595268D01*
X5209732Y6581907D01*
X5202500Y6564448D01*
Y6545552D01*
X5209732Y6528094D01*
X5223093Y6514732D01*
X5240552Y6507500D01*
X5259448D01*
X5276906Y6514732D01*
X5290268Y6528094D01*
X5297500Y6545552D01*
Y6564448D01*
X5290268Y6581907D01*
X5276906Y6595268D01*
X5259448Y6602500D01*
D02*
G37*
G36*
X4456948Y6492500D02*
X4438052D01*
X4420594Y6485268D01*
X4407232Y6471907D01*
X4400000Y6454448D01*
Y6435552D01*
X4407232Y6418094D01*
X4420594Y6404732D01*
X4438052Y6397500D01*
X4456948D01*
X4474407Y6404732D01*
X4487769Y6418094D01*
X4495000Y6435552D01*
Y6454448D01*
X4487769Y6471907D01*
X4474407Y6485268D01*
X4456948Y6492500D01*
D02*
G37*
G36*
X5259448Y6442500D02*
X5240552D01*
X5223093Y6435269D01*
X5209732Y6421907D01*
X5202500Y6404448D01*
Y6385552D01*
X5209732Y6368094D01*
X5223093Y6354732D01*
X5240552Y6347500D01*
X5259448D01*
X5276906Y6354732D01*
X5290268Y6368094D01*
X5297500Y6385552D01*
Y6404448D01*
X5290268Y6421907D01*
X5276906Y6435269D01*
X5259448Y6442500D01*
D02*
G37*
G36*
X4329948Y6365000D02*
X4311052D01*
X4293593Y6357768D01*
X4280231Y6344406D01*
X4273000Y6326948D01*
Y6308052D01*
X4280231Y6290593D01*
X4293593Y6277232D01*
X4311052Y6270000D01*
X4329948D01*
X4347406Y6277232D01*
X4360768Y6290593D01*
X4368000Y6308052D01*
Y6326948D01*
X4360768Y6344406D01*
X4347406Y6357768D01*
X4329948Y6365000D01*
D02*
G37*
G36*
X5259448Y6282500D02*
X5240552D01*
X5223093Y6275269D01*
X5209732Y6261907D01*
X5202500Y6244449D01*
Y6225552D01*
X5209732Y6208094D01*
X5223093Y6194732D01*
X5240552Y6187500D01*
X5259448D01*
X5276906Y6194732D01*
X5290268Y6208094D01*
X5297500Y6225552D01*
Y6244449D01*
X5290268Y6261907D01*
X5276906Y6275269D01*
X5259448Y6282500D01*
D02*
G37*
G36*
X4393448Y6260000D02*
X4374552D01*
X4357093Y6252768D01*
X4343731Y6239406D01*
X4336500Y6221948D01*
Y6203052D01*
X4343731Y6185593D01*
X4357093Y6172231D01*
X4374552Y6165000D01*
X4393448D01*
X4410906Y6172231D01*
X4424268Y6185593D01*
X4431500Y6203052D01*
Y6221948D01*
X4424268Y6239406D01*
X4410906Y6252768D01*
X4393448Y6260000D01*
D02*
G37*
G36*
X4202948Y6238000D02*
X4184052D01*
X4166593Y6230768D01*
X4153231Y6217406D01*
X4146000Y6199948D01*
Y6181052D01*
X4153231Y6163593D01*
X4166593Y6150232D01*
X4184052Y6143000D01*
X4202948D01*
X4220406Y6150232D01*
X4233768Y6163593D01*
X4241000Y6181052D01*
Y6199948D01*
X4233768Y6217406D01*
X4220406Y6230768D01*
X4202948Y6238000D01*
D02*
G37*
G36*
X4266448Y6133000D02*
X4247552D01*
X4230093Y6125768D01*
X4216731Y6112406D01*
X4209500Y6094948D01*
Y6076052D01*
X4216731Y6058593D01*
X4230093Y6045231D01*
X4247552Y6038000D01*
X4266448D01*
X4283906Y6045231D01*
X4297268Y6058593D01*
X4304500Y6076052D01*
Y6094948D01*
X4297268Y6112406D01*
X4283906Y6125768D01*
X4266448Y6133000D01*
D02*
G37*
G36*
X5259448Y6122500D02*
X5240552D01*
X5223093Y6115269D01*
X5209732Y6101907D01*
X5202500Y6084449D01*
Y6065552D01*
X5209732Y6048094D01*
X5223093Y6034732D01*
X5240552Y6027501D01*
X5259448D01*
X5276906Y6034732D01*
X5290268Y6048094D01*
X5297500Y6065552D01*
Y6084449D01*
X5290268Y6101907D01*
X5276906Y6115269D01*
X5259448Y6122500D01*
D02*
G37*
G36*
X4075948Y6111000D02*
X4057052D01*
X4039594Y6103768D01*
X4026232Y6090406D01*
X4019000Y6072948D01*
Y6054052D01*
X4026232Y6036593D01*
X4039594Y6023232D01*
X4057052Y6016000D01*
X4075948D01*
X4093407Y6023232D01*
X4106769Y6036593D01*
X4114000Y6054052D01*
Y6072948D01*
X4106769Y6090406D01*
X4093407Y6103768D01*
X4075948Y6111000D01*
D02*
G37*
G36*
X4139448Y6006000D02*
X4120552D01*
X4103094Y5998768D01*
X4089732Y5985406D01*
X4082500Y5967948D01*
Y5949052D01*
X4089732Y5931593D01*
X4103094Y5918231D01*
X4120552Y5911000D01*
X4139448D01*
X4156907Y5918231D01*
X4170269Y5931593D01*
X4177500Y5949052D01*
Y5967948D01*
X4170269Y5985406D01*
X4156907Y5998768D01*
X4139448Y6006000D01*
D02*
G37*
G36*
X3948948Y5984000D02*
X3930052D01*
X3912593Y5976768D01*
X3899231Y5963406D01*
X3892000Y5945948D01*
Y5927052D01*
X3899231Y5909593D01*
X3912593Y5896232D01*
X3930052Y5889000D01*
X3948948D01*
X3966406Y5896232D01*
X3979768Y5909593D01*
X3987000Y5927052D01*
Y5945948D01*
X3979768Y5963406D01*
X3966406Y5976768D01*
X3948948Y5984000D01*
D02*
G37*
G36*
X5259448Y5962500D02*
X5240552D01*
X5223093Y5955269D01*
X5209732Y5941907D01*
X5202500Y5924449D01*
Y5905552D01*
X5209732Y5888094D01*
X5223093Y5874732D01*
X5240552Y5867501D01*
X5259448D01*
X5276906Y5874732D01*
X5290268Y5888094D01*
X5297500Y5905552D01*
Y5924449D01*
X5290268Y5941907D01*
X5276906Y5955269D01*
X5259448Y5962500D01*
D02*
G37*
G36*
X4012448Y5879000D02*
X3993552D01*
X3976093Y5871768D01*
X3962731Y5858406D01*
X3955500Y5840948D01*
Y5822052D01*
X3962731Y5804593D01*
X3976093Y5791231D01*
X3993552Y5784000D01*
X4012448D01*
X4029906Y5791231D01*
X4043268Y5804593D01*
X4050500Y5822052D01*
Y5840948D01*
X4043268Y5858406D01*
X4029906Y5871768D01*
X4012448Y5879000D01*
D02*
G37*
G36*
X3821948Y5857000D02*
X3803052D01*
X3785594Y5849768D01*
X3772232Y5836406D01*
X3765000Y5818948D01*
Y5800052D01*
X3772232Y5782593D01*
X3785594Y5769232D01*
X3803052Y5762000D01*
X3821948D01*
X3839407Y5769232D01*
X3852769Y5782593D01*
X3860000Y5800052D01*
Y5818948D01*
X3852769Y5836406D01*
X3839407Y5849768D01*
X3821948Y5857000D01*
D02*
G37*
G36*
X5259448Y5802500D02*
X5240552D01*
X5223093Y5795269D01*
X5209732Y5781907D01*
X5202500Y5764449D01*
Y5745552D01*
X5209732Y5728094D01*
X5223093Y5714732D01*
X5240552Y5707501D01*
X5259448D01*
X5276906Y5714732D01*
X5290268Y5728094D01*
X5297500Y5745552D01*
Y5764449D01*
X5290268Y5781907D01*
X5276906Y5795269D01*
X5259448Y5802500D01*
D02*
G37*
G36*
X3078968Y5775200D02*
X3060072D01*
X3042613Y5767968D01*
X3029251Y5754606D01*
X3022020Y5737148D01*
Y5718252D01*
X3029251Y5700794D01*
X3042613Y5687432D01*
X3060072Y5680200D01*
X3078968D01*
X3096426Y5687432D01*
X3109788Y5700794D01*
X3117020Y5718252D01*
Y5737148D01*
X3109788Y5754606D01*
X3096426Y5767968D01*
X3078968Y5775200D01*
D02*
G37*
G36*
X2838968D02*
X2820072D01*
X2802613Y5767968D01*
X2789251Y5754606D01*
X2782020Y5737148D01*
Y5718252D01*
X2789251Y5700794D01*
X2802613Y5687432D01*
X2820072Y5680200D01*
X2838968D01*
X2856426Y5687432D01*
X2869788Y5700794D01*
X2877020Y5718252D01*
Y5737148D01*
X2869788Y5754606D01*
X2856426Y5767968D01*
X2838968Y5775200D01*
D02*
G37*
G36*
X3885448Y5752000D02*
X3866552D01*
X3849094Y5744768D01*
X3835732Y5731406D01*
X3828500Y5713948D01*
Y5695052D01*
X3835732Y5677593D01*
X3849094Y5664231D01*
X3866552Y5657000D01*
X3885448D01*
X3902907Y5664231D01*
X3916269Y5677593D01*
X3923500Y5695052D01*
Y5713948D01*
X3916269Y5731406D01*
X3902907Y5744768D01*
X3885448Y5752000D01*
D02*
G37*
G36*
X3669448Y5648200D02*
X3650552D01*
X3633094Y5640968D01*
X3619732Y5627606D01*
X3612500Y5610148D01*
Y5591252D01*
X3619732Y5573794D01*
X3633094Y5560432D01*
X3650552Y5553200D01*
X3669448D01*
X3686907Y5560432D01*
X3700268Y5573794D01*
X3707500Y5591252D01*
Y5610148D01*
X3700268Y5627606D01*
X3686907Y5640968D01*
X3669448Y5648200D01*
D02*
G37*
G36*
X3078968D02*
X3060072D01*
X3042613Y5640968D01*
X3029251Y5627606D01*
X3022020Y5610148D01*
Y5591252D01*
X3029251Y5573794D01*
X3042613Y5560432D01*
X3060072Y5553200D01*
X3078968D01*
X3096426Y5560432D01*
X3109788Y5573794D01*
X3117020Y5591252D01*
Y5610148D01*
X3109788Y5627606D01*
X3096426Y5640968D01*
X3078968Y5648200D01*
D02*
G37*
G36*
X5259448Y5642500D02*
X5240552D01*
X5223093Y5635269D01*
X5209732Y5621907D01*
X5202500Y5604449D01*
Y5585552D01*
X5209732Y5568094D01*
X5223093Y5554732D01*
X5240552Y5547501D01*
X5259448D01*
X5276906Y5554732D01*
X5290268Y5568094D01*
X5297500Y5585552D01*
Y5604449D01*
X5290268Y5621907D01*
X5276906Y5635269D01*
X5259448Y5642500D01*
D02*
G37*
G36*
X3744448Y5552950D02*
X3725552D01*
X3708093Y5545718D01*
X3694731Y5532356D01*
X3687500Y5514898D01*
Y5496002D01*
X3694731Y5478544D01*
X3708093Y5465182D01*
X3725552Y5457950D01*
X3744448D01*
X3761906Y5465182D01*
X3775268Y5478544D01*
X3782500Y5496002D01*
Y5514898D01*
X3775268Y5532356D01*
X3761906Y5545718D01*
X3744448Y5552950D01*
D02*
G37*
G36*
X5259448Y5482500D02*
X5240552D01*
X5223093Y5475269D01*
X5209732Y5461907D01*
X5202500Y5444449D01*
Y5425552D01*
X5209732Y5408094D01*
X5223093Y5394732D01*
X5240552Y5387501D01*
X5259448D01*
X5276906Y5394732D01*
X5290268Y5408094D01*
X5297500Y5425552D01*
Y5444449D01*
X5290268Y5461907D01*
X5276906Y5475269D01*
X5259448Y5482500D01*
D02*
G37*
G36*
X3669448Y5457700D02*
X3650552D01*
X3633094Y5450468D01*
X3619732Y5437106D01*
X3612500Y5419648D01*
Y5400752D01*
X3619732Y5383294D01*
X3633094Y5369932D01*
X3650552Y5362700D01*
X3669448D01*
X3686907Y5369932D01*
X3700268Y5383294D01*
X3707500Y5400752D01*
Y5419648D01*
X3700268Y5437106D01*
X3686907Y5450468D01*
X3669448Y5457700D01*
D02*
G37*
G36*
X2504928D02*
X2486032D01*
X2468573Y5450468D01*
X2455211Y5437106D01*
X2447980Y5419648D01*
Y5400752D01*
X2455211Y5383294D01*
X2468573Y5369932D01*
X2486032Y5362700D01*
X2504928D01*
X2522386Y5369932D01*
X2535748Y5383294D01*
X2542980Y5400752D01*
Y5419648D01*
X2535748Y5437106D01*
X2522386Y5450468D01*
X2504928Y5457700D01*
D02*
G37*
G36*
X5259448Y5332500D02*
X5240552D01*
X5223093Y5325268D01*
X5209732Y5311906D01*
X5202500Y5294448D01*
Y5275552D01*
X5209732Y5258093D01*
X5223093Y5244731D01*
X5240552Y5237500D01*
X5259448D01*
X5276906Y5244731D01*
X5290268Y5258093D01*
X5297500Y5275552D01*
Y5294448D01*
X5290268Y5311906D01*
X5276906Y5325268D01*
X5259448Y5332500D01*
D02*
G37*
G36*
X3133448Y5247500D02*
X3114552D01*
X3097093Y5240268D01*
X3083731Y5226906D01*
X3076500Y5209448D01*
Y5190552D01*
X3083731Y5173094D01*
X3097093Y5159732D01*
X3114552Y5152500D01*
X3133448D01*
X3150906Y5159732D01*
X3164268Y5173094D01*
X3171500Y5190552D01*
Y5209448D01*
X3164268Y5226906D01*
X3150906Y5240268D01*
X3133448Y5247500D01*
D02*
G37*
G36*
X2476948Y5197500D02*
X2458051D01*
X2440593Y5190269D01*
X2427231Y5176907D01*
X2420000Y5159448D01*
Y5140552D01*
X2427231Y5123094D01*
X2440593Y5109732D01*
X2458051Y5102500D01*
X2476948D01*
X2494406Y5109732D01*
X2507768Y5123094D01*
X2515000Y5140552D01*
Y5159448D01*
X2507768Y5176907D01*
X2494406Y5190269D01*
X2476948Y5197500D01*
D02*
G37*
G36*
X3349448Y5172500D02*
X3330552D01*
X3313093Y5165268D01*
X3299732Y5151906D01*
X3292500Y5134448D01*
Y5115552D01*
X3299732Y5098093D01*
X3313093Y5084732D01*
X3330552Y5077500D01*
X3349448D01*
X3366906Y5084732D01*
X3380268Y5098093D01*
X3387500Y5115552D01*
Y5134448D01*
X3380268Y5151906D01*
X3366906Y5165268D01*
X3349448Y5172500D01*
D02*
G37*
G36*
X3222448D02*
X3203552D01*
X3186093Y5165268D01*
X3172732Y5151906D01*
X3165500Y5134448D01*
Y5115552D01*
X3172732Y5098093D01*
X3186093Y5084732D01*
X3203552Y5077500D01*
X3222448D01*
X3239906Y5084732D01*
X3253268Y5098093D01*
X3260500Y5115552D01*
Y5134448D01*
X3253268Y5151906D01*
X3239906Y5165268D01*
X3222448Y5172500D01*
D02*
G37*
G36*
X3044448D02*
X3025551D01*
X3008093Y5165268D01*
X2994731Y5151906D01*
X2987500Y5134448D01*
Y5115552D01*
X2994731Y5098093D01*
X3008093Y5084732D01*
X3025551Y5077500D01*
X3044448D01*
X3061906Y5084732D01*
X3075268Y5098093D01*
X3082500Y5115552D01*
Y5134448D01*
X3075268Y5151906D01*
X3061906Y5165268D01*
X3044448Y5172500D01*
D02*
G37*
G36*
X3109448Y5057500D02*
X3090552D01*
X3073093Y5050268D01*
X3059731Y5036906D01*
X3052500Y5019448D01*
Y5000552D01*
X3059731Y4983093D01*
X3073093Y4969731D01*
X3090552Y4962500D01*
X3109448D01*
X3126906Y4969731D01*
X3140268Y4983093D01*
X3147500Y5000552D01*
Y5019448D01*
X3140268Y5036906D01*
X3126906Y5050268D01*
X3109448Y5057500D01*
D02*
G37*
G36*
X2746948D02*
X2728052D01*
X2710594Y5050268D01*
X2697232Y5036906D01*
X2690000Y5019448D01*
Y5000552D01*
X2697232Y4983093D01*
X2710594Y4969731D01*
X2728052Y4962500D01*
X2746948D01*
X2764406Y4969731D01*
X2777768Y4983093D01*
X2785000Y5000552D01*
Y5019448D01*
X2777768Y5036906D01*
X2764406Y5050268D01*
X2746948Y5057500D01*
D02*
G37*
G36*
X2596948D02*
X2578052D01*
X2560594Y5050268D01*
X2547232Y5036906D01*
X2540000Y5019448D01*
Y5000552D01*
X2547232Y4983093D01*
X2560594Y4969731D01*
X2578052Y4962500D01*
X2596948D01*
X2614407Y4969731D01*
X2627768Y4983093D01*
X2635000Y5000552D01*
Y5019448D01*
X2627768Y5036906D01*
X2614407Y5050268D01*
X2596948Y5057500D01*
D02*
G37*
G36*
X5259448Y5012500D02*
X5240552D01*
X5223093Y5005268D01*
X5209732Y4991906D01*
X5202500Y4974448D01*
Y4955552D01*
X5209732Y4938094D01*
X5223093Y4924732D01*
X5240552Y4917500D01*
X5259448D01*
X5276906Y4924732D01*
X5290268Y4938094D01*
X5297500Y4955552D01*
Y4974448D01*
X5290268Y4991906D01*
X5276906Y5005268D01*
X5259448Y5012500D01*
D02*
G37*
G36*
X5132448D02*
X5113552D01*
X5096093Y5005268D01*
X5082732Y4991906D01*
X5075500Y4974448D01*
Y4955552D01*
X5082732Y4938094D01*
X5096093Y4924732D01*
X5113552Y4917500D01*
X5132448D01*
X5149906Y4924732D01*
X5163268Y4938094D01*
X5170500Y4955552D01*
Y4974448D01*
X5163268Y4991906D01*
X5149906Y5005268D01*
X5132448Y5012500D01*
D02*
G37*
G36*
X5005448D02*
X4986552D01*
X4969093Y5005268D01*
X4955732Y4991906D01*
X4948500Y4974448D01*
Y4955552D01*
X4955732Y4938094D01*
X4969093Y4924732D01*
X4986552Y4917500D01*
X5005448D01*
X5022906Y4924732D01*
X5036268Y4938094D01*
X5043500Y4955552D01*
Y4974448D01*
X5036268Y4991906D01*
X5022906Y5005268D01*
X5005448Y5012500D01*
D02*
G37*
G36*
X5068948Y4912500D02*
X5050052D01*
X5032593Y4905268D01*
X5019232Y4891906D01*
X5012000Y4874448D01*
Y4855552D01*
X5019232Y4838093D01*
X5032593Y4824732D01*
X5050052Y4817500D01*
X5068948D01*
X5086406Y4824732D01*
X5099768Y4838093D01*
X5107000Y4855552D01*
Y4874448D01*
X5099768Y4891906D01*
X5086406Y4905268D01*
X5068948Y4912500D01*
D02*
G37*
G36*
X5709448Y4897500D02*
X5690552D01*
X5673094Y4890268D01*
X5659732Y4876906D01*
X5652500Y4859448D01*
Y4840552D01*
X5659732Y4823093D01*
X5673094Y4809732D01*
X5690552Y4802500D01*
X5709448D01*
X5726907Y4809732D01*
X5740268Y4823093D01*
X5747500Y4840552D01*
Y4859448D01*
X5740268Y4876906D01*
X5726907Y4890268D01*
X5709448Y4897500D01*
D02*
G37*
G36*
X4686948Y4847500D02*
X4668052D01*
X4650593Y4840268D01*
X4637232Y4826907D01*
X4630000Y4809448D01*
Y4790552D01*
X4637232Y4773094D01*
X4650593Y4759732D01*
X4668052Y4752500D01*
X4686948D01*
X4704406Y4759732D01*
X4717768Y4773094D01*
X4725000Y4790552D01*
Y4809448D01*
X4717768Y4826907D01*
X4704406Y4840268D01*
X4686948Y4847500D01*
D02*
G37*
G36*
X3459448D02*
X3440552D01*
X3423093Y4840268D01*
X3409732Y4826907D01*
X3402500Y4809448D01*
Y4790552D01*
X3409732Y4773094D01*
X3423093Y4759732D01*
X3440552Y4752500D01*
X3459448D01*
X3476906Y4759732D01*
X3490268Y4773094D01*
X3497500Y4790552D01*
Y4809448D01*
X3490268Y4826907D01*
X3476906Y4840268D01*
X3459448Y4847500D01*
D02*
G37*
G36*
X4583948Y4747500D02*
X4565052D01*
X4547594Y4740268D01*
X4534232Y4726906D01*
X4527000Y4709448D01*
Y4690552D01*
X4534232Y4673094D01*
X4547594Y4659732D01*
X4565052Y4652500D01*
X4583948D01*
X4601407Y4659732D01*
X4614769Y4673094D01*
X4622000Y4690552D01*
Y4709448D01*
X4614769Y4726906D01*
X4601407Y4740268D01*
X4583948Y4747500D01*
D02*
G37*
G36*
X3174448Y4637500D02*
X3155552D01*
X3138094Y4630268D01*
X3124732Y4616906D01*
X3117500Y4599448D01*
Y4580552D01*
X3124732Y4563093D01*
X3138094Y4549732D01*
X3155552Y4542500D01*
X3174448D01*
X3191906Y4549732D01*
X3205268Y4563093D01*
X3212500Y4580552D01*
Y4599448D01*
X3205268Y4616906D01*
X3191906Y4630268D01*
X3174448Y4637500D01*
D02*
G37*
G36*
X2746948D02*
X2728052D01*
X2710594Y4630268D01*
X2697232Y4616906D01*
X2690000Y4599448D01*
Y4580552D01*
X2697232Y4563093D01*
X2710594Y4549732D01*
X2728052Y4542500D01*
X2746948D01*
X2764406Y4549732D01*
X2777768Y4563093D01*
X2785000Y4580552D01*
Y4599448D01*
X2777768Y4616906D01*
X2764406Y4630268D01*
X2746948Y4637500D01*
D02*
G37*
G36*
X2596948D02*
X2578052D01*
X2560594Y4630268D01*
X2547232Y4616906D01*
X2540000Y4599448D01*
Y4580552D01*
X2547232Y4563093D01*
X2560594Y4549732D01*
X2578052Y4542500D01*
X2596948D01*
X2614407Y4549732D01*
X2627768Y4563093D01*
X2635000Y4580552D01*
Y4599448D01*
X2627768Y4616906D01*
X2614407Y4630268D01*
X2596948Y4637500D01*
D02*
G37*
G36*
X4583948Y4627500D02*
X4565052D01*
X4547594Y4620268D01*
X4534232Y4606906D01*
X4527000Y4589448D01*
Y4570552D01*
X4534232Y4553094D01*
X4547594Y4539732D01*
X4565052Y4532500D01*
X4583948D01*
X4601407Y4539732D01*
X4614769Y4553094D01*
X4622000Y4570552D01*
Y4589448D01*
X4614769Y4606906D01*
X4601407Y4620268D01*
X4583948Y4627500D01*
D02*
G37*
G36*
X3109448Y4522500D02*
X3090552D01*
X3073093Y4515268D01*
X3059731Y4501906D01*
X3052500Y4484448D01*
Y4465552D01*
X3059731Y4448093D01*
X3073093Y4434732D01*
X3090552Y4427500D01*
X3109448D01*
X3126906Y4434732D01*
X3140268Y4448093D01*
X3147500Y4465552D01*
Y4484448D01*
X3140268Y4501906D01*
X3126906Y4515268D01*
X3109448Y4522500D01*
D02*
G37*
G36*
X5784448Y4457500D02*
X5765552D01*
X5748094Y4450268D01*
X5734732Y4436907D01*
X5727500Y4419448D01*
Y4400552D01*
X5734732Y4383094D01*
X5748094Y4369732D01*
X5765552Y4362500D01*
X5784448D01*
X5801907Y4369732D01*
X5815269Y4383094D01*
X5822500Y4400552D01*
Y4419448D01*
X5815269Y4436907D01*
X5801907Y4450268D01*
X5784448Y4457500D01*
D02*
G37*
G36*
X845135Y3747500D02*
X826238D01*
X808780Y3740268D01*
X795418Y3726906D01*
X788187Y3709448D01*
Y3690552D01*
X795418Y3673093D01*
X808780Y3659732D01*
X826238Y3652500D01*
X845135D01*
X862593Y3659732D01*
X875955Y3673093D01*
X883186Y3690552D01*
Y3709448D01*
X875955Y3726906D01*
X862593Y3740268D01*
X845135Y3747500D01*
D02*
G37*
G36*
X134448D02*
X115552D01*
X98094Y3740268D01*
X84732Y3726906D01*
X77500Y3709448D01*
Y3690552D01*
X84732Y3673093D01*
X98094Y3659732D01*
X115552Y3652500D01*
X134448D01*
X151906Y3659732D01*
X165268Y3673093D01*
X172500Y3690552D01*
Y3709448D01*
X165268Y3726906D01*
X151906Y3740268D01*
X134448Y3747500D01*
D02*
G37*
G36*
X845135Y3597500D02*
X826238D01*
X808780Y3590268D01*
X795418Y3576906D01*
X788187Y3559448D01*
Y3540552D01*
X795418Y3523094D01*
X808780Y3509732D01*
X826238Y3502500D01*
X845135D01*
X862593Y3509732D01*
X875955Y3523094D01*
X883186Y3540552D01*
Y3559448D01*
X875955Y3576906D01*
X862593Y3590268D01*
X845135Y3597500D01*
D02*
G37*
G36*
Y3447500D02*
X826238D01*
X808780Y3440268D01*
X795418Y3426907D01*
X788187Y3409448D01*
Y3390552D01*
X795418Y3373094D01*
X808780Y3359732D01*
X826238Y3352500D01*
X845135D01*
X862593Y3359732D01*
X875955Y3373094D01*
X883186Y3390552D01*
Y3409448D01*
X875955Y3426907D01*
X862593Y3440268D01*
X845135Y3447500D01*
D02*
G37*
G36*
X134448D02*
X115552D01*
X98094Y3440268D01*
X84732Y3426907D01*
X77500Y3409448D01*
Y3390552D01*
X84732Y3373094D01*
X98094Y3359732D01*
X115552Y3352500D01*
X134448D01*
X151906Y3359732D01*
X165268Y3373094D01*
X172500Y3390552D01*
Y3409448D01*
X165268Y3426907D01*
X151906Y3440268D01*
X134448Y3447500D01*
D02*
G37*
G36*
X2374448Y3242500D02*
X2355552D01*
X2338094Y3235268D01*
X2324732Y3221906D01*
X2317500Y3204448D01*
Y3185552D01*
X2324732Y3168093D01*
X2338094Y3154732D01*
X2355552Y3147500D01*
X2374448D01*
X2391907Y3154732D01*
X2405268Y3168093D01*
X2412500Y3185552D01*
Y3204448D01*
X2405268Y3221906D01*
X2391907Y3235268D01*
X2374448Y3242500D01*
D02*
G37*
G36*
X2124165Y3125000D02*
X2123500D01*
Y3037500D01*
X2211000D01*
Y3038165D01*
X2204185Y3063598D01*
X2191020Y3086401D01*
X2172401Y3105020D01*
X2149598Y3118185D01*
X2124165Y3125000D01*
D02*
G37*
G36*
X2098500D02*
X2097835D01*
X2072402Y3118185D01*
X2049599Y3105020D01*
X2030980Y3086401D01*
X2017815Y3063598D01*
X2011000Y3038165D01*
Y3037500D01*
X2098500D01*
Y3125000D01*
D02*
G37*
G36*
X3902165D02*
X3875835D01*
X3850402Y3118185D01*
X3827599Y3105020D01*
X3808980Y3086401D01*
X3795815Y3063598D01*
X3789000Y3038165D01*
Y3011835D01*
X3795815Y2986402D01*
X3808980Y2963599D01*
X3827599Y2944980D01*
X3850402Y2931815D01*
X3875835Y2925000D01*
X3902165D01*
X3927598Y2931815D01*
X3950401Y2944980D01*
X3969020Y2963599D01*
X3982185Y2986402D01*
X3989000Y3011835D01*
Y3038165D01*
X3982185Y3063598D01*
X3969020Y3086401D01*
X3950401Y3105020D01*
X3927598Y3118185D01*
X3902165Y3125000D01*
D02*
G37*
G36*
X3648165D02*
X3621835D01*
X3596402Y3118185D01*
X3573599Y3105020D01*
X3554980Y3086401D01*
X3541815Y3063598D01*
X3535000Y3038165D01*
Y3011835D01*
X3541815Y2986402D01*
X3554980Y2963599D01*
X3573599Y2944980D01*
X3596402Y2931815D01*
X3621835Y2925000D01*
X3648165D01*
X3673598Y2931815D01*
X3696401Y2944980D01*
X3715020Y2963599D01*
X3728185Y2986402D01*
X3735000Y3011835D01*
Y3038165D01*
X3728185Y3063598D01*
X3715020Y3086401D01*
X3696401Y3105020D01*
X3673598Y3118185D01*
X3648165Y3125000D01*
D02*
G37*
G36*
X3394165D02*
X3367835D01*
X3342402Y3118185D01*
X3319599Y3105020D01*
X3300980Y3086401D01*
X3287815Y3063598D01*
X3281000Y3038165D01*
Y3011835D01*
X3287815Y2986402D01*
X3300980Y2963599D01*
X3319599Y2944980D01*
X3342402Y2931815D01*
X3367835Y2925000D01*
X3394165D01*
X3419598Y2931815D01*
X3442401Y2944980D01*
X3461020Y2963599D01*
X3474185Y2986402D01*
X3481000Y3011835D01*
Y3038165D01*
X3474185Y3063598D01*
X3461020Y3086401D01*
X3442401Y3105020D01*
X3419598Y3118185D01*
X3394165Y3125000D01*
D02*
G37*
G36*
X3140165D02*
X3113835D01*
X3088402Y3118185D01*
X3065599Y3105020D01*
X3046980Y3086401D01*
X3033815Y3063598D01*
X3027000Y3038165D01*
Y3011835D01*
X3033815Y2986402D01*
X3046980Y2963599D01*
X3065599Y2944980D01*
X3088402Y2931815D01*
X3113835Y2925000D01*
X3140165D01*
X3165598Y2931815D01*
X3188401Y2944980D01*
X3207020Y2963599D01*
X3220185Y2986402D01*
X3227000Y3011835D01*
Y3038165D01*
X3220185Y3063598D01*
X3207020Y3086401D01*
X3188401Y3105020D01*
X3165598Y3118185D01*
X3140165Y3125000D01*
D02*
G37*
G36*
X2886165D02*
X2859835D01*
X2834402Y3118185D01*
X2811599Y3105020D01*
X2792980Y3086401D01*
X2779815Y3063598D01*
X2773000Y3038165D01*
Y3011835D01*
X2779815Y2986402D01*
X2792980Y2963599D01*
X2811599Y2944980D01*
X2834402Y2931815D01*
X2859835Y2925000D01*
X2886165D01*
X2911598Y2931815D01*
X2934401Y2944980D01*
X2953020Y2963599D01*
X2966185Y2986402D01*
X2973000Y3011835D01*
Y3038165D01*
X2966185Y3063598D01*
X2953020Y3086401D01*
X2934401Y3105020D01*
X2911598Y3118185D01*
X2886165Y3125000D01*
D02*
G37*
G36*
X2632165D02*
X2605835D01*
X2580402Y3118185D01*
X2557599Y3105020D01*
X2538980Y3086401D01*
X2525815Y3063598D01*
X2519000Y3038165D01*
Y3011835D01*
X2525815Y2986402D01*
X2538980Y2963599D01*
X2557599Y2944980D01*
X2580402Y2931815D01*
X2605835Y2925000D01*
X2632165D01*
X2657598Y2931815D01*
X2680401Y2944980D01*
X2699020Y2963599D01*
X2712185Y2986402D01*
X2719000Y3011835D01*
Y3038165D01*
X2712185Y3063598D01*
X2699020Y3086401D01*
X2680401Y3105020D01*
X2657598Y3118185D01*
X2632165Y3125000D01*
D02*
G37*
G36*
X2378165D02*
X2351835D01*
X2326402Y3118185D01*
X2303599Y3105020D01*
X2284980Y3086401D01*
X2271815Y3063598D01*
X2265000Y3038165D01*
Y3011835D01*
X2271815Y2986402D01*
X2284980Y2963599D01*
X2303599Y2944980D01*
X2326402Y2931815D01*
X2351835Y2925000D01*
X2378165D01*
X2403598Y2931815D01*
X2426401Y2944980D01*
X2445020Y2963599D01*
X2458185Y2986402D01*
X2465000Y3011835D01*
Y3038165D01*
X2458185Y3063598D01*
X2445020Y3086401D01*
X2426401Y3105020D01*
X2403598Y3118185D01*
X2378165Y3125000D01*
D02*
G37*
G36*
X2211000Y3012500D02*
X2123500D01*
Y2925000D01*
X2124165D01*
X2149598Y2931815D01*
X2172401Y2944980D01*
X2191020Y2963599D01*
X2204185Y2986402D01*
X2211000Y3011835D01*
Y3012500D01*
D02*
G37*
G36*
X2098500D02*
X2011000D01*
Y3011835D01*
X2017815Y2986402D01*
X2030980Y2963599D01*
X2049599Y2944980D01*
X2072402Y2931815D01*
X2097835Y2925000D01*
X2098500D01*
Y3012500D01*
D02*
G37*
G36*
X4934206Y3220000D02*
X4895794D01*
X4858121Y3212506D01*
X4822633Y3197807D01*
X4790695Y3176466D01*
X4763534Y3149305D01*
X4742193Y3117367D01*
X4727494Y3081880D01*
X4720000Y3044206D01*
Y3005794D01*
X4727494Y2968121D01*
X4742193Y2932633D01*
X4763534Y2900695D01*
X4790695Y2873534D01*
X4822633Y2852193D01*
X4858121Y2837494D01*
X4895794Y2830000D01*
X4934206D01*
X4971880Y2837494D01*
X5007367Y2852193D01*
X5039305Y2873534D01*
X5066466Y2900695D01*
X5087807Y2932633D01*
X5102506Y2968121D01*
X5110000Y3005794D01*
Y3044206D01*
X5102506Y3081880D01*
X5087807Y3117367D01*
X5066466Y3149305D01*
X5039305Y3176466D01*
X5007367Y3197807D01*
X4971880Y3212506D01*
X4934206Y3220000D01*
D02*
G37*
G36*
X1104206D02*
X1065794D01*
X1028121Y3212506D01*
X992633Y3197807D01*
X960695Y3176466D01*
X933534Y3149305D01*
X912194Y3117367D01*
X897494Y3081880D01*
X890000Y3044206D01*
Y3005794D01*
X897494Y2968121D01*
X912194Y2932633D01*
X933534Y2900695D01*
X960695Y2873534D01*
X992633Y2852193D01*
X1028121Y2837494D01*
X1065794Y2830000D01*
X1104206D01*
X1141880Y2837494D01*
X1177367Y2852193D01*
X1209305Y2873534D01*
X1236466Y2900695D01*
X1257807Y2932633D01*
X1272506Y2968121D01*
X1280000Y3005794D01*
Y3044206D01*
X1272506Y3081880D01*
X1257807Y3117367D01*
X1236466Y3149305D01*
X1209305Y3176466D01*
X1177367Y3197807D01*
X1141880Y3212506D01*
X1104206Y3220000D01*
D02*
G37*
G36*
X2374448Y2902500D02*
X2355552D01*
X2338094Y2895269D01*
X2324732Y2881907D01*
X2317500Y2864448D01*
Y2845552D01*
X2324732Y2828094D01*
X2338094Y2814732D01*
X2355552Y2807500D01*
X2374448D01*
X2391907Y2814732D01*
X2405268Y2828094D01*
X2412500Y2845552D01*
Y2864448D01*
X2405268Y2881907D01*
X2391907Y2895269D01*
X2374448Y2902500D01*
D02*
G37*
G36*
X4793448Y2117500D02*
X4774552D01*
X4757094Y2110268D01*
X4743732Y2096906D01*
X4736500Y2079448D01*
Y2060552D01*
X4743732Y2043093D01*
X4757094Y2029732D01*
X4774552Y2022500D01*
X4793448D01*
X4810907Y2029732D01*
X4824268Y2043093D01*
X4831500Y2060552D01*
Y2079448D01*
X4824268Y2096906D01*
X4810907Y2110268D01*
X4793448Y2117500D01*
D02*
G37*
G36*
X1234448Y2107500D02*
X1215552D01*
X1198093Y2100268D01*
X1184731Y2086906D01*
X1177500Y2069448D01*
Y2050552D01*
X1184731Y2033093D01*
X1198093Y2019732D01*
X1215552Y2012500D01*
X1234448D01*
X1251906Y2019732D01*
X1265268Y2033093D01*
X1272500Y2050552D01*
Y2069448D01*
X1265268Y2086906D01*
X1251906Y2100268D01*
X1234448Y2107500D01*
D02*
G37*
G36*
X5051165Y2000000D02*
X5050500D01*
Y1912501D01*
X5138000D01*
Y1913165D01*
X5131185Y1938598D01*
X5118020Y1961401D01*
X5099401Y1980020D01*
X5076598Y1993185D01*
X5051165Y2000000D01*
D02*
G37*
G36*
X5025500D02*
X5024835D01*
X4999402Y1993185D01*
X4976599Y1980020D01*
X4957980Y1961401D01*
X4944815Y1938598D01*
X4938000Y1913165D01*
Y1912501D01*
X5025500D01*
Y2000000D01*
D02*
G37*
G36*
X5138000Y1887501D02*
X5050500D01*
Y1800000D01*
X5051165D01*
X5076598Y1806815D01*
X5099401Y1819980D01*
X5118020Y1838599D01*
X5131185Y1861402D01*
X5138000Y1886835D01*
Y1887501D01*
D02*
G37*
G36*
X5025500D02*
X4938000D01*
Y1886835D01*
X4944815Y1861402D01*
X4957980Y1838599D01*
X4976599Y1819980D01*
X4999402Y1806815D01*
X5024835Y1800000D01*
X5025500D01*
Y1887501D01*
D02*
G37*
G36*
X4797165Y2000000D02*
X4770835D01*
X4745402Y1993185D01*
X4722599Y1980020D01*
X4703980Y1961401D01*
X4690815Y1938598D01*
X4684000Y1913165D01*
Y1886835D01*
X4690815Y1861402D01*
X4703980Y1838599D01*
X4722599Y1819980D01*
X4745402Y1806815D01*
X4770835Y1800000D01*
X4797165D01*
X4822598Y1806815D01*
X4845401Y1819980D01*
X4864020Y1838599D01*
X4877185Y1861402D01*
X4884000Y1886835D01*
Y1913165D01*
X4877185Y1938598D01*
X4864020Y1961401D01*
X4845401Y1980020D01*
X4822598Y1993185D01*
X4797165Y2000000D01*
D02*
G37*
G36*
X4543165D02*
X4516835D01*
X4491402Y1993185D01*
X4468599Y1980020D01*
X4449980Y1961401D01*
X4436815Y1938598D01*
X4430000Y1913165D01*
Y1886835D01*
X4436815Y1861402D01*
X4449980Y1838599D01*
X4468599Y1819980D01*
X4491402Y1806815D01*
X4516835Y1800000D01*
X4543165D01*
X4568598Y1806815D01*
X4591401Y1819980D01*
X4610020Y1838599D01*
X4623185Y1861402D01*
X4630000Y1886835D01*
Y1913165D01*
X4623185Y1938598D01*
X4610020Y1961401D01*
X4591401Y1980020D01*
X4568598Y1993185D01*
X4543165Y2000000D01*
D02*
G37*
G36*
X4289165D02*
X4262835D01*
X4237402Y1993185D01*
X4214599Y1980020D01*
X4195980Y1961401D01*
X4182815Y1938598D01*
X4176000Y1913165D01*
Y1886835D01*
X4182815Y1861402D01*
X4195980Y1838599D01*
X4214599Y1819980D01*
X4237402Y1806815D01*
X4262835Y1800000D01*
X4289165D01*
X4314598Y1806815D01*
X4337401Y1819980D01*
X4356020Y1838599D01*
X4369185Y1861402D01*
X4376000Y1886835D01*
Y1913165D01*
X4369185Y1938598D01*
X4356020Y1961401D01*
X4337401Y1980020D01*
X4314598Y1993185D01*
X4289165Y2000000D01*
D02*
G37*
G36*
X4035165D02*
X4008835D01*
X3983402Y1993185D01*
X3960599Y1980020D01*
X3941980Y1961401D01*
X3928815Y1938598D01*
X3922000Y1913165D01*
Y1886835D01*
X3928815Y1861402D01*
X3941980Y1838599D01*
X3960599Y1819980D01*
X3983402Y1806815D01*
X4008835Y1800000D01*
X4035165D01*
X4060598Y1806815D01*
X4083401Y1819980D01*
X4102020Y1838599D01*
X4115185Y1861402D01*
X4122000Y1886835D01*
Y1913165D01*
X4115185Y1938598D01*
X4102020Y1961401D01*
X4083401Y1980020D01*
X4060598Y1993185D01*
X4035165Y2000000D01*
D02*
G37*
G36*
X3781165D02*
X3754835D01*
X3729402Y1993185D01*
X3706599Y1980020D01*
X3687980Y1961401D01*
X3674815Y1938598D01*
X3668000Y1913165D01*
Y1886835D01*
X3674815Y1861402D01*
X3687980Y1838599D01*
X3706599Y1819980D01*
X3729402Y1806815D01*
X3754835Y1800000D01*
X3781165D01*
X3806598Y1806815D01*
X3829401Y1819980D01*
X3848020Y1838599D01*
X3861185Y1861402D01*
X3868000Y1886835D01*
Y1913165D01*
X3861185Y1938598D01*
X3848020Y1961401D01*
X3829401Y1980020D01*
X3806598Y1993185D01*
X3781165Y2000000D01*
D02*
G37*
G36*
X3527165D02*
X3500835D01*
X3475402Y1993185D01*
X3452599Y1980020D01*
X3433980Y1961401D01*
X3420815Y1938598D01*
X3414000Y1913165D01*
Y1886835D01*
X3420815Y1861402D01*
X3433980Y1838599D01*
X3452599Y1819980D01*
X3475402Y1806815D01*
X3500835Y1800000D01*
X3527165D01*
X3552598Y1806815D01*
X3575401Y1819980D01*
X3594020Y1838599D01*
X3607185Y1861402D01*
X3614000Y1886835D01*
Y1913165D01*
X3607185Y1938598D01*
X3594020Y1961401D01*
X3575401Y1980020D01*
X3552598Y1993185D01*
X3527165Y2000000D01*
D02*
G37*
G36*
X3273165D02*
X3246835D01*
X3221402Y1993185D01*
X3198599Y1980020D01*
X3179980Y1961401D01*
X3166815Y1938598D01*
X3160000Y1913165D01*
Y1886835D01*
X3166815Y1861402D01*
X3179980Y1838599D01*
X3198599Y1819980D01*
X3221402Y1806815D01*
X3246835Y1800000D01*
X3273165D01*
X3298598Y1806815D01*
X3321401Y1819980D01*
X3340020Y1838599D01*
X3353185Y1861402D01*
X3360000Y1886835D01*
Y1913165D01*
X3353185Y1938598D01*
X3340020Y1961401D01*
X3321401Y1980020D01*
X3298598Y1993185D01*
X3273165Y2000000D01*
D02*
G37*
G36*
X3019165D02*
X2992835D01*
X2967402Y1993185D01*
X2944599Y1980020D01*
X2925980Y1961401D01*
X2912815Y1938598D01*
X2906000Y1913165D01*
Y1886835D01*
X2912815Y1861402D01*
X2925980Y1838599D01*
X2944599Y1819980D01*
X2967402Y1806815D01*
X2992835Y1800000D01*
X3019165D01*
X3044598Y1806815D01*
X3067401Y1819980D01*
X3086020Y1838599D01*
X3099185Y1861402D01*
X3106000Y1886835D01*
Y1913165D01*
X3099185Y1938598D01*
X3086020Y1961401D01*
X3067401Y1980020D01*
X3044598Y1993185D01*
X3019165Y2000000D01*
D02*
G37*
G36*
X2765165D02*
X2738835D01*
X2713402Y1993185D01*
X2690599Y1980020D01*
X2671980Y1961401D01*
X2658815Y1938598D01*
X2652000Y1913165D01*
Y1886835D01*
X2658815Y1861402D01*
X2671980Y1838599D01*
X2690599Y1819980D01*
X2713402Y1806815D01*
X2738835Y1800000D01*
X2765165D01*
X2790598Y1806815D01*
X2813401Y1819980D01*
X2832020Y1838599D01*
X2845185Y1861402D01*
X2852000Y1886835D01*
Y1913165D01*
X2845185Y1938598D01*
X2832020Y1961401D01*
X2813401Y1980020D01*
X2790598Y1993185D01*
X2765165Y2000000D01*
D02*
G37*
G36*
X4793448Y1777500D02*
X4774552D01*
X4757094Y1770268D01*
X4743732Y1756907D01*
X4736500Y1739448D01*
Y1720552D01*
X4743732Y1703094D01*
X4757094Y1689732D01*
X4774552Y1682500D01*
X4793448D01*
X4810907Y1689732D01*
X4824268Y1703094D01*
X4831500Y1720552D01*
Y1739448D01*
X4824268Y1756907D01*
X4810907Y1770268D01*
X4793448Y1777500D01*
D02*
G37*
G36*
X1309448Y1667500D02*
X1290552D01*
X1273093Y1660268D01*
X1259732Y1646907D01*
X1252500Y1629448D01*
Y1610552D01*
X1259732Y1593094D01*
X1273093Y1579732D01*
X1290552Y1572500D01*
X1309448D01*
X1326906Y1579732D01*
X1340268Y1593094D01*
X1347500Y1610552D01*
Y1629448D01*
X1340268Y1646907D01*
X1326906Y1660268D01*
X1309448Y1667500D01*
D02*
G37*
G36*
X1834448Y1507500D02*
X1815552D01*
X1798093Y1500268D01*
X1784732Y1486906D01*
X1777500Y1469448D01*
Y1450552D01*
X1784732Y1433093D01*
X1798093Y1419731D01*
X1815552Y1412500D01*
X1834448D01*
X1851906Y1419731D01*
X1865268Y1433093D01*
X1872500Y1450552D01*
Y1469448D01*
X1865268Y1486906D01*
X1851906Y1500268D01*
X1834448Y1507500D01*
D02*
G37*
G36*
X1234448D02*
X1215552D01*
X1198093Y1500268D01*
X1184731Y1486906D01*
X1177500Y1469448D01*
Y1450552D01*
X1184731Y1433093D01*
X1198093Y1419731D01*
X1215552Y1412500D01*
X1234448D01*
X1251906Y1419731D01*
X1265268Y1433093D01*
X1272500Y1450552D01*
Y1469448D01*
X1265268Y1486906D01*
X1251906Y1500268D01*
X1234448Y1507500D01*
D02*
G37*
G36*
X634448D02*
X615552D01*
X598094Y1500268D01*
X584732Y1486906D01*
X577500Y1469448D01*
Y1450552D01*
X584732Y1433093D01*
X598094Y1419731D01*
X615552Y1412500D01*
X634448D01*
X651906Y1419731D01*
X665268Y1433093D01*
X672500Y1450552D01*
Y1469448D01*
X665268Y1486906D01*
X651906Y1500268D01*
X634448Y1507500D01*
D02*
G37*
G36*
X1909448Y1067500D02*
X1890552D01*
X1873094Y1060268D01*
X1859732Y1046906D01*
X1852500Y1029448D01*
Y1010552D01*
X1859732Y993094D01*
X1873094Y979732D01*
X1890552Y972500D01*
X1909448D01*
X1926906Y979732D01*
X1940268Y993094D01*
X1947500Y1010552D01*
Y1029448D01*
X1940268Y1046906D01*
X1926906Y1060268D01*
X1909448Y1067500D01*
D02*
G37*
G36*
X1309448D02*
X1290552D01*
X1273093Y1060268D01*
X1259732Y1046906D01*
X1252500Y1029448D01*
Y1010552D01*
X1259732Y993094D01*
X1273093Y979732D01*
X1290552Y972500D01*
X1309448D01*
X1326906Y979732D01*
X1340268Y993094D01*
X1347500Y1010552D01*
Y1029448D01*
X1340268Y1046906D01*
X1326906Y1060268D01*
X1309448Y1067500D01*
D02*
G37*
G36*
X709448D02*
X690552D01*
X673094Y1060268D01*
X659732Y1046906D01*
X652500Y1029448D01*
Y1010552D01*
X659732Y993094D01*
X673094Y979732D01*
X690552Y972500D01*
X709448D01*
X726907Y979732D01*
X740269Y993094D01*
X747500Y1010552D01*
Y1029448D01*
X740269Y1046906D01*
X726907Y1060268D01*
X709448Y1067500D01*
D02*
G37*
G36*
X1234448Y907500D02*
X1215552D01*
X1198093Y900268D01*
X1184731Y886907D01*
X1177500Y869448D01*
Y850552D01*
X1184731Y833094D01*
X1198093Y819732D01*
X1215552Y812500D01*
X1234448D01*
X1251906Y819732D01*
X1265268Y833094D01*
X1272500Y850552D01*
Y869448D01*
X1265268Y886907D01*
X1251906Y900268D01*
X1234448Y907500D01*
D02*
G37*
G36*
X1309448Y467500D02*
X1290552D01*
X1273093Y460269D01*
X1259732Y446907D01*
X1252500Y429448D01*
Y410552D01*
X1259732Y393094D01*
X1273093Y379732D01*
X1290552Y372500D01*
X1309448D01*
X1326906Y379732D01*
X1340268Y393094D01*
X1347500Y410552D01*
Y429448D01*
X1340268Y446907D01*
X1326906Y460269D01*
X1309448Y467500D01*
D02*
G37*
G36*
X5719206Y495000D02*
X5680794D01*
X5643121Y487506D01*
X5607633Y472806D01*
X5575695Y451466D01*
X5548534Y424305D01*
X5527193Y392367D01*
X5512494Y356879D01*
X5505000Y319205D01*
Y280794D01*
X5512494Y243120D01*
X5527193Y207633D01*
X5548534Y175694D01*
X5575695Y148533D01*
X5607633Y127193D01*
X5643121Y112494D01*
X5680794Y105000D01*
X5719206D01*
X5756880Y112494D01*
X5792367Y127193D01*
X5824305Y148533D01*
X5851466Y175694D01*
X5872807Y207633D01*
X5887506Y243120D01*
X5895000Y280794D01*
Y319205D01*
X5887506Y356879D01*
X5872807Y392367D01*
X5851466Y424305D01*
X5824305Y451466D01*
X5792367Y472806D01*
X5756880Y487506D01*
X5719206Y495000D01*
D02*
G37*
G36*
X319206D02*
X280794D01*
X243121Y487506D01*
X207633Y472806D01*
X175695Y451466D01*
X148534Y424305D01*
X127194Y392367D01*
X112494Y356879D01*
X105000Y319205D01*
Y280794D01*
X112494Y243120D01*
X127194Y207633D01*
X148534Y175694D01*
X175695Y148533D01*
X207633Y127193D01*
X243121Y112494D01*
X280794Y105000D01*
X319206D01*
X356880Y112494D01*
X392367Y127193D01*
X424305Y148533D01*
X451466Y175694D01*
X472807Y207633D01*
X487506Y243120D01*
X495000Y280794D01*
Y319205D01*
X487506Y356879D01*
X472807Y392367D01*
X451466Y424305D01*
X424305Y451466D01*
X392367Y472806D01*
X356880Y487506D01*
X319206Y495000D01*
D02*
G37*
G36*
X3209448Y9617500D02*
X3190552D01*
X3173094Y9610268D01*
X3159732Y9596906D01*
X3152500Y9579448D01*
Y9560552D01*
X3159732Y9543093D01*
X3173094Y9529732D01*
X3190552Y9522500D01*
X3209448D01*
X3226907Y9529732D01*
X3240269Y9543093D01*
X3247500Y9560552D01*
Y9579448D01*
X3240269Y9596906D01*
X3226907Y9610268D01*
X3209448Y9617500D01*
D02*
G37*
G36*
X319206Y9895000D02*
X280794D01*
X243121Y9887506D01*
X207633Y9872806D01*
X175695Y9851466D01*
X148534Y9824305D01*
X127194Y9792367D01*
X112494Y9756879D01*
X105000Y9719205D01*
Y9680794D01*
X112494Y9643120D01*
X127194Y9607633D01*
X148534Y9575694D01*
X175695Y9548533D01*
X207633Y9527193D01*
X243121Y9512494D01*
X280794Y9505000D01*
X319206D01*
X356880Y9512494D01*
X392367Y9527193D01*
X424305Y9548533D01*
X451466Y9575694D01*
X472807Y9607633D01*
X487506Y9643120D01*
X495000Y9680794D01*
Y9719205D01*
X487506Y9756879D01*
X472807Y9792367D01*
X451466Y9824305D01*
X424305Y9851466D01*
X392367Y9872806D01*
X356880Y9887506D01*
X319206Y9895000D01*
D02*
G37*
G36*
X1104206Y9770000D02*
X1065794D01*
X1028121Y9762506D01*
X992633Y9747807D01*
X960695Y9726466D01*
X933534Y9699305D01*
X912194Y9667367D01*
X897494Y9631880D01*
X890000Y9594206D01*
Y9555794D01*
X897494Y9518121D01*
X912194Y9482633D01*
X933534Y9450695D01*
X960695Y9423534D01*
X992633Y9402194D01*
X1028121Y9387494D01*
X1065794Y9380000D01*
X1104206D01*
X1141880Y9387494D01*
X1177367Y9402194D01*
X1209305Y9423534D01*
X1236466Y9450695D01*
X1257807Y9482633D01*
X1272506Y9518121D01*
X1280000Y9555794D01*
Y9594206D01*
X1272506Y9631880D01*
X1257807Y9667367D01*
X1236466Y9699305D01*
X1209305Y9726466D01*
X1177367Y9747807D01*
X1141880Y9762506D01*
X1104206Y9770000D01*
D02*
G37*
G36*
X3379448Y9347500D02*
X3360552D01*
X3343094Y9340268D01*
X3329732Y9326906D01*
X3322500Y9309448D01*
Y9290552D01*
X3329732Y9273093D01*
X3343094Y9259732D01*
X3360552Y9252500D01*
X3379448D01*
X3396907Y9259732D01*
X3410269Y9273093D01*
X3417500Y9290552D01*
Y9309448D01*
X3410269Y9326906D01*
X3396907Y9340268D01*
X3379448Y9347500D01*
D02*
G37*
G36*
X3209448Y9077500D02*
X3190552D01*
X3173094Y9070268D01*
X3159732Y9056906D01*
X3152500Y9039448D01*
Y9020552D01*
X3159732Y9003093D01*
X3173094Y8989732D01*
X3190552Y8982500D01*
X3209448D01*
X3226907Y8989732D01*
X3240269Y9003093D01*
X3247500Y9020552D01*
Y9039448D01*
X3240269Y9056906D01*
X3226907Y9070268D01*
X3209448Y9077500D01*
D02*
G37*
G36*
X3214448Y8447500D02*
X3195552D01*
X3178094Y8440269D01*
X3164732Y8426907D01*
X3157500Y8409449D01*
Y8390552D01*
X3164732Y8373094D01*
X3178094Y8359732D01*
X3195552Y8352501D01*
X3214448D01*
X3231907Y8359732D01*
X3245269Y8373094D01*
X3252500Y8390552D01*
Y8409449D01*
X3245269Y8426907D01*
X3231907Y8440269D01*
X3214448Y8447500D01*
D02*
G37*
G36*
X2804448D02*
X2785552D01*
X2768094Y8440269D01*
X2754732Y8426907D01*
X2747500Y8409449D01*
Y8390552D01*
X2754732Y8373094D01*
X2768094Y8359732D01*
X2785552Y8352501D01*
X2804448D01*
X2821906Y8359732D01*
X2835268Y8373094D01*
X2842500Y8390552D01*
Y8409449D01*
X2835268Y8426907D01*
X2821906Y8440269D01*
X2804448Y8447500D01*
D02*
G37*
G36*
X3108951Y8345000D02*
X3091049D01*
X3074510Y8338149D01*
X3061851Y8325491D01*
X3055000Y8308951D01*
Y8291049D01*
X3061851Y8274510D01*
X3074510Y8261851D01*
X3091049Y8255000D01*
X3108951D01*
X3125491Y8261851D01*
X3138149Y8274510D01*
X3145000Y8291049D01*
Y8308951D01*
X3138149Y8325491D01*
X3125491Y8338149D01*
X3108951Y8345000D01*
D02*
G37*
G36*
X2908951D02*
X2891049D01*
X2874510Y8338149D01*
X2861851Y8325491D01*
X2855000Y8308951D01*
Y8291049D01*
X2861851Y8274510D01*
X2874510Y8261851D01*
X2891049Y8255000D01*
X2908951D01*
X2925490Y8261851D01*
X2938149Y8274510D01*
X2945000Y8291049D01*
Y8308951D01*
X2938149Y8325491D01*
X2925490Y8338149D01*
X2908951Y8345000D01*
D02*
G37*
G36*
X2164448Y8347500D02*
X2145552D01*
X2128094Y8340268D01*
X2114732Y8326906D01*
X2107500Y8309448D01*
Y8290552D01*
X2114732Y8273093D01*
X2128094Y8259732D01*
X2145552Y8252500D01*
X2164448D01*
X2181906Y8259732D01*
X2195268Y8273093D01*
X2202500Y8290552D01*
Y8309448D01*
X2195268Y8326906D01*
X2181906Y8340268D01*
X2164448Y8347500D01*
D02*
G37*
G36*
Y8197500D02*
X2145552D01*
X2128094Y8190268D01*
X2114732Y8176906D01*
X2107500Y8159448D01*
Y8140552D01*
X2114732Y8123093D01*
X2128094Y8109732D01*
X2145552Y8102500D01*
X2164448D01*
X2181906Y8109732D01*
X2195268Y8123093D01*
X2202500Y8140552D01*
Y8159448D01*
X2195268Y8176906D01*
X2181906Y8190268D01*
X2164448Y8197500D01*
D02*
G37*
G36*
X2689448Y8162500D02*
X2670552D01*
X2653093Y8155268D01*
X2639732Y8141907D01*
X2632500Y8124448D01*
Y8105552D01*
X2639732Y8088094D01*
X2653093Y8074732D01*
X2670552Y8067500D01*
X2689448D01*
X2706906Y8074732D01*
X2720268Y8088094D01*
X2727500Y8105552D01*
Y8124448D01*
X2720268Y8141907D01*
X2706906Y8155268D01*
X2689448Y8162500D01*
D02*
G37*
G36*
X3108951Y8145000D02*
X3091049D01*
X3074510Y8138149D01*
X3061851Y8125490D01*
X3055000Y8108951D01*
Y8091049D01*
X3061851Y8074510D01*
X3074510Y8061851D01*
X3091049Y8055000D01*
X3108951D01*
X3125491Y8061851D01*
X3138149Y8074510D01*
X3145000Y8091049D01*
Y8108951D01*
X3138149Y8125490D01*
X3125491Y8138149D01*
X3108951Y8145000D01*
D02*
G37*
G36*
X2908951D02*
X2891049D01*
X2874510Y8138149D01*
X2861851Y8125490D01*
X2855000Y8108951D01*
Y8091049D01*
X2861851Y8074510D01*
X2874510Y8061851D01*
X2891049Y8055000D01*
X2908951D01*
X2925490Y8061851D01*
X2938149Y8074510D01*
X2945000Y8091049D01*
Y8108951D01*
X2938149Y8125490D01*
X2925490Y8138149D01*
X2908951Y8145000D01*
D02*
G37*
G36*
X2804448Y8047500D02*
X2785552D01*
X2768094Y8040268D01*
X2754732Y8026906D01*
X2747500Y8009448D01*
Y7990551D01*
X2754732Y7973093D01*
X2768094Y7959731D01*
X2785552Y7952500D01*
X2804448D01*
X2821906Y7959731D01*
X2835268Y7973093D01*
X2842500Y7990551D01*
Y8009448D01*
X2835268Y8026906D01*
X2821906Y8040268D01*
X2804448Y8047500D01*
D02*
G37*
G36*
X2284448Y8042500D02*
X2265552D01*
X2248094Y8035268D01*
X2234732Y8021906D01*
X2227500Y8004448D01*
Y7985552D01*
X2234732Y7968094D01*
X2248094Y7954732D01*
X2265552Y7947500D01*
X2284448D01*
X2301906Y7954732D01*
X2315268Y7968094D01*
X2322500Y7985552D01*
Y8004448D01*
X2315268Y8021906D01*
X2301906Y8035268D01*
X2284448Y8042500D01*
D02*
G37*
G36*
X2859448Y7772500D02*
X2840552D01*
X2823093Y7765268D01*
X2809731Y7751907D01*
X2802500Y7734448D01*
Y7715552D01*
X2809731Y7698094D01*
X2823093Y7684732D01*
X2840552Y7677500D01*
X2859448D01*
X2876906Y7684732D01*
X2890268Y7698094D01*
X2897500Y7715552D01*
Y7734448D01*
X2890268Y7751907D01*
X2876906Y7765268D01*
X2859448Y7772500D01*
D02*
G37*
G36*
X2284448Y7625500D02*
X2265552D01*
X2248094Y7618268D01*
X2234732Y7604907D01*
X2227500Y7587448D01*
Y7568552D01*
X2234732Y7551094D01*
X2248094Y7537732D01*
X2265552Y7530500D01*
X2284448D01*
X2301906Y7537732D01*
X2315268Y7551094D01*
X2322500Y7568552D01*
Y7587448D01*
X2315268Y7604907D01*
X2301906Y7618268D01*
X2284448Y7625500D01*
D02*
G37*
G36*
X2684113Y7424061D02*
X2665216D01*
X2647758Y7416830D01*
X2634396Y7403468D01*
X2627165Y7386010D01*
Y7367113D01*
X2634396Y7349655D01*
X2647758Y7336293D01*
X2665216Y7329062D01*
X2684113D01*
X2701571Y7336293D01*
X2714933Y7349655D01*
X2722164Y7367113D01*
Y7386010D01*
X2714933Y7403468D01*
X2701571Y7416830D01*
X2684113Y7424061D01*
D02*
G37*
G36*
X452448Y7167500D02*
X433552D01*
X416094Y7160268D01*
X402732Y7146906D01*
X395500Y7129448D01*
Y7110552D01*
X402732Y7093094D01*
X416094Y7079732D01*
X433552Y7072500D01*
X452448D01*
X469907Y7079732D01*
X483269Y7093094D01*
X490500Y7110552D01*
Y7129448D01*
X483269Y7146906D01*
X469907Y7160268D01*
X452448Y7167500D01*
D02*
G37*
G36*
X1319448Y6797500D02*
X1300552D01*
X1283093Y6790269D01*
X1269732Y6776907D01*
X1262500Y6759449D01*
Y6740552D01*
X1269732Y6723094D01*
X1283093Y6709732D01*
X1300552Y6702500D01*
X1319448D01*
X1336906Y6709732D01*
X1350268Y6723094D01*
X1357500Y6740552D01*
Y6759449D01*
X1350268Y6776907D01*
X1336906Y6790269D01*
X1319448Y6797500D01*
D02*
G37*
G36*
X1199946Y6690783D02*
D01*
X1199945D01*
X1040001Y6690783D01*
X1030056Y6690783D01*
X1030055D01*
X1030055D01*
X1022295Y6689240D01*
X1014449Y6687680D01*
X1014448Y6687680D01*
X1014447Y6687679D01*
X996070Y6680068D01*
D01*
X996069Y6680067D01*
X989436Y6675635D01*
X982839Y6671227D01*
X982838Y6671226D01*
X968773Y6657161D01*
X959932Y6643930D01*
Y6643929D01*
X959932Y6643929D01*
X952320Y6625552D01*
Y6625552D01*
X952320Y6625551D01*
X950450Y6616152D01*
X949216Y6609945D01*
Y6609944D01*
Y6609944D01*
X949217Y6599999D01*
X949216Y6590056D01*
X949216Y6590055D01*
X951077Y6580699D01*
X952320Y6574448D01*
X952321Y6574447D01*
X959932Y6556070D01*
X968773Y6542839D01*
X968774Y6542838D01*
X982838Y6528773D01*
X982839D01*
Y6528773D01*
X987229Y6525839D01*
X996070Y6519933D01*
X996070D01*
X1014447Y6512320D01*
X1014448D01*
X1014448Y6512320D01*
X1026180Y6509987D01*
X1030055Y6509216D01*
D01*
X1030055D01*
X1040001Y6509217D01*
X1099216D01*
Y6330783D01*
X1040001Y6330782D01*
X1030056Y6330783D01*
X1030055D01*
X1030055D01*
X1023848Y6329548D01*
X1014449Y6327679D01*
X1014448Y6327678D01*
X1014448D01*
X996070Y6320067D01*
D01*
X996069Y6320067D01*
X987775Y6314525D01*
X982839Y6311227D01*
X982839Y6311226D01*
X982838Y6311226D01*
X968773Y6297161D01*
X968773Y6297160D01*
X968772Y6297160D01*
X963496Y6289264D01*
X959932Y6283929D01*
Y6283929D01*
X959932Y6283928D01*
X953294Y6267902D01*
X952050Y6261648D01*
X950317Y6255514D01*
X949344Y6243217D01*
X949724Y6239999D01*
X949344Y6236781D01*
X950317Y6224484D01*
X952051Y6218349D01*
X953294Y6212096D01*
X959932Y6196070D01*
D01*
X959932Y6196069D01*
X968773Y6182838D01*
X982838Y6168773D01*
X996070Y6159932D01*
X996070D01*
X996070Y6159932D01*
X1014447Y6152320D01*
X1014448Y6152320D01*
X1030055Y6149216D01*
X1040000Y6149216D01*
X1099216D01*
Y5850783D01*
X1040001Y5850783D01*
X1030056Y5850783D01*
X1030055Y5850783D01*
X1030054Y5850783D01*
X1022292Y5849239D01*
X1014449Y5847679D01*
X1014448Y5847679D01*
X1014447Y5847679D01*
X996069Y5840067D01*
X996069Y5840066D01*
X996069D01*
X993401Y5838284D01*
X982838Y5831226D01*
X982838Y5831225D01*
X968773Y5817160D01*
X968773Y5817160D01*
X968772Y5817160D01*
X966573Y5813869D01*
X959932Y5803929D01*
X959932Y5803927D01*
X952320Y5785551D01*
Y5785551D01*
X952320Y5785550D01*
X950451Y5776151D01*
X949216Y5769944D01*
Y5769943D01*
Y5769943D01*
X949217Y5759998D01*
X949217Y5750055D01*
Y5750054D01*
Y5750054D01*
X949834Y5746950D01*
X952320Y5734447D01*
X952321Y5734446D01*
X959932Y5716071D01*
X959933Y5716070D01*
X964353Y5709454D01*
X968773Y5702838D01*
X968774Y5702838D01*
X982838Y5688773D01*
X982839Y5688773D01*
X982839Y5688772D01*
X986130Y5686574D01*
X996069Y5679932D01*
X996071Y5679932D01*
X1014447Y5672320D01*
X1014448Y5672320D01*
X1026951Y5669833D01*
X1030055Y5669216D01*
X1030055D01*
X1030055D01*
X1040001Y5669216D01*
X1189999D01*
X1199944Y5669216D01*
X1199945D01*
X1199945D01*
X1204084Y5670039D01*
X1215552Y5672320D01*
X1215553Y5672321D01*
X1233930Y5679932D01*
X1247161Y5688773D01*
X1261226Y5702838D01*
X1266526Y5710770D01*
X1270067Y5716069D01*
X1277679Y5734446D01*
Y5734447D01*
X1277679Y5734448D01*
X1279549Y5743846D01*
X1280783Y5750054D01*
Y5750054D01*
Y5750055D01*
X1280783Y5759997D01*
X1280784Y5760000D01*
Y6600000D01*
Y6609945D01*
X1277679Y6625553D01*
X1277678Y6625554D01*
X1270067Y6643930D01*
X1261226Y6657161D01*
X1247161Y6671226D01*
X1239229Y6676526D01*
X1233930Y6680067D01*
X1215553Y6687679D01*
X1199946Y6690783D01*
D02*
G37*
G36*
X306165Y6850000D02*
X279835D01*
X254402Y6843185D01*
X231599Y6830020D01*
X212980Y6811401D01*
X199815Y6788598D01*
X193000Y6763165D01*
Y6736835D01*
X199815Y6711402D01*
X212980Y6688599D01*
X231599Y6669980D01*
X254402Y6656815D01*
X279835Y6650000D01*
X306165D01*
X331598Y6656815D01*
X354401Y6669980D01*
X373020Y6688599D01*
X386185Y6711402D01*
X393000Y6736835D01*
Y6763165D01*
X386185Y6788598D01*
X373020Y6811401D01*
X354401Y6830020D01*
X331598Y6843185D01*
X306165Y6850000D01*
D02*
G37*
G36*
X1849448Y6467500D02*
X1830552D01*
X1813094Y6460269D01*
X1799732Y6446907D01*
X1792500Y6429448D01*
Y6410552D01*
X1799732Y6393094D01*
X1813094Y6379732D01*
X1830552Y6372500D01*
X1849448D01*
X1866907Y6379732D01*
X1880269Y6393094D01*
X1887500Y6410552D01*
Y6429448D01*
X1880269Y6446907D01*
X1866907Y6460269D01*
X1849448Y6467500D01*
D02*
G37*
G36*
X735250Y6502603D02*
X625250D01*
X606976Y6500198D01*
X589948Y6493144D01*
X575325Y6481924D01*
X564105Y6467302D01*
X557052Y6450273D01*
X554646Y6432000D01*
X557052Y6413726D01*
X564105Y6396698D01*
X575325Y6382075D01*
X589948Y6370855D01*
X606976Y6363802D01*
X625250Y6361396D01*
X735250D01*
X753524Y6363802D01*
X770552Y6370855D01*
X785175Y6382075D01*
X796395Y6396698D01*
X803448Y6413726D01*
X805854Y6432000D01*
X803448Y6450273D01*
X796395Y6467302D01*
X785175Y6481924D01*
X770552Y6493144D01*
X753524Y6500198D01*
X735250Y6502603D01*
D02*
G37*
G36*
X302250D02*
X222250D01*
X203977Y6500198D01*
X186948Y6493144D01*
X172326Y6481924D01*
X161106Y6467302D01*
X154052Y6450273D01*
X151646Y6432000D01*
X154052Y6413726D01*
X161106Y6396698D01*
X172326Y6382075D01*
X186948Y6370855D01*
X203977Y6363802D01*
X222250Y6361396D01*
X302250D01*
X320524Y6363802D01*
X337552Y6370855D01*
X352175Y6382075D01*
X363395Y6396698D01*
X370448Y6413726D01*
X372854Y6432000D01*
X370448Y6450273D01*
X363395Y6467302D01*
X352175Y6481924D01*
X337552Y6493144D01*
X320524Y6500198D01*
X302250Y6502603D01*
D02*
G37*
G36*
X1494449Y6422500D02*
X1475552D01*
X1458094Y6415268D01*
X1444732Y6401906D01*
X1437501Y6384448D01*
Y6365552D01*
X1444732Y6348093D01*
X1458094Y6334732D01*
X1475552Y6327500D01*
X1494449D01*
X1511907Y6334732D01*
X1525269Y6348093D01*
X1532500Y6365552D01*
Y6384448D01*
X1525269Y6401906D01*
X1511907Y6415268D01*
X1494449Y6422500D01*
D02*
G37*
G36*
X926948D02*
X908052D01*
X890594Y6415268D01*
X877232Y6401906D01*
X870000Y6384448D01*
Y6365552D01*
X877232Y6348093D01*
X890594Y6334732D01*
X908052Y6327500D01*
X926948D01*
X944407Y6334732D01*
X957768Y6348093D01*
X965000Y6365552D01*
Y6384448D01*
X957768Y6401906D01*
X944407Y6415268D01*
X926948Y6422500D01*
D02*
G37*
G36*
X640693Y6341500D02*
X619807D01*
X600511Y6333507D01*
X585743Y6318738D01*
X577750Y6299443D01*
Y6278557D01*
X585743Y6259261D01*
X600511Y6244492D01*
X619807Y6236500D01*
X640693D01*
X659989Y6244492D01*
X674758Y6259261D01*
X682750Y6278557D01*
Y6299443D01*
X674758Y6318738D01*
X659989Y6333507D01*
X640693Y6341500D01*
D02*
G37*
G36*
X609448Y6222500D02*
X590552D01*
X573094Y6215268D01*
X559732Y6201907D01*
X552500Y6184448D01*
Y6165552D01*
X559732Y6148094D01*
X573094Y6134732D01*
X590552Y6127500D01*
X609448D01*
X626907Y6134732D01*
X640268Y6148094D01*
X647500Y6165552D01*
Y6184448D01*
X640268Y6201907D01*
X626907Y6215268D01*
X609448Y6222500D01*
D02*
G37*
G36*
X1531948Y6175000D02*
X1513052D01*
X1495593Y6167768D01*
X1482231Y6154407D01*
X1475000Y6136948D01*
Y6118052D01*
X1482231Y6100594D01*
X1495593Y6087232D01*
X1513052Y6080000D01*
X1531948D01*
X1549406Y6087232D01*
X1562768Y6100594D01*
X1570000Y6118052D01*
Y6136948D01*
X1562768Y6154407D01*
X1549406Y6167768D01*
X1531948Y6175000D01*
D02*
G37*
G36*
X907248Y6122500D02*
X888352D01*
X870894Y6115268D01*
X857532Y6101907D01*
X855018Y6095837D01*
X553054Y5970053D01*
X547148Y5972499D01*
X528252D01*
X510793Y5965268D01*
X497432Y5951906D01*
X490200Y5934448D01*
Y5915551D01*
X497432Y5898093D01*
X510793Y5884731D01*
X528252Y5877500D01*
X547148D01*
X564606Y5884731D01*
X577968Y5898093D01*
X580482Y5904163D01*
X882446Y6029946D01*
X888352Y6027500D01*
X907248D01*
X924707Y6034732D01*
X938068Y6048094D01*
X945300Y6065552D01*
Y6084448D01*
X938068Y6101907D01*
X924707Y6115268D01*
X907248Y6122500D01*
D02*
G37*
G36*
X547148Y6122500D02*
X528252D01*
X510793Y6115268D01*
X497432Y6101906D01*
X490200Y6084448D01*
Y6065551D01*
X497432Y6048093D01*
X510793Y6034731D01*
X528252Y6027500D01*
X547148D01*
X564606Y6034731D01*
X577968Y6048093D01*
X585200Y6065551D01*
Y6084448D01*
X577968Y6101906D01*
X564606Y6115268D01*
X547148Y6122500D01*
D02*
G37*
G36*
X907248Y5972500D02*
X888352D01*
X870894Y5965268D01*
X857532Y5951907D01*
X850300Y5934448D01*
Y5915552D01*
X857532Y5898094D01*
X870894Y5884732D01*
X888352Y5877500D01*
X907248D01*
X924707Y5884732D01*
X938068Y5898094D01*
X945300Y5915552D01*
Y5934448D01*
X938068Y5951907D01*
X924707Y5965268D01*
X907248Y5972500D01*
D02*
G37*
G36*
X609448Y5872500D02*
X590552D01*
X573094Y5865268D01*
X559732Y5851907D01*
X552500Y5834448D01*
Y5815552D01*
X559732Y5798094D01*
X573094Y5784732D01*
X590552Y5777500D01*
X609448D01*
X626907Y5784732D01*
X640268Y5798094D01*
X647500Y5815552D01*
Y5834448D01*
X640268Y5851907D01*
X626907Y5865268D01*
X609448Y5872500D01*
D02*
G37*
G36*
X640693Y5763500D02*
X619807D01*
X600511Y5755507D01*
X585743Y5740739D01*
X577750Y5721443D01*
Y5700557D01*
X585743Y5681261D01*
X600511Y5666492D01*
X619807Y5658500D01*
X640693D01*
X659989Y5666492D01*
X674758Y5681261D01*
X682750Y5700557D01*
Y5721443D01*
X674758Y5740739D01*
X659989Y5755507D01*
X640693Y5763500D01*
D02*
G37*
G36*
X926948Y5672500D02*
X908052D01*
X890594Y5665268D01*
X877232Y5651906D01*
X870000Y5634448D01*
Y5615552D01*
X877232Y5598093D01*
X890594Y5584732D01*
X908052Y5577500D01*
X926948D01*
X944407Y5584732D01*
X957768Y5598093D01*
X965000Y5615552D01*
Y5634448D01*
X957768Y5651906D01*
X944407Y5665268D01*
X926948Y5672500D01*
D02*
G37*
G36*
X1749448Y5625200D02*
X1730552D01*
X1713094Y5617968D01*
X1699732Y5604606D01*
X1692500Y5587148D01*
Y5568252D01*
X1699732Y5550793D01*
X1713094Y5537431D01*
X1730552Y5530200D01*
X1749448D01*
X1766907Y5537431D01*
X1780268Y5550793D01*
X1787500Y5568252D01*
Y5587148D01*
X1780268Y5604606D01*
X1766907Y5617968D01*
X1749448Y5625200D01*
D02*
G37*
G36*
X735250Y5638604D02*
X625250D01*
X606976Y5636198D01*
X589948Y5629144D01*
X575325Y5617924D01*
X564105Y5603302D01*
X557052Y5586273D01*
X554646Y5568000D01*
X557052Y5549726D01*
X564105Y5532698D01*
X575325Y5518075D01*
X589948Y5506855D01*
X606976Y5499802D01*
X625250Y5497396D01*
X735250D01*
X753524Y5499802D01*
X770552Y5506855D01*
X785175Y5518075D01*
X796395Y5532698D01*
X803448Y5549726D01*
X805854Y5568000D01*
X803448Y5586273D01*
X796395Y5603302D01*
X785175Y5617924D01*
X770552Y5629144D01*
X753524Y5636198D01*
X735250Y5638604D01*
D02*
G37*
G36*
X302250D02*
X222250D01*
X203977Y5636198D01*
X186948Y5629144D01*
X172326Y5617924D01*
X161106Y5603302D01*
X154052Y5586273D01*
X151646Y5568000D01*
X154052Y5549726D01*
X161106Y5532698D01*
X172326Y5518075D01*
X186948Y5506855D01*
X203977Y5499802D01*
X222250Y5497396D01*
X302250D01*
X320524Y5499802D01*
X337552Y5506855D01*
X352175Y5518075D01*
X363395Y5532698D01*
X370448Y5549726D01*
X372854Y5568000D01*
X370448Y5586273D01*
X363395Y5603302D01*
X352175Y5617924D01*
X337552Y5629144D01*
X320524Y5636198D01*
X302250Y5638604D01*
D02*
G37*
G36*
X1126948Y5475000D02*
X1108052D01*
X1090593Y5467768D01*
X1077232Y5454406D01*
X1070000Y5436948D01*
Y5418052D01*
X1077232Y5400593D01*
X1090593Y5387232D01*
X1108052Y5380000D01*
X1126948D01*
X1144406Y5387232D01*
X1157768Y5400593D01*
X1165000Y5418052D01*
Y5436948D01*
X1157768Y5454406D01*
X1144406Y5467768D01*
X1126948Y5475000D01*
D02*
G37*
G36*
X1006948Y5445000D02*
X988052D01*
X970593Y5437768D01*
X957232Y5424406D01*
X950000Y5406948D01*
Y5388052D01*
X957232Y5370594D01*
X970593Y5357232D01*
X988052Y5350000D01*
X1006948D01*
X1024406Y5357232D01*
X1037768Y5370594D01*
X1045000Y5388052D01*
Y5406948D01*
X1037768Y5424406D01*
X1024406Y5437768D01*
X1006948Y5445000D01*
D02*
G37*
G36*
X1226948Y5395000D02*
X1208052D01*
X1190594Y5387768D01*
X1177232Y5374407D01*
X1170000Y5356948D01*
Y5338052D01*
X1177232Y5320594D01*
X1190594Y5307232D01*
X1208052Y5300000D01*
X1226948D01*
X1244406Y5307232D01*
X1257768Y5320594D01*
X1265000Y5338052D01*
Y5356948D01*
X1257768Y5374407D01*
X1244406Y5387768D01*
X1226948Y5395000D01*
D02*
G37*
G36*
X1106948Y5365000D02*
X1088052D01*
X1070593Y5357768D01*
X1057232Y5344406D01*
X1050000Y5326948D01*
Y5308052D01*
X1057232Y5290593D01*
X1070593Y5277232D01*
X1088052Y5270000D01*
X1106948D01*
X1124406Y5277232D01*
X1137768Y5290593D01*
X1145000Y5308052D01*
Y5326948D01*
X1137768Y5344406D01*
X1124406Y5357768D01*
X1106948Y5365000D01*
D02*
G37*
G36*
X1206948Y5285000D02*
X1188052D01*
X1170594Y5277768D01*
X1157232Y5264407D01*
X1150000Y5246948D01*
Y5228052D01*
X1157232Y5210594D01*
X1170594Y5197232D01*
X1188052Y5190000D01*
X1206948D01*
X1224406Y5197232D01*
X1237768Y5210594D01*
X1245000Y5228052D01*
Y5246948D01*
X1237768Y5264407D01*
X1224406Y5277768D01*
X1206948Y5285000D01*
D02*
G37*
G36*
X404448Y5247500D02*
X385552D01*
X368093Y5240268D01*
X354732Y5226906D01*
X347500Y5209448D01*
Y5190552D01*
X354732Y5173094D01*
X368093Y5159732D01*
X385552Y5152500D01*
X404448D01*
X421906Y5159732D01*
X435268Y5173094D01*
X442500Y5190552D01*
Y5209448D01*
X435268Y5226906D01*
X421906Y5240268D01*
X404448Y5247500D01*
D02*
G37*
G36*
Y4947500D02*
X385552D01*
X368093Y4940269D01*
X354732Y4926907D01*
X347500Y4909448D01*
Y4890552D01*
X354732Y4873094D01*
X368093Y4859732D01*
X385552Y4852500D01*
X404448D01*
X421906Y4859732D01*
X435268Y4873094D01*
X442500Y4890552D01*
Y4909448D01*
X435268Y4926907D01*
X421906Y4940269D01*
X404448Y4947500D01*
D02*
G37*
%LPD*%
G36*
X1218323Y6642388D02*
X1232388Y6628323D01*
X1240000Y6609945D01*
Y6600000D01*
Y5760000D01*
X1240000Y5759999D01*
X1240000Y5750054D01*
X1232388Y5731677D01*
X1218322Y5717611D01*
X1199945Y5709999D01*
X1190000Y5710000D01*
X1040000D01*
X1030054Y5709999D01*
X1011677Y5717611D01*
X997612Y5731676D01*
X990000Y5750054D01*
X990000Y5759999D01*
X990000Y5769945D01*
X997611Y5788322D01*
X1011676Y5802387D01*
X1030054Y5810000D01*
X1039999Y5809999D01*
X1140000Y5810000D01*
Y6190000D01*
X1039999D01*
X1030054Y6189999D01*
X1011677Y6197611D01*
X997611Y6211676D01*
X990974Y6227702D01*
X990000Y6239999D01*
X990974Y6252296D01*
X997611Y6268322D01*
X1011676Y6282387D01*
X1030054Y6289999D01*
X1039999Y6289999D01*
X1140000Y6290000D01*
Y6550000D01*
X1040000D01*
X1030054Y6550000D01*
X1011677Y6557612D01*
X997612Y6571677D01*
X990000Y6590054D01*
X990000Y6600000D01*
X990000Y6609946D01*
X997611Y6628323D01*
X1011677Y6642388D01*
X1030054Y6650000D01*
X1040000Y6649999D01*
X1199946Y6650000D01*
X1218323Y6642388D01*
D02*
G37*
D29*
X537700Y5925000D02*
X897800Y6075000D01*
D33*
X300000Y9700000D02*
D03*
X5700000D02*
D03*
X300000Y300000D02*
D03*
X5700000D02*
D03*
X1085000Y9575000D02*
D03*
X4915000D02*
D03*
Y3025000D02*
D03*
X1085000D02*
D03*
D34*
X2619000D02*
D03*
X2873000D02*
D03*
X2365000D02*
D03*
X3889000D02*
D03*
X3127000D02*
D03*
X2111000D02*
D03*
X3635000D02*
D03*
X3381000D02*
D03*
X2752000Y1900000D02*
D03*
X3006000D02*
D03*
X3260000D02*
D03*
X3514000D02*
D03*
X3768000D02*
D03*
X4022000D02*
D03*
X4276000D02*
D03*
X4530000D02*
D03*
X4784000D02*
D03*
X5038000D02*
D03*
X293000Y6750000D02*
D03*
X547000D02*
D03*
D35*
X262250Y6432000D02*
D03*
Y5568000D02*
D03*
D36*
X680250D02*
D03*
Y6432000D02*
D03*
D37*
X630250Y6289000D02*
D03*
Y5711000D02*
D03*
D38*
X4677500Y4800000D02*
D03*
X443000Y7120000D02*
D03*
X4575000Y8120000D02*
D03*
X4335000D02*
D03*
X4700000Y8500000D02*
D03*
X4820000D02*
D03*
X3450000Y4800000D02*
D03*
X2275000Y7578000D02*
D03*
X2737500Y4590000D02*
D03*
X4384000Y6212500D02*
D03*
X4257000Y6085500D02*
D03*
X4130000Y5958500D02*
D03*
X4003000Y5831500D02*
D03*
X3876000Y5704500D02*
D03*
X4488000Y7035000D02*
D03*
X4361000Y6715000D02*
D03*
X4869000D02*
D03*
X3735000Y5505450D02*
D03*
X3124000Y5200000D02*
D03*
X5059500Y4865000D02*
D03*
X3360000Y8297500D02*
D03*
X3784000Y8300000D02*
D03*
X1117500Y5427500D02*
D03*
X1217500Y5347500D02*
D03*
X835686Y3550000D02*
D03*
X4574500Y4580000D02*
D03*
X2674665Y7376561D02*
D03*
X3784000Y7850000D02*
D03*
Y8000000D02*
D03*
X3710000Y7590000D02*
D03*
X4820000Y7980000D02*
D03*
X4455000Y8120000D02*
D03*
X4940000Y8500000D02*
D03*
X4430000Y7787500D02*
D03*
X4820000D02*
D03*
X4700000Y7667500D02*
D03*
X5700000Y7150000D02*
D03*
Y4850000D02*
D03*
X2365000Y3195000D02*
D03*
Y2855000D02*
D03*
X4784000Y1730000D02*
D03*
Y2070000D02*
D03*
X1300000Y420000D02*
D03*
Y1620000D02*
D03*
X1900000Y1020000D02*
D03*
X1300000D02*
D03*
X700000D02*
D03*
X3370000Y9300000D02*
D03*
X3200000Y9030000D02*
D03*
Y9570000D02*
D03*
X5408000Y7150000D02*
D03*
X4447500Y6445000D02*
D03*
X5288000Y7420000D02*
D03*
X5250000Y5435001D02*
D03*
Y5595000D02*
D03*
Y5755000D02*
D03*
Y5915000D02*
D03*
Y6075000D02*
D03*
Y6235000D02*
D03*
Y6395000D02*
D03*
Y6555000D02*
D03*
Y6715000D02*
D03*
Y5285000D02*
D03*
Y4965000D02*
D03*
X2829520Y5727700D02*
D03*
X3069520D02*
D03*
X1740000Y5577700D02*
D03*
X125000Y3700000D02*
D03*
Y3400000D02*
D03*
Y4600000D02*
D03*
X835686Y3400000D02*
D03*
Y3700000D02*
D03*
X125000Y4000000D02*
D03*
Y4300000D02*
D03*
X3397500Y8075000D02*
D03*
X1860000Y5727700D02*
D03*
X3310000Y8000000D02*
D03*
X3205000Y7850000D02*
D03*
X2850000Y7725000D02*
D03*
X1040000Y6870000D02*
D03*
Y6990000D02*
D03*
X3000000Y7605000D02*
D03*
Y7725000D02*
D03*
X2900000Y8640000D02*
D03*
X2155000Y8300000D02*
D03*
Y8150000D02*
D03*
X2795000Y8400000D02*
D03*
X3205000D02*
D03*
X3784000Y8450000D02*
D03*
X3934000D02*
D03*
X3634000D02*
D03*
X997500Y5397500D02*
D03*
X1197500Y5237500D02*
D03*
X2275000Y7995000D02*
D03*
X2680000Y8115000D02*
D03*
X2795000Y8000000D02*
D03*
X1190000Y6600000D02*
D03*
X1040000D02*
D03*
X917500Y6375000D02*
D03*
X1097500Y5317500D02*
D03*
X917500Y5625000D02*
D03*
X1485000Y6375000D02*
D03*
X1522500Y6127500D02*
D03*
X4742000Y6715000D02*
D03*
X4234000D02*
D03*
X4615000Y7035000D02*
D03*
X4361000D02*
D03*
X4488000Y6875000D02*
D03*
X3100000Y4475000D02*
D03*
X3340000Y5125000D02*
D03*
X3213000D02*
D03*
X1040000Y5760000D02*
D03*
X600000Y5825000D02*
D03*
Y6175000D02*
D03*
X897800Y6075000D02*
D03*
X537700Y5925000D02*
D03*
Y6075000D02*
D03*
X1310000Y6750000D02*
D03*
X395000Y4900000D02*
D03*
Y5200000D02*
D03*
X5123000Y4965000D02*
D03*
X4996000D02*
D03*
Y6715000D02*
D03*
X4574500Y4700000D02*
D03*
X5625000Y7590000D02*
D03*
X5775000Y4410000D02*
D03*
X4711000Y7150000D02*
D03*
X5138000Y7420000D02*
D03*
X4711000Y7300000D02*
D03*
X4550000Y7667500D02*
D03*
X1225000Y860000D02*
D03*
X1825000Y1460000D02*
D03*
X1225000Y2060000D02*
D03*
Y1460000D02*
D03*
X625000D02*
D03*
X3812500Y5809500D02*
D03*
X3939500Y5936500D02*
D03*
X4066500Y6063500D02*
D03*
X4193500Y6190500D02*
D03*
X4320500Y6317500D02*
D03*
X3660000Y5410200D02*
D03*
Y5600700D02*
D03*
X3035000Y5125000D02*
D03*
X3100000Y5010000D02*
D03*
X3165000Y4590000D02*
D03*
X2587500D02*
D03*
X2737500Y5010000D02*
D03*
X2587500D02*
D03*
X2495480Y5410200D02*
D03*
X3069520Y5600700D02*
D03*
X2467500Y5150000D02*
D03*
X1840000Y6420000D02*
D03*
X1690000D02*
D03*
X1040000Y6240000D02*
D03*
X897800Y5925000D02*
D03*
D39*
X3100000Y8100000D02*
D03*
X2900000D02*
D03*
X3100000Y8300000D02*
D03*
X2900000D02*
D03*
%TF.MD5,4ff76671b1681f7a7d4b466ce96ec355*%
M02*
