%TF.GenerationSoftware,Altium Limited,Altium Designer,22.10.1 (41)*%
G04 Layer_Color=8388736*
%FSLAX45Y45*%
%MOMM*%
%TF.SameCoordinates,E44625A2-F068-4864-A6FA-01B12190F87A*%
%TF.FilePolarity,Negative*%
%TF.FileFunction,Soldermask,Top*%
%TF.Part,Single*%
G01*
G75*
%TA.AperFunction,SMDPad,CuDef*%
G04:AMPARAMS|DCode=43|XSize=0.9032mm|YSize=1.1032mm|CornerRadius=0.1891mm|HoleSize=0mm|Usage=FLASHONLY|Rotation=0.000|XOffset=0mm|YOffset=0mm|HoleType=Round|Shape=RoundedRectangle|*
%AMROUNDEDRECTD43*
21,1,0.90320,0.72500,0,0,0.0*
21,1,0.52500,1.10320,0,0,0.0*
1,1,0.37820,0.26250,-0.36250*
1,1,0.37820,-0.26250,-0.36250*
1,1,0.37820,-0.26250,0.36250*
1,1,0.37820,0.26250,0.36250*
%
%ADD43ROUNDEDRECTD43*%
%TA.AperFunction,ComponentPad*%
%ADD44C,3.70320*%
%ADD45C,1.80320*%
%ADD46O,2.00320X1.20320*%
%ADD47O,2.30320X1.20320*%
%ADD48C,0.85320*%
%TA.AperFunction,ViaPad*%
%ADD49C,0.75320*%
%ADD50C,0.70320*%
%TA.AperFunction,SMDPad,CuDef*%
G04:AMPARAMS|DCode=54|XSize=1.7032mm|YSize=1.1032mm|CornerRadius=0.2141mm|HoleSize=0mm|Usage=FLASHONLY|Rotation=270.000|XOffset=0mm|YOffset=0mm|HoleType=Round|Shape=RoundedRectangle|*
%AMROUNDEDRECTD54*
21,1,1.70320,0.67500,0,0,270.0*
21,1,1.27500,1.10320,0,0,270.0*
1,1,0.42820,-0.33750,-0.63750*
1,1,0.42820,-0.33750,0.63750*
1,1,0.42820,0.33750,0.63750*
1,1,0.42820,0.33750,-0.63750*
%
%ADD54ROUNDEDRECTD54*%
G04:AMPARAMS|DCode=55|XSize=1.7032mm|YSize=1.1032mm|CornerRadius=0.2141mm|HoleSize=0mm|Usage=FLASHONLY|Rotation=180.000|XOffset=0mm|YOffset=0mm|HoleType=Round|Shape=RoundedRectangle|*
%AMROUNDEDRECTD55*
21,1,1.70320,0.67500,0,0,180.0*
21,1,1.27500,1.10320,0,0,180.0*
1,1,0.42820,-0.63750,0.33750*
1,1,0.42820,0.63750,0.33750*
1,1,0.42820,0.63750,-0.33750*
1,1,0.42820,-0.63750,-0.33750*
%
%ADD55ROUNDEDRECTD55*%
G04:AMPARAMS|DCode=56|XSize=0.9032mm|YSize=1.1032mm|CornerRadius=0.1891mm|HoleSize=0mm|Usage=FLASHONLY|Rotation=90.000|XOffset=0mm|YOffset=0mm|HoleType=Round|Shape=RoundedRectangle|*
%AMROUNDEDRECTD56*
21,1,0.90320,0.72500,0,0,90.0*
21,1,0.52500,1.10320,0,0,90.0*
1,1,0.37820,0.36250,0.26250*
1,1,0.37820,0.36250,-0.26250*
1,1,0.37820,-0.36250,-0.26250*
1,1,0.37820,-0.36250,0.26250*
%
%ADD56ROUNDEDRECTD56*%
G04:AMPARAMS|DCode=57|XSize=3.0032mm|YSize=3.0032mm|CornerRadius=0.4516mm|HoleSize=0mm|Usage=FLASHONLY|Rotation=180.000|XOffset=0mm|YOffset=0mm|HoleType=Round|Shape=RoundedRectangle|*
%AMROUNDEDRECTD57*
21,1,3.00320,2.10000,0,0,180.0*
21,1,2.10000,3.00320,0,0,180.0*
1,1,0.90320,-1.05000,1.05000*
1,1,0.90320,1.05000,1.05000*
1,1,0.90320,1.05000,-1.05000*
1,1,0.90320,-1.05000,-1.05000*
%
%ADD57ROUNDEDRECTD57*%
G04:AMPARAMS|DCode=58|XSize=1.1032mm|YSize=0.5032mm|CornerRadius=0.1391mm|HoleSize=0mm|Usage=FLASHONLY|Rotation=180.000|XOffset=0mm|YOffset=0mm|HoleType=Round|Shape=RoundedRectangle|*
%AMROUNDEDRECTD58*
21,1,1.10320,0.22500,0,0,180.0*
21,1,0.82500,0.50320,0,0,180.0*
1,1,0.27820,-0.41250,0.11250*
1,1,0.27820,0.41250,0.11250*
1,1,0.27820,0.41250,-0.11250*
1,1,0.27820,-0.41250,-0.11250*
%
%ADD58ROUNDEDRECTD58*%
G04:AMPARAMS|DCode=59|XSize=1.1032mm|YSize=0.5032mm|CornerRadius=0.1391mm|HoleSize=0mm|Usage=FLASHONLY|Rotation=90.000|XOffset=0mm|YOffset=0mm|HoleType=Round|Shape=RoundedRectangle|*
%AMROUNDEDRECTD59*
21,1,1.10320,0.22500,0,0,90.0*
21,1,0.82500,0.50320,0,0,90.0*
1,1,0.27820,0.11250,0.41250*
1,1,0.27820,0.11250,-0.41250*
1,1,0.27820,-0.11250,-0.41250*
1,1,0.27820,-0.11250,0.41250*
%
%ADD59ROUNDEDRECTD59*%
G04:AMPARAMS|DCode=60|XSize=0.5mm|YSize=1.37mm|CornerRadius=0.1mm|HoleSize=0mm|Usage=FLASHONLY|Rotation=270.000|XOffset=0mm|YOffset=0mm|HoleType=Round|Shape=RoundedRectangle|*
%AMROUNDEDRECTD60*
21,1,0.50000,1.17000,0,0,270.0*
21,1,0.30000,1.37000,0,0,270.0*
1,1,0.20000,-0.58500,-0.15000*
1,1,0.20000,-0.58500,0.15000*
1,1,0.20000,0.58500,0.15000*
1,1,0.20000,0.58500,-0.15000*
%
%ADD60ROUNDEDRECTD60*%
G04:AMPARAMS|DCode=61|XSize=0.5032mm|YSize=1.0032mm|CornerRadius=0.1391mm|HoleSize=0mm|Usage=FLASHONLY|Rotation=0.000|XOffset=0mm|YOffset=0mm|HoleType=Round|Shape=RoundedRectangle|*
%AMROUNDEDRECTD61*
21,1,0.50320,0.72500,0,0,0.0*
21,1,0.22500,1.00320,0,0,0.0*
1,1,0.27820,0.11250,-0.36250*
1,1,0.27820,-0.11250,-0.36250*
1,1,0.27820,-0.11250,0.36250*
1,1,0.27820,0.11250,0.36250*
%
%ADD61ROUNDEDRECTD61*%
G04:AMPARAMS|DCode=62|XSize=1.3032mm|YSize=0.8032mm|CornerRadius=0.1766mm|HoleSize=0mm|Usage=FLASHONLY|Rotation=90.000|XOffset=0mm|YOffset=0mm|HoleType=Round|Shape=RoundedRectangle|*
%AMROUNDEDRECTD62*
21,1,1.30320,0.45000,0,0,90.0*
21,1,0.95000,0.80320,0,0,90.0*
1,1,0.35320,0.22500,0.47500*
1,1,0.35320,0.22500,-0.47500*
1,1,0.35320,-0.22500,-0.47500*
1,1,0.35320,-0.22500,0.47500*
%
%ADD62ROUNDEDRECTD62*%
G04:AMPARAMS|DCode=63|XSize=0.5032mm|YSize=0.8732mm|CornerRadius=0.1391mm|HoleSize=0mm|Usage=FLASHONLY|Rotation=0.000|XOffset=0mm|YOffset=0mm|HoleType=Round|Shape=RoundedRectangle|*
%AMROUNDEDRECTD63*
21,1,0.50320,0.59500,0,0,0.0*
21,1,0.22500,0.87320,0,0,0.0*
1,1,0.27820,0.11250,-0.29750*
1,1,0.27820,-0.11250,-0.29750*
1,1,0.27820,-0.11250,0.29750*
1,1,0.27820,0.11250,0.29750*
%
%ADD63ROUNDEDRECTD63*%
G04:AMPARAMS|DCode=64|XSize=0.8032mm|YSize=1.3532mm|CornerRadius=0.1766mm|HoleSize=0mm|Usage=FLASHONLY|Rotation=270.000|XOffset=0mm|YOffset=0mm|HoleType=Round|Shape=RoundedRectangle|*
%AMROUNDEDRECTD64*
21,1,0.80320,1.00000,0,0,270.0*
21,1,0.45000,1.35320,0,0,270.0*
1,1,0.35320,-0.50000,-0.22500*
1,1,0.35320,-0.50000,0.22500*
1,1,0.35320,0.50000,0.22500*
1,1,0.35320,0.50000,-0.22500*
%
%ADD64ROUNDEDRECTD64*%
G04:AMPARAMS|DCode=65|XSize=0.5032mm|YSize=1.3532mm|CornerRadius=0.1391mm|HoleSize=0mm|Usage=FLASHONLY|Rotation=270.000|XOffset=0mm|YOffset=0mm|HoleType=Round|Shape=RoundedRectangle|*
%AMROUNDEDRECTD65*
21,1,0.50320,1.07500,0,0,270.0*
21,1,0.22500,1.35320,0,0,270.0*
1,1,0.27820,-0.53750,-0.11250*
1,1,0.27820,-0.53750,0.11250*
1,1,0.27820,0.53750,0.11250*
1,1,0.27820,0.53750,-0.11250*
%
%ADD65ROUNDEDRECTD65*%
G04:AMPARAMS|DCode=66|XSize=1.4032mm|YSize=2.7032mm|CornerRadius=0.2516mm|HoleSize=0mm|Usage=FLASHONLY|Rotation=270.000|XOffset=0mm|YOffset=0mm|HoleType=Round|Shape=RoundedRectangle|*
%AMROUNDEDRECTD66*
21,1,1.40320,2.20000,0,0,270.0*
21,1,0.90000,2.70320,0,0,270.0*
1,1,0.50320,-1.10000,-0.45000*
1,1,0.50320,-1.10000,0.45000*
1,1,0.50320,1.10000,0.45000*
1,1,0.50320,1.10000,-0.45000*
%
%ADD66ROUNDEDRECTD66*%
G04:AMPARAMS|DCode=67|XSize=1.4032mm|YSize=2.7033mm|CornerRadius=0.2516mm|HoleSize=0mm|Usage=FLASHONLY|Rotation=270.000|XOffset=0mm|YOffset=0mm|HoleType=Round|Shape=RoundedRectangle|*
%AMROUNDEDRECTD67*
21,1,1.40320,2.20010,0,0,270.0*
21,1,0.90000,2.70330,0,0,270.0*
1,1,0.50320,-1.10005,-0.45000*
1,1,0.50320,-1.10005,0.45000*
1,1,0.50320,1.10005,0.45000*
1,1,0.50320,1.10005,-0.45000*
%
%ADD67ROUNDEDRECTD67*%
G04:AMPARAMS|DCode=68|XSize=0.5032mm|YSize=1.6032mm|CornerRadius=0.1391mm|HoleSize=0mm|Usage=FLASHONLY|Rotation=270.000|XOffset=0mm|YOffset=0mm|HoleType=Round|Shape=RoundedRectangle|*
%AMROUNDEDRECTD68*
21,1,0.50320,1.32500,0,0,270.0*
21,1,0.22500,1.60320,0,0,270.0*
1,1,0.27820,-0.66250,-0.11250*
1,1,0.27820,-0.66250,0.11250*
1,1,0.27820,0.66250,0.11250*
1,1,0.27820,0.66250,-0.11250*
%
%ADD68ROUNDEDRECTD68*%
G04:AMPARAMS|DCode=69|XSize=1.2032mm|YSize=1.1032mm|CornerRadius=0.2141mm|HoleSize=0mm|Usage=FLASHONLY|Rotation=90.000|XOffset=0mm|YOffset=0mm|HoleType=Round|Shape=RoundedRectangle|*
%AMROUNDEDRECTD69*
21,1,1.20320,0.67500,0,0,90.0*
21,1,0.77500,1.10320,0,0,90.0*
1,1,0.42820,0.33750,0.38750*
1,1,0.42820,0.33750,-0.38750*
1,1,0.42820,-0.33750,-0.38750*
1,1,0.42820,-0.33750,0.38750*
%
%ADD69ROUNDEDRECTD69*%
G36*
X317800Y7280301D02*
X318046Y7281284D01*
X317800Y7283742D01*
X317308Y7284970D01*
X316940Y7287305D01*
X315957Y7288779D01*
X315588Y7289148D01*
X315097Y7290376D01*
X313868Y7292588D01*
X312640Y7293817D01*
X312394Y7294308D01*
X308831Y7297871D01*
X306619Y7299100D01*
X305636Y7300083D01*
X303916Y7300820D01*
X302688Y7301557D01*
X301213Y7302540D01*
X298388Y7303154D01*
X296422Y7303891D01*
X295193Y7304383D01*
X294210Y7304629D01*
X292859Y7304997D01*
X290402Y7305243D01*
X286470Y7305489D01*
X224178Y7305366D01*
X223195Y7306103D01*
X222949Y7307086D01*
X223072Y7309666D01*
X222949Y7326498D01*
X223195Y7326990D01*
X222949Y7327727D01*
X223195Y7330430D01*
X223809Y7331044D01*
X225529Y7331290D01*
X226512Y7331044D01*
X389061Y7331167D01*
X390044Y7330676D01*
X390290Y7329693D01*
X390044Y7305857D01*
X389675Y7305489D01*
X387955Y7305243D01*
X385498Y7305489D01*
X323452Y7305366D01*
X319643Y7305489D01*
X318414Y7304751D01*
X318046Y7304383D01*
X318291Y7303646D01*
X318906Y7303031D01*
X320134Y7302540D01*
X321855Y7301557D01*
X324066Y7299837D01*
X324435Y7299468D01*
X324680Y7298977D01*
X325295Y7298363D01*
X325786Y7298117D01*
X326646Y7297257D01*
X326892Y7296765D01*
X327752Y7295905D01*
X328243Y7295660D01*
X329103Y7294799D01*
X329349Y7294308D01*
X331069Y7292588D01*
X332544Y7289885D01*
X333035Y7289393D01*
X333281Y7288902D01*
X334018Y7287182D01*
X335247Y7284970D01*
X335738Y7283742D01*
X335984Y7282759D01*
X336598Y7280179D01*
X336844Y7279196D01*
X337704Y7276370D01*
X337950Y7275387D01*
X338195Y7272930D01*
X338441Y7271209D01*
X338195Y7261872D01*
X337950Y7261135D01*
X337458Y7257940D01*
X336721Y7256220D01*
X336229Y7254254D01*
X335861Y7252411D01*
X335615Y7251428D01*
X335247Y7251060D01*
X335001Y7250568D01*
X334509Y7250077D01*
X333772Y7248357D01*
X333281Y7247128D01*
X332175Y7245777D01*
X331561Y7245163D01*
X331315Y7244671D01*
X330209Y7243320D01*
X329718Y7243074D01*
X329103Y7242214D01*
X327998Y7241108D01*
X327506Y7240862D01*
X327138Y7240494D01*
X326892Y7240002D01*
X326277Y7239388D01*
X325786Y7239142D01*
X324435Y7238036D01*
X324066Y7237668D01*
X323575Y7237422D01*
X322346Y7236931D01*
X320134Y7235702D01*
X318906Y7234965D01*
X317923Y7234719D01*
X316203Y7234228D01*
X314605Y7233613D01*
X312517Y7232753D01*
X311534Y7232508D01*
X309814Y7232262D01*
X308831Y7232016D01*
X305636Y7231770D01*
X304408Y7231279D01*
X300722Y7231033D01*
X299493Y7230542D01*
X224178Y7230419D01*
X223441Y7230910D01*
X223195Y7231893D01*
X222949Y7233613D01*
X223195Y7255237D01*
X223809Y7255852D01*
X224792Y7256097D01*
X229461Y7255852D01*
X290033Y7255975D01*
X292367Y7255852D01*
X293104Y7256097D01*
X296544Y7256343D01*
X297282Y7256589D01*
X298879Y7257203D01*
X300968Y7257817D01*
X302688Y7258063D01*
X303671Y7258309D01*
X307848Y7260275D01*
X309568Y7261258D01*
X310797Y7262486D01*
X312517Y7263469D01*
X313131Y7264084D01*
X313377Y7264575D01*
X314605Y7265804D01*
X315834Y7268015D01*
X316571Y7268752D01*
X317063Y7270472D01*
X317308Y7271455D01*
X317677Y7273053D01*
X317800Y7280056D01*
Y7280301D01*
D02*
G37*
G36*
X338200Y7397759D02*
X337954Y7397022D01*
X337708Y7394565D01*
X337463Y7393827D01*
X336726Y7391125D01*
X336357Y7389527D01*
X336111Y7388053D01*
X335865Y7386824D01*
X335620Y7385841D01*
X334637Y7384367D01*
X334023Y7383016D01*
X333162Y7380681D01*
X332794Y7380313D01*
X332548Y7379821D01*
X332057Y7379330D01*
X331811Y7378838D01*
X330582Y7376627D01*
X329354Y7375398D01*
X329108Y7374907D01*
X328248Y7373801D01*
X327757Y7373555D01*
X326405Y7372204D01*
X326282Y7371835D01*
X325791Y7371589D01*
X324439Y7370484D01*
X323579Y7369624D01*
X321859Y7368886D01*
X320631Y7368149D01*
X319893Y7367412D01*
X318665Y7366920D01*
X317682Y7366675D01*
X315347Y7365815D01*
X313996Y7365200D01*
X312767Y7364709D01*
X311784Y7364463D01*
X310064Y7364217D01*
X307238Y7363849D01*
X305764Y7363603D01*
X303061Y7363357D01*
X301587Y7363112D01*
X299498Y7362497D01*
X264113D01*
X263867D01*
X224674Y7362374D01*
X223814Y7362743D01*
X223445Y7363112D01*
X222954Y7365077D01*
X223077Y7383876D01*
X222954Y7386702D01*
X223568Y7387562D01*
X224551Y7387807D01*
X237698Y7387684D01*
X238680Y7387930D01*
X239172Y7388176D01*
X239418Y7389159D01*
X239172Y7389650D01*
X238803Y7390019D01*
X237083Y7390756D01*
X236592Y7391002D01*
X235240Y7392107D01*
X233766Y7393090D01*
X232906Y7393705D01*
X232537Y7394073D01*
X232414Y7394442D01*
X231923Y7394688D01*
X231186Y7395425D01*
X230694Y7395671D01*
X230326Y7396039D01*
X229343Y7397759D01*
X228360Y7398742D01*
X228114Y7399234D01*
X226394Y7401445D01*
X225411Y7402919D01*
X225042Y7404517D01*
X224182Y7405868D01*
X223691Y7406360D01*
X223199Y7407588D01*
X222831Y7409186D01*
X222585Y7410414D01*
X221971Y7412503D01*
X221234Y7414960D01*
X220988Y7416680D01*
X220742Y7419875D01*
X220988Y7428475D01*
X221234Y7429212D01*
X221479Y7432161D01*
X222462Y7434373D01*
X222708Y7436093D01*
X222954Y7437076D01*
X223199Y7438550D01*
X223937Y7439779D01*
X224428Y7440270D01*
X224674Y7440762D01*
X225165Y7441990D01*
X225780Y7443587D01*
X227131Y7444939D01*
X227377Y7445430D01*
X229097Y7447642D01*
X232660Y7451205D01*
X233151Y7451451D01*
X234872Y7452679D01*
X235363Y7453171D01*
X237083Y7453908D01*
X238312Y7454399D01*
X240032Y7455628D01*
X241998Y7456119D01*
X243718Y7456365D01*
X244701Y7456611D01*
X246421Y7456857D01*
X247895Y7457102D01*
X249615Y7457840D01*
X250598Y7458085D01*
X254407Y7457962D01*
X257233Y7458085D01*
X257970Y7457840D01*
X260059Y7457471D01*
X261287Y7457225D01*
X264236Y7456488D01*
X267185Y7455997D01*
X268413Y7455505D01*
X270256Y7454399D01*
X271608Y7454031D01*
X272836Y7453539D01*
X274311Y7452556D01*
X274925Y7451942D01*
X276645Y7450959D01*
X279963Y7447642D01*
X280085Y7447273D01*
X280577Y7447028D01*
X281928Y7445676D01*
X282665Y7444447D01*
X283403Y7443710D01*
X283648Y7443219D01*
X285368Y7440024D01*
X286106Y7439287D01*
X286474Y7437936D01*
X286720Y7436953D01*
X287457Y7434987D01*
X287826Y7434618D01*
X288563Y7432898D01*
X288809Y7431915D01*
X289177Y7429827D01*
X289669Y7427369D01*
X289915Y7426386D01*
X290775Y7424298D01*
X291020Y7422578D01*
X291880Y7413854D01*
X292126Y7412871D01*
X292617Y7410414D01*
X292863Y7408940D01*
X293355Y7406483D01*
X293600Y7403042D01*
X293969Y7399725D01*
X294215Y7397022D01*
X294460Y7396285D01*
X294706Y7395302D01*
X294952Y7393582D01*
X295198Y7392599D01*
X295443Y7390879D01*
X295689Y7389896D01*
X296058Y7388299D01*
X296795Y7387316D01*
X298269Y7387070D01*
X299007Y7387316D01*
X299989Y7387562D01*
X303184Y7387807D01*
X304904Y7388053D01*
X306378Y7388299D01*
X308098Y7389527D01*
X309327Y7390019D01*
X310924Y7390633D01*
X312521Y7392230D01*
X313013Y7392476D01*
X313504Y7392967D01*
X313996Y7393213D01*
X314610Y7393827D01*
X314856Y7394319D01*
X316576Y7396531D01*
X317313Y7398251D01*
X317927Y7399848D01*
X319033Y7402428D01*
X319279Y7404148D01*
X319771Y7410537D01*
X319525Y7415206D01*
X319279Y7418892D01*
X319033Y7419629D01*
X318665Y7420981D01*
X318419Y7421963D01*
X317805Y7423561D01*
X317559Y7424543D01*
X316945Y7428107D01*
X315347Y7431178D01*
X315101Y7432161D01*
X314487Y7433758D01*
X313873Y7434618D01*
X313381Y7435110D01*
X312890Y7436338D01*
X312276Y7437936D01*
X310433Y7440516D01*
X309450Y7442236D01*
X307976Y7443710D01*
X307730Y7444202D01*
X306993Y7444939D01*
X306747Y7445676D01*
X307115Y7446290D01*
X308836Y7446782D01*
X327757Y7446536D01*
X328617Y7445676D01*
X329231Y7444079D01*
X329600Y7443219D01*
X330705Y7441867D01*
X331320Y7440270D01*
X331688Y7438919D01*
X332180Y7437690D01*
X333777Y7434127D01*
X334023Y7432407D01*
X334268Y7431424D01*
X334760Y7430195D01*
X335743Y7427984D01*
X335988Y7427001D01*
X336234Y7424543D01*
X336480Y7422823D01*
X336726Y7421841D01*
X336971Y7419629D01*
X337708Y7417909D01*
X337954Y7416926D01*
X338200Y7412503D01*
X338446Y7411766D01*
X338200Y7397759D01*
D02*
G37*
G36*
X224100Y7555393D02*
X223240Y7556008D01*
X222994Y7556991D01*
X223117Y7559816D01*
X222994Y7576649D01*
X223240Y7577140D01*
X222994Y7577877D01*
X223240Y7580580D01*
X223608Y7580949D01*
X224591Y7581195D01*
X389720Y7580949D01*
X390334Y7580335D01*
X390089Y7556008D01*
X389720Y7555639D01*
X388737Y7555393D01*
X320057Y7555516D01*
X319074Y7555271D01*
X318336Y7554779D01*
X318091Y7554042D01*
X318705Y7553182D01*
X321162Y7552199D01*
X322514Y7551093D01*
X324234Y7549865D01*
X324480Y7549373D01*
X326077Y7547776D01*
X326445Y7547653D01*
X326691Y7547161D01*
X328288Y7545564D01*
X328780Y7545319D01*
X329763Y7543844D01*
X331114Y7542739D01*
X331606Y7541510D01*
X332343Y7540281D01*
X332834Y7539790D01*
X333080Y7539298D01*
X334063Y7537087D01*
X335046Y7535367D01*
X335783Y7533647D01*
X336029Y7532664D01*
X336397Y7531066D01*
X336643Y7530083D01*
X337749Y7526520D01*
X337994Y7525537D01*
X338486Y7520132D01*
X338240Y7512023D01*
X337994Y7511285D01*
X337626Y7508705D01*
X336274Y7504405D01*
X335906Y7502316D01*
X335414Y7501088D01*
X335046Y7500719D01*
X334800Y7500228D01*
X334309Y7499736D01*
X333694Y7498139D01*
X333203Y7496910D01*
X331852Y7495559D01*
X331606Y7495067D01*
X330500Y7493716D01*
X326077Y7489293D01*
X325585Y7489047D01*
X324234Y7487941D01*
X323620Y7487327D01*
X321285Y7486467D01*
X319811Y7485484D01*
X318459Y7484870D01*
X317476Y7484624D01*
X315756Y7484132D01*
X313545Y7483150D01*
X311825Y7482658D01*
X310842Y7482412D01*
X309122Y7482167D01*
X305804Y7481798D01*
X304453Y7481430D01*
X301013Y7481184D01*
X299784Y7480692D01*
X298064Y7480447D01*
X224714Y7480324D01*
X223854Y7480692D01*
X223486Y7481061D01*
X222994Y7483027D01*
X223240Y7505142D01*
X223608Y7505756D01*
X224837Y7506248D01*
X227294Y7506002D01*
X295852Y7506248D01*
X296589Y7506494D01*
X297941Y7506862D01*
X299170Y7507354D01*
X300521Y7507722D01*
X301504Y7507968D01*
X303593Y7508337D01*
X304821Y7508828D01*
X306664Y7509934D01*
X307647Y7510180D01*
X309367Y7511163D01*
X309982Y7511531D01*
X310227Y7512023D01*
X312316Y7513374D01*
X313422Y7514480D01*
X313668Y7514971D01*
X314896Y7516200D01*
X315879Y7517920D01*
X316862Y7519394D01*
X317108Y7520377D01*
X317476Y7521975D01*
X317722Y7523203D01*
X317968Y7530575D01*
X318091Y7532664D01*
X317845Y7533401D01*
X317353Y7535367D01*
X316985Y7537209D01*
X316616Y7538070D01*
X315633Y7539052D01*
X315019Y7540650D01*
X314528Y7541878D01*
X312930Y7543476D01*
X312685Y7543967D01*
X311579Y7545319D01*
X311088Y7545810D01*
X310596Y7546056D01*
X309982Y7546670D01*
X309736Y7547161D01*
X308876Y7548021D01*
X307279Y7548636D01*
X306910Y7549004D01*
X306419Y7549250D01*
X305436Y7550233D01*
X303716Y7550970D01*
X303224Y7551216D01*
X301504Y7552445D01*
X299538Y7552936D01*
X298187Y7553305D01*
X296221Y7554042D01*
X293395Y7554902D01*
X292412Y7555148D01*
X289218Y7555393D01*
X224346D01*
X224100D01*
D02*
G37*
G36*
X254500Y7662039D02*
X254009Y7661548D01*
X252780Y7660810D01*
X251306Y7659336D01*
X250814Y7659090D01*
X250323Y7658599D01*
X249831Y7658353D01*
X249217Y7657739D01*
X248971Y7657247D01*
X247251Y7655036D01*
X245777Y7652333D01*
X245285Y7651841D01*
X245040Y7651350D01*
X244548Y7650858D01*
X243811Y7648401D01*
X242337Y7645944D01*
X242091Y7644961D01*
X241845Y7643241D01*
X241477Y7640415D01*
X241231Y7639432D01*
X241108Y7627023D01*
X241354Y7626286D01*
X241599Y7625303D01*
X242214Y7621740D01*
X243811Y7618668D01*
X244180Y7617071D01*
X244671Y7615842D01*
X245285Y7615228D01*
X245531Y7614737D01*
X246022Y7614245D01*
X246514Y7613017D01*
X247497Y7611296D01*
X248725Y7610068D01*
X248971Y7609576D01*
X249463Y7608348D01*
X249217Y7607365D01*
X248111Y7606996D01*
X228699Y7607242D01*
X228084Y7607610D01*
X227593Y7608839D01*
X226978Y7610436D01*
X226364Y7611296D01*
X225873Y7611788D01*
X225381Y7613508D01*
X225136Y7614491D01*
X224521Y7616088D01*
X224030Y7617317D01*
X223416Y7618668D01*
X222924Y7620634D01*
X222556Y7623214D01*
X222187Y7624566D01*
X221941Y7625549D01*
X221696Y7627269D01*
X221450Y7628252D01*
X221204Y7629972D01*
X220958Y7630955D01*
X220713Y7634886D01*
X220958Y7646927D01*
X221204Y7647664D01*
X221450Y7649875D01*
X221941Y7651104D01*
X222433Y7653070D01*
X222801Y7655896D01*
X223293Y7658353D01*
X223784Y7659582D01*
X224890Y7661425D01*
X225258Y7663268D01*
X225996Y7665234D01*
X226364Y7665602D01*
X226610Y7666094D01*
X227101Y7666585D01*
X227716Y7668182D01*
X228207Y7669411D01*
X228576Y7669779D01*
X228699Y7670148D01*
X229067Y7670271D01*
X229313Y7670762D01*
X229804Y7671254D01*
X230296Y7672482D01*
X231402Y7673834D01*
X232262Y7674694D01*
X232508Y7675186D01*
X234228Y7676906D01*
X234473Y7677397D01*
X236193Y7679609D01*
X237668Y7680591D01*
X238528Y7681206D01*
X240248Y7682926D01*
X240739Y7683172D01*
X242214Y7684646D01*
X242705Y7684892D01*
X244425Y7686121D01*
X244917Y7686612D01*
X246637Y7687349D01*
X248357Y7688332D01*
X249094Y7689069D01*
X250323Y7689561D01*
X252289Y7690052D01*
X256466Y7692018D01*
X260029Y7692632D01*
X262118Y7693246D01*
X265558Y7694229D01*
X267278Y7694475D01*
X276370Y7694721D01*
X288165Y7694475D01*
X288902Y7694229D01*
X290868Y7693738D01*
X293448Y7693124D01*
X294554Y7692755D01*
X296519Y7692264D01*
X299345Y7691895D01*
X300943Y7691281D01*
X302417Y7690298D01*
X304014Y7689929D01*
X304997Y7689683D01*
X306963Y7688455D01*
X307331Y7688086D01*
X308560Y7687595D01*
X310157Y7686981D01*
X312737Y7685138D01*
X313720Y7684892D01*
X314212Y7684400D01*
X314580Y7684277D01*
X314826Y7683786D01*
X315440Y7683172D01*
X315932Y7682926D01*
X317652Y7681697D01*
X319126Y7680223D01*
X320355Y7679486D01*
X323918Y7675923D01*
X324164Y7675431D01*
X325270Y7674080D01*
X326375Y7672974D01*
X327358Y7671254D01*
X327972Y7670639D01*
X328341Y7670517D01*
X328587Y7670025D01*
X330307Y7666831D01*
X330798Y7666339D01*
X331781Y7663882D01*
X332764Y7662162D01*
X333256Y7661670D01*
X333993Y7658722D01*
X334853Y7656387D01*
X335959Y7653807D01*
X336327Y7650981D01*
X337064Y7648033D01*
X337802Y7644347D01*
X338047Y7641152D01*
X338293Y7639924D01*
X338416Y7627514D01*
X338170Y7626777D01*
X337802Y7624443D01*
X337556Y7621986D01*
X336942Y7619897D01*
X336450Y7617931D01*
X335836Y7613877D01*
X335590Y7612894D01*
X334239Y7610313D01*
X333747Y7608102D01*
X333379Y7607488D01*
X332887Y7607242D01*
X332150Y7606996D01*
X312246Y7607242D01*
X311632Y7607856D01*
X311877Y7609330D01*
X313598Y7612525D01*
X314089Y7613017D01*
X314826Y7614737D01*
X315072Y7615720D01*
X315686Y7617317D01*
X316792Y7619897D01*
X317038Y7620880D01*
X317283Y7622600D01*
X317529Y7626040D01*
X317775Y7626777D01*
X318020Y7628497D01*
X317775Y7631692D01*
X317898Y7636729D01*
X317652Y7637958D01*
X317406Y7639432D01*
X317160Y7641889D01*
X316915Y7643364D01*
X316423Y7644593D01*
X315318Y7646435D01*
X314949Y7647787D01*
X314089Y7649630D01*
X313598Y7650121D01*
X313352Y7650613D01*
X311877Y7653316D01*
X310649Y7654545D01*
X309666Y7656265D01*
X308806Y7656879D01*
X307454Y7658230D01*
X307209Y7658722D01*
X305734Y7659705D01*
X304137Y7661302D01*
X302417Y7662285D01*
X301434Y7663268D01*
X300205Y7663759D01*
X298608Y7664374D01*
X297748Y7664988D01*
X296519Y7665725D01*
X294554Y7666217D01*
X293202Y7666585D01*
X291236Y7667322D01*
X288410Y7668182D01*
X287427Y7668428D01*
X279073Y7668674D01*
X268752Y7668428D01*
X268015Y7668182D01*
X266663Y7667814D01*
X263592Y7666462D01*
X261503Y7666094D01*
X260275Y7665602D01*
X259415Y7664742D01*
X257694Y7664005D01*
X255483Y7662776D01*
X254746Y7662039D01*
X254500D01*
D02*
G37*
G36*
X226000Y7743866D02*
X225263Y7743621D01*
X223788Y7743866D01*
X223174Y7744481D01*
X222928Y7746201D01*
X223174Y7768316D01*
X224034Y7769422D01*
X335349Y7769176D01*
X335717Y7768808D01*
X335963Y7767088D01*
X336086Y7745586D01*
X335840Y7744604D01*
X335103Y7743866D01*
X334120Y7743621D01*
X330926Y7743866D01*
X317042Y7743989D01*
X314953Y7743621D01*
X314339Y7743006D01*
X314585Y7742515D01*
X314953Y7742146D01*
X315936Y7741900D01*
X321096Y7739443D01*
X322816Y7738460D01*
X324537Y7737232D01*
X326625Y7736126D01*
X326871Y7735635D01*
X327486Y7735020D01*
X327977Y7734774D01*
X329328Y7733669D01*
X331294Y7731703D01*
X331540Y7731211D01*
X332400Y7730106D01*
X332891Y7729860D01*
X333260Y7729491D01*
X333506Y7729000D01*
X334734Y7726788D01*
X335226Y7726297D01*
X335472Y7725805D01*
X336209Y7724085D01*
X336577Y7722734D01*
X337683Y7720154D01*
X338052Y7718556D01*
X338298Y7717574D01*
X338420Y7710079D01*
X338175Y7709342D01*
X337929Y7707867D01*
X335963Y7704181D01*
X334611Y7703567D01*
X329206Y7703813D01*
X313602Y7703690D01*
X312373Y7703936D01*
X311882Y7704427D01*
X312127Y7705902D01*
X313356Y7708113D01*
X313847Y7708604D01*
X314585Y7710324D01*
X315076Y7715731D01*
X314830Y7721136D01*
X314585Y7721874D01*
X314339Y7724085D01*
X313847Y7724577D01*
X313602Y7725068D01*
X313110Y7725560D01*
X312619Y7727280D01*
X311636Y7729000D01*
X310899Y7729737D01*
X310653Y7730228D01*
X309424Y7731948D01*
X308564Y7732563D01*
X307704Y7733423D01*
X307459Y7733914D01*
X306844Y7734529D01*
X306353Y7734774D01*
X305247Y7735635D01*
X305001Y7736126D01*
X304633Y7736495D01*
X301438Y7738215D01*
X300947Y7738706D01*
X299718Y7739198D01*
X298121Y7739812D01*
X296278Y7740918D01*
X294558Y7741409D01*
X291609Y7741900D01*
X290626Y7742146D01*
X289029Y7742760D01*
X287923Y7743129D01*
X286940Y7743375D01*
X283746Y7743621D01*
X283009Y7743866D01*
X226246D01*
X226000D01*
D02*
G37*
G36*
X338200Y7835891D02*
X337954Y7835154D01*
X337708Y7831468D01*
X336726Y7829257D01*
X336357Y7827168D01*
X336111Y7825939D01*
X335865Y7824465D01*
X335374Y7823236D01*
X334268Y7821393D01*
X333162Y7818322D01*
X332548Y7817462D01*
X331565Y7815987D01*
X331074Y7814759D01*
X329968Y7813407D01*
X329354Y7812793D01*
X328125Y7810581D01*
X327265Y7809967D01*
X326405Y7809107D01*
X326159Y7808616D01*
X325545Y7808001D01*
X325053Y7807756D01*
X323948Y7806650D01*
X323702Y7806158D01*
X323333Y7805790D01*
X321122Y7804561D01*
X320385Y7803824D01*
X319893Y7803578D01*
X318173Y7802595D01*
X317313Y7801981D01*
X317190Y7801612D01*
X316699Y7801367D01*
X314979Y7800629D01*
X313381Y7800015D01*
X312276Y7798909D01*
X310556Y7798418D01*
X308958Y7798049D01*
X307730Y7797558D01*
X305150Y7796452D01*
X304167Y7796206D01*
X300358Y7795592D01*
X297163Y7795100D01*
X295812Y7794486D01*
X294829Y7794240D01*
X290897Y7793995D01*
X290160Y7793749D01*
X273696Y7793995D01*
X273082Y7794609D01*
X272836Y7796083D01*
X273082Y7796821D01*
X272836Y7870048D01*
X272222Y7870908D01*
X271239Y7871153D01*
X267799Y7870908D01*
X267062Y7870662D01*
X265710Y7870293D01*
X264113Y7869679D01*
X261164Y7869187D01*
X259813Y7868819D01*
X258584Y7868327D01*
X257970Y7867713D01*
X256250Y7866976D01*
X254653Y7866361D01*
X253178Y7865133D01*
X252810Y7864764D01*
X252318Y7864518D01*
X250967Y7863413D01*
X250107Y7862307D01*
X249615Y7862061D01*
X248510Y7860956D01*
X248264Y7860464D01*
X247895Y7860096D01*
X247404Y7859850D01*
X246789Y7859235D01*
X245561Y7857024D01*
X244578Y7856041D01*
X244086Y7854812D01*
X243718Y7853461D01*
X242858Y7852109D01*
X242366Y7851618D01*
X241875Y7849898D01*
X241506Y7847318D01*
X241260Y7846335D01*
X240769Y7845106D01*
X240400Y7843754D01*
X240155Y7840806D01*
X239909Y7840069D01*
X239663Y7839086D01*
X239909Y7831222D01*
X240155Y7830485D01*
X240400Y7829502D01*
X240278Y7827905D01*
X240523Y7826922D01*
X241138Y7825571D01*
X241383Y7824588D01*
X241629Y7822868D01*
X242243Y7819059D01*
X242735Y7817830D01*
X243595Y7816233D01*
X244086Y7814513D01*
X244701Y7812916D01*
X245069Y7812547D01*
X245315Y7812056D01*
X245806Y7811564D01*
X246298Y7810336D01*
X247035Y7808370D01*
X248141Y7807018D01*
X249124Y7805544D01*
X249738Y7804192D01*
X249492Y7803209D01*
X248387Y7802841D01*
X231554Y7802718D01*
X230694Y7803087D01*
X229834Y7803947D01*
X229588Y7804438D01*
X228483Y7805790D01*
X228114Y7806158D01*
X227008Y7809230D01*
X225903Y7811319D01*
X225411Y7813039D01*
X225165Y7814021D01*
X224797Y7815619D01*
X224305Y7816847D01*
X223199Y7819428D01*
X222831Y7822253D01*
X222585Y7823728D01*
X222462Y7823851D01*
X222216Y7827045D01*
X221971Y7828274D01*
X221234Y7829994D01*
X220988Y7835154D01*
X220742Y7835891D01*
X220988Y7850881D01*
X221234Y7851618D01*
X221479Y7854812D01*
X222216Y7856532D01*
X222462Y7857515D01*
X222831Y7859850D01*
X223077Y7861816D01*
X223322Y7862798D01*
X223814Y7864027D01*
X224182Y7864396D01*
X224428Y7864887D01*
X225165Y7866607D01*
X225411Y7868082D01*
X226394Y7869802D01*
X226885Y7870293D01*
X227131Y7870785D01*
X227868Y7872505D01*
X228114Y7872996D01*
X229588Y7874470D01*
X231063Y7877173D01*
X233274Y7879385D01*
X233520Y7879877D01*
X234380Y7880491D01*
X235732Y7881842D01*
X235977Y7882334D01*
X236837Y7882948D01*
X237943Y7884054D01*
X238189Y7884545D01*
X241260Y7886388D01*
X242489Y7887617D01*
X243718Y7888108D01*
X244209Y7888354D01*
X245561Y7889460D01*
X247649Y7890320D01*
X248632Y7890566D01*
X250352Y7891549D01*
X252564Y7892531D01*
X254407Y7892900D01*
X255390Y7893146D01*
X258462Y7894497D01*
X261902Y7894989D01*
X264973Y7895357D01*
X266202Y7895603D01*
X268905Y7895849D01*
X270379Y7896094D01*
X271362Y7896340D01*
X272591Y7896586D01*
X285246Y7896709D01*
X286474Y7896217D01*
X287457Y7895972D01*
X288563Y7895849D01*
X290160Y7895972D01*
X290897Y7895726D01*
X292617Y7895234D01*
X295075Y7894989D01*
X297901Y7894374D01*
X299129Y7893883D01*
X301709Y7892777D01*
X304044Y7892409D01*
X305272Y7891917D01*
X306378Y7891057D01*
X307607Y7890566D01*
X308590Y7890320D01*
X310187Y7889706D01*
X311539Y7888354D01*
X312767Y7887863D01*
X314487Y7886880D01*
X314979Y7886388D01*
X315470Y7886142D01*
X317190Y7884914D01*
X318665Y7883439D01*
X320876Y7882211D01*
X321245Y7881842D01*
X321491Y7881351D01*
X322842Y7879999D01*
X323333Y7879754D01*
X323948Y7878894D01*
X325913Y7876928D01*
X326159Y7876436D01*
X326651Y7875945D01*
X326896Y7875453D01*
X328002Y7874102D01*
X328862Y7873242D01*
X329845Y7871522D01*
X330337Y7871030D01*
X330582Y7870539D01*
X332302Y7867344D01*
X333040Y7866607D01*
X333531Y7865378D01*
X333900Y7864027D01*
X334145Y7863044D01*
X335251Y7860956D01*
X335988Y7859235D01*
X336480Y7855795D01*
X336726Y7854812D01*
X337094Y7853461D01*
X337708Y7852109D01*
X337954Y7851126D01*
X338200Y7847440D01*
X338446Y7846703D01*
X338200Y7835891D01*
D02*
G37*
G36*
X390100Y7923862D02*
X388749Y7923247D01*
X384817Y7923493D01*
X224480Y7923370D01*
X223620Y7923739D01*
X223251Y7924107D01*
X223005Y7925090D01*
X223128Y7927916D01*
X223005Y7944748D01*
X223251Y7944994D01*
X223005Y7945731D01*
X223251Y7948434D01*
X223865Y7949049D01*
X224848Y7949294D01*
X229517Y7949049D01*
X235783Y7949172D01*
X239346Y7949049D01*
X240943Y7949909D01*
X240698Y7951138D01*
X240329Y7951506D01*
X238732Y7952120D01*
X237872Y7952489D01*
X237380Y7952980D01*
X236889Y7953226D01*
X236152Y7953963D01*
X235660Y7954209D01*
X234309Y7955560D01*
X234186Y7955929D01*
X233694Y7956175D01*
X232097Y7957772D01*
X231851Y7958263D01*
X230991Y7958878D01*
X229886Y7959984D01*
X229640Y7960475D01*
X228166Y7961950D01*
X227429Y7963670D01*
X227183Y7964161D01*
X226077Y7965512D01*
X225708Y7965881D01*
X225217Y7967110D01*
X224848Y7968461D01*
X223865Y7969936D01*
X223251Y7971287D01*
X223005Y7973007D01*
X222760Y7973990D01*
X222391Y7975587D01*
X221654Y7977553D01*
X221285Y7978659D01*
X220917Y7982222D01*
X220794Y7993403D01*
X221039Y7994140D01*
X221408Y7995737D01*
X221654Y7996720D01*
X222022Y7998071D01*
X222514Y8000037D01*
X222882Y8001634D01*
X223128Y8002863D01*
X223374Y8003846D01*
X224603Y8005812D01*
X225831Y8009006D01*
X226691Y8010358D01*
X227183Y8010849D01*
X228411Y8013061D01*
X229640Y8014289D01*
X229886Y8014781D01*
X231606Y8016992D01*
X234186Y8019572D01*
X234677Y8019818D01*
X235169Y8020310D01*
X235660Y8020555D01*
X237135Y8022030D01*
X238855Y8023013D01*
X240083Y8024241D01*
X241803Y8024979D01*
X243524Y8025961D01*
X244015Y8026453D01*
X245244Y8026944D01*
X247578Y8027804D01*
X247947Y8028173D01*
X248438Y8028419D01*
X250158Y8029156D01*
X251141Y8029402D01*
X252861Y8029893D01*
X255933Y8030999D01*
X257284Y8031367D01*
X258267Y8031613D01*
X259987Y8031859D01*
X262813Y8032228D01*
X264288Y8032473D01*
X266991Y8032719D01*
X268219Y8032965D01*
X269202Y8033211D01*
X270431Y8033456D01*
X283577Y8033579D01*
X284806Y8033088D01*
X285789Y8032842D01*
X291072Y8032228D01*
X293038Y8031982D01*
X296355Y8031613D01*
X297338Y8031367D01*
X299672Y8030507D01*
X301761Y8029893D01*
X303727Y8029402D01*
X305324Y8029033D01*
X306553Y8028541D01*
X306921Y8028173D01*
X307413Y8027927D01*
X309133Y8027190D01*
X311099Y8026699D01*
X312450Y8025593D01*
X312819Y8025224D01*
X314047Y8024733D01*
X315767Y8023750D01*
X316259Y8023259D01*
X316750Y8023013D01*
X319331Y8021661D01*
X319576Y8021170D01*
X320436Y8020310D01*
X320928Y8020064D01*
X322279Y8018958D01*
X322893Y8018344D01*
X323385Y8018098D01*
X325228Y8016255D01*
X325351Y8015887D01*
X325842Y8015641D01*
X327440Y8014044D01*
X327685Y8013552D01*
X328914Y8012324D01*
X329160Y8011832D01*
X330265Y8010481D01*
X330880Y8009866D01*
X331371Y8008638D01*
X332108Y8007409D01*
X333214Y8006057D01*
X333828Y8004460D01*
X334197Y8003109D01*
X334688Y8001880D01*
X335057Y8001512D01*
X335303Y8001020D01*
X335794Y7999791D01*
X336040Y7998808D01*
X336286Y7997088D01*
X336777Y7995368D01*
X337514Y7992911D01*
X337883Y7990822D01*
X338129Y7989594D01*
X338374Y7988119D01*
X338497Y7978167D01*
X338252Y7977430D01*
X337514Y7972762D01*
X337023Y7971533D01*
X336286Y7969076D01*
X335917Y7966987D01*
X335057Y7965635D01*
X334074Y7964161D01*
X333705Y7962810D01*
X333214Y7961581D01*
X331863Y7960229D01*
X331617Y7959738D01*
X330511Y7958141D01*
X330020Y7957895D01*
X329651Y7957526D01*
X329405Y7957035D01*
X328914Y7956543D01*
X328668Y7956052D01*
X326825Y7954209D01*
X326334Y7953963D01*
X324982Y7952858D01*
X324614Y7952489D01*
X324122Y7952243D01*
X321911Y7951015D01*
X321542Y7950646D01*
X321788Y7949909D01*
X322402Y7949294D01*
X324122Y7949049D01*
X329405Y7949172D01*
X368353Y7949049D01*
X368599D01*
X389363Y7949172D01*
X390100Y7948680D01*
X390346Y7947697D01*
X390100Y7923862D01*
D02*
G37*
G36*
X338200Y8092922D02*
X337954Y8092185D01*
X337708Y8088745D01*
X336971Y8087025D01*
X336726Y8086042D01*
X335988Y8081864D01*
X335374Y8080267D01*
X334391Y8078793D01*
X334023Y8077687D01*
X333408Y8076090D01*
X332180Y8074124D01*
X330582Y8071298D01*
X329845Y8070561D01*
X329600Y8070069D01*
X329108Y8069578D01*
X328125Y8067858D01*
X322842Y8062575D01*
X320631Y8061346D01*
X319893Y8060609D01*
X317682Y8059380D01*
X316453Y8058152D01*
X315101Y8057783D01*
X313504Y8057169D01*
X312521Y8056186D01*
X311293Y8055695D01*
X308713Y8055080D01*
X307484Y8054589D01*
X304904Y8053483D01*
X302569Y8053114D01*
X301095Y8052869D01*
X299867Y8052623D01*
X297901Y8052377D01*
X296918Y8052131D01*
X295566Y8051517D01*
X294583Y8051271D01*
X290160Y8051026D01*
X289423Y8050780D01*
X273942Y8051026D01*
X273082Y8051886D01*
X272836Y8053114D01*
X273082Y8053852D01*
Y8093659D01*
X272836Y8127324D01*
X271976Y8128184D01*
X270256Y8128430D01*
X269519Y8128184D01*
X267799Y8127938D01*
X265956Y8127570D01*
X264604Y8126955D01*
X262639Y8126464D01*
X260304Y8126095D01*
X258707Y8125481D01*
X257233Y8124498D01*
X256004Y8124007D01*
X255021Y8123761D01*
X253670Y8122655D01*
X253055Y8122041D01*
X252564Y8121795D01*
X251212Y8120689D01*
X246544Y8116021D01*
X245561Y8114301D01*
X244823Y8113563D01*
X244578Y8113072D01*
X244086Y8111843D01*
X243718Y8110492D01*
X243103Y8109632D01*
X242612Y8109140D01*
X242366Y8108649D01*
X241875Y8107420D01*
X241629Y8104471D01*
X241383Y8103734D01*
X240400Y8101277D01*
X240155Y8098082D01*
X239909Y8097345D01*
X239663Y8095625D01*
X239909Y8088253D01*
X240400Y8087025D01*
X240278Y8085182D01*
X240523Y8083953D01*
X241138Y8082602D01*
X241383Y8081619D01*
X241629Y8079898D01*
X242243Y8076090D01*
X242735Y8074861D01*
X243103Y8074493D01*
X243841Y8072773D01*
X244209Y8071421D01*
X244701Y8070192D01*
X245315Y8069332D01*
X246544Y8066629D01*
X247527Y8064909D01*
X249247Y8062452D01*
X249738Y8061223D01*
X249492Y8060486D01*
X249124Y8060117D01*
X248141Y8059872D01*
X230694Y8060117D01*
X230080Y8060732D01*
X229834Y8061223D01*
X228728Y8062575D01*
X228114Y8063189D01*
X227623Y8064909D01*
X227131Y8066138D01*
X226885Y8066629D01*
X225411Y8069824D01*
X224797Y8072650D01*
X224305Y8073878D01*
X223691Y8075230D01*
X223199Y8076950D01*
X222954Y8078670D01*
X222585Y8080759D01*
X222339Y8081987D01*
X222094Y8084936D01*
X221602Y8086165D01*
X221234Y8087270D01*
X220988Y8092185D01*
X220742Y8092922D01*
X220988Y8107912D01*
X221234Y8108649D01*
X221479Y8112089D01*
X222216Y8113809D01*
X222462Y8114792D01*
X222708Y8116512D01*
X222954Y8117495D01*
X223199Y8119952D01*
X224182Y8121672D01*
X224674Y8122164D01*
X225165Y8123884D01*
X225534Y8125481D01*
X226394Y8126833D01*
X226885Y8127324D01*
X227623Y8129044D01*
X228606Y8130764D01*
X229834Y8131993D01*
X231063Y8134204D01*
X232783Y8135925D01*
X233028Y8136416D01*
X238558Y8141945D01*
X239049Y8142190D01*
X240769Y8143173D01*
X242243Y8144648D01*
X243472Y8145139D01*
X245192Y8146122D01*
X245929Y8146859D01*
X247158Y8147351D01*
X248755Y8147719D01*
X250721Y8148948D01*
X252318Y8149562D01*
X254898Y8150177D01*
X257356Y8151159D01*
X258953Y8151774D01*
X267676Y8152880D01*
X269888Y8153125D01*
X270871Y8153371D01*
X272099Y8153617D01*
X275417Y8153985D01*
X276399Y8153740D01*
X281928Y8153863D01*
X286229Y8153494D01*
X287457Y8153002D01*
X291389Y8152757D01*
X292126Y8152511D01*
X293109Y8152265D01*
X296181Y8151897D01*
X297409Y8151651D01*
X299375Y8150914D01*
X300727Y8150299D01*
X302447Y8149808D01*
X304289Y8149439D01*
X305518Y8148948D01*
X306132Y8148334D01*
X306624Y8148088D01*
X307853Y8147597D01*
X309204Y8147228D01*
X310064Y8146859D01*
X311047Y8145877D01*
X311539Y8145631D01*
X314733Y8143911D01*
X315470Y8143173D01*
X315962Y8142928D01*
X317682Y8141699D01*
X318050Y8141330D01*
X318173Y8140962D01*
X318665Y8140716D01*
X320999Y8139119D01*
X323948Y8136170D01*
X324193Y8135679D01*
X326159Y8133713D01*
X326405Y8133221D01*
X328125Y8131010D01*
X328862Y8130273D01*
X329845Y8128553D01*
X330582Y8127815D01*
X330828Y8127324D01*
X332548Y8124130D01*
X333040Y8123638D01*
X333531Y8122409D01*
X333777Y8121426D01*
X334637Y8119092D01*
X335005Y8118724D01*
X335743Y8117004D01*
X336234Y8115038D01*
X336848Y8111475D01*
X337094Y8110492D01*
X337708Y8109140D01*
X337954Y8108157D01*
X338200Y8104717D01*
X338446Y8103980D01*
X338200Y8092922D01*
D02*
G37*
G36*
X336700Y8203499D02*
X336086Y8200428D01*
X335840Y8199445D01*
X334980Y8198094D01*
X333751Y8195391D01*
X332768Y8193670D01*
X331786Y8192687D01*
X330557Y8190476D01*
X329697Y8189862D01*
X328591Y8188756D01*
X328346Y8188264D01*
X327977Y8187896D01*
X327486Y8187650D01*
X326994Y8187159D01*
X326625Y8187036D01*
X326380Y8186544D01*
X325520Y8185684D01*
X323922Y8185070D01*
X322571Y8184210D01*
X321588Y8183227D01*
X319622Y8182735D01*
X318025Y8182121D01*
X317656Y8181753D01*
X317165Y8181507D01*
X315445Y8180770D01*
X314462Y8180524D01*
X312742Y8180278D01*
X311144Y8179910D01*
X309916Y8179418D01*
X308564Y8179050D01*
X306476Y8178681D01*
X305124Y8178313D01*
X303035Y8178190D01*
X301684Y8178313D01*
X300947Y8178067D01*
X297015Y8177821D01*
X223788Y8178067D01*
X223174Y8178681D01*
X222928Y8179664D01*
X223174Y8202516D01*
X224034Y8203377D01*
X225017Y8203622D01*
X227474Y8203377D01*
X295049Y8203622D01*
X295787Y8203868D01*
X299227Y8204114D01*
X299964Y8204360D01*
X301438Y8204605D01*
X303404Y8205834D01*
X304387Y8206080D01*
X306599Y8206571D01*
X307950Y8207677D01*
X309547Y8208537D01*
X311267Y8209520D01*
X314585Y8212837D01*
X314830Y8213329D01*
X316059Y8215540D01*
X317042Y8217015D01*
X317288Y8218735D01*
X317534Y8219718D01*
X317779Y8221438D01*
X318025Y8222420D01*
X317779Y8226598D01*
X318025Y8227335D01*
X317656Y8230652D01*
X317411Y8232127D01*
X317165Y8233355D01*
X316919Y8234338D01*
X316059Y8235690D01*
X314093Y8239376D01*
X312864Y8240604D01*
X312619Y8241096D01*
X311759Y8241956D01*
X311267Y8242202D01*
X310407Y8243062D01*
X310162Y8243553D01*
X309302Y8244413D01*
X308810Y8244659D01*
X307582Y8245887D01*
X307090Y8246133D01*
X304878Y8247362D01*
X303896Y8248345D01*
X302667Y8248836D01*
X301070Y8249205D01*
X297015Y8251048D01*
X294558Y8251294D01*
X292592Y8251785D01*
X290135Y8252522D01*
X288415Y8252768D01*
X224403Y8252645D01*
X223420Y8253382D01*
X222928Y8255102D01*
X223174Y8276972D01*
X224034Y8278078D01*
X225263Y8278324D01*
X226000Y8278078D01*
X227597Y8277955D01*
X385477Y8278078D01*
X386214Y8277832D01*
X386951Y8278078D01*
X388549Y8278201D01*
X389409Y8277832D01*
X390023Y8277218D01*
X390269Y8275498D01*
X390023Y8253628D01*
X389409Y8252768D01*
X388426Y8252522D01*
X385231Y8252768D01*
X318516Y8252891D01*
X318271Y8252154D01*
X318516Y8251662D01*
X319499Y8250679D01*
X319745Y8250188D01*
X320236Y8249696D01*
X320359Y8249328D01*
X320851Y8249082D01*
X323185Y8247485D01*
X324045Y8246625D01*
X324537Y8246379D01*
X328837Y8242079D01*
X329083Y8241587D01*
X330803Y8239867D01*
X331048Y8239376D01*
X332031Y8237656D01*
X333260Y8236427D01*
X334366Y8233355D01*
X334980Y8232495D01*
X335963Y8230284D01*
X336332Y8227950D01*
X336577Y8226967D01*
X337069Y8225738D01*
X337683Y8224141D01*
X337929Y8221192D01*
X338175Y8220455D01*
X338420Y8219472D01*
X338175Y8208660D01*
X337929Y8207923D01*
X336823Y8203868D01*
X336700Y8203745D01*
Y8203499D01*
D02*
G37*
G36*
X228700Y8332384D02*
X229683Y8333366D01*
X231403Y8334349D01*
X232632Y8335578D01*
X233123Y8335824D01*
X235335Y8337544D01*
X236072Y8338281D01*
X236563Y8338527D01*
X238775Y8340247D01*
X240495Y8341230D01*
X241970Y8342704D01*
X242461Y8342950D01*
X244672Y8344670D01*
X245164Y8345161D01*
X246884Y8346144D01*
X247867Y8347127D01*
X248358Y8347373D01*
X250693Y8348970D01*
X251307Y8349830D01*
X251799Y8350076D01*
X253519Y8351305D01*
X254502Y8352288D01*
X254993Y8352533D01*
X257204Y8354253D01*
X259170Y8355482D01*
X259662Y8355728D01*
X260030Y8356096D01*
X260153Y8356465D01*
X260645Y8356710D01*
X261136Y8357202D01*
X262365Y8357939D01*
X264085Y8359659D01*
X265314Y8360397D01*
X266296Y8361380D01*
X266788Y8361625D01*
X268508Y8362608D01*
X269737Y8363837D01*
X270228Y8364082D01*
X271948Y8365311D01*
X273177Y8366540D01*
X274897Y8367523D01*
X276126Y8368751D01*
X277846Y8369734D01*
X279074Y8370963D01*
X279566Y8371209D01*
X281286Y8372437D01*
X282269Y8373420D01*
X282760Y8373666D01*
X284480Y8374894D01*
X285463Y8375877D01*
X287675Y8377106D01*
X288903Y8378335D01*
X289395Y8378580D01*
X290746Y8379686D01*
X291606Y8380546D01*
X292098Y8380792D01*
X293818Y8382021D01*
X294555Y8382758D01*
X295047Y8383003D01*
X296767Y8383986D01*
X297749Y8384969D01*
X298241Y8385215D01*
X299838Y8386321D01*
X299961Y8386935D01*
X299470Y8387672D01*
X298487Y8387918D01*
X292221Y8387795D01*
X226488Y8387918D01*
X225751Y8387672D01*
X223786Y8387918D01*
X223171Y8388532D01*
X222926Y8390252D01*
X223048Y8409788D01*
X222926Y8412859D01*
X223540Y8413719D01*
X224523Y8413965D01*
X227840Y8413842D01*
X375891Y8413965D01*
X376628Y8413719D01*
X377611Y8413965D01*
X380314Y8413719D01*
X380682Y8413351D01*
X380928Y8412368D01*
X380805Y8409050D01*
X380928Y8392955D01*
X380682Y8392218D01*
X380928Y8391235D01*
X380682Y8388532D01*
X380068Y8387918D01*
X379085Y8387672D01*
X374417Y8387918D01*
X311387Y8387795D01*
X308561Y8387918D01*
X307701Y8387304D01*
X307947Y8386321D01*
X308561Y8385706D01*
X309053Y8385461D01*
X310773Y8383741D01*
X311265Y8383495D01*
X312985Y8382266D01*
X313722Y8381529D01*
X314213Y8381283D01*
X314705Y8380792D01*
X315196Y8380546D01*
X316548Y8379440D01*
X316916Y8379072D01*
X317408Y8378826D01*
X319128Y8377597D01*
X320111Y8376614D01*
X320602Y8376369D01*
X322322Y8375140D01*
X323305Y8374157D01*
X323797Y8373912D01*
X326008Y8372191D01*
X326500Y8371700D01*
X328711Y8370471D01*
X329203Y8369734D01*
X329694Y8369488D01*
X331291Y8368383D01*
X331537Y8367891D01*
X332397Y8367031D01*
X334117Y8366048D01*
X335100Y8365065D01*
X335592Y8364820D01*
X337312Y8363837D01*
X339032Y8362117D01*
X340260Y8361380D01*
X341489Y8360151D01*
X341981Y8359905D01*
X343701Y8358676D01*
X344684Y8357693D01*
X345175Y8357448D01*
X347386Y8355728D01*
X348861Y8354745D01*
X349352Y8354499D01*
X350827Y8353025D01*
X351318Y8352779D01*
X353530Y8351059D01*
X354021Y8350567D01*
X354513Y8350322D01*
X355864Y8349216D01*
X356724Y8348356D01*
X358936Y8347127D01*
X360164Y8345898D01*
X361393Y8345161D01*
X363113Y8343441D01*
X364833Y8342458D01*
X366062Y8341230D01*
X366553Y8340984D01*
X368765Y8339264D01*
X369256Y8338773D01*
X370976Y8337790D01*
X372451Y8336315D01*
X373679Y8335578D01*
X375154Y8334104D01*
X375645Y8333858D01*
X377980Y8332261D01*
X378594Y8331646D01*
X380191Y8330786D01*
X380437Y8330295D01*
X380682Y8329558D01*
X380928Y8327100D01*
X380805Y8304371D01*
X380928Y8301545D01*
X380191Y8300316D01*
X379085Y8300193D01*
X378594Y8300685D01*
X378102Y8300931D01*
X377734Y8301299D01*
X377488Y8301791D01*
X376628Y8302651D01*
X376137Y8302896D01*
X374417Y8304125D01*
X373188Y8305353D01*
X372696Y8305599D01*
X371345Y8306705D01*
X371099Y8307196D01*
X369625Y8308179D01*
X368642Y8308917D01*
X368396Y8309408D01*
X368028Y8309777D01*
X367536Y8310022D01*
X365325Y8311742D01*
X364588Y8312480D01*
X362867Y8313463D01*
X361147Y8315183D01*
X360656Y8315428D01*
X359181Y8316903D01*
X358690Y8317148D01*
X357338Y8318254D01*
X356970Y8318869D01*
X356478Y8319114D01*
X355987Y8319606D01*
X355496Y8319852D01*
X354144Y8320957D01*
X353284Y8321817D01*
X352793Y8322063D01*
X351441Y8323169D01*
X350827Y8323783D01*
X350335Y8324029D01*
X348124Y8325749D01*
X347386Y8326486D01*
X346895Y8326732D01*
X345544Y8327838D01*
X344929Y8328698D01*
X344438Y8328943D01*
X343086Y8330049D01*
X342472Y8330664D01*
X341981Y8330909D01*
X341489Y8331401D01*
X340998Y8331646D01*
X339646Y8332752D01*
X338786Y8333612D01*
X338295Y8333858D01*
X337803Y8334349D01*
X337312Y8334595D01*
X336083Y8335824D01*
X335592Y8336069D01*
X334240Y8337175D01*
X333380Y8338035D01*
X332889Y8338281D01*
X331537Y8339387D01*
X330186Y8340738D01*
X328957Y8341476D01*
X327483Y8342950D01*
X326991Y8343196D01*
X324780Y8344916D01*
X324288Y8345407D01*
X323797Y8345653D01*
X322445Y8346759D01*
X321339Y8347864D01*
X320848Y8348110D01*
X319496Y8349216D01*
X319251Y8349707D01*
X317776Y8350690D01*
X317408Y8351059D01*
X316916Y8351305D01*
X315688Y8352533D01*
X315196Y8352779D01*
X313476Y8354499D01*
X312985Y8354745D01*
X310773Y8356465D01*
X310282Y8356956D01*
X309790Y8357202D01*
X308439Y8358308D01*
X307087Y8359659D01*
X305367Y8360151D01*
X303647Y8359905D01*
X302296Y8358799D01*
X301436Y8357939D01*
X300944Y8357693D01*
X298732Y8355973D01*
X297995Y8355236D01*
X297504Y8354990D01*
X296152Y8353885D01*
X295538Y8353025D01*
X295047Y8352779D01*
X293695Y8351673D01*
X292835Y8350813D01*
X292344Y8350567D01*
X290992Y8349462D01*
X290378Y8348847D01*
X289886Y8348602D01*
X287675Y8346881D01*
X286937Y8346144D01*
X286446Y8345898D01*
X285955Y8345407D01*
X285463Y8345161D01*
X283989Y8343687D01*
X283497Y8343441D01*
X282146Y8342336D01*
X281040Y8341230D01*
X280549Y8340984D01*
X279197Y8339878D01*
X278337Y8339018D01*
X277846Y8338773D01*
X276494Y8337667D01*
X275634Y8336807D01*
X275143Y8336561D01*
X272808Y8334964D01*
X272563Y8334472D01*
X270351Y8332998D01*
X270105Y8332506D01*
X269245Y8331646D01*
X268016Y8330909D01*
X266296Y8329189D01*
X264576Y8328206D01*
X263594Y8327223D01*
X263102Y8326978D01*
X261259Y8325626D01*
X261013Y8325134D01*
X258433Y8323292D01*
X257819Y8322432D01*
X257450Y8322063D01*
X256959Y8321817D01*
X255607Y8320712D01*
X254993Y8320097D01*
X254502Y8319852D01*
X253150Y8318746D01*
X252536Y8318131D01*
X252044Y8317886D01*
X251553Y8317394D01*
X251061Y8317148D01*
X249587Y8315674D01*
X249096Y8315428D01*
X248604Y8314937D01*
X248113Y8314691D01*
X246761Y8313585D01*
X246147Y8312971D01*
X245655Y8312725D01*
X244304Y8311620D01*
X243198Y8310514D01*
X242707Y8310268D01*
X241601Y8309408D01*
X241355Y8308917D01*
X240741Y8308302D01*
X239021Y8307319D01*
X237792Y8306091D01*
X237301Y8305845D01*
X235580Y8304616D01*
X234352Y8303388D01*
X233123Y8302651D01*
X231158Y8300685D01*
X230666Y8300439D01*
X229560Y8299579D01*
X229315Y8299088D01*
X227471Y8297982D01*
X226980Y8297736D01*
X226366Y8297122D01*
X226120Y8296630D01*
X225260Y8295770D01*
X224277Y8295279D01*
X223171Y8296139D01*
X222926Y8297122D01*
X223048Y8300439D01*
X222926Y8327592D01*
X223540Y8328698D01*
X224031Y8328943D01*
X225383Y8330049D01*
X226243Y8330909D01*
X228454Y8332138D01*
X228577Y8332261D01*
X228700Y8332384D01*
D02*
G37*
G36*
X231445Y8975207D02*
X250120Y8974961D01*
X250489Y8974101D01*
X249383Y8972749D01*
X248769Y8971889D01*
X247663Y8970538D01*
X246803Y8969678D01*
X245820Y8966975D01*
X244592Y8965746D01*
X244100Y8964518D01*
X243732Y8963166D01*
X242134Y8960094D01*
X241766Y8958497D01*
X241520Y8957268D01*
X241274Y8956286D01*
X240906Y8954934D01*
X240414Y8953214D01*
X239923Y8951985D01*
X239677Y8950265D01*
X239431Y8941910D01*
X239677Y8935276D01*
X239923Y8934539D01*
X240168Y8932573D01*
X241397Y8929870D01*
X242011Y8927044D01*
X242380Y8926675D01*
X242626Y8926184D01*
X243854Y8924955D01*
X244100Y8924464D01*
X244960Y8923358D01*
X245452Y8923112D01*
X247172Y8921392D01*
X248892Y8920901D01*
X250612Y8920655D01*
X254789Y8920409D01*
X255526Y8920655D01*
X257738Y8920901D01*
X259949Y8922129D01*
X260564Y8922990D01*
X260932Y8923358D01*
X261424Y8923604D01*
X263021Y8925201D01*
X263267Y8925693D01*
X264741Y8927167D01*
X265233Y8928395D01*
X265478Y8929378D01*
X266707Y8931590D01*
X267198Y8932081D01*
X267690Y8933802D01*
X267936Y8934784D01*
X269656Y8938470D01*
X270639Y8942402D01*
X271867Y8944122D01*
X272359Y8946088D01*
X272727Y8947685D01*
X273219Y8948914D01*
X273833Y8949774D01*
X274816Y8951985D01*
X275430Y8953583D01*
X276045Y8954443D01*
X276536Y8954934D01*
X277028Y8956163D01*
X277888Y8958497D01*
X278993Y8959603D01*
X280713Y8962797D01*
X281696Y8963780D01*
X281942Y8964272D01*
X283048Y8965623D01*
X283539Y8965869D01*
X284399Y8966729D01*
X284645Y8967220D01*
X285505Y8968080D01*
X285997Y8968326D01*
X287717Y8970046D01*
X290911Y8971766D01*
X291403Y8972258D01*
X292631Y8972749D01*
X294597Y8973241D01*
X296440Y8973609D01*
X297669Y8974101D01*
X299266Y8974715D01*
X306023Y8974838D01*
X310446Y8974592D01*
X311429Y8974347D01*
X313395Y8973609D01*
X316344Y8972872D01*
X317204Y8972504D01*
X318555Y8971398D01*
X321381Y8969800D01*
X322118Y8969063D01*
X322610Y8968818D01*
X323101Y8968326D01*
X323593Y8968080D01*
X324453Y8967220D01*
X324699Y8966729D01*
X325313Y8966115D01*
X325805Y8965869D01*
X326665Y8965009D01*
X326910Y8964518D01*
X328876Y8962552D01*
X329490Y8960954D01*
X329859Y8960586D01*
X330105Y8960094D01*
X330842Y8959357D01*
X331333Y8958128D01*
X331948Y8956531D01*
X332562Y8955671D01*
X333545Y8954197D01*
X334036Y8952231D01*
X334405Y8950879D01*
X334774Y8950019D01*
X335511Y8948791D01*
X336002Y8947071D01*
X336248Y8946088D01*
X336617Y8942771D01*
X336862Y8941542D01*
X337722Y8939453D01*
X337968Y8938470D01*
X338214Y8934784D01*
X338459Y8934047D01*
X338214Y8921024D01*
X337968Y8920286D01*
X337722Y8916601D01*
X337231Y8915372D01*
X336862Y8912300D01*
X336371Y8910334D01*
X336125Y8908860D01*
X335634Y8906157D01*
X335142Y8904929D01*
X334036Y8902348D01*
X333176Y8900751D01*
X332193Y8900505D01*
X314624Y8900383D01*
X313641Y8900628D01*
X313272Y8901488D01*
X313641Y8902348D01*
X314624Y8903823D01*
X315115Y8905789D01*
X315730Y8907386D01*
X316835Y8909229D01*
X317081Y8910212D01*
X317941Y8914021D01*
X318555Y8916109D01*
X318924Y8917952D01*
X319293Y8919303D01*
X319538Y8921024D01*
X319293Y8921761D01*
X319538Y8922744D01*
X319784Y8925938D01*
X319538Y8934047D01*
X319293Y8934784D01*
X319047Y8936750D01*
X318064Y8938962D01*
X317573Y8940190D01*
X317081Y8941910D01*
X315853Y8944122D01*
X315115Y8944859D01*
X314870Y8945351D01*
X313764Y8946702D01*
X313272Y8946948D01*
X312535Y8947685D01*
X312044Y8947931D01*
X311061Y8948914D01*
X309341Y8949405D01*
X305409Y8949651D01*
X301969Y8949405D01*
X300249Y8948422D01*
X299757Y8947931D01*
X299266Y8947685D01*
X298774Y8947194D01*
X298283Y8946948D01*
X296686Y8945351D01*
X296440Y8944859D01*
X295949Y8944368D01*
X294966Y8942648D01*
X294474Y8942156D01*
X294229Y8941665D01*
X293491Y8939945D01*
X292877Y8938347D01*
X291771Y8936504D01*
X291280Y8934784D01*
X290911Y8933187D01*
X290420Y8931959D01*
X289314Y8929378D01*
X289068Y8928395D01*
X288577Y8926675D01*
X286857Y8922990D01*
X286611Y8922007D01*
X285382Y8919795D01*
X284399Y8917583D01*
X284154Y8916601D01*
X283539Y8915003D01*
X282679Y8914143D01*
X282434Y8913652D01*
X281696Y8911932D01*
X280959Y8910703D01*
X280468Y8910212D01*
X280222Y8909720D01*
X278993Y8907509D01*
X277519Y8906034D01*
X277273Y8905543D01*
X276782Y8905051D01*
X276536Y8904560D01*
X276168Y8904191D01*
X275676Y8903946D01*
X275308Y8903577D01*
X275062Y8903086D01*
X273710Y8901734D01*
X273219Y8901488D01*
X271990Y8900260D01*
X270270Y8899277D01*
X268918Y8898171D01*
X267321Y8897557D01*
X264987Y8896697D01*
X262407Y8895591D01*
X259212Y8895345D01*
X256755Y8895099D01*
X252578Y8894854D01*
X251840Y8895099D01*
X249383Y8895345D01*
X246680Y8895591D01*
X244223Y8896819D01*
X244100Y8896942D01*
X242994Y8897311D01*
X242011Y8897557D01*
X240414Y8898171D01*
X240045Y8898539D01*
X239554Y8898785D01*
X238817Y8899522D01*
X238325Y8899768D01*
X236728Y8900874D01*
X236482Y8901365D01*
X235868Y8901980D01*
X233657Y8903209D01*
X233042Y8903823D01*
X232059Y8905543D01*
X231199Y8906649D01*
X230708Y8906894D01*
X230339Y8907263D01*
X229356Y8908983D01*
X228619Y8909720D01*
X228373Y8910212D01*
X227636Y8911932D01*
X226653Y8913652D01*
X225916Y8914389D01*
X225425Y8916109D01*
X225179Y8917829D01*
X224565Y8919426D01*
X223459Y8921515D01*
X222476Y8927413D01*
X222230Y8929133D01*
X221493Y8930853D01*
X221247Y8931836D01*
X221002Y8935767D01*
X220756Y8936504D01*
X221002Y8951985D01*
X221247Y8952723D01*
X221493Y8956163D01*
X221985Y8957391D01*
X222476Y8959357D01*
X222722Y8961077D01*
X222968Y8963535D01*
X223213Y8964518D01*
X223582Y8966115D01*
X224933Y8969432D01*
X225179Y8970415D01*
X225670Y8972135D01*
X226899Y8974347D01*
X227513Y8974961D01*
X229111Y8975330D01*
X230708Y8975452D01*
X231445Y8975207D01*
D02*
G37*
G36*
X321870Y8881830D02*
X334770Y8881953D01*
X335631Y8881339D01*
X335999Y8879987D01*
X336245Y8864261D01*
X337351Y8862909D01*
X341651Y8863032D01*
X358483Y8862909D01*
X359220Y8863155D01*
X361186Y8862909D01*
X361800Y8862295D01*
X362292Y8860575D01*
X363152Y8858240D01*
X364012Y8856152D01*
X364258Y8855169D01*
X364503Y8853449D01*
X364872Y8851360D01*
X365364Y8850131D01*
X366224Y8848043D01*
X366469Y8847060D01*
X366961Y8844111D01*
X367329Y8842514D01*
X368681Y8839442D01*
X368435Y8838459D01*
X368189Y8837968D01*
X367084Y8837599D01*
X363152Y8837845D01*
X339931Y8837722D01*
X337351Y8837845D01*
X336491Y8836985D01*
X335999Y8835019D01*
X336122Y8811798D01*
X335753Y8810938D01*
X335139Y8810324D01*
X317447Y8810569D01*
X316587Y8811184D01*
X316341Y8812166D01*
X316587Y8816835D01*
X316464Y8832685D01*
X316587Y8835019D01*
X315481Y8837108D01*
X314252Y8837599D01*
X313269Y8837845D01*
X253558Y8837599D01*
X251837Y8836862D01*
X249871Y8836370D01*
X248151Y8836125D01*
X246923Y8835388D01*
X246800Y8835265D01*
X245940Y8834405D01*
X245449Y8834159D01*
X244097Y8833053D01*
X243851Y8832562D01*
X242746Y8831210D01*
X242377Y8830842D01*
X241885Y8829613D01*
X241640Y8827893D01*
X241148Y8824944D01*
X241394Y8816098D01*
X241640Y8815361D01*
X241885Y8814132D01*
X242991Y8812781D01*
X243360Y8812412D01*
X243606Y8811429D01*
X242991Y8810569D01*
X240534Y8810324D01*
X225299Y8810569D01*
X223947Y8811675D01*
X223456Y8812166D01*
X222965Y8813886D01*
X222596Y8816221D01*
X222350Y8817204D01*
X221244Y8820767D01*
X220999Y8824207D01*
X220753Y8824944D01*
X220999Y8836739D01*
X221244Y8837476D01*
X221490Y8840425D01*
X222473Y8842637D01*
X222719Y8844357D01*
X222965Y8845340D01*
X223210Y8846814D01*
X223947Y8848043D01*
X224439Y8848534D01*
X224685Y8849025D01*
X225422Y8850746D01*
X226282Y8852343D01*
X226773Y8852589D01*
X227142Y8852957D01*
X227388Y8853449D01*
X228493Y8854800D01*
X229230Y8855537D01*
X229722Y8855783D01*
X230090Y8856152D01*
X230336Y8856643D01*
X230705Y8857012D01*
X232916Y8858240D01*
X233408Y8858732D01*
X233899Y8858977D01*
X234391Y8859469D01*
X235742Y8859838D01*
X236725Y8860083D01*
X238814Y8861189D01*
X240042Y8861681D01*
X241025Y8861926D01*
X245940Y8862418D01*
X248889Y8862664D01*
X249626Y8862909D01*
X251346Y8863155D01*
X253803Y8862909D01*
X311180Y8863032D01*
X313761Y8862909D01*
X315481Y8863892D01*
X316095Y8864506D01*
X316587Y8866226D01*
X316341Y8869912D01*
X316587Y8870650D01*
X316464Y8879864D01*
X316955Y8881093D01*
X317447Y8881584D01*
X319412Y8882076D01*
X321870Y8881830D01*
D02*
G37*
G36*
X226078Y8788454D02*
X328300D01*
X334320Y8788577D01*
X335303Y8788331D01*
X335795Y8787839D01*
X336040Y8786119D01*
X336163Y8764864D01*
X335918Y8763635D01*
X335180Y8762898D01*
X333460Y8762652D01*
X332723Y8762898D01*
X224480Y8762775D01*
X223497Y8763267D01*
X223006Y8764495D01*
X223252Y8787348D01*
X224112Y8788454D01*
X225340Y8788699D01*
X226078Y8788454D01*
D02*
G37*
G36*
X376046Y8790542D02*
X377398Y8789928D01*
X379118Y8789437D01*
X380715Y8789068D01*
X381944Y8788577D01*
X382312Y8788208D01*
X382681Y8788085D01*
X382926Y8787594D01*
X383786Y8786734D01*
X384278Y8786488D01*
X385138Y8785873D01*
X385384Y8785382D01*
X386858Y8782679D01*
X387349Y8782188D01*
X387841Y8780959D01*
X388087Y8779239D01*
X388332Y8778256D01*
X388087Y8769901D01*
X386858Y8767690D01*
X386121Y8766952D01*
X384646Y8764249D01*
X384278Y8763881D01*
X383786Y8763635D01*
X381452Y8762038D01*
X380592Y8761178D01*
X378626Y8760687D01*
X376906Y8760441D01*
X369780Y8760687D01*
X369043Y8760932D01*
X367323Y8761915D01*
X366831Y8762407D01*
X366340Y8762652D01*
X364620Y8763881D01*
X363637Y8765355D01*
X363145Y8765601D01*
X362531Y8766215D01*
X362040Y8767444D01*
X361425Y8769041D01*
X360320Y8770884D01*
X359951Y8772481D01*
X359828Y8777273D01*
X360074Y8778010D01*
X360320Y8779976D01*
X361548Y8781942D01*
X362162Y8783539D01*
X363022Y8784891D01*
X366831Y8788699D01*
X367077D01*
X367200Y8788822D01*
X368551Y8789191D01*
X369534Y8789437D01*
X371132Y8790051D01*
X373220Y8790665D01*
X374203Y8790911D01*
X376046Y8790542D01*
D02*
G37*
G36*
X262393Y8737097D02*
X263130Y8736851D01*
X264113Y8736605D01*
X265710Y8735991D01*
X267799Y8735131D01*
X268782Y8734885D01*
X270379Y8734516D01*
X271608Y8734025D01*
X272468Y8733165D01*
X272959Y8732919D01*
X275171Y8731691D01*
X276399Y8730462D01*
X276891Y8730216D01*
X277382Y8729725D01*
X277874Y8729479D01*
X281437Y8725916D01*
X281683Y8725425D01*
X283403Y8723213D01*
X283894Y8722722D01*
X284508Y8721124D01*
X285368Y8719773D01*
X286351Y8718299D01*
X286843Y8716333D01*
X287457Y8714735D01*
X287826Y8714367D01*
X288563Y8712647D01*
X288809Y8711664D01*
X289177Y8709330D01*
X289669Y8707364D01*
X290283Y8705275D01*
X291020Y8702326D01*
X291266Y8699869D01*
X291635Y8695323D01*
X291880Y8694094D01*
X292126Y8691391D01*
X292617Y8690163D01*
X292986Y8688811D01*
X293232Y8687828D01*
X293477Y8684142D01*
X293723Y8683405D01*
X293969Y8678491D01*
X294215Y8677754D01*
X294460Y8676033D01*
X294706Y8674067D01*
X295443Y8672347D01*
X295689Y8668907D01*
X295935Y8668170D01*
X296672Y8666942D01*
X297041Y8666573D01*
X299744Y8666819D01*
X300481Y8667064D01*
X302815Y8667433D01*
X305641Y8668293D01*
X306624Y8668539D01*
X308836Y8669030D01*
X310310Y8670505D01*
X312521Y8671733D01*
X312890Y8672102D01*
X313136Y8672593D01*
X313750Y8673207D01*
X314241Y8673453D01*
X314856Y8674067D01*
X315101Y8674559D01*
X316207Y8675911D01*
X316822Y8676525D01*
X317313Y8677754D01*
X317559Y8678737D01*
X318296Y8680702D01*
X319279Y8682914D01*
X319525Y8684880D01*
X319279Y8685617D01*
X319771Y8689057D01*
X319525Y8693480D01*
X319279Y8694217D01*
X319402Y8697043D01*
X319156Y8699255D01*
X318910Y8700238D01*
X318173Y8702203D01*
X317559Y8704292D01*
X317313Y8706012D01*
X316945Y8707609D01*
X316453Y8708838D01*
X315347Y8710681D01*
X314979Y8712032D01*
X314241Y8713998D01*
X313627Y8714612D01*
X313381Y8715104D01*
X312644Y8716824D01*
X311661Y8718544D01*
X310924Y8719282D01*
X310679Y8719773D01*
X309450Y8721984D01*
X307976Y8723459D01*
X307730Y8725179D01*
X307976Y8725916D01*
X309081Y8726285D01*
X327265Y8726039D01*
X328862Y8724933D01*
X329722Y8722599D01*
X330337Y8721984D01*
X330582Y8721493D01*
X331565Y8719282D01*
X331934Y8717930D01*
X332302Y8717070D01*
X333285Y8715595D01*
X333654Y8713998D01*
X333900Y8713015D01*
X334145Y8711787D01*
X334637Y8710558D01*
X335743Y8707978D01*
X336234Y8704538D01*
X336480Y8702080D01*
X336971Y8700852D01*
X337463Y8697903D01*
X337708Y8696920D01*
X337954Y8695200D01*
X338200Y8692006D01*
X338446Y8691268D01*
X338200Y8677999D01*
X337954Y8677262D01*
X337708Y8673576D01*
X336726Y8671365D01*
X336234Y8667924D01*
X335743Y8665959D01*
X334514Y8663993D01*
X334023Y8662764D01*
X333162Y8660430D01*
X332794Y8660061D01*
X332548Y8659570D01*
X331565Y8658095D01*
X330582Y8656375D01*
X329108Y8654901D01*
X328862Y8654409D01*
X328125Y8653672D01*
X327879Y8653181D01*
X327019Y8652566D01*
X325299Y8650846D01*
X324808Y8650601D01*
X324316Y8650109D01*
X322596Y8649126D01*
X321613Y8648143D01*
X319893Y8647406D01*
X318910Y8647161D01*
X317190Y8645932D01*
X315962Y8645440D01*
X312153Y8644580D01*
X309327Y8643720D01*
X307361Y8643229D01*
X304904Y8642983D01*
X300112Y8642614D01*
X227500Y8642491D01*
X227254Y8642737D01*
X226517Y8642491D01*
X223814Y8642737D01*
X223199Y8643352D01*
X222954Y8645072D01*
X223199Y8666204D01*
X224059Y8667310D01*
X225288Y8667556D01*
X226025Y8667310D01*
X227746Y8667064D01*
X228483Y8667310D01*
X237575Y8667064D01*
X237820Y8666819D01*
X238926Y8667433D01*
X238680Y8668662D01*
X237943Y8669399D01*
X237698Y8669890D01*
X236837Y8670750D01*
X236346Y8670996D01*
X235117Y8671733D01*
X234994Y8671856D01*
X233643Y8673207D01*
X233151Y8673453D01*
X229834Y8676771D01*
X229588Y8677262D01*
X227868Y8678982D01*
X226885Y8680702D01*
X225903Y8681685D01*
X225411Y8682914D01*
X225165Y8683897D01*
X224182Y8685617D01*
X223691Y8686108D01*
X223199Y8687337D01*
X222954Y8688320D01*
X222585Y8690163D01*
X222339Y8691146D01*
X221479Y8693234D01*
X221111Y8696306D01*
X220865Y8697289D01*
X220742Y8707241D01*
X220988Y8707978D01*
X221356Y8710804D01*
X222462Y8714367D01*
X222708Y8715350D01*
X223077Y8717684D01*
X223568Y8718913D01*
X224182Y8719527D01*
X224428Y8720019D01*
X225165Y8721739D01*
X226394Y8723950D01*
X227377Y8724933D01*
X228606Y8727145D01*
X228974Y8727513D01*
X229466Y8727759D01*
X230080Y8728373D01*
X230326Y8728865D01*
X231431Y8729971D01*
X231923Y8730216D01*
X233274Y8731322D01*
X233889Y8731936D01*
X235117Y8732428D01*
X236837Y8733411D01*
X237820Y8734394D01*
X239172Y8734762D01*
X240155Y8735008D01*
X242120Y8735745D01*
X244209Y8736605D01*
X245929Y8736851D01*
X248387Y8737097D01*
X250107Y8737342D01*
X262393Y8737097D01*
D02*
G37*
G36*
X226006Y8611530D02*
X334495Y8611653D01*
X335355Y8611284D01*
X335724Y8610916D01*
X335969Y8609196D01*
X336092Y8587940D01*
X335846Y8586712D01*
X335109Y8585974D01*
X333389Y8585729D01*
X332652Y8585974D01*
X319751Y8586097D01*
X318523Y8585852D01*
X318031Y8585360D01*
X318277Y8584377D01*
X318646Y8584008D01*
X319137Y8583763D01*
X321349Y8582043D01*
X323560Y8580814D01*
X323929Y8580445D01*
X324174Y8579954D01*
X325034Y8579094D01*
X326263Y8578357D01*
X326632Y8577988D01*
X326877Y8577497D01*
X328598Y8575777D01*
X328843Y8575285D01*
X329335Y8574794D01*
X329580Y8574302D01*
X330441Y8573688D01*
X330809Y8573319D01*
X332283Y8570616D01*
X333021Y8569879D01*
X333266Y8569388D01*
X333758Y8568159D01*
X334372Y8566562D01*
X335355Y8565088D01*
X335724Y8563982D01*
X336215Y8562016D01*
X336584Y8560419D01*
X336829Y8559436D01*
X337321Y8558207D01*
X337935Y8556610D01*
X338181Y8552924D01*
X338427Y8552187D01*
X338181Y8542849D01*
X337935Y8542112D01*
X337689Y8539163D01*
X336461Y8536460D01*
X336215Y8534740D01*
X335724Y8532774D01*
X334986Y8531546D01*
X334004Y8530071D01*
X333143Y8527737D01*
X331792Y8526385D01*
X331546Y8525894D01*
X330441Y8524543D01*
X326017Y8520119D01*
X325526Y8519873D01*
X324420Y8519013D01*
X324174Y8518522D01*
X323806Y8518153D01*
X322577Y8517662D01*
X321594Y8517416D01*
X319137Y8515696D01*
X318523Y8515573D01*
X318400Y8515451D01*
X316925Y8515205D01*
X315205Y8514222D01*
X313485Y8513485D01*
X312502Y8513239D01*
X308448Y8512625D01*
X307219Y8512379D01*
X305253Y8511642D01*
X303902Y8511273D01*
X300462Y8511027D01*
X299725Y8510782D01*
X223549Y8511027D01*
X223180Y8511396D01*
X222935Y8512379D01*
X223057Y8515205D01*
X222935Y8533757D01*
X223180Y8534494D01*
X223426Y8535477D01*
X224040Y8536092D01*
X227358Y8535969D01*
X288175Y8536092D01*
X288913Y8535846D01*
X291001Y8536215D01*
X291984Y8536460D01*
X297144Y8536706D01*
X299356Y8536952D01*
X300585Y8537197D01*
X301813Y8537689D01*
X303165Y8538303D01*
X304885Y8538795D01*
X306482Y8539409D01*
X307342Y8540023D01*
X307834Y8540515D01*
X311028Y8542235D01*
X314591Y8545798D01*
X314837Y8546289D01*
X315820Y8548009D01*
X317048Y8549729D01*
X317294Y8551449D01*
X317663Y8553293D01*
X317908Y8554275D01*
X318031Y8556364D01*
X317785Y8557101D01*
X317540Y8565210D01*
X317294Y8565948D01*
X316925Y8568282D01*
X316311Y8569142D01*
X315820Y8569633D01*
X315574Y8570125D01*
X315082Y8571353D01*
X314100Y8573074D01*
X313362Y8573811D01*
X313117Y8574302D01*
X312625Y8574794D01*
X311765Y8576391D01*
X311274Y8576637D01*
X309062Y8578848D01*
X307834Y8579585D01*
X306851Y8580568D01*
X306359Y8580814D01*
X304639Y8581551D01*
X302919Y8582534D01*
X302182Y8583271D01*
X300462Y8583763D01*
X298496Y8584008D01*
X296284Y8584991D01*
X293581Y8585729D01*
X292598Y8585974D01*
X224409Y8585852D01*
X223426Y8586343D01*
X222935Y8587572D01*
X223180Y8610424D01*
X224040Y8611530D01*
X225269Y8611776D01*
X226006Y8611530D01*
D02*
G37*
G36*
X247900Y9001499D02*
X224679Y9001376D01*
X223696Y9001622D01*
X223204Y9002114D01*
X222959Y9003097D01*
X223081Y9005923D01*
X222959Y9022755D01*
X223204Y9023000D01*
X222959Y9023738D01*
X223204Y9026687D01*
X224556Y9027301D01*
X228119Y9027178D01*
X330710Y9027301D01*
X331447Y9027055D01*
X334642Y9027301D01*
X335870Y9026564D01*
X336239Y9025212D01*
X335993Y9022755D01*
X336116Y9002728D01*
X335625Y9001745D01*
X333905Y9001254D01*
X332922Y9001499D01*
X248146D01*
X247900D01*
D02*
G37*
G36*
X268300Y9085538D02*
X224192Y9085415D01*
X223209Y9086398D01*
X222963Y9088856D01*
X223209Y9109742D01*
X223700Y9110234D01*
X223823Y9110602D01*
X224806Y9110848D01*
X229475Y9110602D01*
X335015Y9110725D01*
X335752Y9109988D01*
X335998Y9109005D01*
X335752Y9086153D01*
X334892Y9085292D01*
X328749Y9085538D01*
X319043Y9085415D01*
X315725Y9085784D01*
X314742Y9085538D01*
X314619Y9084924D01*
X314988Y9084555D01*
X317077Y9083449D01*
X317322Y9082958D01*
X318428Y9081852D01*
X321254Y9081238D01*
X322114Y9080624D01*
X322851Y9079886D01*
X323343Y9079641D01*
X326046Y9078166D01*
X327029Y9077184D01*
X327520Y9076938D01*
X329117Y9075832D01*
X329363Y9075340D01*
X330223Y9074480D01*
X330715Y9074235D01*
X331083Y9073866D01*
X331329Y9073375D01*
X332435Y9072023D01*
X333295Y9071163D01*
X334769Y9068460D01*
X335261Y9067969D01*
X335506Y9067477D01*
X335998Y9066249D01*
X337103Y9063177D01*
X337472Y9062808D01*
X337964Y9061088D01*
X338209Y9060105D01*
X338455Y9056911D01*
X338209Y9050522D01*
X337718Y9049293D01*
X335998Y9046099D01*
X335383Y9045485D01*
X334401Y9045239D01*
X330838Y9045362D01*
X317445Y9045239D01*
X316708Y9045485D01*
X315971Y9045239D01*
X312531Y9045485D01*
X312162Y9045853D01*
X312408Y9047819D01*
X313637Y9050031D01*
X314619Y9052242D01*
X314865Y9053962D01*
X315111Y9059368D01*
X314742Y9063668D01*
X314497Y9064897D01*
X314005Y9066126D01*
X313637Y9066494D01*
X313391Y9066986D01*
X312654Y9068706D01*
X312039Y9070303D01*
X311671Y9070672D01*
X311425Y9071163D01*
X310442Y9072146D01*
X310196Y9072637D01*
X309091Y9073989D01*
X307739Y9075095D01*
X307493Y9075586D01*
X306388Y9076692D01*
X305159Y9077429D01*
X304176Y9078412D01*
X303685Y9078658D01*
X300490Y9080378D01*
X299753Y9081115D01*
X297296Y9081852D01*
X295698Y9082466D01*
X293118Y9083572D01*
X289678Y9084064D01*
X287712Y9084555D01*
X284641Y9084924D01*
X283535Y9085292D01*
X282552Y9085538D01*
X279481Y9085415D01*
X268546Y9085538D01*
X268300D01*
D02*
G37*
G36*
X387600Y9020543D02*
X388091Y9018823D01*
X388337Y9015629D01*
X388091Y9008994D01*
X387846Y9008257D01*
X386863Y9006537D01*
X386371Y9006045D01*
X385143Y9003834D01*
X383300Y9001991D01*
X382808Y9001745D01*
X381088Y9000762D01*
X379368Y8999534D01*
X377402Y8999042D01*
X370031Y8999288D01*
X368310Y9000271D01*
X366836Y9001254D01*
X365116Y9002237D01*
X364747Y9002605D01*
X364502Y9003097D01*
X362536Y9005063D01*
X361553Y9007520D01*
X360079Y9010714D01*
X359833Y9012434D01*
X360079Y9017840D01*
X361799Y9021526D01*
X363273Y9024229D01*
X364993Y9025949D01*
X365239Y9026441D01*
X366345Y9027055D01*
X368065Y9027792D01*
X370276Y9028775D01*
X371505Y9029267D01*
X373225Y9029512D01*
X376911Y9029267D01*
X378139Y9028775D01*
X379122Y9028529D01*
X381825Y9027301D01*
X383054Y9026564D01*
X383423Y9026195D01*
X383669Y9025704D01*
X384283Y9025089D01*
X384774Y9024844D01*
X385634Y9023983D01*
X386249Y9022386D01*
X386617Y9022018D01*
X386863Y9021526D01*
X387354Y9021035D01*
X387477Y9020666D01*
X387600Y9020543D01*
D02*
G37*
G36*
X268100Y9142547D02*
X226695Y9142670D01*
X224361Y9142547D01*
X223255Y9143407D01*
X223009Y9145127D01*
X223255Y9167243D01*
X223869Y9168103D01*
X224852Y9168348D01*
X229521Y9168103D01*
X290093Y9168226D01*
X292427Y9168103D01*
X293164Y9168348D01*
X298939Y9168963D01*
X300413Y9169208D01*
X301396Y9169454D01*
X302256Y9169823D01*
X303485Y9170560D01*
X305205Y9171051D01*
X306802Y9171420D01*
X307662Y9172034D01*
X308399Y9172771D01*
X311594Y9174491D01*
X312208Y9175106D01*
X312454Y9175597D01*
X313068Y9176212D01*
X313560Y9176457D01*
X314420Y9177317D01*
X314665Y9177809D01*
X315894Y9179775D01*
X317368Y9182969D01*
X317737Y9185303D01*
X317983Y9186532D01*
X318106Y9188621D01*
X317860Y9189358D01*
X317983Y9193412D01*
X317737Y9195378D01*
X317245Y9198081D01*
X317000Y9199064D01*
X315771Y9201030D01*
X314297Y9203979D01*
X313191Y9205084D01*
X312945Y9205576D01*
X311348Y9207173D01*
X310857Y9207419D01*
X310242Y9208279D01*
X309137Y9209385D01*
X308645Y9209631D01*
X307416Y9210859D01*
X305205Y9212088D01*
X304468Y9212825D01*
X303976Y9213071D01*
X302748Y9213562D01*
X301765Y9213808D01*
X300168Y9214422D01*
X298325Y9215528D01*
X296727Y9215896D01*
X294762Y9216142D01*
X293533Y9216388D01*
X292550Y9216634D01*
X290461Y9217248D01*
X289478Y9217494D01*
X224729Y9217371D01*
X223869Y9217740D01*
X223501Y9218108D01*
X223009Y9219828D01*
X223255Y9241698D01*
X224115Y9242804D01*
X225098Y9243049D01*
X227555Y9242804D01*
X389121Y9242927D01*
X389489Y9242558D01*
X389858Y9242435D01*
X390349Y9240715D01*
X390104Y9218354D01*
X389244Y9217494D01*
X388261Y9217248D01*
X387278Y9217494D01*
X318597Y9217617D01*
X318351Y9216879D01*
X318720Y9216265D01*
X319089Y9216142D01*
X319334Y9215651D01*
X319826Y9215159D01*
X320071Y9214668D01*
X320932Y9213808D01*
X322652Y9212825D01*
X323143Y9212334D01*
X323635Y9212088D01*
X329409Y9206313D01*
X329655Y9205822D01*
X331129Y9204347D01*
X332358Y9202136D01*
X333341Y9201153D01*
X334447Y9198081D01*
X334815Y9197713D01*
X335061Y9197221D01*
X336044Y9195010D01*
X336412Y9192675D01*
X337395Y9189972D01*
X337764Y9188867D01*
X338009Y9185918D01*
X338255Y9185181D01*
X338501Y9184198D01*
X338255Y9173386D01*
X338009Y9172649D01*
X337764Y9171666D01*
X337272Y9169946D01*
X336535Y9166997D01*
X335921Y9164417D01*
X335552Y9163557D01*
X334324Y9161837D01*
X333955Y9160485D01*
X333218Y9159011D01*
X332358Y9158151D01*
X332112Y9157659D01*
X331129Y9155939D01*
X330761Y9155325D01*
X330269Y9155079D01*
X327566Y9152376D01*
X327075Y9152130D01*
X325355Y9150410D01*
X324126Y9149919D01*
X322897Y9149182D01*
X321915Y9148199D01*
X320194Y9147707D01*
X318228Y9146970D01*
X316508Y9145741D01*
X314911Y9145373D01*
X311963Y9144881D01*
X310980Y9144636D01*
X309751Y9144144D01*
X308768Y9143898D01*
X307294Y9143653D01*
X305328Y9143161D01*
X300905Y9142915D01*
X298447Y9142670D01*
X268346Y9142547D01*
X268100D01*
D02*
G37*
G36*
X242300Y9369108D02*
X246477Y9373285D01*
X246969Y9373531D01*
X247460Y9374022D01*
X248689Y9374759D01*
X249917Y9375988D01*
X252129Y9377217D01*
X252866Y9377954D01*
X253358Y9378199D01*
X255569Y9379428D01*
X257289Y9380657D01*
X259624Y9381517D01*
X261590Y9382746D01*
X263187Y9383360D01*
X265521Y9384220D01*
X268347Y9385571D01*
X270436Y9385940D01*
X271787Y9386309D01*
X273999Y9387291D01*
X275719Y9387783D01*
X276702Y9388029D01*
X279896Y9388274D01*
X282476Y9388889D01*
X283705Y9389134D01*
X285917Y9389380D01*
X288005Y9389994D01*
X293657Y9390240D01*
X294394Y9390486D01*
X305698Y9390240D01*
X306435Y9389994D01*
X311841Y9389749D01*
X313069Y9389257D01*
X314052Y9389011D01*
X315773Y9388766D01*
X318844Y9388397D01*
X322038Y9387906D01*
X323021Y9387660D01*
X324987Y9386923D01*
X327813Y9386063D01*
X329410Y9385694D01*
X330885Y9385449D01*
X332113Y9384957D01*
X332482Y9384589D01*
X332973Y9384343D01*
X334694Y9383606D01*
X336905Y9383114D01*
X338134Y9382377D01*
X338625Y9381885D01*
X340345Y9381148D01*
X341697Y9380780D01*
X344277Y9378937D01*
X345874Y9378322D01*
X346734Y9377462D01*
X347226Y9377217D01*
X347717Y9376725D01*
X348700Y9376479D01*
X350052Y9375374D01*
X350912Y9374514D01*
X352632Y9373531D01*
X354352Y9371811D01*
X356072Y9370828D01*
X364058Y9362842D01*
X365041Y9361121D01*
X366515Y9359647D01*
X366761Y9359156D01*
X367990Y9357436D01*
X368727Y9356944D01*
X370447Y9353750D01*
X371184Y9353013D01*
X372658Y9350309D01*
X373641Y9348835D01*
X374256Y9347238D01*
X375239Y9345764D01*
X376099Y9343675D01*
X376590Y9341955D01*
X377082Y9340726D01*
X377327Y9340235D01*
X378310Y9338760D01*
X378802Y9336794D01*
X379416Y9334214D01*
X379907Y9332986D01*
X380767Y9330160D01*
X381259Y9325982D01*
X381505Y9325000D01*
X381873Y9323402D01*
X382487Y9321314D01*
X382733Y9319594D01*
X382979Y9315416D01*
X383225Y9314679D01*
X382979Y9297969D01*
X382733Y9297232D01*
X382487Y9292072D01*
X381996Y9290843D01*
X381505Y9287895D01*
X381136Y9284823D01*
X380645Y9281629D01*
X379170Y9277697D01*
X378925Y9276714D01*
X378433Y9274257D01*
X378187Y9273274D01*
X376959Y9271308D01*
X375976Y9270325D01*
X374993Y9270080D01*
X373887Y9269957D01*
X352509Y9270202D01*
X351772Y9270694D01*
X351649Y9271308D01*
X352140Y9272537D01*
X353983Y9275854D01*
X354475Y9276345D01*
X354966Y9278066D01*
X355212Y9279048D01*
X356932Y9282735D01*
X357669Y9285683D01*
X358038Y9287280D01*
X358898Y9290106D01*
X359389Y9291826D01*
X359635Y9293547D01*
X359881Y9294529D01*
X360126Y9300427D01*
X360372Y9301164D01*
X360495Y9308659D01*
X360249Y9309887D01*
X360003Y9310870D01*
X359758Y9315539D01*
X359512Y9317996D01*
X359143Y9320085D01*
X358406Y9321805D01*
X357915Y9323525D01*
X357423Y9325491D01*
X357055Y9327580D01*
X356195Y9328931D01*
X355212Y9331143D01*
X354597Y9332740D01*
X353246Y9334583D01*
X352386Y9336917D01*
X351034Y9338269D01*
X350789Y9338760D01*
X349806Y9340480D01*
X348331Y9341955D01*
X348086Y9342446D01*
X347226Y9343552D01*
X346734Y9343798D01*
X345874Y9344658D01*
X345628Y9345149D01*
X344768Y9346009D01*
X344277Y9346255D01*
X343663Y9346869D01*
X343417Y9347361D01*
X342311Y9348466D01*
X341820Y9348712D01*
X341205Y9349326D01*
X340960Y9349818D01*
X339485Y9350801D01*
X338625Y9351415D01*
X337397Y9352644D01*
X335676Y9353627D01*
X334939Y9354364D01*
X334448Y9354610D01*
X332728Y9355347D01*
X331745Y9355593D01*
X331253Y9356084D01*
X330762Y9356330D01*
X330270Y9356821D01*
X328550Y9357558D01*
X327199Y9357927D01*
X325970Y9358418D01*
X323390Y9359524D01*
X321424Y9360016D01*
X318844Y9360630D01*
X316756Y9361244D01*
X314298Y9361982D01*
X304715Y9362719D01*
X303978Y9362965D01*
X295869Y9362719D01*
X295131Y9362473D01*
X288251Y9362227D01*
X287514Y9361982D01*
X285794Y9361736D01*
X284811Y9361490D01*
X283459Y9361121D01*
X282231Y9360630D01*
X280879Y9360261D01*
X277071Y9359401D01*
X273999Y9357804D01*
X271419Y9357190D01*
X270067Y9355838D01*
X269576Y9355593D01*
X268347Y9355101D01*
X266627Y9354118D01*
X266136Y9353627D01*
X265644Y9353381D01*
X263924Y9352398D01*
X262204Y9350678D01*
X261712Y9350432D01*
X260361Y9349326D01*
X259009Y9347975D01*
X258641Y9347852D01*
X258395Y9347361D01*
X255938Y9344904D01*
X255692Y9344412D01*
X253726Y9342446D01*
X252743Y9340726D01*
X251760Y9339743D01*
X251023Y9338023D01*
X250040Y9336303D01*
X249303Y9335566D01*
X248443Y9333232D01*
X247952Y9332003D01*
X246846Y9330160D01*
X246477Y9328562D01*
X246232Y9327334D01*
X245986Y9326351D01*
X245495Y9325122D01*
X244880Y9323525D01*
X244635Y9321805D01*
X244389Y9320822D01*
X244143Y9318365D01*
X243897Y9314679D01*
X243652Y9313942D01*
X243406Y9312959D01*
X243652Y9311239D01*
X243529Y9302516D01*
X243774Y9301287D01*
X244020Y9300304D01*
X244266Y9295881D01*
X244512Y9293178D01*
X244757Y9291704D01*
X245740Y9289246D01*
X246109Y9287895D01*
X246355Y9286912D01*
X246600Y9285192D01*
X246969Y9283595D01*
X247706Y9281629D01*
X248812Y9279048D01*
X249057Y9278066D01*
X252006Y9272414D01*
X252498Y9271923D01*
X252621Y9271062D01*
X252129Y9270325D01*
X251146Y9270080D01*
X232102Y9269957D01*
X230628Y9270202D01*
X229768Y9270817D01*
X229154Y9271431D01*
X228908Y9271923D01*
X227925Y9274134D01*
X226819Y9277205D01*
X225468Y9280277D01*
X224853Y9283840D01*
X224362Y9285069D01*
X223748Y9286420D01*
X223256Y9288140D01*
X223010Y9291335D01*
X222765Y9292318D01*
X222396Y9294652D01*
X222150Y9297355D01*
X221659Y9298584D01*
X221290Y9299935D01*
X221045Y9305341D01*
X220799Y9306079D01*
X221045Y9322788D01*
X221290Y9323525D01*
X221536Y9327702D01*
X221782Y9328440D01*
X222150Y9330283D01*
X222642Y9332249D01*
X222888Y9333723D01*
X223133Y9335934D01*
X223379Y9337163D01*
X223625Y9338146D01*
X224116Y9339375D01*
X224731Y9340726D01*
X225222Y9341955D01*
X225591Y9344289D01*
X226082Y9345518D01*
X226696Y9346378D01*
X227679Y9348589D01*
X228048Y9349941D01*
X228908Y9351292D01*
X229399Y9351784D01*
X229891Y9353013D01*
X230505Y9354610D01*
X231119Y9355470D01*
X232102Y9356453D01*
X232717Y9358050D01*
X233577Y9359401D01*
X234560Y9360384D01*
X235543Y9362104D01*
X235911Y9362473D01*
X236403Y9362719D01*
X237017Y9363579D01*
X238123Y9364930D01*
X242177Y9368985D01*
X242300Y9369108D01*
D02*
G37*
%LPC*%
G36*
X279225Y7388422D02*
X278980Y7391616D01*
X278734Y7392353D01*
X278488Y7394565D01*
X277751Y7396285D01*
X277505Y7399971D01*
X277260Y7400708D01*
X276891Y7405991D01*
X276645Y7407220D01*
X276399Y7409923D01*
X276154Y7410906D01*
X275539Y7412257D01*
X275294Y7413977D01*
X275048Y7416680D01*
X274802Y7417417D01*
X274434Y7419998D01*
X273819Y7421595D01*
X272836Y7423069D01*
X272468Y7424421D01*
X272222Y7425403D01*
X271362Y7426755D01*
X270871Y7427247D01*
X270625Y7427738D01*
X270133Y7428229D01*
X269888Y7428721D01*
X269028Y7429827D01*
X268536Y7430073D01*
X266202Y7431670D01*
X265833Y7432038D01*
X264604Y7432530D01*
X262884Y7432775D01*
X261902Y7433021D01*
X258707Y7433267D01*
X252072Y7433021D01*
X251335Y7432775D01*
X249984Y7432407D01*
X248632Y7431547D01*
X246912Y7430318D01*
X246421Y7430073D01*
X243595Y7427247D01*
X243349Y7426755D01*
X242612Y7426018D01*
X242366Y7425526D01*
X241629Y7423806D01*
X241015Y7422209D01*
X240646Y7420858D01*
X239909Y7418400D01*
X239663Y7417417D01*
X239909Y7409554D01*
X240155Y7408817D01*
X240646Y7407588D01*
X241383Y7405868D01*
X241629Y7404885D01*
X241998Y7403288D01*
X243226Y7401322D01*
X244823Y7398497D01*
X246789Y7396531D01*
X247035Y7396039D01*
X247895Y7395179D01*
X248387Y7394933D01*
X250598Y7392722D01*
X251827Y7392230D01*
X252318Y7391985D01*
X253670Y7390879D01*
X255021Y7390265D01*
X257724Y7389282D01*
X259444Y7388299D01*
X261164Y7388053D01*
X262147Y7387807D01*
X263867D01*
X264113D01*
X265833Y7387562D01*
X266816Y7387316D01*
X278365Y7387562D01*
X279225Y7388422D01*
D02*
G37*
G36*
X319771Y7841297D02*
Y7841543D01*
X319525Y7848178D01*
X319279Y7848915D01*
X319033Y7850144D01*
X317559Y7853338D01*
X317313Y7854321D01*
X316084Y7856532D01*
X315101Y7857515D01*
X314119Y7859235D01*
X313750Y7859604D01*
X313259Y7859850D01*
X312890Y7860218D01*
X312644Y7860710D01*
X311047Y7862307D01*
X310556Y7862553D01*
X310187Y7862921D01*
X309941Y7863413D01*
X309327Y7864027D01*
X307607Y7865010D01*
X306624Y7865993D01*
X305395Y7866484D01*
X303061Y7867344D01*
X302447Y7867959D01*
X301955Y7868204D01*
X300235Y7868942D01*
X298146Y7869310D01*
X297163Y7869556D01*
X295566Y7870170D01*
X293355Y7871153D01*
X292126Y7870908D01*
X291512Y7870293D01*
X291266Y7868573D01*
X291512Y7819182D01*
X292372Y7818076D01*
X293355Y7817830D01*
X295320Y7818076D01*
X296549Y7818568D01*
X298269Y7818813D01*
X299252Y7819059D01*
X301341Y7819428D01*
X304044Y7819919D01*
X304904Y7820288D01*
X308590Y7822008D01*
X309081Y7822253D01*
X310556Y7823728D01*
X312276Y7824711D01*
X314856Y7827291D01*
X315839Y7829011D01*
X317067Y7830240D01*
X317559Y7831960D01*
X318050Y7833188D01*
X319033Y7834663D01*
X319279Y7836383D01*
X319648Y7838471D01*
X319771Y7841297D01*
D02*
G37*
G36*
X318102Y7975464D02*
X317856Y7976202D01*
X317979Y7980993D01*
X317733Y7981976D01*
X317488Y7983205D01*
X317242Y7985171D01*
X316996Y7986399D01*
X315153Y7989962D01*
X314662Y7991191D01*
X314416Y7991683D01*
X313310Y7993034D01*
X312327Y7994508D01*
X311099Y7995983D01*
X308641Y7998440D01*
X308150Y7998686D01*
X305938Y8000406D01*
X304710Y8001143D01*
X303481Y8001634D01*
X302989Y8001880D01*
X302252Y8002617D01*
X301761Y8002863D01*
X300041Y8003600D01*
X298689Y8003969D01*
X297461Y8004460D01*
X296355Y8005075D01*
X294635Y8005566D01*
X293652Y8005812D01*
X290580Y8006180D01*
X288369Y8006426D01*
X287140Y8006672D01*
X285051Y8007286D01*
X281120Y8007532D01*
X279400Y8007286D01*
X278663Y8007532D01*
X273625Y8007409D01*
X271536Y8007532D01*
X269079Y8006549D01*
X267359Y8006303D01*
X264533Y8005935D01*
X262199Y8005566D01*
X260970Y8005075D01*
X260479Y8004829D01*
X258267Y8003846D01*
X255933Y8002986D01*
X254827Y8001880D01*
X253598Y8001389D01*
X251878Y8000406D01*
X250158Y7998686D01*
X249667Y7998440D01*
X248807Y7997580D01*
X248561Y7997088D01*
X247947Y7996474D01*
X247455Y7996228D01*
X246595Y7995368D01*
X246350Y7994877D01*
X245858Y7994386D01*
X245735Y7994017D01*
X245244Y7993771D01*
X244629Y7993157D01*
X243646Y7990700D01*
X242172Y7987505D01*
X241926Y7986522D01*
X241558Y7984434D01*
X241312Y7982959D01*
X241189Y7973253D01*
X241435Y7972516D01*
X241803Y7969936D01*
X242049Y7968461D01*
X242541Y7967232D01*
X243155Y7966372D01*
X243892Y7965144D01*
X244752Y7962810D01*
X245858Y7961704D01*
X246104Y7961212D01*
X246595Y7960721D01*
X246841Y7960229D01*
X247701Y7959124D01*
X248192Y7958878D01*
X249298Y7957772D01*
X249544Y7957281D01*
X249912Y7956912D01*
X250404Y7956666D01*
X250895Y7956175D01*
X251387Y7955929D01*
X252738Y7954823D01*
X253107Y7954455D01*
X254827Y7953718D01*
X256056Y7952980D01*
X256547Y7952489D01*
X257039Y7952243D01*
X258759Y7951506D01*
X259742Y7951260D01*
X261339Y7950646D01*
X263919Y7949540D01*
X268096Y7949049D01*
X270922Y7948680D01*
X292669Y7948557D01*
X292792Y7948680D01*
X294020Y7948926D01*
X297338Y7949294D01*
X299549Y7949786D01*
X300041Y7950277D01*
X300532Y7950523D01*
X301761Y7951260D01*
X303358Y7951629D01*
X305078Y7952612D01*
X305324Y7953103D01*
X307167Y7954209D01*
X307659Y7954455D01*
X308519Y7955315D01*
X308641Y7955683D01*
X309133Y7955929D01*
X310730Y7957526D01*
X310976Y7958018D01*
X311836Y7958632D01*
X312696Y7959492D01*
X312941Y7959984D01*
X314047Y7961335D01*
X314662Y7961950D01*
X315522Y7964284D01*
X315890Y7965144D01*
X316873Y7966618D01*
X317365Y7968338D01*
X317733Y7971164D01*
X317979Y7975342D01*
X318102Y7975464D01*
D02*
G37*
G36*
X319771Y8102997D02*
X319525Y8103734D01*
X319279Y8106683D01*
X317559Y8110369D01*
X317313Y8111352D01*
X316699Y8112949D01*
X315347Y8114301D01*
X314364Y8116021D01*
X312399Y8117986D01*
X312153Y8118478D01*
X311539Y8119092D01*
X311047Y8119338D01*
X309081Y8121304D01*
X307361Y8122287D01*
X306378Y8123270D01*
X305150Y8123761D01*
X303798Y8124130D01*
X302447Y8124990D01*
X301955Y8125481D01*
X300235Y8125973D01*
X299252Y8126218D01*
X297409Y8126587D01*
X295443Y8127324D01*
X295075Y8127693D01*
X293846Y8128184D01*
X291880Y8127938D01*
X291266Y8126587D01*
Y8082847D01*
X291512Y8076213D01*
X292372Y8075107D01*
X294092Y8074861D01*
X294829Y8075107D01*
X297286Y8075844D01*
X300849Y8076458D01*
X303798Y8076950D01*
X305027Y8077441D01*
X306870Y8078547D01*
X307853Y8078793D01*
X309573Y8079776D01*
X310801Y8081004D01*
X312521Y8081987D01*
X312890Y8082356D01*
X313136Y8082847D01*
X313750Y8083462D01*
X314241Y8083707D01*
X314610Y8084076D01*
X314856Y8084568D01*
X316084Y8086288D01*
X317067Y8087270D01*
X317436Y8088622D01*
X318173Y8090588D01*
X318542Y8090956D01*
X319033Y8092185D01*
X319279Y8093168D01*
X319648Y8095748D01*
X319771Y8102997D01*
D02*
G37*
G36*
X259936Y8713261D02*
X252072Y8713015D01*
X250107Y8711787D01*
X249124Y8711541D01*
X248387Y8711295D01*
X247158Y8710558D01*
X245192Y8708592D01*
X244701Y8708347D01*
X244332Y8707978D01*
X244086Y8707487D01*
X242980Y8706135D01*
X242366Y8705521D01*
X241875Y8704292D01*
X241629Y8703309D01*
X241015Y8701712D01*
X240400Y8700360D01*
X239909Y8698395D01*
Y8697412D01*
X239663Y8696675D01*
X239909Y8689794D01*
X240400Y8688566D01*
X240769Y8686968D01*
X241383Y8685371D01*
X241875Y8683651D01*
X242243Y8682299D01*
X242612Y8681931D01*
X242858Y8681439D01*
X243349Y8680948D01*
X243595Y8680457D01*
X244823Y8678245D01*
X245684Y8677631D01*
X246052Y8677262D01*
X246298Y8676771D01*
X247895Y8675173D01*
X248264Y8675050D01*
X248510Y8674559D01*
X249615Y8673453D01*
X250107Y8673207D01*
X251458Y8672102D01*
X252072Y8671487D01*
X253792Y8670750D01*
X255513Y8669767D01*
X257724Y8668785D01*
X260550Y8668170D01*
X262147Y8667556D01*
X264482Y8667187D01*
X265465Y8666942D01*
X266939Y8666696D01*
X277628Y8666573D01*
X278857Y8667310D01*
X279225Y8668416D01*
X278980Y8671610D01*
X278734Y8672347D01*
X278488Y8673330D01*
X278243Y8675050D01*
X277997Y8676033D01*
X277505Y8678982D01*
X277260Y8680702D01*
X277014Y8684880D01*
X276768Y8685617D01*
X276522Y8688320D01*
X276277Y8689057D01*
X276031Y8690777D01*
X275785Y8691760D01*
X275417Y8693849D01*
X275171Y8695077D01*
X274311Y8700360D01*
X272836Y8702818D01*
X272591Y8703800D01*
X272222Y8705398D01*
X270993Y8706872D01*
X270379Y8707487D01*
X270133Y8707978D01*
X269273Y8709084D01*
X268782Y8709330D01*
X267308Y8710804D01*
X266816Y8711050D01*
X265587Y8711541D01*
X262393Y8713015D01*
X259936Y8713261D01*
D02*
G37*
%LPD*%
D43*
X525000Y5200000D02*
D03*
X675000D02*
D03*
X395000Y4600000D02*
D03*
X245000D02*
D03*
Y4300000D02*
D03*
X395000D02*
D03*
Y4000000D02*
D03*
X245000D02*
D03*
X395000Y3400000D02*
D03*
X245000D02*
D03*
Y3700000D02*
D03*
X395000D02*
D03*
X3634000Y8000000D02*
D03*
X3484000D02*
D03*
X3634000Y7850000D02*
D03*
X3484000D02*
D03*
X3830000Y7440000D02*
D03*
X3980000D02*
D03*
X2425000Y7850000D02*
D03*
X2575000D02*
D03*
X525000Y4600000D02*
D03*
X675000D02*
D03*
X525000Y4000000D02*
D03*
X675000D02*
D03*
X525000Y4900000D02*
D03*
X675000D02*
D03*
X1690000Y6300000D02*
D03*
X1840000D02*
D03*
X3000000Y7845000D02*
D03*
X2850000D02*
D03*
X2425000Y7995000D02*
D03*
X2575000D02*
D03*
X4700000Y7787500D02*
D03*
X4550000D02*
D03*
X5138000Y7300000D02*
D03*
X5288000D02*
D03*
X5138000Y7150000D02*
D03*
X5288000D02*
D03*
X4981000D02*
D03*
X4831000D02*
D03*
X1217500Y5775000D02*
D03*
X1367500D02*
D03*
X1217500Y6225000D02*
D03*
X1367500D02*
D03*
X2737500Y5150000D02*
D03*
X2587500D02*
D03*
X3634000Y8300000D02*
D03*
X3484000D02*
D03*
X2425000Y8150000D02*
D03*
X2275000D02*
D03*
X3784000D02*
D03*
X3634000D02*
D03*
X2425000Y8300000D02*
D03*
X2275000D02*
D03*
X3830000Y7590000D02*
D03*
X3980000D02*
D03*
X4831000Y7300000D02*
D03*
X4981000D02*
D03*
X675000Y3400000D02*
D03*
X525000D02*
D03*
X1217500Y5925000D02*
D03*
X1367500D02*
D03*
X1217500Y6075000D02*
D03*
X1367500D02*
D03*
Y5625000D02*
D03*
X1217500D02*
D03*
X1365000Y6375000D02*
D03*
X1215000D02*
D03*
X293000Y7000000D02*
D03*
X443000D02*
D03*
X675000Y3700000D02*
D03*
X525000D02*
D03*
Y4300000D02*
D03*
X675000D02*
D03*
D44*
X300000Y9700000D02*
D03*
X5700000D02*
D03*
X300000Y300000D02*
D03*
X5700000D02*
D03*
X1085000Y9575000D02*
D03*
X4915000D02*
D03*
Y3025000D02*
D03*
X1085000D02*
D03*
D45*
X2619000D02*
D03*
X2873000D02*
D03*
X2365000D02*
D03*
X3889000D02*
D03*
X3127000D02*
D03*
X2111000D02*
D03*
X3635000D02*
D03*
X3381000D02*
D03*
X2752000Y1900000D02*
D03*
X3006000D02*
D03*
X3260000D02*
D03*
X3514000D02*
D03*
X3768000D02*
D03*
X4022000D02*
D03*
X4276000D02*
D03*
X4530000D02*
D03*
X4784000D02*
D03*
X5038000D02*
D03*
X293000Y6750000D02*
D03*
X547000D02*
D03*
D46*
X262250Y6432000D02*
D03*
Y5568000D02*
D03*
D47*
X680250D02*
D03*
Y6432000D02*
D03*
D48*
X630250Y6289000D02*
D03*
Y5711000D02*
D03*
D49*
X4677500Y4800000D02*
D03*
D50*
X3100000Y8100000D02*
D03*
X2900000D02*
D03*
X3100000Y8300000D02*
D03*
X2900000D02*
D03*
D54*
X5250000Y6875000D02*
D03*
X5123000D02*
D03*
X4996000D02*
D03*
X4869000D02*
D03*
X4742000D02*
D03*
X4615000D02*
D03*
X4488000D02*
D03*
X4361000D02*
D03*
X4234000D02*
D03*
X4107000D02*
D03*
X3980000D02*
D03*
X3853000D02*
D03*
X3726000D02*
D03*
X3599000D02*
D03*
Y5125000D02*
D03*
X3726000D02*
D03*
X3853000D02*
D03*
X3980000D02*
D03*
X4107000D02*
D03*
X4234000D02*
D03*
X4361000D02*
D03*
X4488000D02*
D03*
X4615000D02*
D03*
X4742000D02*
D03*
X4869000D02*
D03*
X4996000D02*
D03*
X5123000D02*
D03*
X5250000D02*
D03*
D55*
X3474300Y6698500D02*
D03*
Y6571500D02*
D03*
Y6444500D02*
D03*
Y6317500D02*
D03*
Y6190500D02*
D03*
Y6063500D02*
D03*
Y5936500D02*
D03*
Y5809500D02*
D03*
Y5682500D02*
D03*
Y5555500D02*
D03*
Y5428500D02*
D03*
Y5301500D02*
D03*
D56*
X4820000Y8100000D02*
D03*
Y8250000D02*
D03*
X1040000Y6600000D02*
D03*
Y6750000D02*
D03*
X2130000Y5727700D02*
D03*
Y5577700D02*
D03*
X1980000Y5727700D02*
D03*
Y5577700D02*
D03*
X1190000Y6600000D02*
D03*
Y6750000D02*
D03*
X2587500Y4875000D02*
D03*
Y4725000D02*
D03*
X2737500D02*
D03*
Y4875000D02*
D03*
D57*
X3000000Y8200000D02*
D03*
D58*
X2795000D02*
D03*
Y8150000D02*
D03*
Y8250000D02*
D03*
Y8300000D02*
D03*
Y8100000D02*
D03*
X3205000Y8200000D02*
D03*
Y8250000D02*
D03*
Y8150000D02*
D03*
Y8100000D02*
D03*
Y8300000D02*
D03*
D59*
X3000000Y8405000D02*
D03*
X2950000D02*
D03*
X3050000D02*
D03*
X3100000D02*
D03*
X2900000D02*
D03*
X3000000Y7995000D02*
D03*
X3050000D02*
D03*
X2950000D02*
D03*
X2900000D02*
D03*
X3100000D02*
D03*
D60*
X2949520Y5981700D02*
D03*
Y5918200D02*
D03*
Y5854700D02*
D03*
Y5791200D02*
D03*
Y5727700D02*
D03*
X2375480D02*
D03*
Y5791200D02*
D03*
Y5854700D02*
D03*
Y5918200D02*
D03*
Y5981700D02*
D03*
X2949520Y5410200D02*
D03*
Y5473700D02*
D03*
Y5537200D02*
D03*
Y5600700D02*
D03*
Y5664200D02*
D03*
X2375480D02*
D03*
Y5600700D02*
D03*
Y5537200D02*
D03*
Y5473700D02*
D03*
Y5410200D02*
D03*
D61*
X3035000Y4900000D02*
D03*
X3100000D02*
D03*
X3165000D02*
D03*
X3035000Y4700000D02*
D03*
X3100000D02*
D03*
X3165000D02*
D03*
D62*
X4550000Y7990000D02*
D03*
X4360000D02*
D03*
Y8250000D02*
D03*
X4550000D02*
D03*
X4455000D02*
D03*
D63*
X2455000Y7705000D02*
D03*
X2505000D02*
D03*
X2555000D02*
D03*
X2505000Y7578000D02*
D03*
X2555000D02*
D03*
X2455000D02*
D03*
D64*
X737750Y5680000D02*
D03*
Y6240000D02*
D03*
Y5760000D02*
D03*
Y6320000D02*
D03*
D65*
Y5875000D02*
D03*
Y5925000D02*
D03*
Y5975000D02*
D03*
Y6025000D02*
D03*
Y6075000D02*
D03*
Y6125000D02*
D03*
Y6175000D02*
D03*
Y5825000D02*
D03*
D66*
X5725000Y8500000D02*
D03*
Y8250000D02*
D03*
Y8750000D02*
D03*
D67*
X5175000Y8250000D02*
D03*
Y8750000D02*
D03*
Y8500000D02*
D03*
D68*
X2130000Y5925000D02*
D03*
Y5975000D02*
D03*
Y6025000D02*
D03*
Y6075000D02*
D03*
Y6125000D02*
D03*
X1690000Y5925000D02*
D03*
Y5975000D02*
D03*
Y6025000D02*
D03*
Y6075000D02*
D03*
Y6125000D02*
D03*
D69*
X5625000Y7270000D02*
D03*
X5775000D02*
D03*
X5625000Y7590000D02*
D03*
X5775000D02*
D03*
X5625000Y4410000D02*
D03*
X5775000D02*
D03*
X5625000Y4730000D02*
D03*
X5775000D02*
D03*
X625000Y1140000D02*
D03*
X775000D02*
D03*
X625000Y1460000D02*
D03*
X775000D02*
D03*
X1825000Y1140000D02*
D03*
X1975000D02*
D03*
X1825000Y1460000D02*
D03*
X1975000D02*
D03*
X1225000Y1140000D02*
D03*
X1375000D02*
D03*
X1225000Y1460000D02*
D03*
X1375000D02*
D03*
X1225000Y1740000D02*
D03*
X1375000D02*
D03*
X1225000Y2060000D02*
D03*
X1375000D02*
D03*
X1225000Y540000D02*
D03*
X1375000D02*
D03*
X1225000Y860000D02*
D03*
X1375000D02*
D03*
%TF.MD5,dded904fc7e24d08607b09948c05a0cb*%
M02*
