%TF.GenerationSoftware,Altium Limited,Altium Designer,22.10.1 (41)*%
G04 Layer_Color=255*
%FSLAX45Y45*%
%MOMM*%
%TF.SameCoordinates,E44625A2-F068-4864-A6FA-01B12190F87A*%
%TF.FilePolarity,Positive*%
%TF.FileFunction,Pads,Bot*%
%TF.Part,Single*%
G01*
G75*
%TA.AperFunction,SMDPad,CuDef*%
G04:AMPARAMS|DCode=11|XSize=0.7mm|YSize=0.9mm|CornerRadius=0.0875mm|HoleSize=0mm|Usage=FLASHONLY|Rotation=0.000|XOffset=0mm|YOffset=0mm|HoleType=Round|Shape=RoundedRectangle|*
%AMROUNDEDRECTD11*
21,1,0.70000,0.72500,0,0,0.0*
21,1,0.52500,0.90000,0,0,0.0*
1,1,0.17500,0.26250,-0.36250*
1,1,0.17500,-0.26250,-0.36250*
1,1,0.17500,-0.26250,0.36250*
1,1,0.17500,0.26250,0.36250*
%
%ADD11ROUNDEDRECTD11*%
%TA.AperFunction,ComponentPad*%
%ADD33C,3.50000*%
%ADD34C,1.60000*%
%ADD35O,1.80000X1.00000*%
%ADD36O,2.10000X1.00000*%
%ADD37C,0.65000*%
%TA.AperFunction,SMDPad,CuDef*%
G04:AMPARAMS|DCode=40|XSize=2mm|YSize=4mm|CornerRadius=0.25mm|HoleSize=0mm|Usage=FLASHONLY|Rotation=0.000|XOffset=0mm|YOffset=0mm|HoleType=Round|Shape=RoundedRectangle|*
%AMROUNDEDRECTD40*
21,1,2.00000,3.50000,0,0,0.0*
21,1,1.50000,4.00000,0,0,0.0*
1,1,0.50000,0.75000,-1.75000*
1,1,0.50000,-0.75000,-1.75000*
1,1,0.50000,-0.75000,1.75000*
1,1,0.50000,0.75000,1.75000*
%
%ADD40ROUNDEDRECTD40*%
D11*
X5625000Y4410000D02*
D03*
X5775000D02*
D03*
X5625000Y7590000D02*
D03*
X5775000D02*
D03*
X625000Y1460000D02*
D03*
X775000D02*
D03*
X1825000D02*
D03*
X1975000D02*
D03*
X1225000D02*
D03*
X1375000D02*
D03*
X1225000Y2060000D02*
D03*
X1375000D02*
D03*
X1225000Y860000D02*
D03*
X1375000D02*
D03*
D33*
X300000Y9700000D02*
D03*
X5700000D02*
D03*
X300000Y300000D02*
D03*
X5700000D02*
D03*
X1085000Y9575000D02*
D03*
X4915000D02*
D03*
Y3025000D02*
D03*
X1085000D02*
D03*
D34*
X2619000D02*
D03*
X2873000D02*
D03*
X2365000D02*
D03*
X3889000D02*
D03*
X3127000D02*
D03*
X2111000D02*
D03*
X3635000D02*
D03*
X3381000D02*
D03*
X2752000Y1900000D02*
D03*
X3006000D02*
D03*
X3260000D02*
D03*
X3514000D02*
D03*
X3768000D02*
D03*
X4022000D02*
D03*
X4276000D02*
D03*
X4530000D02*
D03*
X4784000D02*
D03*
X5038000D02*
D03*
X293000Y6750000D02*
D03*
X547000D02*
D03*
D35*
X262250Y6432000D02*
D03*
Y5568000D02*
D03*
D36*
X680250D02*
D03*
Y6432000D02*
D03*
D37*
X630250Y6289000D02*
D03*
Y5711000D02*
D03*
D40*
X2800000Y9300000D02*
D03*
X3200000D02*
D03*
%TF.MD5,7b4438a37e73eab2ae86e50fab6ebe89*%
M02*
