G04*
G04 #@! TF.GenerationSoftware,Altium Limited,Altium Designer,22.10.1 (41)*
G04*
G04 Layer_Color=12632256*
%FSLAX44Y44*%
%MOMM*%
G71*
G04*
G04 #@! TF.SameCoordinates,A44A1546-0101-49FE-9D39-825E196A96A3*
G04*
G04*
G04 #@! TF.FilePolarity,Positive*
G04*
G01*
G75*
%ADD59C,3.5000*%
%ADD60C,1.6000*%
%ADD61O,1.8000X1.0000*%
%ADD62O,2.1000X1.0000*%
%ADD63C,0.6500*%
D59*
X30000Y970000D02*
D03*
X570000D02*
D03*
X30000Y30000D02*
D03*
X570000D02*
D03*
X108500Y957500D02*
D03*
X491500D02*
D03*
Y302500D02*
D03*
X108500D02*
D03*
D60*
X261900D02*
D03*
X287300D02*
D03*
X236500D02*
D03*
X388900D02*
D03*
X312700D02*
D03*
X211100D02*
D03*
X363500D02*
D03*
X338100D02*
D03*
X275200Y190000D02*
D03*
X300600D02*
D03*
X326000D02*
D03*
X351400D02*
D03*
X376800D02*
D03*
X402200D02*
D03*
X427600D02*
D03*
X453000D02*
D03*
X478400D02*
D03*
X503800D02*
D03*
X29300Y675000D02*
D03*
X54700D02*
D03*
D61*
X26225Y643200D02*
D03*
Y556800D02*
D03*
D62*
X68025D02*
D03*
Y643200D02*
D03*
D63*
X63025Y628900D02*
D03*
Y571100D02*
D03*
M02*
