M48
;Layer_Color=9474304
;FILE_FORMAT=4:3
METRIC,TZ
;TYPE=PLATED
T1F00S00C0.250
T2F00S00C0.300
T4F00S00C1.000
T5F00S00C2.000
;TYPE=NON_PLATED
T6F00S00C0.650
%
T01
X13000Y4200
X12250Y8600
X13000Y10200
X7000
X19000
X23650Y28550
Y31950
X25875Y45900
X27375
Y50100
X25875
X24675Y51500
X30350Y51250
X31240Y52000
X32130Y51250
X33400
X31000Y50100
X31650Y45900
X31000Y44750
X34500Y48000
X45745Y47000
Y45800
X46775Y48000
X50595Y48650
X51230Y49650
X52500
X49960
X52500Y52850
X57000Y48500
X57750Y44100
X47840Y20700
Y17300
X18250Y14600
X12250
X13000Y16200
X12250Y20600
X6250Y14600
X8357Y34000
Y35500
Y37000
X1250
Y34000
Y40000
Y43000
Y46000
X3950Y49000
Y52000
X10975Y53175
X12175Y53475
X11975Y52375
X11175Y54275
X9975Y53975
X9175Y56250
X10400Y57600
X8978Y59250
Y60750
X10400Y62400
X9175Y63750
X10400Y66000
X11900
X13100Y67500
X10400Y68700
Y69900
X4430Y71200
X6000Y61750
X5377Y60750
Y59250
X6000Y58250
X15225Y61275
X14850Y63750
X16900Y64200
X18400
X18600Y57277
X17400Y55777
X24955Y54102
X28295Y57277
X30695
Y56007
X36600
X37350Y55055
X36600Y54102
X38760Y57045
X38125Y58095
X40030Y58315
X39395Y59365
X41300Y59585
X40665Y60635
X42570Y60855
X41935Y61905
X43840Y62125
X43205Y63175
X44475Y64450
X43610Y67150
X42340
X44880Y68750
Y70350
X46150
X47110Y71500
Y73000
X47000Y76675
X45500
X44300Y77875
X44550Y81200
X45750
X43350
X48200Y79800
Y77875
X51380Y74200
X52880
X54080Y71500
X57000
X56250Y75900
X52500Y67150
Y65550
Y63950
Y62350
Y60750
Y59150
Y57550
Y55950
Y54350
X49960Y67150
X48690
X47420
X43610Y70350
X37100Y75900
X37840Y78500
Y80000
Y83000
Y84500
X39340
X36340
X33600Y82975
X32050Y84000
X27950
X29000Y86400
X32000Y90300
X33700Y93000
X33975Y80750
X33100Y80000
X32050Y78500
X30000Y77250
Y76050
X28500Y77250
X27950Y80000
X26800Y81150
X22750Y79950
X21550Y81500
Y83000
X22750Y75780
X26747Y73766
X47000Y85000
X48200
X49400
X32000Y95700
T02
X29000Y81000
X31000
Y83000
X29000
T04
X27520Y19000
X30060
X32600
X35140
X37680
X40220
X42760
X45300
X47840
X50380
X38890Y30250
X36350
X33810
X31270
X28730
X26190
X23650
X21110
X5470Y67500
X2930
T05
X3000Y3000
X57000
X49150Y30250
X10850
X49150Y95750
X57000Y97000
X10850Y95750
X3000Y97000
T06
X6302Y57110
Y62890
M30
