M48
;Layer_Color=9474304
;FILE_FORMAT=4:4
METRIC,LZ
;TYPE=PLATED
T1F00S00C0.2500
T2F00S00C0.3000
T4F00S00C1.0000
T5F00S00C2.0000
;TYPE=NON_PLATED
T6F00S00C0.6500
%
T01
X0013Y00042
X001225Y00086
X0013Y00102
X0007
X0019
X002365Y002855
Y003195
X0025875Y00459
X0027375
Y00501
X0025875
X0024675Y00515
X003035Y005125
X003124Y0052
X003213Y005125
X00334
X0031Y00501
X003165Y00459
X0031Y004475
X00345Y0048
X0045745Y0047
Y00458
X0046775Y0048
X0050595Y004865
X005123Y004965
X00525
X004996
X00525Y005285
X0057Y00485
X005775Y00441
X004784Y00207
Y00173
X001825Y00146
X001225
X0013Y00162
X001225Y00206
X000625Y00146
X00083569Y0034
Y00355
Y0037
X000125
Y0034
Y004
Y0043
Y0046
X000395Y0049
Y0052
X0010975Y0053175
X0012175Y0053475
X0011975Y0052375
X0011175Y0054275
X0009975Y0053975
X0009175Y005625
X00104Y00576
X0008978Y005925
Y006075
X00104Y00624
X0009175Y006375
X00104Y0066
X00119
X00131Y00675
X00104Y00687
Y00699
X000443Y00712
X0006Y006175
X0005377Y006075
Y005925
X0006Y005825
X0015225Y0061275
X001485Y006375
X00169Y00642
X00184
X00186Y0057277
X00174Y0055777
X00249548Y0054102
X00282952Y0057277
X00306952
Y0056007
X00366
X003735Y00550545
X00366Y0054102
X003876Y0057045
X0038125Y0058095
X004003Y0058315
X0039395Y0059365
X00413Y0059585
X0040665Y0060635
X004257Y0060855
X0041935Y0061905
X004384Y0062125
X0043205Y0063175
X0044475Y006445
X004361Y006715
X004234
X004488Y006875
Y007035
X004615
X004711Y00715
Y0073
X0047Y0076675
X00455
X00443Y0077875
X004455Y00812
X004575
X004335
X00482Y00798
Y0077875
X005138Y00742
X005288
X005408Y00715
X0057
X005625Y00759
X00525Y006715
Y006555
Y006395
Y006235
Y006075
Y005915
Y005755
Y005595
Y005435
X004996Y006715
X004869
X004742
X004361Y007035
X00371Y00759
X003784Y00785
Y008
Y0083
Y00845
X003934
X003634
X00336Y0082975
X003205Y0084
X002795
X0029Y00864
X0032Y00903
X00337Y0093
X0033975Y008075
X00331Y008
X003205Y00785
X003Y007725
Y007605
X00285Y007725
X002795Y008
X00268Y008115
X002275Y007995
X002155Y00815
Y0083
X002275Y007578
X00267467Y00737656
X0047Y0085
X00482
X00494
X0032Y00957
T02
X0029Y0081
X0031
Y0083
X0029
T04
X002752Y0019
X003006
X00326
X003514
X003768
X004022
X004276
X00453
X004784
X005038
X003889Y003025
X003635
X003381
X003127
X002873
X002619
X002365
X002111
X000547Y00675
X000293
T05
X0003Y0003
X0057
X004915Y003025
X001085
X004915Y009575
X0057Y0097
X001085Y009575
X0003Y0097
T06
X00063025Y005711
Y006289
M30
