G04*
G04 #@! TF.GenerationSoftware,Altium Limited,Altium Designer,22.10.1 (41)*
G04*
G04 Layer_Color=65535*
%FSLAX44Y44*%
%MOMM*%
G71*
G04*
G04 #@! TF.SameCoordinates,9034F27D-8993-4B38-BF2F-AE75C4F05548*
G04*
G04*
G04 #@! TF.FilePolarity,Positive*
G04*
G01*
G75*
%ADD10C,0.2540*%
%ADD11C,0.1000*%
%ADD12C,0.2000*%
G36*
X569310Y144478D02*
X569290Y146927D01*
X569330Y147087D01*
X569430Y147226D01*
X569529Y147325D01*
X569808Y147365D01*
X570306Y147425D01*
X570465Y147465D01*
X570784Y147664D01*
X570844Y147724D01*
X570923Y147764D01*
X571102Y148062D01*
X571162Y148361D01*
X571202Y148680D01*
X571222Y157860D01*
X571182Y157980D01*
X571082Y158398D01*
X571023Y158538D01*
X570943Y158617D01*
X570903Y158697D01*
X570744Y158816D01*
X570704Y158896D01*
X570644Y158956D01*
X570565Y158996D01*
X570206Y159155D01*
X569987Y159215D01*
X569788Y159255D01*
X564471Y159274D01*
X564351Y159235D01*
X564132Y159175D01*
X563933Y159095D01*
X563615Y158896D01*
X563455Y158737D01*
X563136Y158060D01*
X563097Y157781D01*
X563057Y138384D01*
X562878Y138205D01*
X562479Y138165D01*
X562320Y138205D01*
X562201Y138165D01*
X558656Y138205D01*
X558476Y138344D01*
X558397Y138742D01*
X558437Y138862D01*
X558457Y158796D01*
X558437Y159016D01*
X558476Y159135D01*
X558516Y160170D01*
X558556Y160290D01*
X558616Y160708D01*
X558656Y160868D01*
X558755Y161206D01*
X558795Y161365D01*
X558935Y161744D01*
X559114Y162043D01*
X559233Y162321D01*
X559353Y162521D01*
X559532Y162740D01*
X560010Y163218D01*
X560090Y163257D01*
X560607Y163616D01*
X561205Y163855D01*
X561683Y163934D01*
X562081Y163974D01*
X562718Y164014D01*
X572875Y163974D01*
X572994Y163934D01*
X573194Y163855D01*
X573950Y163456D01*
X574169Y163277D01*
X574229Y163218D01*
X574309Y163178D01*
X574667Y162819D01*
X574747Y162779D01*
X574846Y162640D01*
X575105Y162262D01*
X575285Y161963D01*
X575563Y161365D01*
X575643Y161087D01*
X575723Y160768D01*
X575782Y160509D01*
X575822Y160350D01*
X575862Y160111D01*
X575902Y159434D01*
X575922Y146190D01*
X575882Y146071D01*
X575822Y145732D01*
X575703Y145254D01*
X575643Y145035D01*
X575245Y144279D01*
X575065Y144059D01*
X574926Y143920D01*
X574886Y143841D01*
X574428Y143382D01*
X574348Y143343D01*
X574269Y143263D01*
X574189Y143223D01*
X574030Y143064D01*
X573751Y142944D01*
X573233Y142785D01*
X572954Y142745D01*
X572795Y142705D01*
X569529Y142745D01*
X569350Y142924D01*
X569310Y143084D01*
X569270Y143363D01*
X569310Y143641D01*
Y144438D01*
Y144478D01*
D02*
G37*
G36*
X572277Y166205D02*
X558656Y166245D01*
X558476Y166384D01*
X558437Y166663D01*
X558476Y170765D01*
X558616Y170905D01*
X559014Y170944D01*
X575703Y170905D01*
X575882Y170765D01*
X575922Y170606D01*
X575882Y166424D01*
X575703Y166245D01*
X575304Y166205D01*
X572317D01*
X572277D01*
D02*
G37*
G36*
X568613Y177835D02*
X575364Y177855D01*
X575683Y177815D01*
X575882Y177696D01*
X575922Y177536D01*
X575882Y173394D01*
X575782Y173255D01*
X575504Y173175D01*
X558616Y173215D01*
X558476Y173354D01*
X558437Y173633D01*
X558476Y180364D01*
X558815Y180703D01*
X559253Y180942D01*
X559333Y181021D01*
X559412Y181061D01*
X559651Y181220D01*
X559930Y181380D01*
X560010Y181459D01*
X560090Y181499D01*
X560468Y181758D01*
X560528Y181818D01*
X560607Y181858D01*
X561125Y182136D01*
X561245Y182256D01*
X561324Y182296D01*
X561603Y182455D01*
X561683Y182535D01*
X561762Y182575D01*
X562001Y182734D01*
X562280Y182893D01*
X562439Y183053D01*
X562957Y183331D01*
X563037Y183411D01*
X563117Y183451D01*
X563495Y183710D01*
X563555Y183769D01*
X563993Y184009D01*
X564072Y184088D01*
X564152Y184128D01*
X564551Y184367D01*
X564949Y184646D01*
X565228Y184805D01*
X565347Y184925D01*
X565785Y185164D01*
X565865Y185243D01*
X565945Y185283D01*
X566184Y185442D01*
X566462Y185602D01*
X566542Y185681D01*
X566622Y185721D01*
X567000Y185980D01*
X567299Y186159D01*
X567578Y186319D01*
X567657Y186398D01*
X567737Y186438D01*
X567817Y186518D01*
X568095Y186677D01*
X568374Y186876D01*
X568733Y187075D01*
X568892Y187235D01*
X569171Y187354D01*
X569250Y187394D01*
X569768Y187752D01*
X569848Y187792D01*
X570246Y188071D01*
X570605Y188270D01*
X570684Y188350D01*
X570764Y188390D01*
X571043Y188549D01*
X571142Y188649D01*
X571102Y188808D01*
X571043Y188868D01*
X570883Y188908D01*
X558795Y188888D01*
X558636Y188927D01*
X558496Y189027D01*
X558437Y189246D01*
X558476Y193388D01*
X558576Y193528D01*
X558855Y193607D01*
X575703Y193568D01*
X575882Y193428D01*
X575922Y193269D01*
X575962Y193030D01*
X575922Y192910D01*
X575942Y186398D01*
X575862Y186199D01*
X575543Y185881D01*
X575464Y185841D01*
X575085Y185582D01*
X574647Y185303D01*
X574508Y185203D01*
X574269Y185044D01*
X573990Y184885D01*
X573711Y184686D01*
X573433Y184526D01*
X573353Y184447D01*
X573273Y184407D01*
X572954Y184208D01*
X572875Y184168D01*
X572795Y184088D01*
X572715Y184048D01*
X572636Y183969D01*
X572198Y183730D01*
X571401Y183172D01*
X571043Y182973D01*
X570923Y182854D01*
X570565Y182654D01*
X570485Y182575D01*
X570405Y182535D01*
X570166Y182376D01*
X569967Y182256D01*
X569748Y182077D01*
X569211Y181778D01*
X569131Y181698D01*
X569051Y181659D01*
X568673Y181400D01*
X568235Y181121D01*
X567996Y180961D01*
X567936Y180902D01*
X567578Y180703D01*
X567179Y180424D01*
X567100Y180384D01*
X566701Y180105D01*
X566423Y179946D01*
X566343Y179866D01*
X566263Y179826D01*
X566064Y179707D01*
X565785Y179548D01*
X565666Y179428D01*
X565586Y179388D01*
X565208Y179129D01*
X564969Y178970D01*
X564730Y178851D01*
X564491Y178691D01*
X564391Y178592D01*
X563953Y178353D01*
X563654Y178054D01*
X563694Y177934D01*
X563754Y177875D01*
X564033Y177835D01*
X565028Y177875D01*
X565148Y177835D01*
X568573D01*
X568613D01*
D02*
G37*
G36*
X575882Y198965D02*
X575802Y198765D01*
X575683Y198287D01*
X575623Y198068D01*
X575543Y197869D01*
X575404Y197650D01*
X575205Y197292D01*
X575026Y197073D01*
X574926Y196973D01*
X574886Y196893D01*
X574627Y196635D01*
X574548Y196595D01*
X574309Y196435D01*
X574229Y196395D01*
X573950Y196196D01*
X573671Y196077D01*
X573154Y195838D01*
X572895Y195778D01*
X572357Y195718D01*
X572198Y195679D01*
X570644D01*
X570605D01*
X561603Y195718D01*
X561484Y195758D01*
X561105Y195818D01*
X560448Y196117D01*
X560169Y196276D01*
X559950Y196455D01*
X559711Y196614D01*
X559273Y197053D01*
X559034Y197491D01*
X558954Y197570D01*
X558835Y197849D01*
X558676Y198248D01*
X558516Y198885D01*
X558476Y199164D01*
X558516Y216808D01*
X558556Y216928D01*
X558596Y217087D01*
X558656Y217306D01*
X558735Y217505D01*
X558895Y217943D01*
X559054Y218182D01*
X559353Y218680D01*
X559691Y219019D01*
X559771Y219058D01*
X559851Y219138D01*
X559930Y219178D01*
X560129Y219377D01*
X560966Y219775D01*
X561245Y219815D01*
X561404Y219855D01*
X561782Y219915D01*
X561982Y219955D01*
X569888Y219974D01*
X570007Y219935D01*
X572636Y219895D01*
X572755Y219855D01*
X573174Y219795D01*
X573373Y219755D01*
X573612Y219636D01*
X573910Y219457D01*
X574030Y219417D01*
X574408Y219158D01*
X574468Y219098D01*
X574548Y219058D01*
X574767Y218879D01*
X574846Y218800D01*
X574886Y218720D01*
X575085Y218521D01*
X575125Y218441D01*
X575205Y218361D01*
X575643Y217445D01*
X575743Y216987D01*
X575782Y216828D01*
X575882Y216569D01*
X575922Y216171D01*
X575882Y198965D01*
D02*
G37*
G36*
X575922Y264723D02*
X575902Y260362D01*
X575922Y227283D01*
X575882Y227164D01*
X575842Y225690D01*
X575802Y225571D01*
X575743Y225192D01*
X575623Y224475D01*
X575583Y224316D01*
X575504Y224117D01*
X575125Y223420D01*
X574846Y223141D01*
X574807Y223061D01*
X574707Y222962D01*
X574269Y222723D01*
X574189Y222643D01*
X574110Y222603D01*
X573552Y222364D01*
X573194Y222205D01*
X572935Y222145D01*
X572457Y222066D01*
X572257Y222026D01*
X572098Y221986D01*
X571899Y221946D01*
X571740Y221906D01*
X571501Y221866D01*
X571063Y221827D01*
X570226Y221787D01*
X569091Y221767D01*
X568972Y221807D01*
X568095Y221847D01*
X567976Y221886D01*
X567717Y221946D01*
X567458Y222046D01*
X566801Y222185D01*
X566602Y222265D01*
X566363Y222424D01*
X566164Y222504D01*
X566024Y222563D01*
X565745Y222763D01*
X565666Y222842D01*
X565586Y222882D01*
X565407Y223022D01*
X565367Y223101D01*
X565228Y223241D01*
X565068Y223280D01*
X564869Y223161D01*
X564471Y222763D01*
X564391Y222723D01*
X564272Y222603D01*
X564192Y222563D01*
X563834Y222364D01*
X563316Y222125D01*
X562977Y222066D01*
X562738Y222026D01*
X562579Y221986D01*
X562380Y221946D01*
X562220Y221906D01*
X561902Y221866D01*
X559691Y221847D01*
X559572Y221886D01*
X558835Y221866D01*
X558636Y221906D01*
X558476Y222066D01*
X558437Y222344D01*
X558476Y226407D01*
X558616Y226586D01*
X558775Y226626D01*
X562001Y226666D01*
X562121Y226706D01*
X562519Y226745D01*
X562798Y226945D01*
X562878Y227024D01*
X562937Y227044D01*
X562977Y227124D01*
X563097Y227403D01*
X563136Y227682D01*
X563176Y228319D01*
X563157Y237938D01*
X563176Y238236D01*
X563017Y238515D01*
X562838Y238575D01*
X562559Y238615D01*
X562400Y238575D01*
X558656Y238615D01*
X558476Y238754D01*
X558437Y239033D01*
X558476Y243175D01*
X558656Y243354D01*
X558935Y243394D01*
X570863Y243374D01*
X571003Y243434D01*
X571142Y243534D01*
X571222Y243813D01*
X571182Y249389D01*
X571003Y249608D01*
X570724Y249648D01*
X570266Y249628D01*
X559054Y249648D01*
X558935Y249608D01*
X558636Y249667D01*
X558496Y249767D01*
X558437Y249986D01*
X558476Y254168D01*
X558576Y254268D01*
X558855Y254347D01*
X559193Y254328D01*
X559452Y254347D01*
X559572Y254308D01*
X559731Y254347D01*
X570824Y254328D01*
X570983Y254367D01*
X571142Y254527D01*
X571222Y254845D01*
X571182Y260382D01*
X571043Y260561D01*
X570724Y260640D01*
X570445Y260601D01*
X565526Y260620D01*
X565267Y260601D01*
X565148Y260640D01*
X558616Y260680D01*
X558476Y260820D01*
X558437Y260979D01*
X558476Y267790D01*
X558616Y267969D01*
X558696Y268009D01*
X559213Y268367D01*
X559492Y268527D01*
X559890Y268806D01*
X559970Y268845D01*
X560368Y269124D01*
X560647Y269284D01*
X560926Y269483D01*
X561205Y269642D01*
X561484Y269841D01*
X561563Y269881D01*
X562081Y270239D01*
X562439Y270438D01*
X562559Y270558D01*
X562639Y270598D01*
X562997Y270797D01*
X563395Y271076D01*
X563475Y271116D01*
X563694Y271295D01*
X563873Y271394D01*
X564311Y271633D01*
X564431Y271753D01*
X564511Y271793D01*
X565447Y272410D01*
X565506Y272470D01*
X565945Y272709D01*
X566223Y272908D01*
X566502Y273067D01*
X566622Y273187D01*
X566701Y273227D01*
X567139Y273465D01*
X567259Y273585D01*
X567338Y273625D01*
X567617Y273784D01*
X568135Y274143D01*
X568334Y274262D01*
X568613Y274461D01*
X568892Y274621D01*
X569171Y274820D01*
X569529Y275019D01*
X569609Y275099D01*
X569688Y275138D01*
X569967Y275338D01*
X570047Y275377D01*
X570326Y275576D01*
X570764Y275816D01*
X570883Y275935D01*
X570963Y275975D01*
X571182Y276154D01*
X571142Y276313D01*
X570963Y276373D01*
X570704Y276393D01*
X558696Y276373D01*
X558496Y276493D01*
X558437Y276672D01*
X558476Y280854D01*
X558536Y280954D01*
X558735Y281033D01*
X570505Y281013D01*
X570664Y281053D01*
X570744Y281133D01*
X570704Y281372D01*
X570625Y281451D01*
X570585Y281531D01*
X570445Y281670D01*
X570366Y281710D01*
X569430Y282646D01*
X569390Y282726D01*
X569290Y282826D01*
X569211Y282865D01*
X568713Y283363D01*
X568673Y283443D01*
X568494Y283622D01*
X568434Y283642D01*
X568394Y283722D01*
X568016Y284100D01*
X567936Y284140D01*
X567677Y284399D01*
X567637Y284478D01*
X566821Y285295D01*
X566741Y285335D01*
X566562Y285514D01*
X566522Y285594D01*
X565287Y286828D01*
X565247Y286908D01*
X565028Y287127D01*
X564949Y287167D01*
X564491Y287625D01*
X564451Y287705D01*
X564351Y287804D01*
X564272Y287844D01*
X564132Y287983D01*
X564112Y288043D01*
X564033Y288083D01*
X563953Y288163D01*
X563634Y288242D01*
X558616Y288282D01*
X558476Y288421D01*
X558437Y288820D01*
X558476Y288979D01*
X558437Y289218D01*
X558476Y289338D01*
X558437Y289736D01*
X558457Y291867D01*
X558437Y292006D01*
X558476Y292126D01*
X558437Y292524D01*
X558476Y292644D01*
X558516Y292723D01*
X558616Y292823D01*
X558775Y292862D01*
X560368D01*
X560408D01*
X563794Y292902D01*
X564152Y293181D01*
X565367Y294396D01*
X565407Y294476D01*
X565626Y294695D01*
X565705Y294734D01*
X565805Y294834D01*
X565845Y294914D01*
X566104Y295173D01*
X566184Y295212D01*
X566283Y295352D01*
X566343Y295412D01*
X566403Y295431D01*
X566442Y295511D01*
X567020Y296089D01*
X567080Y296109D01*
X567119Y296188D01*
X570744Y299813D01*
X570784Y299892D01*
X571142Y300251D01*
X571222Y300569D01*
X571182Y315506D01*
X570983Y315864D01*
X570923Y315924D01*
X570844Y315964D01*
X570485Y316123D01*
X570087Y316083D01*
X569629Y315745D01*
X569549Y315545D01*
X569509Y315386D01*
X569469Y314868D01*
X569430Y303158D01*
X569390Y303039D01*
X569350Y302880D01*
X569191Y302481D01*
X568992Y302123D01*
X568832Y301964D01*
X568792Y301884D01*
X568613Y301665D01*
X568394Y301486D01*
X568294Y301386D01*
X568215Y301346D01*
X567936Y301187D01*
X567657Y300988D01*
X567458Y300908D01*
X567199Y300848D01*
X566880Y300729D01*
X566622Y300629D01*
X566363Y300569D01*
X566124Y300530D01*
X565586Y300470D01*
X565307Y300430D01*
X564551Y300390D01*
X564033Y300350D01*
X563017Y300410D01*
X562579Y300450D01*
X562220Y300490D01*
X561703Y300569D01*
X561503Y300609D01*
X561185Y300729D01*
X560926Y300828D01*
X560767Y300868D01*
X560388Y301008D01*
X560328Y301067D01*
X560249Y301107D01*
X560010Y301266D01*
X559930Y301306D01*
X559572Y301585D01*
X559353Y301764D01*
X559233Y301884D01*
X559193Y301964D01*
X558994Y302163D01*
X558954Y302242D01*
X558795Y302481D01*
X558696Y302740D01*
X558596Y302959D01*
X558516Y303238D01*
X558476Y303397D01*
X558437Y304035D01*
X558476Y328809D01*
X558616Y328988D01*
X558775Y329028D01*
X562878Y328988D01*
X563017Y328848D01*
X563057Y328689D01*
X563097Y328410D01*
X563057Y328131D01*
X563097Y305867D01*
X563256Y305588D01*
X563435Y305369D01*
X563595Y305210D01*
X563873Y305170D01*
X564311Y305210D01*
X564531Y305389D01*
X564730Y305668D01*
X564790Y305887D01*
X564829Y317995D01*
X564909Y318393D01*
X564949Y318552D01*
X565068Y318871D01*
X565168Y318971D01*
X565367Y319329D01*
X565546Y319548D01*
X565626Y319588D01*
X565945Y319907D01*
X566024Y319947D01*
X566462Y320186D01*
X566542Y320265D01*
X566821Y320385D01*
X567697Y320663D01*
X567856Y320703D01*
X568334Y320783D01*
X568733Y320823D01*
X569250Y320863D01*
X569649Y320902D01*
X571561Y320863D01*
X571680Y320823D01*
X572317Y320783D01*
X572437Y320743D01*
X572775Y320683D01*
X572935Y320644D01*
X573492Y320444D01*
X573652Y320405D01*
X574030Y320225D01*
X574269Y320066D01*
X574707Y319827D01*
X575065Y319469D01*
X575125Y319449D01*
X575165Y319369D01*
X575245Y319289D01*
X575285Y319210D01*
X575364Y319130D01*
X575404Y319050D01*
X575603Y318772D01*
X575842Y317975D01*
X575882Y317816D01*
X575922Y317417D01*
X575882Y298459D01*
X575504Y297961D01*
X575424Y297881D01*
X575344Y297841D01*
X574886Y297383D01*
X574846Y297304D01*
X573691Y296148D01*
X573652Y296069D01*
X573552Y295969D01*
X573472Y295929D01*
X573333Y295790D01*
X573293Y295710D01*
X573194Y295611D01*
X573114Y295571D01*
X572895Y295352D01*
X572855Y295272D01*
X572357Y294774D01*
X572277Y294734D01*
X571859Y294316D01*
X571819Y294237D01*
X570625Y293042D01*
X570585Y292962D01*
X570445Y292823D01*
X570366Y292783D01*
X570306Y292723D01*
X570266Y292644D01*
X570127Y292504D01*
X570047Y292464D01*
X569828Y292245D01*
X569788Y292166D01*
X569728Y292106D01*
X569649Y292066D01*
X569549Y291966D01*
X569509Y291887D01*
X569290Y291668D01*
X569230Y291648D01*
X569191Y291568D01*
X568972Y291349D01*
X568892Y291309D01*
X568753Y291170D01*
X568713Y291090D01*
X568394Y290772D01*
X568314Y290493D01*
X568394Y290294D01*
X568573Y290114D01*
X568653Y290075D01*
X568753Y289975D01*
X568792Y289895D01*
X569290Y289397D01*
X569370Y289357D01*
X569549Y289178D01*
X569589Y289099D01*
X569728Y288959D01*
X569808Y288919D01*
X570007Y288680D01*
X570405Y288282D01*
X570485Y288242D01*
X570664Y288063D01*
X570704Y287983D01*
X571521Y287167D01*
X571600Y287127D01*
X571859Y286868D01*
X571899Y286789D01*
X572357Y286331D01*
X572437Y286291D01*
X572616Y286111D01*
X572656Y286032D01*
X572715Y285972D01*
X572795Y285932D01*
X572935Y285793D01*
X572974Y285713D01*
X573512Y285175D01*
X573592Y285136D01*
X573731Y284996D01*
X573771Y284916D01*
X573910Y284777D01*
X573990Y284737D01*
X574050Y284678D01*
X574090Y284598D01*
X574627Y284060D01*
X574707Y284020D01*
X574926Y283801D01*
X574966Y283722D01*
X575762Y282925D01*
X575802Y282845D01*
X575882Y282766D01*
X575922Y282606D01*
X575942Y280914D01*
X575902Y273744D01*
X575822Y273545D01*
X575703Y273426D01*
X575623Y273386D01*
X575344Y273227D01*
X575225Y273107D01*
X575145Y273067D01*
X574906Y272908D01*
X574827Y272868D01*
X574707Y272749D01*
X574627Y272709D01*
X574189Y272470D01*
X574030Y272311D01*
X573950Y272271D01*
X573671Y272111D01*
X573592Y272032D01*
X573512Y271992D01*
X573273Y271833D01*
X573074Y271713D01*
X572954Y271594D01*
X572875Y271554D01*
X572437Y271315D01*
X572357Y271235D01*
X572277Y271195D01*
X572038Y271036D01*
X571839Y270917D01*
X571720Y270797D01*
X571282Y270558D01*
X571202Y270478D01*
X571122Y270438D01*
X571043Y270359D01*
X570605Y270120D01*
X570485Y270000D01*
X570405Y269960D01*
X570127Y269801D01*
X569728Y269522D01*
X569529Y269403D01*
X569250Y269204D01*
X568892Y269005D01*
X568812Y268925D01*
X568733Y268885D01*
X568653Y268806D01*
X568374Y268646D01*
X568255Y268527D01*
X567737Y268248D01*
X567518Y268069D01*
X567119Y267830D01*
X566880Y267670D01*
X566562Y267471D01*
X566462Y267372D01*
X566383Y267332D01*
X565945Y267093D01*
X565726Y266914D01*
X565387Y266695D01*
X565108Y266495D01*
X564829Y266336D01*
X564431Y266057D01*
X564152Y265898D01*
X563714Y265659D01*
X563654Y265599D01*
X563634Y265500D01*
X563714Y265380D01*
X563873Y265340D01*
X564351Y265301D01*
X564471Y265340D01*
X575743Y265301D01*
X575922Y265161D01*
X575962Y264882D01*
X575922Y264723D01*
D02*
G37*
G36*
X572238Y375867D02*
X577176Y375827D01*
X577296Y375788D01*
X577615Y375748D01*
X577734Y375708D01*
X578252Y375509D01*
X578451Y375429D01*
X578610Y375389D01*
X579128Y375110D01*
X579407Y374951D01*
X579686Y374752D01*
X580044Y374553D01*
X580283Y374314D01*
X580363Y374274D01*
X580482Y374155D01*
X580562Y374115D01*
X581199Y373477D01*
X581279Y373438D01*
X581339Y373378D01*
X581378Y373298D01*
X581657Y372940D01*
X581777Y372820D01*
X581817Y372741D01*
X581976Y372581D01*
X582016Y372502D01*
X582095Y372422D01*
X582135Y372342D01*
X582394Y371964D01*
X582494Y371785D01*
X582533Y371705D01*
X582693Y371426D01*
X582852Y371187D01*
X582932Y370988D01*
X583211Y370391D01*
X583470Y369654D01*
X583649Y369236D01*
X583689Y368957D01*
X583728Y368797D01*
X583888Y368280D01*
X583967Y367961D01*
X584027Y367622D01*
X584067Y367383D01*
X584186Y366587D01*
X584226Y366388D01*
X584266Y366228D01*
X584306Y365989D01*
X584346Y365671D01*
X584386Y365272D01*
X584425Y364516D01*
X584465Y362883D01*
X584505Y354957D01*
X584525Y341514D01*
X584485Y341395D01*
X584445Y338647D01*
X584406Y338527D01*
X584366Y337969D01*
X584326Y337850D01*
X584266Y337631D01*
X584206Y337452D01*
X584087Y336974D01*
X584027Y336755D01*
X583987Y336595D01*
X583828Y336197D01*
X583728Y335978D01*
X583629Y335719D01*
X583470Y335480D01*
X583290Y335181D01*
X583250Y335022D01*
X582872Y334524D01*
X582772Y334385D01*
X582653Y334265D01*
X582613Y334186D01*
X582334Y333827D01*
X582135Y333628D01*
X582095Y333548D01*
X581996Y333449D01*
X581916Y333409D01*
X581837Y333329D01*
X581757Y333289D01*
X581558Y333090D01*
X581478Y333050D01*
X581398Y332971D01*
X581319Y332931D01*
X581159Y332772D01*
X581080Y332732D01*
X580482Y332413D01*
X580283Y332294D01*
X580084Y332214D01*
X579706Y332075D01*
X579208Y331856D01*
X578989Y331796D01*
X578531Y331617D01*
X578212Y331537D01*
X577754Y331437D01*
X577376Y331418D01*
X577236Y331517D01*
X577196Y331676D01*
Y344701D01*
Y344740D01*
X577156Y363938D01*
X577117Y364058D01*
X577057Y364356D01*
X576977Y364675D01*
X576878Y364934D01*
X576698Y365432D01*
X576479Y365850D01*
X576280Y366208D01*
X576121Y366368D01*
X575922Y366726D01*
X575304Y367344D01*
X575225Y367383D01*
X574866Y367662D01*
X574787Y367742D01*
X574348Y367981D01*
X574070Y368140D01*
X573572Y368320D01*
X573353Y368419D01*
X573074Y368499D01*
X572915Y368539D01*
X572357Y368618D01*
X571441Y368658D01*
X571321Y368618D01*
X570644Y368578D01*
X570525Y368539D01*
X570107Y368439D01*
X569907Y368359D01*
X569688Y368260D01*
X569191Y368080D01*
X568972Y367941D01*
X568474Y367603D01*
X568334Y367463D01*
X568255Y367423D01*
X568175Y367344D01*
X568095Y367304D01*
X567637Y366846D01*
X567597Y366766D01*
X567418Y366547D01*
X567119Y366129D01*
X567080Y366049D01*
X566920Y365810D01*
X566801Y365531D01*
X566602Y365173D01*
X566522Y364974D01*
X566482Y364814D01*
X566403Y364536D01*
X566203Y363898D01*
X566164Y363739D01*
X566124Y363460D01*
X566084Y363301D01*
X566044Y362783D01*
X566004Y362146D01*
X565964Y361628D01*
X565984Y361210D01*
X565945Y359179D01*
X565905Y356590D01*
X565865Y354757D01*
X565825Y351890D01*
X565785Y348863D01*
X565745Y344482D01*
X565705Y343964D01*
X565666Y343725D01*
X565626Y343565D01*
X565506Y343247D01*
X565287Y342789D01*
X565247Y342709D01*
X565068Y342490D01*
X564969Y342351D01*
X564750Y342132D01*
X564670Y342092D01*
X564391Y341813D01*
X563555Y341415D01*
X563276Y341335D01*
X562878Y341216D01*
X562718Y341176D01*
X562320Y341136D01*
X561762Y341176D01*
X561364Y341335D01*
X561145Y341395D01*
X560846Y341534D01*
X560209Y342012D01*
X559990Y342231D01*
X559950Y342311D01*
X559771Y342530D01*
X559472Y343028D01*
X559432Y343107D01*
X559313Y343386D01*
X559273Y343545D01*
X559213Y343804D01*
X559154Y344342D01*
X559114Y344501D01*
X559054Y345199D01*
X559014Y345756D01*
X558994Y374971D01*
X559034Y375090D01*
X558994Y375489D01*
X559034Y375688D01*
X559174Y375827D01*
X559452Y375867D01*
X572118Y375907D01*
X572238Y375867D01*
D02*
G37*
G36*
X556903Y375788D02*
X557043Y375648D01*
X557062Y375429D01*
X557043Y343824D01*
X557082Y343705D01*
X557142Y343247D01*
X557262Y342769D01*
X557301Y342530D01*
X557381Y342211D01*
X557600Y341793D01*
X557700Y341534D01*
X557780Y341335D01*
X557839Y341275D01*
X557879Y341196D01*
X557959Y341116D01*
X558237Y340598D01*
X558437Y340399D01*
X558476Y340319D01*
X558636Y340160D01*
X558676Y340080D01*
X558815Y339941D01*
X558895Y339901D01*
X558974Y339822D01*
X559054Y339782D01*
X559373Y339463D01*
X559452Y339423D01*
X559731Y339224D01*
X560169Y339025D01*
X560687Y338786D01*
X561245Y338706D01*
X561404Y338666D01*
X561882Y338587D01*
X562519Y338547D01*
X563097Y338607D01*
X563495Y338686D01*
X563734Y338726D01*
X563933Y338766D01*
X564092Y338806D01*
X564292Y338885D01*
X564590Y339065D01*
X564849Y339164D01*
X565247Y339403D01*
X565307Y339463D01*
X565506Y339582D01*
X565726Y339762D01*
X565865Y339901D01*
X565945Y339941D01*
X566024Y340021D01*
X566084Y340041D01*
X566124Y340120D01*
X566223Y340220D01*
X566303Y340260D01*
X566403Y340359D01*
X566442Y340439D01*
X566622Y340658D01*
X566681Y340718D01*
X566721Y340797D01*
X566801Y340877D01*
X566841Y340957D01*
X567119Y341355D01*
X567159Y341435D01*
X567319Y341793D01*
X567359Y341873D01*
X567558Y342191D01*
X567697Y342849D01*
X567876Y343426D01*
X567916Y343585D01*
X567996Y344143D01*
X568036Y344541D01*
X568075Y349361D01*
X568115Y350476D01*
X568155Y353543D01*
X568195Y353662D01*
X568235Y357088D01*
X568274Y357207D01*
X568255Y357585D01*
X568294Y359179D01*
X568334Y362365D01*
X568374Y362883D01*
X568454Y363361D01*
X568613Y363799D01*
X568792Y364217D01*
X568952Y364496D01*
X569330Y364994D01*
X569410Y365073D01*
X569489Y365113D01*
X569768Y365392D01*
X569848Y365432D01*
X570166Y365631D01*
X570605Y365830D01*
X571242Y365989D01*
X571521Y366029D01*
X572238Y365989D01*
X572357Y365950D01*
X572616Y365890D01*
X572775Y365850D01*
X572974Y365770D01*
X573114Y365671D01*
X573472Y365472D01*
X573691Y365292D01*
X573871Y365113D01*
X573950Y365073D01*
X574129Y364894D01*
X574169Y364814D01*
X574348Y364595D01*
X574408Y364536D01*
X574448Y364456D01*
X574607Y364177D01*
X574767Y363938D01*
X574846Y363739D01*
X574926Y363460D01*
X575065Y363082D01*
X575165Y362823D01*
X575205Y362664D01*
X575245Y362146D01*
X575285Y361867D01*
X575265Y341096D01*
X575285Y340957D01*
X575245Y340837D01*
X575205Y331437D01*
X575065Y331298D01*
X574906Y331258D01*
X570824Y331278D01*
X570764Y331258D01*
X570644Y331298D01*
X570127Y331258D01*
X570007Y331298D01*
X556585Y331338D01*
X556465Y331378D01*
X556047Y331437D01*
X555848Y331477D01*
X555688Y331517D01*
X555489Y331557D01*
X555330Y331597D01*
X554673Y331895D01*
X553956Y332294D01*
X553737Y332473D01*
X553637Y332573D01*
X553358Y332732D01*
X553040Y333050D01*
X552960Y333090D01*
X552821Y333230D01*
X552781Y333309D01*
X552661Y333429D01*
X552622Y333508D01*
X552462Y333668D01*
X552422Y333747D01*
X552343Y333827D01*
X552303Y333907D01*
X552223Y333987D01*
X552183Y334066D01*
X552104Y334146D01*
X552064Y334225D01*
X551825Y334664D01*
X551626Y334942D01*
X551586Y335102D01*
X551466Y335381D01*
X551427Y335460D01*
X551227Y335779D01*
X551048Y336277D01*
X550869Y336695D01*
X550710Y337332D01*
X550511Y337850D01*
X550471Y338009D01*
X550431Y338288D01*
X550391Y338447D01*
X550331Y338746D01*
X550252Y339065D01*
X550212Y339264D01*
X550172Y339582D01*
X550132Y339941D01*
X550092Y340339D01*
X550052Y340897D01*
X550013Y341375D01*
X549993Y341634D01*
Y341674D01*
X549953Y342789D01*
X549913Y344860D01*
X549953Y348484D01*
X549913Y351591D01*
X549873Y351711D01*
X549833Y367523D01*
X549873Y367642D01*
X550052Y368778D01*
X550132Y369176D01*
X550212Y369495D01*
X550291Y369694D01*
X550391Y369953D01*
X550451Y370211D01*
X550531Y370410D01*
X550710Y370749D01*
X550889Y371247D01*
X550949Y371386D01*
X551188Y371785D01*
X551347Y372063D01*
X551427Y372143D01*
X551466Y372223D01*
X551666Y372581D01*
X551865Y372780D01*
X551905Y372860D01*
X552104Y373139D01*
X552144Y373218D01*
X552303Y373378D01*
X552343Y373457D01*
X552442Y373557D01*
X552522Y373597D01*
X552622Y373697D01*
X552661Y373776D01*
X553119Y374234D01*
X553199Y374274D01*
X553319Y374394D01*
X553398Y374433D01*
X553558Y374593D01*
X553916Y374792D01*
X553996Y374871D01*
X554075Y374911D01*
X554593Y375190D01*
X555031Y375389D01*
X555589Y375549D01*
X555788Y375628D01*
X556186Y375748D01*
X556346Y375788D01*
X556624Y375827D01*
X556903Y375788D01*
D02*
G37*
%LPC*%
G36*
X571222Y213462D02*
X571182Y213582D01*
X571122Y213960D01*
X571082Y214159D01*
X571003Y214359D01*
X570943Y214418D01*
X570903Y214498D01*
X570784Y214618D01*
X570744Y214697D01*
X570644Y214837D01*
X570565Y214876D01*
X570485Y214956D01*
X570405Y214996D01*
X570326Y215075D01*
X570246Y215115D01*
X569967Y215235D01*
X569808Y215275D01*
X569529Y215315D01*
X564391Y215275D01*
X564192Y215195D01*
X564112Y215155D01*
X563615Y214777D01*
X563535Y214697D01*
X563495Y214618D01*
X563176Y213940D01*
X563097Y213622D01*
X563057Y212985D01*
Y205417D01*
X563097Y201832D01*
X563136Y201713D01*
X563236Y201454D01*
X563575Y200837D01*
X563634Y200777D01*
X563714Y200737D01*
X564072Y200538D01*
X564431Y200378D01*
X564710Y200339D01*
X569848Y200378D01*
X570684Y200816D01*
X570784Y200956D01*
X570963Y201175D01*
X571023Y201235D01*
X571102Y201514D01*
X571142Y201673D01*
X571202Y201932D01*
X571222Y213462D01*
D02*
G37*
G36*
Y228040D02*
X571182Y238396D01*
X571122Y238495D01*
X571043Y238535D01*
X570844Y238615D01*
X568135Y238575D01*
X567916Y238396D01*
X567876Y237997D01*
X567916Y237878D01*
X567876Y237719D01*
X567896Y228100D01*
X567876Y227801D01*
X567916Y227682D01*
X567956Y227443D01*
X568115Y227164D01*
X568215Y227064D01*
X568414Y226945D01*
X568693Y226785D01*
X569011Y226706D01*
X569768Y226666D01*
X569927Y226706D01*
X570246Y226745D01*
X570286D01*
X570485Y226785D01*
X570764Y226985D01*
X570844Y227024D01*
X571063Y227204D01*
X571142Y227482D01*
X571182Y227642D01*
X571222Y228040D01*
D02*
G37*
%LPD*%
D10*
X526118Y702500D02*
G03*
X526118Y702500I-1118J0D01*
G01*
X328000Y791250D02*
G03*
X328000Y791250I-500J0D01*
G01*
X299000Y531750D02*
G03*
X299000Y531750I-1000J0D01*
G01*
X295500Y464000D02*
G03*
X295500Y464000I-500J0D01*
G01*
X463760Y834500D02*
G03*
X463760Y834500I-10J0D01*
G01*
X240060Y753900D02*
G03*
X240060Y753900I-10J0D01*
G01*
X159750Y620750D02*
G03*
X159750Y620750I-1000J0D01*
G01*
D11*
X89500Y29000D02*
X170500D01*
Y90000D01*
X89500Y231000D02*
X170500D01*
X229500Y90000D02*
Y170000D01*
X30500Y170000D02*
X89500D01*
X30500Y90000D02*
Y170000D01*
Y90000D02*
X89500D01*
Y29000D02*
Y90000D01*
X170500D02*
X229500D01*
X170500Y170000D02*
X229500D01*
X170500D02*
Y231000D01*
X89500Y170000D02*
Y231000D01*
X532000Y509000D02*
X535500D01*
X344000Y691000D02*
X352000D01*
X344000Y682000D02*
Y691000D01*
X343850Y509000D02*
X351850D01*
X343850D02*
Y518000D01*
X532000Y691000D02*
X535500D01*
X316250Y841000D02*
X321250D01*
Y836000D02*
Y841000D01*
X316250Y799000D02*
X321250D01*
Y804000D01*
X278750Y799000D02*
X283750D01*
X278750D02*
Y804000D01*
Y841000D02*
X283750D01*
X278750Y836000D02*
Y841000D01*
X246250Y525345D02*
X251250D01*
X246250D02*
Y530345D01*
Y613845D02*
X251250D01*
X246250Y608845D02*
Y613845D01*
X281250Y525345D02*
X286250D01*
Y530345D01*
X281250Y613845D02*
X286250D01*
Y608845D02*
Y613845D01*
X322000Y473000D02*
Y475000D01*
X320000Y473000D02*
X322000D01*
X298000D02*
Y475000D01*
Y473000D02*
X300000D01*
X298000Y485000D02*
Y487000D01*
X300000D01*
X322000Y485000D02*
Y487000D01*
X320000D02*
X322000D01*
X428800Y819550D02*
Y821650D01*
X430900D01*
X428800Y802350D02*
Y804450D01*
Y802350D02*
X430900D01*
X462200D02*
Y804450D01*
X460100Y802350D02*
X462200D01*
Y819550D02*
Y821650D01*
X460100D02*
X462200D01*
X239900Y769650D02*
Y771750D01*
X242000D01*
X261100Y769650D02*
Y771750D01*
X259000D02*
X261100D01*
Y756550D02*
Y758650D01*
X259000Y756550D02*
X261100D01*
X239900D02*
Y758650D01*
Y756550D02*
X242000D01*
X525500Y896000D02*
X530500D01*
X525500Y891000D02*
Y896000D01*
Y804000D02*
X530500D01*
X525500D02*
Y809000D01*
X559500Y896000D02*
X564500D01*
Y891000D02*
Y896000D01*
X559500Y804000D02*
X564500D01*
Y809000D01*
X586500Y723000D02*
X589500D01*
Y726000D01*
X586500Y763000D02*
X589500D01*
Y760000D02*
Y763000D01*
X550500Y723000D02*
X553500D01*
X550500D02*
Y726000D01*
Y763000D02*
X553500D01*
X550500Y760000D02*
Y763000D01*
X586500Y437000D02*
X589500D01*
Y440000D01*
X586500Y477000D02*
X589500D01*
Y474000D02*
Y477000D01*
X550500Y437000D02*
X553500D01*
X550500D02*
Y440000D01*
Y477000D02*
X553500D01*
X550500Y474000D02*
Y477000D01*
X86500Y110000D02*
X89500D01*
Y113000D01*
X86500Y150000D02*
X89500D01*
Y147000D02*
Y150000D01*
X50500Y110000D02*
X53500D01*
X50500D02*
Y113000D01*
Y150000D02*
X53500D01*
X50500Y147000D02*
Y150000D01*
X206500Y110000D02*
X209500D01*
Y113000D01*
X206500Y150000D02*
X209500D01*
Y147000D02*
Y150000D01*
X170500Y110000D02*
X173500D01*
X170500D02*
Y113000D01*
Y150000D02*
X173500D01*
X170500Y147000D02*
Y150000D01*
X146500Y110000D02*
X149500D01*
Y113000D01*
X146500Y150000D02*
X149500D01*
Y147000D02*
Y150000D01*
X110500Y110000D02*
X113500D01*
X110500D02*
Y113000D01*
Y150000D02*
X113500D01*
X110500Y147000D02*
Y150000D01*
X146500Y170000D02*
X149500D01*
Y173000D01*
X146500Y210000D02*
X149500D01*
Y207000D02*
Y210000D01*
X110500Y170000D02*
X113500D01*
X110500D02*
Y173000D01*
Y210000D02*
X113500D01*
X110500Y207000D02*
Y210000D01*
X146500Y50000D02*
X149500D01*
Y53000D01*
X146500Y90000D02*
X149500D01*
Y87000D02*
Y90000D01*
X110500Y50000D02*
X113500D01*
X110500D02*
Y53000D01*
Y90000D02*
X113500D01*
X110500Y87000D02*
Y90000D01*
X535000Y521250D02*
G03*
X555000Y501250I20000J0D01*
G01*
X555000Y698750D02*
G03*
X535000Y678750I0J-20000D01*
G01*
X600000Y481250D02*
G03*
X580000Y501250I-20000J0D01*
G01*
X580000Y698750D02*
G03*
X600000Y718750I0J20000D01*
G01*
X600000Y970000D02*
G03*
X570000Y1000000I-30000J0D01*
G01*
Y0D02*
G03*
X600000Y30000I0J30000D01*
G01*
X30000Y1000000D02*
G03*
X0Y970000I0J-30000D01*
G01*
Y30000D02*
G03*
X30000Y0I30000J0D01*
G01*
X535000Y521250D02*
Y678750D01*
X535000D01*
X555000Y501250D02*
X580000D01*
X555000Y698750D02*
X580000D01*
X600000Y30000D02*
Y481250D01*
X600000D01*
X600000Y718750D02*
Y970000D01*
X0Y30000D02*
Y970000D01*
X30000Y0D02*
X570000D01*
X30000Y1000000D02*
X570000D01*
X47373Y513872D02*
X72500D01*
X47373Y526001D02*
X72500D01*
Y513872D02*
Y526001D01*
X47373Y513872D02*
Y526001D01*
X19310Y453809D02*
Y466001D01*
X44500Y453809D02*
Y466001D01*
X19310D02*
X44500D01*
X19310Y453809D02*
X44500D01*
X19310Y423809D02*
Y436001D01*
X44500Y423809D02*
Y436001D01*
X19310D02*
X44500D01*
X19310Y423809D02*
X44500D01*
X19310Y393809D02*
Y406001D01*
X44500Y393809D02*
Y406001D01*
X19310D02*
X44500D01*
X19310Y393809D02*
X44500D01*
X44691Y333999D02*
Y346191D01*
X19500Y333999D02*
Y346191D01*
Y333999D02*
X44691D01*
X19500Y346191D02*
X44691D01*
Y363999D02*
Y376191D01*
X19500Y363999D02*
Y376191D01*
Y363999D02*
X44691D01*
X19500Y376191D02*
X44691D01*
X419310Y698316D02*
X603000D01*
X419310Y501875D02*
X603000D01*
Y698316D01*
X419310Y501875D02*
Y698316D01*
X488128Y804873D02*
Y830000D01*
X475999Y804873D02*
Y830000D01*
X488128D01*
X475999Y804873D02*
X488128D01*
X343400Y806128D02*
X368527D01*
X343400Y793999D02*
X368527D01*
X343400D02*
Y806128D01*
X368527Y793999D02*
Y806128D01*
X343400Y779500D02*
X368400D01*
X343400Y790500D02*
X368400D01*
Y779500D02*
Y790500D01*
X343400Y779500D02*
Y790500D01*
X378191Y750223D02*
X403127D01*
X378191Y737999D02*
X403127D01*
X378191D02*
Y750223D01*
X403127Y737999D02*
Y750223D01*
X237691Y791223D02*
X262627D01*
X237691Y778999D02*
X262627D01*
X237691D02*
Y791223D01*
X262627Y778999D02*
Y791223D01*
X47373Y453777D02*
Y466001D01*
X72309Y453777D02*
Y466001D01*
X47373D02*
X72309D01*
X47373Y453777D02*
X72309D01*
X47373Y393777D02*
Y406001D01*
X72309Y393777D02*
Y406001D01*
X47373D02*
X72309D01*
X47373Y393777D02*
X72309D01*
X327500Y792500D02*
Y847500D01*
X272500Y792500D02*
Y847500D01*
Y792500D02*
X327500D01*
X272500Y847500D02*
X327500D01*
X260000Y900000D02*
Y960000D01*
X340000Y900000D02*
Y960000D01*
X260000Y900000D02*
X340000D01*
X260000Y960000D02*
X340000D01*
X81500Y274500D02*
X518500D01*
X81500Y985500D02*
X518500D01*
X81500Y274500D02*
Y985500D01*
X518500Y274500D02*
Y985500D01*
X47373Y483777D02*
Y496001D01*
X72309Y483777D02*
Y496001D01*
X47373D02*
X72309D01*
X47373Y483777D02*
X72309D01*
X582627Y434872D02*
Y447001D01*
X557500Y434872D02*
Y447001D01*
X582627D01*
X557500Y434872D02*
X582627D01*
Y752872D02*
Y765001D01*
X557500Y752872D02*
Y765001D01*
X582627D01*
X557500Y752872D02*
X582627D01*
X229750Y525095D02*
X302500D01*
X229750Y614095D02*
X302500D01*
X229750Y525095D02*
Y614095D01*
X302500Y525095D02*
Y614095D01*
X189127Y623999D02*
Y636128D01*
X164000Y623999D02*
Y636128D01*
Y623999D02*
X189127D01*
X164000Y636128D02*
X189127D01*
X299000Y464500D02*
Y495500D01*
X321000Y464500D02*
Y495500D01*
X299000D02*
X321000D01*
X299000Y464500D02*
X321000D01*
X97999Y655000D02*
X110000D01*
X97999Y680000D02*
X110000D01*
X97999Y655000D02*
Y680000D01*
X110000Y655000D02*
Y680000D01*
X279873Y778372D02*
Y790501D01*
X305000Y778372D02*
Y790501D01*
X279873D02*
X305000D01*
X279873Y778372D02*
X305000D01*
X262627Y793499D02*
Y805628D01*
X237500Y793499D02*
Y805628D01*
Y793499D02*
X262627D01*
X237500Y805628D02*
X262627D01*
X449873Y772622D02*
Y784751D01*
X475000Y772622D02*
Y784751D01*
X449873D02*
X475000D01*
X449873Y772622D02*
X475000D01*
X82627Y139872D02*
Y152001D01*
X57500Y139872D02*
Y152001D01*
X82627D01*
X57500Y139872D02*
X82627D01*
X202627D02*
Y152001D01*
X177500Y139872D02*
Y152001D01*
X202627D01*
X177500Y139872D02*
X202627D01*
X142627D02*
Y152001D01*
X117500Y139872D02*
Y152001D01*
X142627D01*
X117500Y139872D02*
X142627D01*
Y199872D02*
Y212001D01*
X117500Y199872D02*
Y212001D01*
X142627D01*
X117500Y199872D02*
X142627D01*
Y79872D02*
Y92001D01*
X117500Y79872D02*
Y92001D01*
X142627D01*
X117500Y79872D02*
X142627D01*
X206999Y552643D02*
X219128D01*
X206999Y577770D02*
X219128D01*
X206999Y552643D02*
Y577770D01*
X219128Y552643D02*
Y577770D01*
X191999Y552643D02*
X204128D01*
X191999Y577770D02*
X204128D01*
X191999Y552643D02*
Y577770D01*
X204128Y552643D02*
Y577770D01*
X533927Y723999D02*
Y736128D01*
X508800Y723999D02*
Y736128D01*
Y723999D02*
X533927D01*
X508800Y736128D02*
X533927D01*
Y708999D02*
Y721128D01*
X508800Y708999D02*
Y721128D01*
Y708999D02*
X533927D01*
X508800Y721128D02*
X533927D01*
X477973Y708872D02*
Y721001D01*
X503100Y708872D02*
Y721001D01*
X477973D02*
X503100D01*
X477973Y708872D02*
X503100D01*
X141877Y571499D02*
Y583628D01*
X116750Y571499D02*
Y583628D01*
Y571499D02*
X141877D01*
X116750Y583628D02*
X141877D01*
Y616499D02*
Y628628D01*
X116750Y616499D02*
Y628628D01*
Y616499D02*
X141877D01*
X116750Y628628D02*
X141877D01*
X253623Y508872D02*
Y521001D01*
X278750Y508872D02*
Y521001D01*
X253623D02*
X278750D01*
X253623Y508872D02*
X278750D01*
X112872Y680127D02*
X125001D01*
X112872Y655000D02*
X125001D01*
Y680127D01*
X112872Y655000D02*
Y680127D01*
X430309Y832190D02*
X460500D01*
X430309Y792000D02*
X460500D01*
Y832190D01*
X430309Y792000D02*
Y832190D01*
X368527Y823999D02*
Y836223D01*
X343591Y823999D02*
Y836223D01*
Y823999D02*
X368527D01*
X343591Y836223D02*
X368527D01*
X247627Y808999D02*
Y821223D01*
X222691Y808999D02*
Y821223D01*
Y808999D02*
X247627D01*
X222691Y821223D02*
X247627D01*
X383527Y808999D02*
Y821223D01*
X358591Y808999D02*
Y821223D01*
Y808999D02*
X383527D01*
X358591Y821223D02*
X383527D01*
X247627Y823999D02*
Y836223D01*
X222691Y823999D02*
Y836223D01*
Y823999D02*
X247627D01*
X222691Y836223D02*
X247627D01*
X377873Y752777D02*
Y765001D01*
X402809Y752777D02*
Y765001D01*
X377873D02*
X402809D01*
X377873Y752777D02*
X402809D01*
X477973Y723777D02*
Y736001D01*
X502910Y723777D02*
Y736001D01*
X477973D02*
X502910D01*
X477973Y723777D02*
X502910D01*
X72627Y333999D02*
Y346223D01*
X47691Y333999D02*
Y346223D01*
Y333999D02*
X72627D01*
X47691Y346223D02*
X72627D01*
X116623Y586277D02*
Y598501D01*
X141559Y586277D02*
Y598501D01*
X116623D02*
X141559D01*
X116623Y586277D02*
X141559D01*
X116623Y601277D02*
Y613501D01*
X141559Y601277D02*
Y613501D01*
X116623D02*
X141559D01*
X116623Y601277D02*
X141559D01*
X141877Y556499D02*
Y568723D01*
X116941Y556499D02*
Y568723D01*
Y556499D02*
X141877D01*
X116941Y568723D02*
X141877D01*
X141627Y631499D02*
Y643723D01*
X116691Y631499D02*
Y643723D01*
Y631499D02*
X141627D01*
X116691Y643723D02*
X141627D01*
X24173Y693777D02*
Y706001D01*
X49110Y693777D02*
Y706001D01*
X24173D02*
X49110D01*
X24173Y693777D02*
X49110D01*
X72627Y363999D02*
Y376223D01*
X47691Y363999D02*
Y376223D01*
Y363999D02*
X72627D01*
X47691Y376223D02*
X72627D01*
X47373Y423777D02*
Y436001D01*
X72309Y423777D02*
Y436001D01*
X47373D02*
X72309D01*
X47373Y423777D02*
X72309D01*
X252527Y492627D02*
X264751D01*
X252527Y467691D02*
X264751D01*
Y492627D01*
X252527Y467691D02*
Y492627D01*
X267749Y467373D02*
X279973D01*
X267749Y492309D02*
X279973D01*
X267749Y467373D02*
Y492309D01*
X279973Y467373D02*
Y492309D01*
X-225Y650127D02*
X80775D01*
X-225Y550000D02*
X80775D01*
Y650127D01*
X-225Y550000D02*
Y650127D01*
X504000Y804000D02*
X586000D01*
X504000Y896000D02*
X586000D01*
X504000Y804000D02*
Y896000D01*
X586000Y804000D02*
Y896000D01*
X161000Y617500D02*
X221000D01*
X161000Y587500D02*
X221000D01*
Y617500D01*
X161000Y587500D02*
Y617500D01*
X551000Y720873D02*
X589127D01*
X551000Y765000D02*
X589127D01*
X551000Y720873D02*
Y765000D01*
X589127Y720873D02*
Y765000D01*
X551000Y434873D02*
X589127D01*
X551000Y479000D02*
X589127D01*
X551000Y434873D02*
Y479000D01*
X589127Y434873D02*
Y479000D01*
X51000Y107873D02*
X89127D01*
X51000Y152000D02*
X89127D01*
X51000Y107873D02*
Y152000D01*
X89127Y107873D02*
Y152000D01*
X171000Y107873D02*
X209127D01*
X171000Y152000D02*
X209127D01*
X171000Y107873D02*
Y152000D01*
X209127Y107873D02*
Y152000D01*
X111000Y107873D02*
X149127D01*
X111000Y152000D02*
X149127D01*
X111000Y107873D02*
Y152000D01*
X149127Y107873D02*
Y152000D01*
X111000Y167873D02*
X149127D01*
X111000Y212000D02*
X149127D01*
X111000Y167873D02*
Y212000D01*
X149127Y167873D02*
Y212000D01*
X111000Y47873D02*
X149127D01*
X111000Y92000D02*
X149127D01*
X111000Y47873D02*
Y92000D01*
X149127Y47873D02*
Y92000D01*
X14750Y688250D02*
X68375D01*
X14750Y661750D02*
X68375D01*
Y688250D01*
X14750Y661750D02*
Y688250D01*
D12*
X575998Y430000D02*
X564002D01*
Y424002D01*
X566001Y422003D01*
X568001D01*
X570000Y424002D01*
Y430000D01*
Y424002D01*
X571999Y422003D01*
X573999D01*
X575998Y424002D01*
Y430000D01*
X28665Y358332D02*
X26998Y359998D01*
X23666D01*
X22000Y358332D01*
Y356666D01*
X23666Y355000D01*
X26998D01*
X28665Y353334D01*
Y351668D01*
X26998Y350002D01*
X23666D01*
X22000Y351668D01*
X31997Y359998D02*
X38661D01*
X35329D01*
Y350002D01*
X41994D02*
Y356666D01*
X45326Y359998D01*
X48658Y356666D01*
Y350002D01*
Y355000D01*
X41994D01*
X51990Y359998D02*
X58655D01*
X55323D01*
Y350002D01*
X28665Y388332D02*
X26998Y389998D01*
X23666D01*
X22000Y388332D01*
Y386666D01*
X23666Y385000D01*
X26998D01*
X28665Y383334D01*
Y381668D01*
X26998Y380002D01*
X23666D01*
X22000Y381668D01*
X38661Y388332D02*
X36995Y389998D01*
X33663D01*
X31997Y388332D01*
Y381668D01*
X33663Y380002D01*
X36995D01*
X38661Y381668D01*
X41994Y380002D02*
Y386666D01*
X45326Y389998D01*
X48658Y386666D01*
Y380002D01*
Y385000D01*
X41994D01*
X51990Y380002D02*
Y389998D01*
X58655Y380002D01*
Y389998D01*
X22000Y419998D02*
Y410002D01*
X28665D01*
X36995Y419998D02*
X33663D01*
X31997Y418332D01*
Y411668D01*
X33663Y410002D01*
X36995D01*
X38661Y411668D01*
Y418332D01*
X36995Y419998D01*
X41994D02*
Y410002D01*
X45326Y413334D01*
X48658Y410002D01*
Y419998D01*
X28665Y448332D02*
X26998Y449998D01*
X23666D01*
X22000Y448332D01*
Y441668D01*
X23666Y440002D01*
X26998D01*
X28665Y441668D01*
X31997Y449998D02*
Y440002D01*
Y445000D01*
X38661D01*
Y449998D01*
Y440002D01*
X41994D02*
Y449998D01*
X46992D01*
X48658Y448332D01*
Y445000D01*
X46992Y443334D01*
X41994D01*
X45326D02*
X48658Y440002D01*
X58655Y448332D02*
X56989Y449998D01*
X53657D01*
X51990Y448332D01*
Y441668D01*
X53657Y440002D01*
X56989D01*
X58655Y441668D01*
Y445000D01*
X55323D01*
X22000Y470002D02*
Y479998D01*
X26998D01*
X28665Y478332D01*
Y475000D01*
X26998Y473334D01*
X22000D01*
X38661Y478332D02*
X36995Y479998D01*
X33663D01*
X31997Y478332D01*
Y471668D01*
X33663Y470002D01*
X36995D01*
X38661Y471668D01*
Y475000D01*
X35329D01*
X54002Y727995D02*
X65998D01*
X61999Y723996D01*
X65998Y719997D01*
X54002D01*
X65998Y715999D02*
X56001D01*
X54002Y713999D01*
Y710001D01*
X56001Y708001D01*
X65998D01*
Y704003D02*
X54002Y696005D01*
X65998D02*
X54002Y704003D01*
X564002Y777997D02*
X575998D01*
Y771999D01*
X573999Y770000D01*
X570000D01*
X568001Y771999D01*
Y777997D01*
Y773999D02*
X564002Y770000D01*
X540998Y792002D02*
Y796001D01*
X538999Y798000D01*
X531001D01*
X529002Y796001D01*
Y792002D01*
X531001Y790003D01*
X538999D01*
X540998Y792002D01*
X529002Y786004D02*
X540998D01*
X529002Y778006D01*
X540998D01*
X540998Y927992D02*
Y931990D01*
X538999Y933990D01*
X531001D01*
X529002Y931990D01*
Y927992D01*
X531001Y925992D01*
X538999D01*
X540998Y927992D01*
Y913996D02*
Y921993D01*
X535000D01*
Y917995D01*
Y921993D01*
X529002D01*
X540998Y902000D02*
Y909997D01*
X535000D01*
Y905999D01*
Y909997D01*
X529002D01*
M02*
