G04*
G04 #@! TF.GenerationSoftware,Altium Limited,Altium Designer,22.10.1 (41)*
G04*
G04 Layer_Color=16711935*
%FSLAX44Y44*%
%MOMM*%
G71*
G04*
G04 #@! TF.SameCoordinates,9034F27D-8993-4B38-BF2F-AE75C4F05548*
G04*
G04*
G04 #@! TF.FilePolarity,Negative*
G04*
G01*
G75*
%ADD11C,0.1000*%
G04:AMPARAMS|DCode=30|XSize=0.9032mm|YSize=1.1032mm|CornerRadius=0.1891mm|HoleSize=0mm|Usage=FLASHONLY|Rotation=0.000|XOffset=0mm|YOffset=0mm|HoleType=Round|Shape=RoundedRectangle|*
%AMROUNDEDRECTD30*
21,1,0.9032,0.7250,0,0,0.0*
21,1,0.5250,1.1032,0,0,0.0*
1,1,0.3782,0.2625,-0.3625*
1,1,0.3782,-0.2625,-0.3625*
1,1,0.3782,-0.2625,0.3625*
1,1,0.3782,0.2625,0.3625*
%
%ADD30ROUNDEDRECTD30*%
%ADD47C,3.7032*%
%ADD48C,1.8032*%
%ADD49O,2.0032X1.2032*%
%ADD50O,2.3032X1.2032*%
%ADD51C,0.8532*%
%ADD52C,0.7532*%
%ADD53C,0.7032*%
%ADD54C,0.2500*%
G04:AMPARAMS|DCode=67|XSize=2.2032mm|YSize=4.2032mm|CornerRadius=0.3516mm|HoleSize=0mm|Usage=FLASHONLY|Rotation=0.000|XOffset=0mm|YOffset=0mm|HoleType=Round|Shape=RoundedRectangle|*
%AMROUNDEDRECTD67*
21,1,2.2032,3.5000,0,0,0.0*
21,1,1.5000,4.2032,0,0,0.0*
1,1,0.7032,0.7500,-1.7500*
1,1,0.7032,-0.7500,-1.7500*
1,1,0.7032,-0.7500,1.7500*
1,1,0.7032,0.7500,1.7500*
%
%ADD67ROUNDEDRECTD67*%
D11*
X535000Y521250D02*
G03*
X555000Y501250I20000J0D01*
G01*
X555000Y698750D02*
G03*
X535000Y678750I0J-20000D01*
G01*
X600000Y481250D02*
G03*
X580000Y501250I-20000J0D01*
G01*
X580000Y698750D02*
G03*
X600000Y718750I0J20000D01*
G01*
X600000Y970000D02*
G03*
X570000Y1000000I-30000J0D01*
G01*
Y0D02*
G03*
X600000Y30000I0J30000D01*
G01*
X30000Y1000000D02*
G03*
X0Y970000I0J-30000D01*
G01*
Y30000D02*
G03*
X30000Y0I30000J0D01*
G01*
X535000Y521250D02*
Y678750D01*
X535000D01*
X555000Y501250D02*
X580000D01*
X555000Y698750D02*
X580000D01*
X600000Y30000D02*
Y481250D01*
X600000D01*
X600000Y718750D02*
Y970000D01*
X0Y30000D02*
Y970000D01*
X30000Y0D02*
X570000D01*
X30000Y1000000D02*
X570000D01*
X47373Y513872D02*
X72500D01*
X47373Y526001D02*
X72500D01*
Y513872D02*
Y526001D01*
X47373Y513872D02*
Y526001D01*
X19310Y453809D02*
Y466001D01*
X44500Y453809D02*
Y466001D01*
X19310D02*
X44500D01*
X19310Y453809D02*
X44500D01*
X19310Y423809D02*
Y436001D01*
X44500Y423809D02*
Y436001D01*
X19310D02*
X44500D01*
X19310Y423809D02*
X44500D01*
X19310Y393809D02*
Y406001D01*
X44500Y393809D02*
Y406001D01*
X19310D02*
X44500D01*
X19310Y393809D02*
X44500D01*
X44691Y333999D02*
Y346191D01*
X19500Y333999D02*
Y346191D01*
Y333999D02*
X44691D01*
X19500Y346191D02*
X44691D01*
Y363999D02*
Y376191D01*
X19500Y363999D02*
Y376191D01*
Y363999D02*
X44691D01*
X19500Y376191D02*
X44691D01*
X419310Y698316D02*
X603000D01*
X419310Y501875D02*
X603000D01*
Y698316D01*
X419310Y501875D02*
Y698316D01*
X488128Y804873D02*
Y830000D01*
X475999Y804873D02*
Y830000D01*
X488128D01*
X475999Y804873D02*
X488128D01*
X343400Y806128D02*
X368527D01*
X343400Y793999D02*
X368527D01*
X343400D02*
Y806128D01*
X368527Y793999D02*
Y806128D01*
X343400Y779500D02*
X368400D01*
X343400Y790500D02*
X368400D01*
Y779500D02*
Y790500D01*
X343400Y779500D02*
Y790500D01*
X378191Y750223D02*
X403127D01*
X378191Y737999D02*
X403127D01*
X378191D02*
Y750223D01*
X403127Y737999D02*
Y750223D01*
X237691Y791223D02*
X262627D01*
X237691Y778999D02*
X262627D01*
X237691D02*
Y791223D01*
X262627Y778999D02*
Y791223D01*
X47373Y453777D02*
Y466001D01*
X72309Y453777D02*
Y466001D01*
X47373D02*
X72309D01*
X47373Y453777D02*
X72309D01*
X47373Y393777D02*
Y406001D01*
X72309Y393777D02*
Y406001D01*
X47373D02*
X72309D01*
X47373Y393777D02*
X72309D01*
X327500Y792500D02*
Y847500D01*
X272500Y792500D02*
Y847500D01*
Y792500D02*
X327500D01*
X272500Y847500D02*
X327500D01*
X260000Y900000D02*
Y960000D01*
X340000Y900000D02*
Y960000D01*
X260000Y900000D02*
X340000D01*
X260000Y960000D02*
X340000D01*
X81500Y274500D02*
X518500D01*
X81500Y985500D02*
X518500D01*
X81500Y274500D02*
Y985500D01*
X518500Y274500D02*
Y985500D01*
X47373Y483777D02*
Y496001D01*
X72309Y483777D02*
Y496001D01*
X47373D02*
X72309D01*
X47373Y483777D02*
X72309D01*
X582627Y434872D02*
Y447001D01*
X557500Y434872D02*
Y447001D01*
X582627D01*
X557500Y434872D02*
X582627D01*
Y752872D02*
Y765001D01*
X557500Y752872D02*
Y765001D01*
X582627D01*
X557500Y752872D02*
X582627D01*
X229750Y525095D02*
X302500D01*
X229750Y614095D02*
X302500D01*
X229750Y525095D02*
Y614095D01*
X302500Y525095D02*
Y614095D01*
X189127Y623999D02*
Y636128D01*
X164000Y623999D02*
Y636128D01*
Y623999D02*
X189127D01*
X164000Y636128D02*
X189127D01*
X299000Y464500D02*
Y495500D01*
X321000Y464500D02*
Y495500D01*
X299000D02*
X321000D01*
X299000Y464500D02*
X321000D01*
X97999Y655000D02*
X110000D01*
X97999Y680000D02*
X110000D01*
X97999Y655000D02*
Y680000D01*
X110000Y655000D02*
Y680000D01*
X279873Y778372D02*
Y790501D01*
X305000Y778372D02*
Y790501D01*
X279873D02*
X305000D01*
X279873Y778372D02*
X305000D01*
X262627Y793499D02*
Y805628D01*
X237500Y793499D02*
Y805628D01*
Y793499D02*
X262627D01*
X237500Y805628D02*
X262627D01*
X449873Y772622D02*
Y784751D01*
X475000Y772622D02*
Y784751D01*
X449873D02*
X475000D01*
X449873Y772622D02*
X475000D01*
X82627Y139872D02*
Y152001D01*
X57500Y139872D02*
Y152001D01*
X82627D01*
X57500Y139872D02*
X82627D01*
X202627D02*
Y152001D01*
X177500Y139872D02*
Y152001D01*
X202627D01*
X177500Y139872D02*
X202627D01*
X142627D02*
Y152001D01*
X117500Y139872D02*
Y152001D01*
X142627D01*
X117500Y139872D02*
X142627D01*
Y199872D02*
Y212001D01*
X117500Y199872D02*
Y212001D01*
X142627D01*
X117500Y199872D02*
X142627D01*
Y79872D02*
Y92001D01*
X117500Y79872D02*
Y92001D01*
X142627D01*
X117500Y79872D02*
X142627D01*
X206999Y552643D02*
X219128D01*
X206999Y577770D02*
X219128D01*
X206999Y552643D02*
Y577770D01*
X219128Y552643D02*
Y577770D01*
X191999Y552643D02*
X204128D01*
X191999Y577770D02*
X204128D01*
X191999Y552643D02*
Y577770D01*
X204128Y552643D02*
Y577770D01*
X533927Y723999D02*
Y736128D01*
X508800Y723999D02*
Y736128D01*
Y723999D02*
X533927D01*
X508800Y736128D02*
X533927D01*
Y708999D02*
Y721128D01*
X508800Y708999D02*
Y721128D01*
Y708999D02*
X533927D01*
X508800Y721128D02*
X533927D01*
X477973Y708872D02*
Y721001D01*
X503100Y708872D02*
Y721001D01*
X477973D02*
X503100D01*
X477973Y708872D02*
X503100D01*
X141877Y571499D02*
Y583628D01*
X116750Y571499D02*
Y583628D01*
Y571499D02*
X141877D01*
X116750Y583628D02*
X141877D01*
Y616499D02*
Y628628D01*
X116750Y616499D02*
Y628628D01*
Y616499D02*
X141877D01*
X116750Y628628D02*
X141877D01*
X253623Y508872D02*
Y521001D01*
X278750Y508872D02*
Y521001D01*
X253623D02*
X278750D01*
X253623Y508872D02*
X278750D01*
X112872Y680127D02*
X125001D01*
X112872Y655000D02*
X125001D01*
Y680127D01*
X112872Y655000D02*
Y680127D01*
X430309Y832190D02*
X460500D01*
X430309Y792000D02*
X460500D01*
Y832190D01*
X430309Y792000D02*
Y832190D01*
X368527Y823999D02*
Y836223D01*
X343591Y823999D02*
Y836223D01*
Y823999D02*
X368527D01*
X343591Y836223D02*
X368527D01*
X247627Y808999D02*
Y821223D01*
X222691Y808999D02*
Y821223D01*
Y808999D02*
X247627D01*
X222691Y821223D02*
X247627D01*
X383527Y808999D02*
Y821223D01*
X358591Y808999D02*
Y821223D01*
Y808999D02*
X383527D01*
X358591Y821223D02*
X383527D01*
X247627Y823999D02*
Y836223D01*
X222691Y823999D02*
Y836223D01*
Y823999D02*
X247627D01*
X222691Y836223D02*
X247627D01*
X377873Y752777D02*
Y765001D01*
X402809Y752777D02*
Y765001D01*
X377873D02*
X402809D01*
X377873Y752777D02*
X402809D01*
X477973Y723777D02*
Y736001D01*
X502910Y723777D02*
Y736001D01*
X477973D02*
X502910D01*
X477973Y723777D02*
X502910D01*
X72627Y333999D02*
Y346223D01*
X47691Y333999D02*
Y346223D01*
Y333999D02*
X72627D01*
X47691Y346223D02*
X72627D01*
X116623Y586277D02*
Y598501D01*
X141559Y586277D02*
Y598501D01*
X116623D02*
X141559D01*
X116623Y586277D02*
X141559D01*
X116623Y601277D02*
Y613501D01*
X141559Y601277D02*
Y613501D01*
X116623D02*
X141559D01*
X116623Y601277D02*
X141559D01*
X141877Y556499D02*
Y568723D01*
X116941Y556499D02*
Y568723D01*
Y556499D02*
X141877D01*
X116941Y568723D02*
X141877D01*
X141627Y631499D02*
Y643723D01*
X116691Y631499D02*
Y643723D01*
Y631499D02*
X141627D01*
X116691Y643723D02*
X141627D01*
X24173Y693777D02*
Y706001D01*
X49110Y693777D02*
Y706001D01*
X24173D02*
X49110D01*
X24173Y693777D02*
X49110D01*
X72627Y363999D02*
Y376223D01*
X47691Y363999D02*
Y376223D01*
Y363999D02*
X72627D01*
X47691Y376223D02*
X72627D01*
X47373Y423777D02*
Y436001D01*
X72309Y423777D02*
Y436001D01*
X47373D02*
X72309D01*
X47373Y423777D02*
X72309D01*
X252527Y492627D02*
X264751D01*
X252527Y467691D02*
X264751D01*
Y492627D01*
X252527Y467691D02*
Y492627D01*
X267749Y467373D02*
X279973D01*
X267749Y492309D02*
X279973D01*
X267749Y467373D02*
Y492309D01*
X279973Y467373D02*
Y492309D01*
X-225Y650127D02*
X80775D01*
X-225Y550000D02*
X80775D01*
Y650127D01*
X-225Y550000D02*
Y650127D01*
X504000Y804000D02*
X586000D01*
X504000Y896000D02*
X586000D01*
X504000Y804000D02*
Y896000D01*
X586000Y804000D02*
Y896000D01*
X161000Y617500D02*
X221000D01*
X161000Y587500D02*
X221000D01*
Y617500D01*
X161000Y587500D02*
Y617500D01*
X551000Y720873D02*
X589127D01*
X551000Y765000D02*
X589127D01*
X551000Y720873D02*
Y765000D01*
X589127Y720873D02*
Y765000D01*
X551000Y434873D02*
X589127D01*
X551000Y479000D02*
X589127D01*
X551000Y434873D02*
Y479000D01*
X589127Y434873D02*
Y479000D01*
X51000Y107873D02*
X89127D01*
X51000Y152000D02*
X89127D01*
X51000Y107873D02*
Y152000D01*
X89127Y107873D02*
Y152000D01*
X171000Y107873D02*
X209127D01*
X171000Y152000D02*
X209127D01*
X171000Y107873D02*
Y152000D01*
X209127Y107873D02*
Y152000D01*
X111000Y107873D02*
X149127D01*
X111000Y152000D02*
X149127D01*
X111000Y107873D02*
Y152000D01*
X149127Y107873D02*
Y152000D01*
X111000Y167873D02*
X149127D01*
X111000Y212000D02*
X149127D01*
X111000Y167873D02*
Y212000D01*
X149127Y167873D02*
Y212000D01*
X111000Y47873D02*
X149127D01*
X111000Y92000D02*
X149127D01*
X111000Y47873D02*
Y92000D01*
X149127Y47873D02*
Y92000D01*
X14750Y688250D02*
X68375D01*
X14750Y661750D02*
X68375D01*
Y688250D01*
X14750Y661750D02*
Y688250D01*
D30*
X562500Y441000D02*
D03*
X577500D02*
D03*
X562500Y759000D02*
D03*
X577500D02*
D03*
X62500Y146000D02*
D03*
X77500D02*
D03*
X182500D02*
D03*
X197500D02*
D03*
X122500D02*
D03*
X137500D02*
D03*
X122500Y206000D02*
D03*
X137500D02*
D03*
X122500Y86000D02*
D03*
X137500D02*
D03*
D47*
X30000Y970000D02*
D03*
X570000D02*
D03*
X30000Y30000D02*
D03*
X570000D02*
D03*
X108500Y957500D02*
D03*
X491500D02*
D03*
Y302500D02*
D03*
X108500D02*
D03*
D48*
X261900D02*
D03*
X287300D02*
D03*
X236500D02*
D03*
X388900D02*
D03*
X312700D02*
D03*
X211100D02*
D03*
X363500D02*
D03*
X338100D02*
D03*
X275200Y190000D02*
D03*
X300600D02*
D03*
X326000D02*
D03*
X351400D02*
D03*
X376800D02*
D03*
X402200D02*
D03*
X427600D02*
D03*
X453000D02*
D03*
X478400D02*
D03*
X503800D02*
D03*
X29300Y675000D02*
D03*
X54700D02*
D03*
D49*
X26225Y643200D02*
D03*
Y556800D02*
D03*
D50*
X68025D02*
D03*
Y643200D02*
D03*
D51*
X63025Y628900D02*
D03*
Y571100D02*
D03*
D52*
X467750Y480000D02*
D03*
D53*
X310000Y810000D02*
D03*
X290000D02*
D03*
X310000Y830000D02*
D03*
X290000D02*
D03*
D54*
X69200Y783514D02*
X81196D01*
Y789512D01*
X79196Y791511D01*
X75198D01*
X73198Y789512D01*
Y783514D01*
Y787513D02*
X69200Y791511D01*
Y801508D02*
Y797509D01*
X71199Y795510D01*
X75198D01*
X77197Y797509D01*
Y801508D01*
X75198Y803508D01*
X73198D01*
Y795510D01*
X77197Y807506D02*
X69200Y811505D01*
X77197Y815504D01*
X69200Y819502D02*
X71199D01*
Y821502D01*
X69200D01*
Y819502D01*
Y841495D02*
Y845494D01*
Y843495D01*
X81196D01*
X79196Y841495D01*
X69200Y851492D02*
X71199D01*
Y853491D01*
X69200D01*
Y851492D01*
X79196Y861489D02*
X81196Y863488D01*
Y867487D01*
X79196Y869486D01*
X71199D01*
X69200Y867487D01*
Y863488D01*
X71199Y861489D01*
X79196D01*
X48804Y776516D02*
Y768519D01*
X56802Y776516D01*
X58801D01*
X60800Y774517D01*
Y770518D01*
X58801Y768519D01*
Y780515D02*
X60800Y782514D01*
Y786513D01*
X58801Y788512D01*
X50804D01*
X48804Y786513D01*
Y782514D01*
X50804Y780515D01*
X58801D01*
X48804Y800508D02*
Y792511D01*
X56802Y800508D01*
X58801D01*
X60800Y798509D01*
Y794510D01*
X58801Y792511D01*
X48804Y810505D02*
X60800D01*
X54802Y804507D01*
Y812505D01*
Y816503D02*
Y824501D01*
X58801Y828499D02*
X60800Y830499D01*
Y834498D01*
X58801Y836497D01*
X50804D01*
X48804Y834498D01*
Y830499D01*
X50804Y828499D01*
X58801D01*
X48804Y848493D02*
Y840496D01*
X56802Y848493D01*
X58801D01*
X60800Y846494D01*
Y842495D01*
X58801Y840496D01*
X54802Y852492D02*
Y860489D01*
X48804Y872485D02*
Y864488D01*
X56802Y872485D01*
X58801D01*
X60800Y870486D01*
Y866487D01*
X58801Y864488D01*
X60800Y876484D02*
Y884481D01*
X58801D01*
X50804Y876484D01*
X48804D01*
D67*
X280000Y930000D02*
D03*
X320000D02*
D03*
M02*
