G04*
G04 #@! TF.GenerationSoftware,Altium Limited,Altium Designer,22.10.1 (41)*
G04*
G04 Layer_Color=255*
%FSLAX44Y44*%
%MOMM*%
G71*
G04*
G04 #@! TF.SameCoordinates,9034F27D-8993-4B38-BF2F-AE75C4F05548*
G04*
G04*
G04 #@! TF.FilePolarity,Positive*
G04*
G01*
G75*
%ADD11C,0.1000*%
G04:AMPARAMS|DCode=13|XSize=0.7mm|YSize=0.9mm|CornerRadius=0.0875mm|HoleSize=0mm|Usage=FLASHONLY|Rotation=0.000|XOffset=0mm|YOffset=0mm|HoleType=Round|Shape=RoundedRectangle|*
%AMROUNDEDRECTD13*
21,1,0.7000,0.7250,0,0,0.0*
21,1,0.5250,0.9000,0,0,0.0*
1,1,0.1750,0.2625,-0.3625*
1,1,0.1750,-0.2625,-0.3625*
1,1,0.1750,-0.2625,0.3625*
1,1,0.1750,0.2625,0.3625*
%
%ADD13ROUNDEDRECTD13*%
G04:AMPARAMS|DCode=14|XSize=1.5mm|YSize=0.9mm|CornerRadius=0.1125mm|HoleSize=0mm|Usage=FLASHONLY|Rotation=270.000|XOffset=0mm|YOffset=0mm|HoleType=Round|Shape=RoundedRectangle|*
%AMROUNDEDRECTD14*
21,1,1.5000,0.6750,0,0,270.0*
21,1,1.2750,0.9000,0,0,270.0*
1,1,0.2250,-0.3375,-0.6375*
1,1,0.2250,-0.3375,0.6375*
1,1,0.2250,0.3375,0.6375*
1,1,0.2250,0.3375,-0.6375*
%
%ADD14ROUNDEDRECTD14*%
G04:AMPARAMS|DCode=15|XSize=1.5mm|YSize=0.9mm|CornerRadius=0.1125mm|HoleSize=0mm|Usage=FLASHONLY|Rotation=180.000|XOffset=0mm|YOffset=0mm|HoleType=Round|Shape=RoundedRectangle|*
%AMROUNDEDRECTD15*
21,1,1.5000,0.6750,0,0,180.0*
21,1,1.2750,0.9000,0,0,180.0*
1,1,0.2250,-0.6375,0.3375*
1,1,0.2250,0.6375,0.3375*
1,1,0.2250,0.6375,-0.3375*
1,1,0.2250,-0.6375,-0.3375*
%
%ADD15ROUNDEDRECTD15*%
G04:AMPARAMS|DCode=16|XSize=0.7mm|YSize=0.9mm|CornerRadius=0.0875mm|HoleSize=0mm|Usage=FLASHONLY|Rotation=90.000|XOffset=0mm|YOffset=0mm|HoleType=Round|Shape=RoundedRectangle|*
%AMROUNDEDRECTD16*
21,1,0.7000,0.7250,0,0,90.0*
21,1,0.5250,0.9000,0,0,90.0*
1,1,0.1750,0.3625,0.2625*
1,1,0.1750,0.3625,-0.2625*
1,1,0.1750,-0.3625,-0.2625*
1,1,0.1750,-0.3625,0.2625*
%
%ADD16ROUNDEDRECTD16*%
G04:AMPARAMS|DCode=17|XSize=2.8mm|YSize=2.8mm|CornerRadius=0.35mm|HoleSize=0mm|Usage=FLASHONLY|Rotation=180.000|XOffset=0mm|YOffset=0mm|HoleType=Round|Shape=RoundedRectangle|*
%AMROUNDEDRECTD17*
21,1,2.8000,2.1000,0,0,180.0*
21,1,2.1000,2.8000,0,0,180.0*
1,1,0.7000,-1.0500,1.0500*
1,1,0.7000,1.0500,1.0500*
1,1,0.7000,1.0500,-1.0500*
1,1,0.7000,-1.0500,-1.0500*
%
%ADD17ROUNDEDRECTD17*%
G04:AMPARAMS|DCode=18|XSize=0.9mm|YSize=0.3mm|CornerRadius=0.0375mm|HoleSize=0mm|Usage=FLASHONLY|Rotation=180.000|XOffset=0mm|YOffset=0mm|HoleType=Round|Shape=RoundedRectangle|*
%AMROUNDEDRECTD18*
21,1,0.9000,0.2250,0,0,180.0*
21,1,0.8250,0.3000,0,0,180.0*
1,1,0.0750,-0.4125,0.1125*
1,1,0.0750,0.4125,0.1125*
1,1,0.0750,0.4125,-0.1125*
1,1,0.0750,-0.4125,-0.1125*
%
%ADD18ROUNDEDRECTD18*%
G04:AMPARAMS|DCode=19|XSize=0.9mm|YSize=0.3mm|CornerRadius=0.0375mm|HoleSize=0mm|Usage=FLASHONLY|Rotation=90.000|XOffset=0mm|YOffset=0mm|HoleType=Round|Shape=RoundedRectangle|*
%AMROUNDEDRECTD19*
21,1,0.9000,0.2250,0,0,90.0*
21,1,0.8250,0.3000,0,0,90.0*
1,1,0.0750,0.1125,0.4125*
1,1,0.0750,0.1125,-0.4125*
1,1,0.0750,-0.1125,-0.4125*
1,1,0.0750,-0.1125,0.4125*
%
%ADD19ROUNDEDRECTD19*%
G04:AMPARAMS|DCode=20|XSize=0.4mm|YSize=1.27mm|CornerRadius=0.05mm|HoleSize=0mm|Usage=FLASHONLY|Rotation=270.000|XOffset=0mm|YOffset=0mm|HoleType=Round|Shape=RoundedRectangle|*
%AMROUNDEDRECTD20*
21,1,0.4000,1.1700,0,0,270.0*
21,1,0.3000,1.2700,0,0,270.0*
1,1,0.1000,-0.5850,-0.1500*
1,1,0.1000,-0.5850,0.1500*
1,1,0.1000,0.5850,0.1500*
1,1,0.1000,0.5850,-0.1500*
%
%ADD20ROUNDEDRECTD20*%
G04:AMPARAMS|DCode=21|XSize=0.3mm|YSize=0.8mm|CornerRadius=0.0375mm|HoleSize=0mm|Usage=FLASHONLY|Rotation=0.000|XOffset=0mm|YOffset=0mm|HoleType=Round|Shape=RoundedRectangle|*
%AMROUNDEDRECTD21*
21,1,0.3000,0.7250,0,0,0.0*
21,1,0.2250,0.8000,0,0,0.0*
1,1,0.0750,0.1125,-0.3625*
1,1,0.0750,-0.1125,-0.3625*
1,1,0.0750,-0.1125,0.3625*
1,1,0.0750,0.1125,0.3625*
%
%ADD21ROUNDEDRECTD21*%
G04:AMPARAMS|DCode=22|XSize=1.1mm|YSize=0.6mm|CornerRadius=0.075mm|HoleSize=0mm|Usage=FLASHONLY|Rotation=90.000|XOffset=0mm|YOffset=0mm|HoleType=Round|Shape=RoundedRectangle|*
%AMROUNDEDRECTD22*
21,1,1.1000,0.4500,0,0,90.0*
21,1,0.9500,0.6000,0,0,90.0*
1,1,0.1500,0.2250,0.4750*
1,1,0.1500,0.2250,-0.4750*
1,1,0.1500,-0.2250,-0.4750*
1,1,0.1500,-0.2250,0.4750*
%
%ADD22ROUNDEDRECTD22*%
G04:AMPARAMS|DCode=23|XSize=0.3mm|YSize=0.67mm|CornerRadius=0.0375mm|HoleSize=0mm|Usage=FLASHONLY|Rotation=0.000|XOffset=0mm|YOffset=0mm|HoleType=Round|Shape=RoundedRectangle|*
%AMROUNDEDRECTD23*
21,1,0.3000,0.5950,0,0,0.0*
21,1,0.2250,0.6700,0,0,0.0*
1,1,0.0750,0.1125,-0.2975*
1,1,0.0750,-0.1125,-0.2975*
1,1,0.0750,-0.1125,0.2975*
1,1,0.0750,0.1125,0.2975*
%
%ADD23ROUNDEDRECTD23*%
G04:AMPARAMS|DCode=24|XSize=0.6mm|YSize=1.15mm|CornerRadius=0.075mm|HoleSize=0mm|Usage=FLASHONLY|Rotation=270.000|XOffset=0mm|YOffset=0mm|HoleType=Round|Shape=RoundedRectangle|*
%AMROUNDEDRECTD24*
21,1,0.6000,1.0000,0,0,270.0*
21,1,0.4500,1.1500,0,0,270.0*
1,1,0.1500,-0.5000,-0.2250*
1,1,0.1500,-0.5000,0.2250*
1,1,0.1500,0.5000,0.2250*
1,1,0.1500,0.5000,-0.2250*
%
%ADD24ROUNDEDRECTD24*%
G04:AMPARAMS|DCode=25|XSize=0.3mm|YSize=1.15mm|CornerRadius=0.0375mm|HoleSize=0mm|Usage=FLASHONLY|Rotation=270.000|XOffset=0mm|YOffset=0mm|HoleType=Round|Shape=RoundedRectangle|*
%AMROUNDEDRECTD25*
21,1,0.3000,1.0750,0,0,270.0*
21,1,0.2250,1.1500,0,0,270.0*
1,1,0.0750,-0.5375,-0.1125*
1,1,0.0750,-0.5375,0.1125*
1,1,0.0750,0.5375,0.1125*
1,1,0.0750,0.5375,-0.1125*
%
%ADD25ROUNDEDRECTD25*%
G04:AMPARAMS|DCode=26|XSize=1.2mm|YSize=2.5mm|CornerRadius=0.15mm|HoleSize=0mm|Usage=FLASHONLY|Rotation=270.000|XOffset=0mm|YOffset=0mm|HoleType=Round|Shape=RoundedRectangle|*
%AMROUNDEDRECTD26*
21,1,1.2000,2.2000,0,0,270.0*
21,1,0.9000,2.5000,0,0,270.0*
1,1,0.3000,-1.1000,-0.4500*
1,1,0.3000,-1.1000,0.4500*
1,1,0.3000,1.1000,0.4500*
1,1,0.3000,1.1000,-0.4500*
%
%ADD26ROUNDEDRECTD26*%
G04:AMPARAMS|DCode=27|XSize=1.2mm|YSize=2.5001mm|CornerRadius=0.15mm|HoleSize=0mm|Usage=FLASHONLY|Rotation=270.000|XOffset=0mm|YOffset=0mm|HoleType=Round|Shape=RoundedRectangle|*
%AMROUNDEDRECTD27*
21,1,1.2000,2.2001,0,0,270.0*
21,1,0.9000,2.5001,0,0,270.0*
1,1,0.3000,-1.1001,-0.4500*
1,1,0.3000,-1.1001,0.4500*
1,1,0.3000,1.1001,0.4500*
1,1,0.3000,1.1001,-0.4500*
%
%ADD27ROUNDEDRECTD27*%
G04:AMPARAMS|DCode=28|XSize=0.3mm|YSize=1.4mm|CornerRadius=0.0375mm|HoleSize=0mm|Usage=FLASHONLY|Rotation=270.000|XOffset=0mm|YOffset=0mm|HoleType=Round|Shape=RoundedRectangle|*
%AMROUNDEDRECTD28*
21,1,0.3000,1.3250,0,0,270.0*
21,1,0.2250,1.4000,0,0,270.0*
1,1,0.0750,-0.6625,-0.1125*
1,1,0.0750,-0.6625,0.1125*
1,1,0.0750,0.6625,0.1125*
1,1,0.0750,0.6625,-0.1125*
%
%ADD28ROUNDEDRECTD28*%
G04:AMPARAMS|DCode=29|XSize=1mm|YSize=0.9mm|CornerRadius=0.1125mm|HoleSize=0mm|Usage=FLASHONLY|Rotation=90.000|XOffset=0mm|YOffset=0mm|HoleType=Round|Shape=RoundedRectangle|*
%AMROUNDEDRECTD29*
21,1,1.0000,0.6750,0,0,90.0*
21,1,0.7750,0.9000,0,0,90.0*
1,1,0.2250,0.3375,0.3875*
1,1,0.2250,0.3375,-0.3875*
1,1,0.2250,-0.3375,-0.3875*
1,1,0.2250,-0.3375,0.3875*
%
%ADD29ROUNDEDRECTD29*%
%ADD59C,3.5000*%
%ADD60C,1.6000*%
%ADD61O,1.8000X1.0000*%
%ADD62O,2.1000X1.0000*%
%ADD63C,0.6500*%
D11*
X535000Y521250D02*
G03*
X555000Y501250I20000J0D01*
G01*
X555000Y698750D02*
G03*
X535000Y678750I0J-20000D01*
G01*
X600000Y481250D02*
G03*
X580000Y501250I-20000J0D01*
G01*
X580000Y698750D02*
G03*
X600000Y718750I0J20000D01*
G01*
X600000Y970000D02*
G03*
X570000Y1000000I-30000J0D01*
G01*
Y0D02*
G03*
X600000Y30000I0J30000D01*
G01*
X30000Y1000000D02*
G03*
X0Y970000I0J-30000D01*
G01*
Y30000D02*
G03*
X30000Y0I30000J0D01*
G01*
X535000Y521250D02*
Y678750D01*
X535000D01*
X555000Y501250D02*
X580000D01*
X555000Y698750D02*
X580000D01*
X600000Y30000D02*
Y481250D01*
X600000D01*
X600000Y718750D02*
Y970000D01*
X0Y30000D02*
Y970000D01*
X30000Y0D02*
X570000D01*
X30000Y1000000D02*
X570000D01*
X47373Y513872D02*
X72500D01*
X47373Y526001D02*
X72500D01*
Y513872D02*
Y526001D01*
X47373Y513872D02*
Y526001D01*
X19310Y453809D02*
Y466001D01*
X44500Y453809D02*
Y466001D01*
X19310D02*
X44500D01*
X19310Y453809D02*
X44500D01*
X19310Y423809D02*
Y436001D01*
X44500Y423809D02*
Y436001D01*
X19310D02*
X44500D01*
X19310Y423809D02*
X44500D01*
X19310Y393809D02*
Y406001D01*
X44500Y393809D02*
Y406001D01*
X19310D02*
X44500D01*
X19310Y393809D02*
X44500D01*
X44691Y333999D02*
Y346191D01*
X19500Y333999D02*
Y346191D01*
Y333999D02*
X44691D01*
X19500Y346191D02*
X44691D01*
Y363999D02*
Y376191D01*
X19500Y363999D02*
Y376191D01*
Y363999D02*
X44691D01*
X19500Y376191D02*
X44691D01*
X419310Y698316D02*
X603000D01*
X419310Y501875D02*
X603000D01*
Y698316D01*
X419310Y501875D02*
Y698316D01*
X488128Y804873D02*
Y830000D01*
X475999Y804873D02*
Y830000D01*
X488128D01*
X475999Y804873D02*
X488128D01*
X343400Y806128D02*
X368527D01*
X343400Y793999D02*
X368527D01*
X343400D02*
Y806128D01*
X368527Y793999D02*
Y806128D01*
X343400Y779500D02*
X368400D01*
X343400Y790500D02*
X368400D01*
Y779500D02*
Y790500D01*
X343400Y779500D02*
Y790500D01*
X378191Y750223D02*
X403127D01*
X378191Y737999D02*
X403127D01*
X378191D02*
Y750223D01*
X403127Y737999D02*
Y750223D01*
X237691Y791223D02*
X262627D01*
X237691Y778999D02*
X262627D01*
X237691D02*
Y791223D01*
X262627Y778999D02*
Y791223D01*
X47373Y453777D02*
Y466001D01*
X72309Y453777D02*
Y466001D01*
X47373D02*
X72309D01*
X47373Y453777D02*
X72309D01*
X47373Y393777D02*
Y406001D01*
X72309Y393777D02*
Y406001D01*
X47373D02*
X72309D01*
X47373Y393777D02*
X72309D01*
X327500Y792500D02*
Y847500D01*
X272500Y792500D02*
Y847500D01*
Y792500D02*
X327500D01*
X272500Y847500D02*
X327500D01*
X260000Y900000D02*
Y960000D01*
X340000Y900000D02*
Y960000D01*
X260000Y900000D02*
X340000D01*
X260000Y960000D02*
X340000D01*
X81500Y274500D02*
X518500D01*
X81500Y985500D02*
X518500D01*
X81500Y274500D02*
Y985500D01*
X518500Y274500D02*
Y985500D01*
X47373Y483777D02*
Y496001D01*
X72309Y483777D02*
Y496001D01*
X47373D02*
X72309D01*
X47373Y483777D02*
X72309D01*
X582627Y434872D02*
Y447001D01*
X557500Y434872D02*
Y447001D01*
X582627D01*
X557500Y434872D02*
X582627D01*
Y752872D02*
Y765001D01*
X557500Y752872D02*
Y765001D01*
X582627D01*
X557500Y752872D02*
X582627D01*
X229750Y525095D02*
X302500D01*
X229750Y614095D02*
X302500D01*
X229750Y525095D02*
Y614095D01*
X302500Y525095D02*
Y614095D01*
X189127Y623999D02*
Y636128D01*
X164000Y623999D02*
Y636128D01*
Y623999D02*
X189127D01*
X164000Y636128D02*
X189127D01*
X299000Y464500D02*
Y495500D01*
X321000Y464500D02*
Y495500D01*
X299000D02*
X321000D01*
X299000Y464500D02*
X321000D01*
X97999Y655000D02*
X110000D01*
X97999Y680000D02*
X110000D01*
X97999Y655000D02*
Y680000D01*
X110000Y655000D02*
Y680000D01*
X279873Y778372D02*
Y790501D01*
X305000Y778372D02*
Y790501D01*
X279873D02*
X305000D01*
X279873Y778372D02*
X305000D01*
X262627Y793499D02*
Y805628D01*
X237500Y793499D02*
Y805628D01*
Y793499D02*
X262627D01*
X237500Y805628D02*
X262627D01*
X449873Y772622D02*
Y784751D01*
X475000Y772622D02*
Y784751D01*
X449873D02*
X475000D01*
X449873Y772622D02*
X475000D01*
X82627Y139872D02*
Y152001D01*
X57500Y139872D02*
Y152001D01*
X82627D01*
X57500Y139872D02*
X82627D01*
X202627D02*
Y152001D01*
X177500Y139872D02*
Y152001D01*
X202627D01*
X177500Y139872D02*
X202627D01*
X142627D02*
Y152001D01*
X117500Y139872D02*
Y152001D01*
X142627D01*
X117500Y139872D02*
X142627D01*
Y199872D02*
Y212001D01*
X117500Y199872D02*
Y212001D01*
X142627D01*
X117500Y199872D02*
X142627D01*
Y79872D02*
Y92001D01*
X117500Y79872D02*
Y92001D01*
X142627D01*
X117500Y79872D02*
X142627D01*
X206999Y552643D02*
X219128D01*
X206999Y577770D02*
X219128D01*
X206999Y552643D02*
Y577770D01*
X219128Y552643D02*
Y577770D01*
X191999Y552643D02*
X204128D01*
X191999Y577770D02*
X204128D01*
X191999Y552643D02*
Y577770D01*
X204128Y552643D02*
Y577770D01*
X533927Y723999D02*
Y736128D01*
X508800Y723999D02*
Y736128D01*
Y723999D02*
X533927D01*
X508800Y736128D02*
X533927D01*
Y708999D02*
Y721128D01*
X508800Y708999D02*
Y721128D01*
Y708999D02*
X533927D01*
X508800Y721128D02*
X533927D01*
X477973Y708872D02*
Y721001D01*
X503100Y708872D02*
Y721001D01*
X477973D02*
X503100D01*
X477973Y708872D02*
X503100D01*
X141877Y571499D02*
Y583628D01*
X116750Y571499D02*
Y583628D01*
Y571499D02*
X141877D01*
X116750Y583628D02*
X141877D01*
Y616499D02*
Y628628D01*
X116750Y616499D02*
Y628628D01*
Y616499D02*
X141877D01*
X116750Y628628D02*
X141877D01*
X253623Y508872D02*
Y521001D01*
X278750Y508872D02*
Y521001D01*
X253623D02*
X278750D01*
X253623Y508872D02*
X278750D01*
X112872Y680127D02*
X125001D01*
X112872Y655000D02*
X125001D01*
Y680127D01*
X112872Y655000D02*
Y680127D01*
X430309Y832190D02*
X460500D01*
X430309Y792000D02*
X460500D01*
Y832190D01*
X430309Y792000D02*
Y832190D01*
X368527Y823999D02*
Y836223D01*
X343591Y823999D02*
Y836223D01*
Y823999D02*
X368527D01*
X343591Y836223D02*
X368527D01*
X247627Y808999D02*
Y821223D01*
X222691Y808999D02*
Y821223D01*
Y808999D02*
X247627D01*
X222691Y821223D02*
X247627D01*
X383527Y808999D02*
Y821223D01*
X358591Y808999D02*
Y821223D01*
Y808999D02*
X383527D01*
X358591Y821223D02*
X383527D01*
X247627Y823999D02*
Y836223D01*
X222691Y823999D02*
Y836223D01*
Y823999D02*
X247627D01*
X222691Y836223D02*
X247627D01*
X377873Y752777D02*
Y765001D01*
X402809Y752777D02*
Y765001D01*
X377873D02*
X402809D01*
X377873Y752777D02*
X402809D01*
X477973Y723777D02*
Y736001D01*
X502910Y723777D02*
Y736001D01*
X477973D02*
X502910D01*
X477973Y723777D02*
X502910D01*
X72627Y333999D02*
Y346223D01*
X47691Y333999D02*
Y346223D01*
Y333999D02*
X72627D01*
X47691Y346223D02*
X72627D01*
X116623Y586277D02*
Y598501D01*
X141559Y586277D02*
Y598501D01*
X116623D02*
X141559D01*
X116623Y586277D02*
X141559D01*
X116623Y601277D02*
Y613501D01*
X141559Y601277D02*
Y613501D01*
X116623D02*
X141559D01*
X116623Y601277D02*
X141559D01*
X141877Y556499D02*
Y568723D01*
X116941Y556499D02*
Y568723D01*
Y556499D02*
X141877D01*
X116941Y568723D02*
X141877D01*
X141627Y631499D02*
Y643723D01*
X116691Y631499D02*
Y643723D01*
Y631499D02*
X141627D01*
X116691Y643723D02*
X141627D01*
X24173Y693777D02*
Y706001D01*
X49110Y693777D02*
Y706001D01*
X24173D02*
X49110D01*
X24173Y693777D02*
X49110D01*
X72627Y363999D02*
Y376223D01*
X47691Y363999D02*
Y376223D01*
Y363999D02*
X72627D01*
X47691Y376223D02*
X72627D01*
X47373Y423777D02*
Y436001D01*
X72309Y423777D02*
Y436001D01*
X47373D02*
X72309D01*
X47373Y423777D02*
X72309D01*
X252527Y492627D02*
X264751D01*
X252527Y467691D02*
X264751D01*
Y492627D01*
X252527Y467691D02*
Y492627D01*
X267749Y467373D02*
X279973D01*
X267749Y492309D02*
X279973D01*
X267749Y467373D02*
Y492309D01*
X279973Y467373D02*
Y492309D01*
X-225Y650127D02*
X80775D01*
X-225Y550000D02*
X80775D01*
Y650127D01*
X-225Y550000D02*
Y650127D01*
X504000Y804000D02*
X586000D01*
X504000Y896000D02*
X586000D01*
X504000Y804000D02*
Y896000D01*
X586000Y804000D02*
Y896000D01*
X161000Y617500D02*
X221000D01*
X161000Y587500D02*
X221000D01*
Y617500D01*
X161000Y587500D02*
Y617500D01*
X551000Y720873D02*
X589127D01*
X551000Y765000D02*
X589127D01*
X551000Y720873D02*
Y765000D01*
X589127Y720873D02*
Y765000D01*
X551000Y434873D02*
X589127D01*
X551000Y479000D02*
X589127D01*
X551000Y434873D02*
Y479000D01*
X589127Y434873D02*
Y479000D01*
X51000Y107873D02*
X89127D01*
X51000Y152000D02*
X89127D01*
X51000Y107873D02*
Y152000D01*
X89127Y107873D02*
Y152000D01*
X171000Y107873D02*
X209127D01*
X171000Y152000D02*
X209127D01*
X171000Y107873D02*
Y152000D01*
X209127Y107873D02*
Y152000D01*
X111000Y107873D02*
X149127D01*
X111000Y152000D02*
X149127D01*
X111000Y107873D02*
Y152000D01*
X149127Y107873D02*
Y152000D01*
X111000Y167873D02*
X149127D01*
X111000Y212000D02*
X149127D01*
X111000Y167873D02*
Y212000D01*
X149127Y167873D02*
Y212000D01*
X111000Y47873D02*
X149127D01*
X111000Y92000D02*
X149127D01*
X111000Y47873D02*
Y92000D01*
X149127Y47873D02*
Y92000D01*
X14750Y688250D02*
X68375D01*
X14750Y661750D02*
X68375D01*
Y688250D01*
X14750Y661750D02*
Y688250D01*
D13*
X52500Y520000D02*
D03*
X67500D02*
D03*
X39500Y460000D02*
D03*
X24500D02*
D03*
Y430000D02*
D03*
X39500D02*
D03*
Y400000D02*
D03*
X24500D02*
D03*
X39500Y340000D02*
D03*
X24500D02*
D03*
Y370000D02*
D03*
X39500D02*
D03*
X363400Y800000D02*
D03*
X348400D02*
D03*
X363400Y785000D02*
D03*
X348400D02*
D03*
X383000Y744000D02*
D03*
X398000D02*
D03*
X242500Y785000D02*
D03*
X257500D02*
D03*
X52500Y460000D02*
D03*
X67500D02*
D03*
X52500Y400000D02*
D03*
X67500D02*
D03*
X52500Y490000D02*
D03*
X67500D02*
D03*
X169000Y630000D02*
D03*
X184000D02*
D03*
X300000Y784500D02*
D03*
X285000D02*
D03*
X242500Y799500D02*
D03*
X257500D02*
D03*
X470000Y778750D02*
D03*
X455000D02*
D03*
X513800Y730000D02*
D03*
X528800D02*
D03*
X513800Y715000D02*
D03*
X528800D02*
D03*
X498100D02*
D03*
X483100D02*
D03*
X121750Y577500D02*
D03*
X136750D02*
D03*
X121750Y622500D02*
D03*
X136750D02*
D03*
X273750Y515000D02*
D03*
X258750D02*
D03*
X363400Y830000D02*
D03*
X348400D02*
D03*
X242500Y815000D02*
D03*
X227500D02*
D03*
X378400D02*
D03*
X363400D02*
D03*
X242500Y830000D02*
D03*
X227500D02*
D03*
X383000Y759000D02*
D03*
X398000D02*
D03*
X483100Y730000D02*
D03*
X498100D02*
D03*
X67500Y340000D02*
D03*
X52500D02*
D03*
X121750Y592500D02*
D03*
X136750D02*
D03*
X121750Y607500D02*
D03*
X136750D02*
D03*
Y562500D02*
D03*
X121750D02*
D03*
X136500Y637500D02*
D03*
X121500D02*
D03*
X29300Y700000D02*
D03*
X44300D02*
D03*
X67500Y370000D02*
D03*
X52500D02*
D03*
Y430000D02*
D03*
X67500D02*
D03*
D14*
X525000Y687500D02*
D03*
X512300D02*
D03*
X499600D02*
D03*
X486900D02*
D03*
X474200D02*
D03*
X461500D02*
D03*
X448800D02*
D03*
X436100D02*
D03*
X423400D02*
D03*
X410700D02*
D03*
X398000D02*
D03*
X385300D02*
D03*
X372600D02*
D03*
X359900D02*
D03*
Y512500D02*
D03*
X372600D02*
D03*
X385300D02*
D03*
X398000D02*
D03*
X410700D02*
D03*
X423400D02*
D03*
X436100D02*
D03*
X448800D02*
D03*
X461500D02*
D03*
X474200D02*
D03*
X486900D02*
D03*
X499600D02*
D03*
X512300D02*
D03*
X525000D02*
D03*
D15*
X347430Y669850D02*
D03*
Y657150D02*
D03*
Y644450D02*
D03*
Y631750D02*
D03*
Y619050D02*
D03*
Y606350D02*
D03*
Y593650D02*
D03*
Y580950D02*
D03*
Y568250D02*
D03*
Y555550D02*
D03*
Y542850D02*
D03*
Y530150D02*
D03*
D16*
X482000Y810000D02*
D03*
Y825000D02*
D03*
X104000Y660000D02*
D03*
Y675000D02*
D03*
X213000Y572770D02*
D03*
Y557770D02*
D03*
X198000Y572770D02*
D03*
Y557770D02*
D03*
X119000Y660000D02*
D03*
Y675000D02*
D03*
X258750Y487500D02*
D03*
Y472500D02*
D03*
X273750D02*
D03*
Y487500D02*
D03*
D17*
X300000Y820000D02*
D03*
D18*
X279500D02*
D03*
Y815000D02*
D03*
Y825000D02*
D03*
Y830000D02*
D03*
Y810000D02*
D03*
X320500Y820000D02*
D03*
Y825000D02*
D03*
Y815000D02*
D03*
Y810000D02*
D03*
Y830000D02*
D03*
D19*
X300000Y840500D02*
D03*
X295000D02*
D03*
X305000D02*
D03*
X310000D02*
D03*
X290000D02*
D03*
X300000Y799500D02*
D03*
X305000D02*
D03*
X295000D02*
D03*
X290000D02*
D03*
X310000D02*
D03*
D20*
X294952Y598170D02*
D03*
Y591820D02*
D03*
Y585470D02*
D03*
Y579120D02*
D03*
Y572770D02*
D03*
X237548D02*
D03*
Y579120D02*
D03*
Y585470D02*
D03*
Y591820D02*
D03*
Y598170D02*
D03*
X294952Y541020D02*
D03*
Y547370D02*
D03*
Y553720D02*
D03*
Y560070D02*
D03*
Y566420D02*
D03*
X237548D02*
D03*
Y560070D02*
D03*
Y553720D02*
D03*
Y547370D02*
D03*
Y541020D02*
D03*
D21*
X303500Y490000D02*
D03*
X310000D02*
D03*
X316500D02*
D03*
X303500Y470000D02*
D03*
X310000D02*
D03*
X316500D02*
D03*
D22*
X455000Y799000D02*
D03*
X436000D02*
D03*
Y825000D02*
D03*
X455000D02*
D03*
X445500D02*
D03*
D23*
X245500Y770500D02*
D03*
X250500D02*
D03*
X255500D02*
D03*
X250500Y757800D02*
D03*
X255500D02*
D03*
X245500D02*
D03*
D24*
X73775Y568000D02*
D03*
Y624000D02*
D03*
Y576000D02*
D03*
Y632000D02*
D03*
D25*
Y587500D02*
D03*
Y592500D02*
D03*
Y597500D02*
D03*
Y602500D02*
D03*
Y607500D02*
D03*
Y612500D02*
D03*
Y617500D02*
D03*
Y582500D02*
D03*
D26*
X572500Y850000D02*
D03*
Y825000D02*
D03*
Y875000D02*
D03*
D27*
X517500Y825000D02*
D03*
Y875000D02*
D03*
Y850000D02*
D03*
D28*
X213000Y592500D02*
D03*
Y597500D02*
D03*
Y602500D02*
D03*
Y607500D02*
D03*
Y612500D02*
D03*
X169000Y592500D02*
D03*
Y597500D02*
D03*
Y602500D02*
D03*
Y607500D02*
D03*
Y612500D02*
D03*
D29*
X562500Y727000D02*
D03*
X577500D02*
D03*
X562500Y759000D02*
D03*
X577500D02*
D03*
X562500Y441000D02*
D03*
X577500D02*
D03*
X562500Y473000D02*
D03*
X577500D02*
D03*
X62500Y114000D02*
D03*
X77500D02*
D03*
X62500Y146000D02*
D03*
X77500D02*
D03*
X182500Y114000D02*
D03*
X197500D02*
D03*
X182500Y146000D02*
D03*
X197500D02*
D03*
X122500Y114000D02*
D03*
X137500D02*
D03*
X122500Y146000D02*
D03*
X137500D02*
D03*
X122500Y174000D02*
D03*
X137500D02*
D03*
X122500Y206000D02*
D03*
X137500D02*
D03*
X122500Y54000D02*
D03*
X137500D02*
D03*
X122500Y86000D02*
D03*
X137500D02*
D03*
D59*
X30000Y970000D02*
D03*
X570000D02*
D03*
X30000Y30000D02*
D03*
X570000D02*
D03*
X108500Y957500D02*
D03*
X491500D02*
D03*
Y302500D02*
D03*
X108500D02*
D03*
D60*
X261900D02*
D03*
X287300D02*
D03*
X236500D02*
D03*
X388900D02*
D03*
X312700D02*
D03*
X211100D02*
D03*
X363500D02*
D03*
X338100D02*
D03*
X275200Y190000D02*
D03*
X300600D02*
D03*
X326000D02*
D03*
X351400D02*
D03*
X376800D02*
D03*
X402200D02*
D03*
X427600D02*
D03*
X453000D02*
D03*
X478400D02*
D03*
X503800D02*
D03*
X29300Y675000D02*
D03*
X54700D02*
D03*
D61*
X26225Y643200D02*
D03*
Y556800D02*
D03*
D62*
X68025D02*
D03*
Y643200D02*
D03*
D63*
X63025Y628900D02*
D03*
Y571100D02*
D03*
M02*
